<svg xmlns="http://www.w3.org/2000/svg" width="715" height="402" viewBox="0 0 715 402">
  <g id="Grupo_879863" data-name="Grupo 879863" transform="translate(-729 2438)">
    <path id="Trazado_603897" data-name="Trazado 603897" d="M17,0H698a17,17,0,0,1,17,17V385a17,17,0,0,1-17,17H17A17,17,0,0,1,0,385V17A17,17,0,0,1,17,0Z" transform="translate(729 -2438)" fill="#fff"/>
    <path id="Trazado_603898" data-name="Trazado 603898" d="M19,0H696a19,19,0,0,1,19,19V383a19,19,0,0,1-19,19H19A19,19,0,0,1,0,383V19A19,19,0,0,1,19,0Z" transform="translate(729 -2438)" fill="#f8f8f8"/>
    <path id="Trazado_603899" data-name="Trazado 603899" d="M0,0V188.937" transform="translate(1206.298 -2393.5)" fill="none" stroke="#f1cc69" stroke-width="2"/>
    <path id="Trazado_603900" data-name="Trazado 603900" d="M0,0V188.937" transform="translate(963.74 -2300.445)" fill="none" stroke="#f1cc69" stroke-width="2"/>
    <path id="Trazado_603901" data-name="Trazado 603901" d="M0,0V60.563" transform="translate(1206.298 -2141.063)" fill="none" stroke="#f1cc69" stroke-width="2"/>
    <path id="Trazado_603902" data-name="Trazado 603902" d="M51.991,0H0" transform="translate(1206.298 -2393.5)" fill="none" stroke="#f1cc69" stroke-width="2"/>
    <path id="Trazado_603903" data-name="Trazado 603903" d="M51.991,0H0" transform="translate(1206.298 -2204.96)" fill="none" stroke="#f1cc69" stroke-width="2"/>
    <path id="Trazado_603904" data-name="Trazado 603904" d="M51.991,0H0" transform="translate(1206.298 -2141.063)" fill="none" stroke="#f1cc69" stroke-width="2"/>
    <path id="Trazado_603905" data-name="Trazado 603905" d="M51.991,0H0" transform="translate(1206.298 -2080.27)" fill="none" stroke="#f1cc69" stroke-width="2"/>
    <path id="Trazado_603906" data-name="Trazado 603906" d="M51.991,0H0" transform="translate(1206.298 -2268.857)" fill="none" stroke="#f1cc69" stroke-width="2"/>
    <path id="Trazado_603907" data-name="Trazado 603907" d="M49.2,0H0" transform="translate(1156.269 -2300)" fill="none" stroke="#f1cc69" stroke-width="2"/>
    <path id="Trazado_603908" data-name="Trazado 603908" d="M49.2,0H0" transform="translate(914.54 -2200.167)" fill="none" stroke="#f1cc69" stroke-width="2"/>
    <path id="Trazado_603909" data-name="Trazado 603909" d="M49.2,0H0" transform="translate(963.74 -2300)" fill="none" stroke="#f1cc69" stroke-width="2"/>
    <path id="Trazado_603910" data-name="Trazado 603910" d="M49.2,0H0" transform="translate(1156.269 -2110.781)" fill="none" stroke="#f1cc69" stroke-width="2"/>
    <path id="Trazado_603911" data-name="Trazado 603911" d="M49.2,0H0" transform="translate(963.74 -2110.781)" fill="none" stroke="#f1cc69" stroke-width="2"/>
    <path id="Trazado_603912" data-name="Trazado 603912" d="M51.991,0H0" transform="translate(1206.298 -2329.65)" fill="none" stroke="#f1cc69" stroke-width="2"/>
    <g id="Trazado_603913" data-name="Trazado 603913" transform="translate(1258.29 -2353.753)" fill="#fff9e6">
      <path d="M 136.4617614746094 45.37983703613281 L 8.000000953674316 45.37983703613281 C 4.140180587768555 45.37983703613281 1.000000715255737 42.23965835571289 1.000000715255737 38.37983703613281 L 1.000000715255737 7.999996662139893 C 1.000000715255737 4.140176773071289 4.140180587768555 0.9999966025352478 8.000000953674316 0.9999966025352478 L 136.4617614746094 0.9999966025352478 C 140.3215789794922 0.9999966025352478 143.4617614746094 4.140176773071289 143.4617614746094 7.999996662139893 L 143.4617614746094 38.37983703613281 C 143.4617614746094 42.23965835571289 140.3215789794922 45.37983703613281 136.4617614746094 45.37983703613281 Z" stroke="none"/>
      <path d="M 8 1.999996185302734 C 4.691574096679688 1.999996185302734 2 4.691577911376953 2 7.999996185302734 L 2 38.37983703613281 C 2 41.68825531005859 4.691574096679688 44.37983703613281 8 44.37983703613281 L 136.4617614746094 44.37983703613281 C 139.7701873779297 44.37983703613281 142.4617614746094 41.68825531005859 142.4617614746094 38.37983703613281 L 142.4617614746094 7.999996185302734 C 142.4617614746094 4.691577911376953 139.7701873779297 1.999996185302734 136.4617614746094 1.999996185302734 L 8 1.999996185302734 M 8 -3.814697265625e-06 L 136.4617614746094 -3.814697265625e-06 C 140.8800354003906 -3.814697265625e-06 144.4617614746094 3.581718444824219 144.4617614746094 7.999996185302734 L 144.4617614746094 38.37983703613281 C 144.4617614746094 42.79811859130859 140.8800354003906 46.37983703613281 136.4617614746094 46.37983703613281 L 8 46.37983703613281 C 3.58172607421875 46.37983703613281 0 42.79811859130859 0 38.37983703613281 L 0 7.999996185302734 C 0 3.581718444824219 3.58172607421875 -3.814697265625e-06 8 -3.814697265625e-06 Z" stroke="none" fill="#f1cc69"/>
    </g>
    <g id="Trazado_603914" data-name="Trazado 603914" transform="translate(1258.29 -2416.753)" fill="#fff9e6">
      <path d="M 136.4617614746094 45.37983703613281 L 8.000000953674316 45.37983703613281 C 4.140180587768555 45.37983703613281 1.000000715255737 42.23965835571289 1.000000715255737 38.37983703613281 L 1.000000715255737 7.999996662139893 C 1.000000715255737 4.140176773071289 4.140180587768555 0.9999966025352478 8.000000953674316 0.9999966025352478 L 136.4617614746094 0.9999966025352478 C 140.3215789794922 0.9999966025352478 143.4617614746094 4.140176773071289 143.4617614746094 7.999996662139893 L 143.4617614746094 38.37983703613281 C 143.4617614746094 42.23965835571289 140.3215789794922 45.37983703613281 136.4617614746094 45.37983703613281 Z" stroke="none"/>
      <path d="M 8 1.999996185302734 C 4.691574096679688 1.999996185302734 2 4.691577911376953 2 7.999996185302734 L 2 38.37983703613281 C 2 41.68825531005859 4.691574096679688 44.37983703613281 8 44.37983703613281 L 136.4617614746094 44.37983703613281 C 139.7701873779297 44.37983703613281 142.4617614746094 41.68825531005859 142.4617614746094 38.37983703613281 L 142.4617614746094 7.999996185302734 C 142.4617614746094 4.691577911376953 139.7701873779297 1.999996185302734 136.4617614746094 1.999996185302734 L 8 1.999996185302734 M 8 -3.814697265625e-06 L 136.4617614746094 -3.814697265625e-06 C 140.8800354003906 -3.814697265625e-06 144.4617614746094 3.581718444824219 144.4617614746094 7.999996185302734 L 144.4617614746094 38.37983703613281 C 144.4617614746094 42.79811859130859 140.8800354003906 46.37983703613281 136.4617614746094 46.37983703613281 L 8 46.37983703613281 C 3.58172607421875 46.37983703613281 0 42.79811859130859 0 38.37983703613281 L 0 7.999996185302734 C 0 3.581718444824219 3.58172607421875 -3.814697265625e-06 8 -3.814697265625e-06 Z" stroke="none" fill="#f1cc69"/>
    </g>
    <g id="Trazado_603915" data-name="Trazado 603915" transform="translate(1258.29 -2165.15)" fill="#fff9e6">
      <path d="M 136.4617614746094 45.37983703613281 L 8.000000953674316 45.37983703613281 C 4.140180587768555 45.37983703613281 1.000000715255737 42.23965835571289 1.000000715255737 38.37983703613281 L 1.000000715255737 7.999996662139893 C 1.000000715255737 4.140176773071289 4.140180587768555 0.9999966025352478 8.000000953674316 0.9999966025352478 L 136.4617614746094 0.9999966025352478 C 140.3215789794922 0.9999966025352478 143.4617614746094 4.140176773071289 143.4617614746094 7.999996662139893 L 143.4617614746094 38.37983703613281 C 143.4617614746094 42.23965835571289 140.3215789794922 45.37983703613281 136.4617614746094 45.37983703613281 Z" stroke="none"/>
      <path d="M 8 1.999996185302734 C 4.691574096679688 1.999996185302734 2 4.691577911376953 2 7.999996185302734 L 2 38.37983703613281 C 2 41.68825531005859 4.691574096679688 44.37983703613281 8 44.37983703613281 L 136.4617614746094 44.37983703613281 C 139.7701873779297 44.37983703613281 142.4617614746094 41.68825531005859 142.4617614746094 38.37983703613281 L 142.4617614746094 7.999996185302734 C 142.4617614746094 4.691577911376953 139.7701873779297 1.999996185302734 136.4617614746094 1.999996185302734 L 8 1.999996185302734 M 8 -3.814697265625e-06 L 136.4617614746094 -3.814697265625e-06 C 140.8800354003906 -3.814697265625e-06 144.4617614746094 3.581718444824219 144.4617614746094 7.999996185302734 L 144.4617614746094 38.37983703613281 C 144.4617614746094 42.79811859130859 140.8800354003906 46.37983703613281 136.4617614746094 46.37983703613281 L 8 46.37983703613281 C 3.58172607421875 46.37983703613281 0 42.79811859130859 0 38.37983703613281 L 0 7.999996185302734 C 0 3.581718444824219 3.58172607421875 -3.814697265625e-06 8 -3.814697265625e-06 Z" stroke="none" fill="#f1cc69"/>
    </g>
    <g id="Trazado_603916" data-name="Trazado 603916" transform="translate(1258.29 -2227.753)" fill="#fff9e6">
      <path d="M 136.4617614746094 45.37983703613281 L 8.000000953674316 45.37983703613281 C 4.140180587768555 45.37983703613281 1.000000715255737 42.23965835571289 1.000000715255737 38.37983703613281 L 1.000000715255737 7.999996662139893 C 1.000000715255737 4.140176773071289 4.140180587768555 0.9999966025352478 8.000000953674316 0.9999966025352478 L 136.4617614746094 0.9999966025352478 C 140.3215789794922 0.9999966025352478 143.4617614746094 4.140176773071289 143.4617614746094 7.999996662139893 L 143.4617614746094 38.37983703613281 C 143.4617614746094 42.23965835571289 140.3215789794922 45.37983703613281 136.4617614746094 45.37983703613281 Z" stroke="none"/>
      <path d="M 8 1.999996185302734 C 4.691574096679688 1.999996185302734 2 4.691577911376953 2 7.999996185302734 L 2 38.37983703613281 C 2 41.68825531005859 4.691574096679688 44.37983703613281 8 44.37983703613281 L 136.4617614746094 44.37983703613281 C 139.7701873779297 44.37983703613281 142.4617614746094 41.68825531005859 142.4617614746094 38.37983703613281 L 142.4617614746094 7.999996185302734 C 142.4617614746094 4.691577911376953 139.7701873779297 1.999996185302734 136.4617614746094 1.999996185302734 L 8 1.999996185302734 M 8 -3.814697265625e-06 L 136.4617614746094 -3.814697265625e-06 C 140.8800354003906 -3.814697265625e-06 144.4617614746094 3.581718444824219 144.4617614746094 7.999996185302734 L 144.4617614746094 38.37983703613281 C 144.4617614746094 42.79811859130859 140.8800354003906 46.37983703613281 136.4617614746094 46.37983703613281 L 8 46.37983703613281 C 3.58172607421875 46.37983703613281 0 42.79811859130859 0 38.37983703613281 L 0 7.999996185302734 C 0 3.581718444824219 3.58172607421875 -3.814697265625e-06 8 -3.814697265625e-06 Z" stroke="none" fill="#f1cc69"/>
    </g>
    <g id="Trazado_603917" data-name="Trazado 603917" transform="translate(1013.769 -2323.19)" fill="#fff9e6">
      <path d="M 136.4617614746094 45.37983703613281 L 8.000000953674316 45.37983703613281 C 4.140180587768555 45.37983703613281 1.000000715255737 42.23965835571289 1.000000715255737 38.37983703613281 L 1.000000715255737 7.999996662139893 C 1.000000715255737 4.140176773071289 4.140180587768555 0.9999966025352478 8.000000953674316 0.9999966025352478 L 136.4617614746094 0.9999966025352478 C 140.3215789794922 0.9999966025352478 143.4617614746094 4.140176773071289 143.4617614746094 7.999996662139893 L 143.4617614746094 38.37983703613281 C 143.4617614746094 42.23965835571289 140.3215789794922 45.37983703613281 136.4617614746094 45.37983703613281 Z" stroke="none"/>
      <path d="M 8 1.999996185302734 C 4.691574096679688 1.999996185302734 2 4.691577911376953 2 7.999996185302734 L 2 38.37983703613281 C 2 41.68825531005859 4.691574096679688 44.37983703613281 8 44.37983703613281 L 136.4617614746094 44.37983703613281 C 139.7701873779297 44.37983703613281 142.4617614746094 41.68825531005859 142.4617614746094 38.37983703613281 L 142.4617614746094 7.999996185302734 C 142.4617614746094 4.691577911376953 139.7701873779297 1.999996185302734 136.4617614746094 1.999996185302734 L 8 1.999996185302734 M 8 -3.814697265625e-06 L 136.4617614746094 -3.814697265625e-06 C 140.8800354003906 -3.814697265625e-06 144.4617614746094 3.581718444824219 144.4617614746094 7.999996185302734 L 144.4617614746094 38.37983703613281 C 144.4617614746094 42.79811859130859 140.8800354003906 46.37983703613281 136.4617614746094 46.37983703613281 L 8 46.37983703613281 C 3.58172607421875 46.37983703613281 0 42.79811859130859 0 38.37983703613281 L 0 7.999996185302734 C 0 3.581718444824219 3.58172607421875 -3.814697265625e-06 8 -3.814697265625e-06 Z" stroke="none" fill="#f1cc69"/>
    </g>
    <g id="Trazado_603918" data-name="Trazado 603918" transform="translate(770.249 -2223.357)" fill="#fff9e6">
      <path d="M 136.4617614746094 45.37983703613281 L 8.000000953674316 45.37983703613281 C 4.140180587768555 45.37983703613281 1.000000715255737 42.23965835571289 1.000000715255737 38.37983703613281 L 1.000000715255737 7.999996662139893 C 1.000000715255737 4.140176773071289 4.140180587768555 0.9999966025352478 8.000000953674316 0.9999966025352478 L 136.4617614746094 0.9999966025352478 C 140.3215789794922 0.9999966025352478 143.4617614746094 4.140176773071289 143.4617614746094 7.999996662139893 L 143.4617614746094 38.37983703613281 C 143.4617614746094 42.23965835571289 140.3215789794922 45.37983703613281 136.4617614746094 45.37983703613281 Z" stroke="none"/>
      <path d="M 8 1.999996185302734 C 4.691574096679688 1.999996185302734 2 4.691577911376953 2 7.999996185302734 L 2 38.37983703613281 C 2 41.68825531005859 4.691574096679688 44.37983703613281 8 44.37983703613281 L 136.4617614746094 44.37983703613281 C 139.7701873779297 44.37983703613281 142.4617614746094 41.68825531005859 142.4617614746094 38.37983703613281 L 142.4617614746094 7.999996185302734 C 142.4617614746094 4.691577911376953 139.7701873779297 1.999996185302734 136.4617614746094 1.999996185302734 L 8 1.999996185302734 M 8 -3.814697265625e-06 L 136.4617614746094 -3.814697265625e-06 C 140.8800354003906 -3.814697265625e-06 144.4617614746094 3.581718444824219 144.4617614746094 7.999996185302734 L 144.4617614746094 38.37983703613281 C 144.4617614746094 42.79811859130859 140.8800354003906 46.37983703613281 136.4617614746094 46.37983703613281 L 8 46.37983703613281 C 3.58172607421875 46.37983703613281 0 42.79811859130859 0 38.37983703613281 L 0 7.999996185302734 C 0 3.581718444824219 3.58172607421875 -3.814697265625e-06 8 -3.814697265625e-06 Z" stroke="none" fill="#f1cc69"/>
    </g>
    <g id="Trazado_603919" data-name="Trazado 603919" transform="translate(1013.769 -2133.971)" fill="#fff9e6">
      <path d="M 136.4617614746094 45.37983703613281 L 8.000000953674316 45.37983703613281 C 4.140180587768555 45.37983703613281 1.000000715255737 42.23965835571289 1.000000715255737 38.37983703613281 L 1.000000715255737 7.999996662139893 C 1.000000715255737 4.140176773071289 4.140180587768555 0.9999966025352478 8.000000953674316 0.9999966025352478 L 136.4617614746094 0.9999966025352478 C 140.3215789794922 0.9999966025352478 143.4617614746094 4.140176773071289 143.4617614746094 7.999996662139893 L 143.4617614746094 38.37983703613281 C 143.4617614746094 42.23965835571289 140.3215789794922 45.37983703613281 136.4617614746094 45.37983703613281 Z" stroke="none"/>
      <path d="M 8 1.999996185302734 C 4.691574096679688 1.999996185302734 2 4.691577911376953 2 7.999996185302734 L 2 38.37983703613281 C 2 41.68825531005859 4.691574096679688 44.37983703613281 8 44.37983703613281 L 136.4617614746094 44.37983703613281 C 139.7701873779297 44.37983703613281 142.4617614746094 41.68825531005859 142.4617614746094 38.37983703613281 L 142.4617614746094 7.999996185302734 C 142.4617614746094 4.691577911376953 139.7701873779297 1.999996185302734 136.4617614746094 1.999996185302734 L 8 1.999996185302734 M 8 -3.814697265625e-06 L 136.4617614746094 -3.814697265625e-06 C 140.8800354003906 -3.814697265625e-06 144.4617614746094 3.581718444824219 144.4617614746094 7.999996185302734 L 144.4617614746094 38.37983703613281 C 144.4617614746094 42.79811859130859 140.8800354003906 46.37983703613281 136.4617614746094 46.37983703613281 L 8 46.37983703613281 C 3.58172607421875 46.37983703613281 0 42.79811859130859 0 38.37983703613281 L 0 7.999996185302734 C 0 3.581718444824219 3.58172607421875 -3.814697265625e-06 8 -3.814697265625e-06 Z" stroke="none" fill="#f1cc69"/>
    </g>
    <g id="Trazado_603920" data-name="Trazado 603920" transform="translate(1258.29 -2290.753)" fill="#fff9e6">
      <path d="M 136.4617614746094 45.37983703613281 L 8.000000953674316 45.37983703613281 C 4.140180587768555 45.37983703613281 1.000000715255737 42.23965835571289 1.000000715255737 38.37983703613281 L 1.000000715255737 7.999996662139893 C 1.000000715255737 4.140176773071289 4.140180587768555 0.9999966025352478 8.000000953674316 0.9999966025352478 L 136.4617614746094 0.9999966025352478 C 140.3215789794922 0.9999966025352478 143.4617614746094 4.140176773071289 143.4617614746094 7.999996662139893 L 143.4617614746094 38.37983703613281 C 143.4617614746094 42.23965835571289 140.3215789794922 45.37983703613281 136.4617614746094 45.37983703613281 Z" stroke="none"/>
      <path d="M 8 1.999996185302734 C 4.691574096679688 1.999996185302734 2 4.691577911376953 2 7.999996185302734 L 2 38.37983703613281 C 2 41.68825531005859 4.691574096679688 44.37983703613281 8 44.37983703613281 L 136.4617614746094 44.37983703613281 C 139.7701873779297 44.37983703613281 142.4617614746094 41.68825531005859 142.4617614746094 38.37983703613281 L 142.4617614746094 7.999996185302734 C 142.4617614746094 4.691577911376953 139.7701873779297 1.999996185302734 136.4617614746094 1.999996185302734 L 8 1.999996185302734 M 8 -3.814697265625e-06 L 136.4617614746094 -3.814697265625e-06 C 140.8800354003906 -3.814697265625e-06 144.4617614746094 3.581718444824219 144.4617614746094 7.999996185302734 L 144.4617614746094 38.37983703613281 C 144.4617614746094 42.79811859130859 140.8800354003906 46.37983703613281 136.4617614746094 46.37983703613281 L 8 46.37983703613281 C 3.58172607421875 46.37983703613281 0 42.79811859130859 0 38.37983703613281 L 0 7.999996185302734 C 0 3.581718444824219 3.58172607421875 -3.814697265625e-06 8 -3.814697265625e-06 Z" stroke="none" fill="#f1cc69"/>
    </g>
    <g id="Trazado_603921" data-name="Trazado 603921" transform="translate(1258.29 -2103.627)" fill="#fff9e6">
      <path d="M 136.4617614746094 45.37983703613281 L 8.000000953674316 45.37983703613281 C 4.140180587768555 45.37983703613281 1.000000715255737 42.23965835571289 1.000000715255737 38.37983703613281 L 1.000000715255737 7.999996662139893 C 1.000000715255737 4.140176773071289 4.140180587768555 0.9999966025352478 8.000000953674316 0.9999966025352478 L 136.4617614746094 0.9999966025352478 C 140.3215789794922 0.9999966025352478 143.4617614746094 4.140176773071289 143.4617614746094 7.999996662139893 L 143.4617614746094 38.37983703613281 C 143.4617614746094 42.23965835571289 140.3215789794922 45.37983703613281 136.4617614746094 45.37983703613281 Z" stroke="none"/>
      <path d="M 8 1.999996185302734 C 4.691574096679688 1.999996185302734 2 4.691577911376953 2 7.999996185302734 L 2 38.37983703613281 C 2 41.68825531005859 4.691574096679688 44.37983703613281 8 44.37983703613281 L 136.4617614746094 44.37983703613281 C 139.7701873779297 44.37983703613281 142.4617614746094 41.68825531005859 142.4617614746094 38.37983703613281 L 142.4617614746094 7.999996185302734 C 142.4617614746094 4.691577911376953 139.7701873779297 1.999996185302734 136.4617614746094 1.999996185302734 L 8 1.999996185302734 M 8 -3.814697265625e-06 L 136.4617614746094 -3.814697265625e-06 C 140.8800354003906 -3.814697265625e-06 144.4617614746094 3.581718444824219 144.4617614746094 7.999996185302734 L 144.4617614746094 38.37983703613281 C 144.4617614746094 42.79811859130859 140.8800354003906 46.37983703613281 136.4617614746094 46.37983703613281 L 8 46.37983703613281 C 3.58172607421875 46.37983703613281 0 42.79811859130859 0 38.37983703613281 L 0 7.999996185302734 C 0 3.581718444824219 3.58172607421875 -3.814697265625e-06 8 -3.814697265625e-06 Z" stroke="none" fill="#f1cc69"/>
    </g>
    <path id="Trazado_603922" data-name="Trazado 603922" d="M20.565,9.728H16.56V13h4.653v1H15.341V4.758h5.808v1H16.56V8.731h4.005Zm5.979,2.45a.864.864,0,0,0-.359-.74,3.452,3.452,0,0,0-1.25-.454,5.912,5.912,0,0,1-1.416-.457,2.014,2.014,0,0,1-.774-.635,1.518,1.518,0,0,1-.251-.876,1.782,1.782,0,0,1,.714-1.428A2.789,2.789,0,0,1,25.034,7a2.87,2.87,0,0,1,1.895.6,1.915,1.915,0,0,1,.727,1.542H26.475a1.06,1.06,0,0,0-.409-.832,1.534,1.534,0,0,0-1.031-.349,1.605,1.605,0,0,0-1,.279.879.879,0,0,0-.362.73.712.712,0,0,0,.336.641,4.139,4.139,0,0,0,1.216.413,6.334,6.334,0,0,1,1.425.47,2.079,2.079,0,0,1,.809.657,1.615,1.615,0,0,1,.263.936,1.758,1.758,0,0,1-.736,1.476,3.089,3.089,0,0,1-1.911.555,3.459,3.459,0,0,1-1.46-.292,2.375,2.375,0,0,1-.993-.816,1.966,1.966,0,0,1-.359-1.133h1.174a1.216,1.216,0,0,0,.473.936,1.835,1.835,0,0,0,1.165.346,1.894,1.894,0,0,0,1.07-.27A.829.829,0,0,0,26.544,12.178Zm4.3-6.709V7.132h1.282V8.04H30.842V12.3a.953.953,0,0,0,.171.62.721.721,0,0,0,.584.207,2.843,2.843,0,0,0,.559-.076V14a3.424,3.424,0,0,1-.9.126,1.462,1.462,0,0,1-1.187-.476,2.045,2.045,0,0,1-.4-1.352V8.04h-1.25V7.132h1.25V5.469Zm5.973,2.717a3.519,3.519,0,0,0-.578-.044,1.547,1.547,0,0,0-1.568.984V14H33.5V7.132h1.143l.019.793A1.829,1.829,0,0,1,36.294,7a1.2,1.2,0,0,1,.521.089ZM41.88,14a2.467,2.467,0,0,1-.165-.724,2.62,2.62,0,0,1-1.955.851,2.424,2.424,0,0,1-1.666-.574,1.859,1.859,0,0,1-.651-1.457,1.942,1.942,0,0,1,.816-1.666,3.846,3.846,0,0,1,2.295-.594H41.7V9.3a1.319,1.319,0,0,0-.368-.981,1.48,1.48,0,0,0-1.085-.365,1.712,1.712,0,0,0-1.054.317.935.935,0,0,0-.425.768H37.583a1.621,1.621,0,0,1,.365-.993,2.491,2.491,0,0,1,.99-.759A3.331,3.331,0,0,1,40.312,7a2.715,2.715,0,0,1,1.86.594,2.141,2.141,0,0,1,.7,1.635v3.161a3.865,3.865,0,0,0,.241,1.5V14Zm-1.949-.9a2.064,2.064,0,0,0,1.047-.286,1.728,1.728,0,0,0,.717-.743V10.667h-.92q-2.158,0-2.158,1.263a1.069,1.069,0,0,0,.368.863A1.415,1.415,0,0,0,39.932,13.1ZM46.3,5.469V7.132h1.282V8.04H46.3V12.3a.953.953,0,0,0,.171.62.721.721,0,0,0,.584.207,2.843,2.843,0,0,0,.559-.076V14a3.424,3.424,0,0,1-.9.126,1.462,1.462,0,0,1-1.187-.476,2.045,2.045,0,0,1-.4-1.352V8.04H43.88V7.132h1.25V5.469Zm5.5,8.658a3,3,0,0,1-2.272-.917,3.4,3.4,0,0,1-.876-2.453v-.216a4.121,4.121,0,0,1,.39-1.825,3.045,3.045,0,0,1,1.092-1.257A2.745,2.745,0,0,1,51.662,7a2.572,2.572,0,0,1,2.082.882,3.82,3.82,0,0,1,.743,2.526V10.9H49.834a2.441,2.441,0,0,0,.594,1.641,1.866,1.866,0,0,0,1.444.625,2.045,2.045,0,0,0,1.054-.254,2.648,2.648,0,0,0,.755-.673l.717.559A2.884,2.884,0,0,1,51.808,14.127ZM51.662,7.97a1.566,1.566,0,0,0-1.193.517,2.515,2.515,0,0,0-.6,1.45h3.44V9.849a2.237,2.237,0,0,0-.482-1.387A1.475,1.475,0,0,0,51.662,7.97Zm3.9,2.539a4.037,4.037,0,0,1,.743-2.555,2.56,2.56,0,0,1,3.929-.06l.057-.762h1.073v6.7a2.794,2.794,0,0,1-.79,2.1,2.916,2.916,0,0,1-2.123.768A3.532,3.532,0,0,1,57,16.387a2.5,2.5,0,0,1-1.085-.87l.609-.7a2.3,2.3,0,0,0,1.847.933,1.8,1.8,0,0,0,1.336-.482,1.844,1.844,0,0,0,.479-1.358v-.59a2.414,2.414,0,0,1-1.923.813,2.346,2.346,0,0,1-1.952-.971A4.244,4.244,0,0,1,55.566,10.509Zm1.181.133a3.08,3.08,0,0,0,.476,1.825,1.547,1.547,0,0,0,1.333.663,1.72,1.72,0,0,0,1.631-1.009V8.985A1.74,1.74,0,0,0,58.568,8a1.561,1.561,0,0,0-1.339.667A3.354,3.354,0,0,0,56.747,10.642ZM64.415,14H63.24V7.132h1.174Zm-1.27-8.69a.7.7,0,0,1,.175-.482.655.655,0,0,1,.517-.2.666.666,0,0,1,.521.2.694.694,0,0,1,.178.482.671.671,0,0,1-.178.476.678.678,0,0,1-.521.19.667.667,0,0,1-.517-.19A.678.678,0,0,1,63.145,5.31ZM70.534,14a2.467,2.467,0,0,1-.165-.724,2.62,2.62,0,0,1-1.955.851,2.424,2.424,0,0,1-1.666-.574A1.859,1.859,0,0,1,66.1,12.1a1.942,1.942,0,0,1,.816-1.666,3.846,3.846,0,0,1,2.295-.594H70.35V9.3a1.319,1.319,0,0,0-.368-.981A1.48,1.48,0,0,0,68.9,7.951a1.712,1.712,0,0,0-1.054.317.935.935,0,0,0-.425.768H66.236a1.621,1.621,0,0,1,.365-.993,2.491,2.491,0,0,1,.99-.759A3.331,3.331,0,0,1,68.966,7a2.715,2.715,0,0,1,1.86.594,2.141,2.141,0,0,1,.7,1.635v3.161a3.865,3.865,0,0,0,.241,1.5V14Zm-1.949-.9a2.064,2.064,0,0,0,1.047-.286,1.728,1.728,0,0,0,.717-.743V10.667h-.92q-2.158,0-2.158,1.263a1.069,1.069,0,0,0,.368.863A1.415,1.415,0,0,0,68.585,13.1Zm8.779-.927a.864.864,0,0,0-.359-.74,3.452,3.452,0,0,0-1.25-.454,5.912,5.912,0,0,1-1.416-.457,2.014,2.014,0,0,1-.774-.635,1.518,1.518,0,0,1-.251-.876,1.782,1.782,0,0,1,.714-1.428A2.789,2.789,0,0,1,75.853,7a2.87,2.87,0,0,1,1.895.6,1.915,1.915,0,0,1,.727,1.542H77.294a1.06,1.06,0,0,0-.409-.832,1.534,1.534,0,0,0-1.031-.349,1.606,1.606,0,0,0-1,.279.879.879,0,0,0-.362.73.712.712,0,0,0,.336.641,4.139,4.139,0,0,0,1.216.413,6.334,6.334,0,0,1,1.425.47,2.079,2.079,0,0,1,.809.657,1.615,1.615,0,0,1,.263.936,1.758,1.758,0,0,1-.736,1.476,3.089,3.089,0,0,1-1.911.555,3.459,3.459,0,0,1-1.46-.292,2.375,2.375,0,0,1-.993-.816,1.966,1.966,0,0,1-.359-1.133h1.174a1.216,1.216,0,0,0,.473.936,1.835,1.835,0,0,0,1.165.346,1.894,1.894,0,0,0,1.07-.27A.829.829,0,0,0,77.364,12.178ZM83,10.509a4.023,4.023,0,0,1,.749-2.542,2.548,2.548,0,0,1,3.872-.136V4.25H88.8V14H87.717l-.057-.736a2.391,2.391,0,0,1-1.961.863,2.346,2.346,0,0,1-1.946-.978A4.069,4.069,0,0,1,83,10.6Zm1.174.133a3.046,3.046,0,0,0,.482,1.828,1.56,1.56,0,0,0,1.333.66,1.713,1.713,0,0,0,1.631-1V8.973A1.726,1.726,0,0,0,86,8a1.567,1.567,0,0,0-1.346.667A3.354,3.354,0,0,0,84.175,10.642Zm9.293,3.485A3,3,0,0,1,91.2,13.21a3.4,3.4,0,0,1-.876-2.453v-.216a4.121,4.121,0,0,1,.39-1.825A3.045,3.045,0,0,1,91.8,7.459,2.745,2.745,0,0,1,93.322,7a2.572,2.572,0,0,1,2.082.882,3.82,3.82,0,0,1,.743,2.526V10.9H91.494a2.441,2.441,0,0,0,.594,1.641,1.866,1.866,0,0,0,1.444.625,2.045,2.045,0,0,0,1.054-.254,2.648,2.648,0,0,0,.755-.673l.717.559A2.884,2.884,0,0,1,93.468,14.127ZM93.322,7.97a1.566,1.566,0,0,0-1.193.517,2.515,2.515,0,0,0-.6,1.45h3.44V9.849a2.237,2.237,0,0,0-.482-1.387A1.475,1.475,0,0,0,93.322,7.97ZM22.05,23.186a3.519,3.519,0,0,0-.578-.044,1.547,1.547,0,0,0-1.568.984V29H18.73V22.132h1.143l.019.793A1.829,1.829,0,0,1,21.53,22a1.2,1.2,0,0,1,.521.089Zm3.929,5.941a3,3,0,0,1-2.272-.917,3.4,3.4,0,0,1-.876-2.453v-.216a4.121,4.121,0,0,1,.39-1.825,3.045,3.045,0,0,1,1.092-1.257A2.745,2.745,0,0,1,25.833,22a2.572,2.572,0,0,1,2.082.882,3.82,3.82,0,0,1,.743,2.526V25.9H24.005a2.441,2.441,0,0,0,.594,1.641,1.866,1.866,0,0,0,1.444.625,2.045,2.045,0,0,0,1.054-.254,2.648,2.648,0,0,0,.755-.673l.717.559A2.884,2.884,0,0,1,25.979,29.127Zm-.146-6.157a1.566,1.566,0,0,0-1.193.517,2.515,2.515,0,0,0-.6,1.45h3.44v-.089A2.237,2.237,0,0,0,27,23.462,1.475,1.475,0,0,0,25.833,22.97Zm6.938,5.2a1.692,1.692,0,0,0,1.1-.381,1.34,1.34,0,0,0,.521-.952H35.5a2.13,2.13,0,0,1-.406,1.124,2.676,2.676,0,0,1-1,.851,2.885,2.885,0,0,1-1.323.317,2.829,2.829,0,0,1-2.231-.936,3.729,3.729,0,0,1-.828-2.561v-.2a4.135,4.135,0,0,1,.368-1.784,2.8,2.8,0,0,1,1.057-1.212A3,3,0,0,1,32.765,22a2.755,2.755,0,0,1,1.92.692,2.473,2.473,0,0,1,.816,1.8H34.39a1.618,1.618,0,0,0-.5-1.095,1.57,1.57,0,0,0-1.12-.428,1.644,1.644,0,0,0-1.387.644,3.026,3.026,0,0,0-.492,1.863V25.7a2.965,2.965,0,0,0,.489,1.828A1.651,1.651,0,0,0,32.771,28.168Zm8.29.152a2.494,2.494,0,0,1-2.012.806,2.135,2.135,0,0,1-1.673-.638A2.761,2.761,0,0,1,36.8,26.6V22.132H37.97v4.437q0,1.562,1.27,1.562a1.758,1.758,0,0,0,1.79-1v-5H42.2V29H41.087Zm8.728-2.679a4.113,4.113,0,0,1-.717,2.526,2.3,2.3,0,0,1-1.942.958,2.519,2.519,0,0,1-1.968-.793v3.307H43.988V22.132h1.073l.057.762A2.419,2.419,0,0,1,47.111,22a2.342,2.342,0,0,1,1.958.933,4.157,4.157,0,0,1,.72,2.6Zm-1.174-.133a3.035,3.035,0,0,0-.5-1.834A1.6,1.6,0,0,0,46.762,23a1.726,1.726,0,0,0-1.6.946v3.282a1.73,1.73,0,0,0,1.612.939,1.587,1.587,0,0,0,1.343-.67A3.312,3.312,0,0,0,48.615,25.509Zm5.516,3.618a3,3,0,0,1-2.272-.917,3.4,3.4,0,0,1-.876-2.453v-.216a4.121,4.121,0,0,1,.39-1.825,3.045,3.045,0,0,1,1.092-1.257A2.745,2.745,0,0,1,53.985,22a2.572,2.572,0,0,1,2.082.882,3.82,3.82,0,0,1,.743,2.526V25.9H52.157a2.441,2.441,0,0,0,.594,1.641,1.866,1.866,0,0,0,1.444.625,2.045,2.045,0,0,0,1.054-.254A2.648,2.648,0,0,0,56,27.242l.717.559A2.884,2.884,0,0,1,54.131,29.127Zm-.146-6.157a1.566,1.566,0,0,0-1.193.517,2.515,2.515,0,0,0-.6,1.45h3.44v-.089a2.237,2.237,0,0,0-.482-1.387A1.475,1.475,0,0,0,53.985,22.97Zm7.5.216a3.519,3.519,0,0,0-.578-.044,1.547,1.547,0,0,0-1.568.984V29H58.168V22.132h1.143l.019.793A1.829,1.829,0,0,1,60.968,22a1.2,1.2,0,0,1,.521.089ZM66.554,29a2.467,2.467,0,0,1-.165-.724,2.62,2.62,0,0,1-1.955.851,2.424,2.424,0,0,1-1.666-.574,1.859,1.859,0,0,1-.651-1.457,1.942,1.942,0,0,1,.816-1.666,3.846,3.846,0,0,1,2.295-.594H66.37V24.3A1.319,1.319,0,0,0,66,23.316a1.48,1.48,0,0,0-1.085-.365,1.712,1.712,0,0,0-1.054.317.935.935,0,0,0-.425.768H62.256a1.621,1.621,0,0,1,.365-.993,2.491,2.491,0,0,1,.99-.759A3.331,3.331,0,0,1,64.986,22a2.715,2.715,0,0,1,1.86.594,2.141,2.141,0,0,1,.7,1.635v3.161a3.865,3.865,0,0,0,.241,1.5V29ZM64.6,28.1a2.064,2.064,0,0,0,1.047-.286,1.728,1.728,0,0,0,.717-.743V25.667h-.92q-2.158,0-2.158,1.263a1.069,1.069,0,0,0,.368.863A1.415,1.415,0,0,0,64.6,28.1Zm7.535.063a1.691,1.691,0,0,0,1.1-.381,1.34,1.34,0,0,0,.521-.952h1.111a2.13,2.13,0,0,1-.406,1.124,2.676,2.676,0,0,1-1,.851,2.885,2.885,0,0,1-1.323.317,2.829,2.829,0,0,1-2.231-.936,3.729,3.729,0,0,1-.828-2.561v-.2a4.135,4.135,0,0,1,.368-1.784,2.8,2.8,0,0,1,1.057-1.212A3,3,0,0,1,72.133,22a2.755,2.755,0,0,1,1.92.692,2.473,2.473,0,0,1,.816,1.8H73.758a1.618,1.618,0,0,0-.5-1.095,1.57,1.57,0,0,0-1.12-.428,1.644,1.644,0,0,0-1.387.644,3.026,3.026,0,0,0-.492,1.863V25.7a2.966,2.966,0,0,0,.489,1.828A1.651,1.651,0,0,0,72.14,28.168ZM77.465,29H76.291V22.132h1.174ZM76.2,20.31a.7.7,0,0,1,.175-.482.655.655,0,0,1,.517-.2.666.666,0,0,1,.521.2.694.694,0,0,1,.178.482.671.671,0,0,1-.178.476.678.678,0,0,1-.521.19.667.667,0,0,1-.517-.19A.678.678,0,0,1,76.2,20.31ZM79.033,25.5a4.057,4.057,0,0,1,.4-1.815,2.96,2.96,0,0,1,1.1-1.244A3.007,3.007,0,0,1,82.15,22a2.9,2.9,0,0,1,2.269.971,3.736,3.736,0,0,1,.866,2.583v.083a4.092,4.092,0,0,1-.384,1.8,2.916,2.916,0,0,1-1.1,1.241,3.041,3.041,0,0,1-1.641.444,2.889,2.889,0,0,1-2.263-.971,3.718,3.718,0,0,1-.866-2.571Zm1.181.14a2.938,2.938,0,0,0,.53,1.834,1.8,1.8,0,0,0,2.841-.01,3.213,3.213,0,0,0,.527-1.965,2.933,2.933,0,0,0-.536-1.831,1.705,1.705,0,0,0-1.425-.7,1.686,1.686,0,0,0-1.4.692A3.189,3.189,0,0,0,80.214,25.642Zm2.469-6.392H84.1l-1.7,1.866-.946,0Zm5.186,2.882.038.863A2.5,2.5,0,0,1,89.964,22q2.177,0,2.2,2.457V29H90.986V24.455a1.581,1.581,0,0,0-.34-1.1A1.361,1.361,0,0,0,89.608,23a1.7,1.7,0,0,0-1,.3,2.069,2.069,0,0,0-.673.8V29H86.758V22.132Z" transform="translate(1273.496 -2346.15)" fill="#12263f"/>
    <path id="Trazado_603923" data-name="Trazado 603923" d="M12.5,12.788a2.815,2.815,0,0,1-1.311,1.006,5.3,5.3,0,0,1-1.958.333,3.8,3.8,0,0,1-2.006-.53A3.531,3.531,0,0,1,5.87,12.089a5.207,5.207,0,0,1-.492-2.266V9.017A4.861,4.861,0,0,1,6.353,5.78,3.4,3.4,0,0,1,9.092,4.631a3.507,3.507,0,0,1,2.33.74,3.222,3.222,0,0,1,1.079,2.1H11.281A2.015,2.015,0,0,0,9.1,5.627a2.157,2.157,0,0,0-1.857.861A4.2,4.2,0,0,0,6.6,8.982v.756a3.939,3.939,0,0,0,.711,2.474,2.3,2.3,0,0,0,1.923.918,4.248,4.248,0,0,0,1.2-.152,1.855,1.855,0,0,0,.851-.513V10.395H9.149v-1H12.5Zm4.7,1.339a3,3,0,0,1-2.272-.917,3.4,3.4,0,0,1-.876-2.453v-.216a4.121,4.121,0,0,1,.39-1.825,3.045,3.045,0,0,1,1.092-1.257A2.745,2.745,0,0,1,17.052,7a2.572,2.572,0,0,1,2.082.882,3.82,3.82,0,0,1,.743,2.526V10.9H15.223a2.441,2.441,0,0,0,.594,1.641,1.866,1.866,0,0,0,1.444.625,2.045,2.045,0,0,0,1.054-.254,2.648,2.648,0,0,0,.755-.673l.717.559A2.884,2.884,0,0,1,17.2,14.127ZM17.052,7.97a1.566,1.566,0,0,0-1.193.517,2.515,2.515,0,0,0-.6,1.45H18.7V9.849a2.237,2.237,0,0,0-.482-1.387A1.475,1.475,0,0,0,17.052,7.97Zm8.182,4.208a.864.864,0,0,0-.359-.74,3.452,3.452,0,0,0-1.25-.454,5.912,5.912,0,0,1-1.416-.457,2.014,2.014,0,0,1-.774-.635,1.518,1.518,0,0,1-.251-.876A1.782,1.782,0,0,1,21.9,7.589,2.789,2.789,0,0,1,23.723,7a2.87,2.87,0,0,1,1.895.6,1.915,1.915,0,0,1,.727,1.542H25.164a1.06,1.06,0,0,0-.409-.832,1.534,1.534,0,0,0-1.031-.349,1.605,1.605,0,0,0-1,.279.879.879,0,0,0-.362.73.712.712,0,0,0,.336.641,4.139,4.139,0,0,0,1.216.413,6.334,6.334,0,0,1,1.425.47,2.079,2.079,0,0,1,.809.657,1.615,1.615,0,0,1,.263.936,1.758,1.758,0,0,1-.736,1.476,3.089,3.089,0,0,1-1.911.555,3.459,3.459,0,0,1-1.46-.292,2.375,2.375,0,0,1-.993-.816,1.966,1.966,0,0,1-.359-1.133h1.174a1.216,1.216,0,0,0,.473.936,1.835,1.835,0,0,0,1.165.346,1.894,1.894,0,0,0,1.07-.27A.829.829,0,0,0,25.234,12.178Zm4.3-6.709V7.132h1.282V8.04H29.531V12.3a.953.953,0,0,0,.171.62.721.721,0,0,0,.584.207,2.843,2.843,0,0,0,.559-.076V14a3.424,3.424,0,0,1-.9.126,1.462,1.462,0,0,1-1.187-.476,2.045,2.045,0,0,1-.4-1.352V8.04h-1.25V7.132h1.25V5.469ZM33.46,14H32.286V7.132H33.46Zm-1.27-8.69a.7.7,0,0,1,.175-.482.655.655,0,0,1,.517-.2.666.666,0,0,1,.521.2.694.694,0,0,1,.178.482.671.671,0,0,1-.178.476.678.678,0,0,1-.521.19.667.667,0,0,1-.517-.19A.678.678,0,0,1,32.191,5.31ZM35.028,10.5a4.057,4.057,0,0,1,.4-1.815,2.96,2.96,0,0,1,1.1-1.244A3.007,3.007,0,0,1,38.145,7a2.9,2.9,0,0,1,2.269.971,3.736,3.736,0,0,1,.866,2.583v.083a4.092,4.092,0,0,1-.384,1.8,2.916,2.916,0,0,1-1.1,1.241,3.041,3.041,0,0,1-1.641.444,2.889,2.889,0,0,1-2.263-.971,3.718,3.718,0,0,1-.866-2.571Zm1.181.14a2.938,2.938,0,0,0,.53,1.834,1.8,1.8,0,0,0,2.841-.01,3.213,3.213,0,0,0,.527-1.965,2.933,2.933,0,0,0-.536-1.831,1.705,1.705,0,0,0-1.425-.7,1.686,1.686,0,0,0-1.4.692A3.189,3.189,0,0,0,36.209,10.642Zm7.655-3.51L43.9,8A2.5,2.5,0,0,1,45.959,7q2.177,0,2.2,2.457V14H46.981V9.455a1.581,1.581,0,0,0-.34-1.1A1.361,1.361,0,0,0,45.6,8a1.7,1.7,0,0,0-1,.3,2.069,2.069,0,0,0-.673.8V14H42.753V7.132ZM54.166,14A2.467,2.467,0,0,1,54,13.276a2.62,2.62,0,0,1-1.955.851,2.424,2.424,0,0,1-1.666-.574,1.859,1.859,0,0,1-.651-1.457,1.942,1.942,0,0,1,.816-1.666,3.846,3.846,0,0,1,2.295-.594h1.143V9.3a1.319,1.319,0,0,0-.368-.981,1.48,1.48,0,0,0-1.085-.365,1.712,1.712,0,0,0-1.054.317.935.935,0,0,0-.425.768H49.869a1.621,1.621,0,0,1,.365-.993,2.491,2.491,0,0,1,.99-.759A3.331,3.331,0,0,1,52.6,7a2.715,2.715,0,0,1,1.86.594,2.141,2.141,0,0,1,.7,1.635v3.161a3.865,3.865,0,0,0,.241,1.5V14Zm-1.949-.9a2.064,2.064,0,0,0,1.047-.286,1.728,1.728,0,0,0,.717-.743V10.667h-.92q-2.158,0-2.158,1.263a1.069,1.069,0,0,0,.368.863A1.415,1.415,0,0,0,52.218,13.1Zm8.1-4.919a3.519,3.519,0,0,0-.578-.044,1.547,1.547,0,0,0-1.568.984V14H57V7.132H58.14l.019.793A1.829,1.829,0,0,1,59.8,7a1.2,1.2,0,0,1,.521.089Zm7.617,0a3.519,3.519,0,0,0-.578-.044,1.547,1.547,0,0,0-1.568.984V14H64.614V7.132h1.143l.019.793A1.829,1.829,0,0,1,67.414,7a1.2,1.2,0,0,1,.521.089ZM70.289,14H69.115V7.132h1.174ZM69.02,5.31a.7.7,0,0,1,.175-.482.655.655,0,0,1,.517-.2.666.666,0,0,1,.521.2.694.694,0,0,1,.178.482.671.671,0,0,1-.178.476.678.678,0,0,1-.521.19.667.667,0,0,1-.517-.19A.678.678,0,0,1,69.02,5.31Zm6,8.817a3,3,0,0,1-2.272-.917,3.4,3.4,0,0,1-.876-2.453v-.216a4.121,4.121,0,0,1,.39-1.825,3.045,3.045,0,0,1,1.092-1.257A2.745,2.745,0,0,1,74.872,7a2.572,2.572,0,0,1,2.082.882,3.82,3.82,0,0,1,.743,2.526V10.9H73.044a2.441,2.441,0,0,0,.594,1.641,1.866,1.866,0,0,0,1.444.625,2.045,2.045,0,0,0,1.054-.254,2.648,2.648,0,0,0,.755-.673l.717.559A2.884,2.884,0,0,1,75.018,14.127ZM74.872,7.97a1.566,1.566,0,0,0-1.193.517,2.515,2.515,0,0,0-.6,1.45h3.44V9.849a2.237,2.237,0,0,0-.482-1.387A1.475,1.475,0,0,0,74.872,7.97Zm8.182,4.208a.864.864,0,0,0-.359-.74,3.452,3.452,0,0,0-1.25-.454,5.912,5.912,0,0,1-1.416-.457,2.014,2.014,0,0,1-.774-.635A1.518,1.518,0,0,1,79,9.017a1.782,1.782,0,0,1,.714-1.428A2.789,2.789,0,0,1,81.544,7a2.87,2.87,0,0,1,1.895.6,1.915,1.915,0,0,1,.727,1.542H82.985a1.06,1.06,0,0,0-.409-.832,1.534,1.534,0,0,0-1.031-.349,1.606,1.606,0,0,0-1,.279.879.879,0,0,0-.362.73.712.712,0,0,0,.336.641,4.139,4.139,0,0,0,1.216.413,6.334,6.334,0,0,1,1.425.47,2.079,2.079,0,0,1,.809.657,1.615,1.615,0,0,1,.263.936,1.758,1.758,0,0,1-.736,1.476,3.089,3.089,0,0,1-1.911.555,3.459,3.459,0,0,1-1.46-.292,2.375,2.375,0,0,1-.993-.816,1.966,1.966,0,0,1-.359-1.133h1.174a1.216,1.216,0,0,0,.473.936,1.835,1.835,0,0,0,1.165.346,1.894,1.894,0,0,0,1.07-.27A.829.829,0,0,0,83.054,12.178Zm2.425-1.669a4.037,4.037,0,0,1,.743-2.555,2.56,2.56,0,0,1,3.929-.06l.057-.762h1.073v6.7a2.794,2.794,0,0,1-.79,2.1,2.916,2.916,0,0,1-2.123.768,3.532,3.532,0,0,1-1.454-.317,2.5,2.5,0,0,1-1.085-.87l.609-.7a2.3,2.3,0,0,0,1.847.933,1.8,1.8,0,0,0,1.336-.482A1.844,1.844,0,0,0,90.1,13.9v-.59a2.414,2.414,0,0,1-1.923.813,2.346,2.346,0,0,1-1.952-.971A4.244,4.244,0,0,1,85.479,10.509Zm1.181.133a3.08,3.08,0,0,0,.476,1.825,1.547,1.547,0,0,0,1.333.663A1.72,1.72,0,0,0,90.1,12.121V8.985A1.74,1.74,0,0,0,88.482,8a1.561,1.561,0,0,0-1.339.667A3.354,3.354,0,0,0,86.66,10.642Zm6.081-.14a4.057,4.057,0,0,1,.4-1.815,2.96,2.96,0,0,1,1.1-1.244A3.007,3.007,0,0,1,95.858,7a2.9,2.9,0,0,1,2.269.971,3.736,3.736,0,0,1,.866,2.583v.083a4.092,4.092,0,0,1-.384,1.8,2.916,2.916,0,0,1-1.1,1.241,3.041,3.041,0,0,1-1.641.444,2.889,2.889,0,0,1-2.263-.971,3.718,3.718,0,0,1-.866-2.571Zm1.181.14a2.938,2.938,0,0,0,.53,1.834,1.8,1.8,0,0,0,2.841-.01,3.213,3.213,0,0,0,.527-1.965,2.933,2.933,0,0,0-.536-1.831,1.705,1.705,0,0,0-1.425-.7,1.686,1.686,0,0,0-1.4.692A3.189,3.189,0,0,0,93.922,10.642Zm10.543,1.536a.864.864,0,0,0-.359-.74,3.452,3.452,0,0,0-1.25-.454,5.912,5.912,0,0,1-1.416-.457,2.014,2.014,0,0,1-.774-.635,1.518,1.518,0,0,1-.251-.876,1.782,1.782,0,0,1,.714-1.428A2.789,2.789,0,0,1,102.954,7a2.87,2.87,0,0,1,1.895.6,1.915,1.915,0,0,1,.727,1.542H104.4a1.06,1.06,0,0,0-.409-.832,1.534,1.534,0,0,0-1.031-.349,1.606,1.606,0,0,0-1,.279.879.879,0,0,0-.362.73.712.712,0,0,0,.336.641,4.139,4.139,0,0,0,1.216.413,6.334,6.334,0,0,1,1.425.47,2.079,2.079,0,0,1,.809.657,1.615,1.615,0,0,1,.263.936,1.758,1.758,0,0,1-.736,1.476,3.089,3.089,0,0,1-1.911.555,3.459,3.459,0,0,1-1.46-.292,2.375,2.375,0,0,1-.993-.816,1.966,1.966,0,0,1-.359-1.133h1.174a1.216,1.216,0,0,0,.473.936,1.835,1.835,0,0,0,1.165.346,1.894,1.894,0,0,0,1.07-.27A.829.829,0,0,0,104.465,12.178Z" transform="translate(1273.496 -2402.563)" fill="#12263f"/>
    <path id="Trazado_603924" data-name="Trazado 603924" d="M28.88,5.754H25.91V14H24.7V5.754H21.733v-1H28.88ZM31.343,14H30.169V7.132h1.174Zm-1.27-8.69a.7.7,0,0,1,.175-.482.655.655,0,0,1,.517-.2.666.666,0,0,1,.521.2.694.694,0,0,1,.178.482.671.671,0,0,1-.178.476.678.678,0,0,1-.521.19.667.667,0,0,1-.517-.19A.678.678,0,0,1,30.074,5.31Zm6,8.817A3,3,0,0,1,33.8,13.21a3.4,3.4,0,0,1-.876-2.453v-.216a4.121,4.121,0,0,1,.39-1.825,3.045,3.045,0,0,1,1.092-1.257A2.745,2.745,0,0,1,35.926,7a2.572,2.572,0,0,1,2.082.882,3.82,3.82,0,0,1,.743,2.526V10.9H34.1a2.441,2.441,0,0,0,.594,1.641,1.866,1.866,0,0,0,1.444.625,2.045,2.045,0,0,0,1.054-.254,2.648,2.648,0,0,0,.755-.673l.717.559A2.884,2.884,0,0,1,36.072,14.127ZM35.926,7.97a1.566,1.566,0,0,0-1.193.517,2.515,2.515,0,0,0-.6,1.45h3.44V9.849a2.237,2.237,0,0,0-.482-1.387A1.475,1.475,0,0,0,35.926,7.97Zm5.288-.838.032.762A2.536,2.536,0,0,1,43.283,7a1.964,1.964,0,0,1,1.961,1.1,2.6,2.6,0,0,1,.892-.8,2.634,2.634,0,0,1,1.3-.3q2.26,0,2.3,2.393V14H48.558V9.468a1.577,1.577,0,0,0-.336-1.1A1.482,1.482,0,0,0,47.092,8a1.557,1.557,0,0,0-1.085.39,1.584,1.584,0,0,0-.5,1.051V14H44.324V9.5A1.31,1.31,0,0,0,42.858,8a1.571,1.571,0,0,0-1.581.984V14H40.1V7.132Zm16.091,3.51a4.113,4.113,0,0,1-.717,2.526,2.3,2.3,0,0,1-1.942.958,2.519,2.519,0,0,1-1.968-.793v3.307H51.5V7.132h1.073l.057.762A2.419,2.419,0,0,1,54.626,7a2.342,2.342,0,0,1,1.958.933,4.157,4.157,0,0,1,.72,2.6Zm-1.174-.133a3.035,3.035,0,0,0-.5-1.834A1.6,1.6,0,0,0,54.277,8a1.726,1.726,0,0,0-1.6.946v3.282a1.73,1.73,0,0,0,1.612.939,1.587,1.587,0,0,0,1.343-.67A3.312,3.312,0,0,0,56.131,10.509Zm2.355-.006a4.057,4.057,0,0,1,.4-1.815,2.96,2.96,0,0,1,1.1-1.244A3.007,3.007,0,0,1,61.6,7a2.9,2.9,0,0,1,2.269.971,3.736,3.736,0,0,1,.866,2.583v.083a4.092,4.092,0,0,1-.384,1.8,2.916,2.916,0,0,1-1.1,1.241,3.041,3.041,0,0,1-1.641.444,2.889,2.889,0,0,1-2.263-.971,3.718,3.718,0,0,1-.866-2.571Zm1.181.14a2.938,2.938,0,0,0,.53,1.834,1.8,1.8,0,0,0,2.841-.01,3.213,3.213,0,0,0,.527-1.965,2.933,2.933,0,0,0-.536-1.831,1.705,1.705,0,0,0-1.425-.7,1.686,1.686,0,0,0-1.4.692A3.189,3.189,0,0,0,59.666,10.642ZM70.21,12.178a.864.864,0,0,0-.359-.74,3.452,3.452,0,0,0-1.25-.454,5.912,5.912,0,0,1-1.416-.457,2.014,2.014,0,0,1-.774-.635,1.518,1.518,0,0,1-.251-.876,1.782,1.782,0,0,1,.714-1.428A2.789,2.789,0,0,1,68.7,7a2.87,2.87,0,0,1,1.895.6,1.915,1.915,0,0,1,.727,1.542H70.14a1.06,1.06,0,0,0-.409-.832A1.534,1.534,0,0,0,68.7,7.97a1.606,1.606,0,0,0-1,.279.879.879,0,0,0-.362.73.712.712,0,0,0,.336.641,4.139,4.139,0,0,0,1.216.413,6.334,6.334,0,0,1,1.425.47,2.079,2.079,0,0,1,.809.657,1.615,1.615,0,0,1,.263.936,1.758,1.758,0,0,1-.736,1.476,3.089,3.089,0,0,1-1.911.555,3.459,3.459,0,0,1-1.46-.292,2.375,2.375,0,0,1-.993-.816,1.966,1.966,0,0,1-.359-1.133H67.1a1.216,1.216,0,0,0,.473.936,1.835,1.835,0,0,0,1.165.346,1.894,1.894,0,0,0,1.07-.27A.829.829,0,0,0,70.21,12.178Zm5.637-1.669A4.023,4.023,0,0,1,76.6,7.967a2.548,2.548,0,0,1,3.872-.136V4.25h1.174V14H80.563l-.057-.736a2.391,2.391,0,0,1-1.961.863,2.346,2.346,0,0,1-1.946-.978,4.069,4.069,0,0,1-.752-2.552Zm1.174.133A3.046,3.046,0,0,0,77.5,12.47a1.56,1.56,0,0,0,1.333.66,1.713,1.713,0,0,0,1.631-1V8.973A1.726,1.726,0,0,0,78.849,8a1.567,1.567,0,0,0-1.346.667A3.354,3.354,0,0,0,77.021,10.642Zm9.293,3.485a3,3,0,0,1-2.272-.917,3.4,3.4,0,0,1-.876-2.453v-.216a4.121,4.121,0,0,1,.39-1.825,3.045,3.045,0,0,1,1.092-1.257A2.745,2.745,0,0,1,86.168,7a2.572,2.572,0,0,1,2.082.882,3.82,3.82,0,0,1,.743,2.526V10.9H84.34a2.441,2.441,0,0,0,.594,1.641,1.866,1.866,0,0,0,1.444.625,2.045,2.045,0,0,0,1.054-.254,2.648,2.648,0,0,0,.755-.673l.717.559A2.884,2.884,0,0,1,86.314,14.127ZM86.168,7.97a1.566,1.566,0,0,0-1.193.517,2.515,2.515,0,0,0-.6,1.45h3.44V9.849a2.237,2.237,0,0,0-.482-1.387A1.475,1.475,0,0,0,86.168,7.97ZM22.05,23.186a3.519,3.519,0,0,0-.578-.044,1.547,1.547,0,0,0-1.568.984V29H18.73V22.132h1.143l.019.793A1.829,1.829,0,0,1,21.53,22a1.2,1.2,0,0,1,.521.089Zm3.929,5.941a3,3,0,0,1-2.272-.917,3.4,3.4,0,0,1-.876-2.453v-.216a4.121,4.121,0,0,1,.39-1.825,3.045,3.045,0,0,1,1.092-1.257A2.745,2.745,0,0,1,25.833,22a2.572,2.572,0,0,1,2.082.882,3.82,3.82,0,0,1,.743,2.526V25.9H24.005a2.441,2.441,0,0,0,.594,1.641,1.866,1.866,0,0,0,1.444.625,2.045,2.045,0,0,0,1.054-.254,2.648,2.648,0,0,0,.755-.673l.717.559A2.884,2.884,0,0,1,25.979,29.127Zm-.146-6.157a1.566,1.566,0,0,0-1.193.517,2.515,2.515,0,0,0-.6,1.45h3.44v-.089A2.237,2.237,0,0,0,27,23.462,1.475,1.475,0,0,0,25.833,22.97Zm6.938,5.2a1.692,1.692,0,0,0,1.1-.381,1.34,1.34,0,0,0,.521-.952H35.5a2.13,2.13,0,0,1-.406,1.124,2.676,2.676,0,0,1-1,.851,2.885,2.885,0,0,1-1.323.317,2.829,2.829,0,0,1-2.231-.936,3.729,3.729,0,0,1-.828-2.561v-.2a4.135,4.135,0,0,1,.368-1.784,2.8,2.8,0,0,1,1.057-1.212A3,3,0,0,1,32.765,22a2.755,2.755,0,0,1,1.92.692,2.473,2.473,0,0,1,.816,1.8H34.39a1.618,1.618,0,0,0-.5-1.095,1.57,1.57,0,0,0-1.12-.428,1.644,1.644,0,0,0-1.387.644,3.026,3.026,0,0,0-.492,1.863V25.7a2.965,2.965,0,0,0,.489,1.828A1.651,1.651,0,0,0,32.771,28.168Zm8.29.152a2.494,2.494,0,0,1-2.012.806,2.135,2.135,0,0,1-1.673-.638A2.761,2.761,0,0,1,36.8,26.6V22.132H37.97v4.437q0,1.562,1.27,1.562a1.758,1.758,0,0,0,1.79-1v-5H42.2V29H41.087Zm8.728-2.679a4.113,4.113,0,0,1-.717,2.526,2.3,2.3,0,0,1-1.942.958,2.519,2.519,0,0,1-1.968-.793v3.307H43.988V22.132h1.073l.057.762A2.419,2.419,0,0,1,47.111,22a2.342,2.342,0,0,1,1.958.933,4.157,4.157,0,0,1,.72,2.6Zm-1.174-.133a3.035,3.035,0,0,0-.5-1.834A1.6,1.6,0,0,0,46.762,23a1.726,1.726,0,0,0-1.6.946v3.282a1.73,1.73,0,0,0,1.612.939,1.587,1.587,0,0,0,1.343-.67A3.312,3.312,0,0,0,48.615,25.509Zm5.516,3.618a3,3,0,0,1-2.272-.917,3.4,3.4,0,0,1-.876-2.453v-.216a4.121,4.121,0,0,1,.39-1.825,3.045,3.045,0,0,1,1.092-1.257A2.745,2.745,0,0,1,53.985,22a2.572,2.572,0,0,1,2.082.882,3.82,3.82,0,0,1,.743,2.526V25.9H52.157a2.441,2.441,0,0,0,.594,1.641,1.866,1.866,0,0,0,1.444.625,2.045,2.045,0,0,0,1.054-.254A2.648,2.648,0,0,0,56,27.242l.717.559A2.884,2.884,0,0,1,54.131,29.127Zm-.146-6.157a1.566,1.566,0,0,0-1.193.517,2.515,2.515,0,0,0-.6,1.45h3.44v-.089a2.237,2.237,0,0,0-.482-1.387A1.475,1.475,0,0,0,53.985,22.97Zm7.5.216a3.519,3.519,0,0,0-.578-.044,1.547,1.547,0,0,0-1.568.984V29H58.168V22.132h1.143l.019.793A1.829,1.829,0,0,1,60.968,22a1.2,1.2,0,0,1,.521.089ZM66.554,29a2.467,2.467,0,0,1-.165-.724,2.62,2.62,0,0,1-1.955.851,2.424,2.424,0,0,1-1.666-.574,1.859,1.859,0,0,1-.651-1.457,1.942,1.942,0,0,1,.816-1.666,3.846,3.846,0,0,1,2.295-.594H66.37V24.3A1.319,1.319,0,0,0,66,23.316a1.48,1.48,0,0,0-1.085-.365,1.712,1.712,0,0,0-1.054.317.935.935,0,0,0-.425.768H62.256a1.621,1.621,0,0,1,.365-.993,2.491,2.491,0,0,1,.99-.759A3.331,3.331,0,0,1,64.986,22a2.715,2.715,0,0,1,1.86.594,2.141,2.141,0,0,1,.7,1.635v3.161a3.865,3.865,0,0,0,.241,1.5V29ZM64.6,28.1a2.064,2.064,0,0,0,1.047-.286,1.728,1.728,0,0,0,.717-.743V25.667h-.92q-2.158,0-2.158,1.263a1.069,1.069,0,0,0,.368.863A1.415,1.415,0,0,0,64.6,28.1Zm7.535.063a1.691,1.691,0,0,0,1.1-.381,1.34,1.34,0,0,0,.521-.952h1.111a2.13,2.13,0,0,1-.406,1.124,2.676,2.676,0,0,1-1,.851,2.885,2.885,0,0,1-1.323.317,2.829,2.829,0,0,1-2.231-.936,3.729,3.729,0,0,1-.828-2.561v-.2a4.135,4.135,0,0,1,.368-1.784,2.8,2.8,0,0,1,1.057-1.212A3,3,0,0,1,72.133,22a2.755,2.755,0,0,1,1.92.692,2.473,2.473,0,0,1,.816,1.8H73.758a1.618,1.618,0,0,0-.5-1.095,1.57,1.57,0,0,0-1.12-.428,1.644,1.644,0,0,0-1.387.644,3.026,3.026,0,0,0-.492,1.863V25.7a2.966,2.966,0,0,0,.489,1.828A1.651,1.651,0,0,0,72.14,28.168ZM77.465,29H76.291V22.132h1.174ZM76.2,20.31a.7.7,0,0,1,.175-.482.655.655,0,0,1,.517-.2.666.666,0,0,1,.521.2.694.694,0,0,1,.178.482.671.671,0,0,1-.178.476.678.678,0,0,1-.521.19.667.667,0,0,1-.517-.19A.678.678,0,0,1,76.2,20.31ZM79.033,25.5a4.057,4.057,0,0,1,.4-1.815,2.96,2.96,0,0,1,1.1-1.244A3.007,3.007,0,0,1,82.15,22a2.9,2.9,0,0,1,2.269.971,3.736,3.736,0,0,1,.866,2.583v.083a4.092,4.092,0,0,1-.384,1.8,2.916,2.916,0,0,1-1.1,1.241,3.041,3.041,0,0,1-1.641.444,2.889,2.889,0,0,1-2.263-.971,3.718,3.718,0,0,1-.866-2.571Zm1.181.14a2.938,2.938,0,0,0,.53,1.834,1.8,1.8,0,0,0,2.841-.01,3.213,3.213,0,0,0,.527-1.965,2.933,2.933,0,0,0-.536-1.831,1.705,1.705,0,0,0-1.425-.7,1.686,1.686,0,0,0-1.4.692A3.189,3.189,0,0,0,80.214,25.642Zm2.469-6.392H84.1l-1.7,1.866-.946,0Zm5.186,2.882.038.863A2.5,2.5,0,0,1,89.964,22q2.177,0,2.2,2.457V29H90.986V24.455a1.581,1.581,0,0,0-.34-1.1A1.361,1.361,0,0,0,89.608,23a1.7,1.7,0,0,0-1,.3,2.069,2.069,0,0,0-.673.8V29H86.758V22.132Z" transform="translate(1273.496 -2159.023)" fill="#12263f"/>
    <path id="Trazado_603925" data-name="Trazado 603925" d="M33.873,10.382V14H32.654V4.758h3.409a3.425,3.425,0,0,1,2.377.774,2.625,2.625,0,0,1,.86,2.05,2.591,2.591,0,0,1-.841,2.073,3.578,3.578,0,0,1-2.409.727Zm0-1h2.19a2.19,2.19,0,0,0,1.5-.461,1.686,1.686,0,0,0,.521-1.332,1.742,1.742,0,0,0-.521-1.323,2.051,2.051,0,0,0-1.428-.515h-2.26Zm10.118-1.2a3.519,3.519,0,0,0-.578-.044,1.547,1.547,0,0,0-1.568.984V14H40.671V7.132h1.143l.019.793A1.829,1.829,0,0,1,43.47,7a1.2,1.2,0,0,1,.521.089Zm5.319,5.135a2.494,2.494,0,0,1-2.012.806,2.135,2.135,0,0,1-1.673-.638,2.761,2.761,0,0,1-.581-1.888V7.132h1.174v4.437q0,1.562,1.27,1.562a1.758,1.758,0,0,0,1.79-1v-5h1.174V14H49.336Zm5.776.806a3,3,0,0,1-2.272-.917,3.4,3.4,0,0,1-.876-2.453v-.216a4.121,4.121,0,0,1,.39-1.825A3.045,3.045,0,0,1,53.42,7.459,2.745,2.745,0,0,1,54.941,7a2.572,2.572,0,0,1,2.082.882,3.82,3.82,0,0,1,.743,2.526V10.9H53.113a2.441,2.441,0,0,0,.594,1.641,1.866,1.866,0,0,0,1.444.625,2.045,2.045,0,0,0,1.054-.254,2.648,2.648,0,0,0,.755-.673l.717.559A2.884,2.884,0,0,1,55.087,14.127ZM54.941,7.97a1.566,1.566,0,0,0-1.193.517,2.515,2.515,0,0,0-.6,1.45h3.44V9.849a2.237,2.237,0,0,0-.482-1.387A1.475,1.475,0,0,0,54.941,7.97Zm10,2.672a4.084,4.084,0,0,1-.724,2.53,2.312,2.312,0,0,1-1.942.955,2.394,2.394,0,0,1-2.012-.92L60.2,14H59.124V4.25H60.3V7.887A2.381,2.381,0,0,1,62.26,7a2.326,2.326,0,0,1,1.965.946,4.206,4.206,0,0,1,.714,2.59Zm-1.174-.133A3.173,3.173,0,0,0,63.3,8.655,1.534,1.534,0,0,0,61.968,8,1.724,1.724,0,0,0,60.3,9.081v2.971A1.772,1.772,0,0,0,61.98,13.13a1.526,1.526,0,0,0,1.314-.654A3.374,3.374,0,0,0,63.764,10.509ZM70.657,14a2.467,2.467,0,0,1-.165-.724,2.62,2.62,0,0,1-1.955.851,2.424,2.424,0,0,1-1.666-.574A1.859,1.859,0,0,1,66.22,12.1a1.942,1.942,0,0,1,.816-1.666,3.846,3.846,0,0,1,2.295-.594h1.143V9.3a1.319,1.319,0,0,0-.368-.981,1.48,1.48,0,0,0-1.085-.365,1.712,1.712,0,0,0-1.054.317.935.935,0,0,0-.425.768H66.36a1.621,1.621,0,0,1,.365-.993,2.491,2.491,0,0,1,.99-.759A3.331,3.331,0,0,1,69.09,7a2.715,2.715,0,0,1,1.86.594,2.141,2.141,0,0,1,.7,1.635v3.161a3.865,3.865,0,0,0,.241,1.5V14Zm-1.949-.9a2.064,2.064,0,0,0,1.047-.286,1.728,1.728,0,0,0,.717-.743V10.667h-.92q-2.158,0-2.158,1.263a1.069,1.069,0,0,0,.368.863A1.415,1.415,0,0,0,68.709,13.1Zm8.779-.927a.864.864,0,0,0-.359-.74,3.452,3.452,0,0,0-1.25-.454,5.912,5.912,0,0,1-1.416-.457,2.014,2.014,0,0,1-.774-.635,1.518,1.518,0,0,1-.251-.876,1.782,1.782,0,0,1,.714-1.428A2.789,2.789,0,0,1,75.977,7a2.87,2.87,0,0,1,1.895.6A1.915,1.915,0,0,1,78.6,9.15H77.418a1.06,1.06,0,0,0-.409-.832,1.534,1.534,0,0,0-1.031-.349,1.606,1.606,0,0,0-1,.279.879.879,0,0,0-.362.73.712.712,0,0,0,.336.641,4.139,4.139,0,0,0,1.216.413,6.334,6.334,0,0,1,1.425.47,2.079,2.079,0,0,1,.809.657,1.615,1.615,0,0,1,.263.936,1.758,1.758,0,0,1-.736,1.476,3.089,3.089,0,0,1-1.911.555,3.459,3.459,0,0,1-1.46-.292,2.375,2.375,0,0,1-.993-.816,1.966,1.966,0,0,1-.359-1.133h1.174a1.216,1.216,0,0,0,.473.936,1.835,1.835,0,0,0,1.165.346,1.894,1.894,0,0,0,1.07-.27A.829.829,0,0,0,77.488,12.178Z" transform="translate(1273.496 -2213.96)" fill="#12263f"/>
    <path id="Trazado_603926" data-name="Trazado 603926" d="M10.837,10.261H8.666V14H7.441V4.758H10.5a3.621,3.621,0,0,1,2.4.711,2.558,2.558,0,0,1,.841,2.069,2.488,2.488,0,0,1-.467,1.5,2.785,2.785,0,0,1-1.3.958l2.171,3.923V14H12.843Zm-2.171-1h1.873a2.112,2.112,0,0,0,1.444-.471,1.591,1.591,0,0,0,.536-1.259,1.676,1.676,0,0,0-.511-1.316,2.164,2.164,0,0,0-1.476-.464H8.666Zm9.452,4.862a3,3,0,0,1-2.272-.917,3.4,3.4,0,0,1-.876-2.453v-.216a4.121,4.121,0,0,1,.39-1.825,3.045,3.045,0,0,1,1.092-1.257A2.745,2.745,0,0,1,17.971,7a2.572,2.572,0,0,1,2.082.882,3.82,3.82,0,0,1,.743,2.526V10.9H16.143a2.441,2.441,0,0,0,.594,1.641,1.866,1.866,0,0,0,1.444.625,2.045,2.045,0,0,0,1.054-.254,2.648,2.648,0,0,0,.755-.673l.717.559A2.884,2.884,0,0,1,18.117,14.127ZM17.971,7.97a1.566,1.566,0,0,0-1.193.517,2.515,2.515,0,0,0-.6,1.45h3.44V9.849a2.237,2.237,0,0,0-.482-1.387A1.475,1.475,0,0,0,17.971,7.97ZM26.395,14a2.467,2.467,0,0,1-.165-.724,2.62,2.62,0,0,1-1.955.851,2.424,2.424,0,0,1-1.666-.574,1.859,1.859,0,0,1-.651-1.457,1.942,1.942,0,0,1,.816-1.666,3.846,3.846,0,0,1,2.295-.594h1.143V9.3a1.319,1.319,0,0,0-.368-.981,1.48,1.48,0,0,0-1.085-.365,1.712,1.712,0,0,0-1.054.317.935.935,0,0,0-.425.768H22.1a1.621,1.621,0,0,1,.365-.993,2.491,2.491,0,0,1,.99-.759A3.331,3.331,0,0,1,24.827,7a2.715,2.715,0,0,1,1.86.594,2.141,2.141,0,0,1,.7,1.635v3.161a3.865,3.865,0,0,0,.241,1.5V14Zm-1.949-.9a2.064,2.064,0,0,0,1.047-.286,1.728,1.728,0,0,0,.717-.743V10.667h-.92q-2.158,0-2.158,1.263a1.069,1.069,0,0,0,.368.863A1.415,1.415,0,0,0,24.446,13.1Zm5.891-5.973L30.375,8A2.5,2.5,0,0,1,32.431,7q2.177,0,2.2,2.457V14H33.453V9.455a1.581,1.581,0,0,0-.34-1.1A1.361,1.361,0,0,0,32.076,8a1.7,1.7,0,0,0-1,.3,2.069,2.069,0,0,0-.673.8V14H29.226V7.132Zm10.3,6.189a2.494,2.494,0,0,1-2.012.806,2.135,2.135,0,0,1-1.673-.638,2.761,2.761,0,0,1-.581-1.888V7.132h1.174v4.437q0,1.562,1.27,1.562a1.758,1.758,0,0,0,1.79-1v-5h1.174V14H40.664Zm2.641-2.812a4.023,4.023,0,0,1,.749-2.542A2.548,2.548,0,0,1,47.9,7.83V4.25h1.174V14H48l-.057-.736a2.391,2.391,0,0,1-1.961.863,2.346,2.346,0,0,1-1.946-.978A4.069,4.069,0,0,1,43.28,10.6Zm1.174.133a3.046,3.046,0,0,0,.482,1.828,1.56,1.56,0,0,0,1.333.66,1.713,1.713,0,0,0,1.631-1V8.973A1.726,1.726,0,0,0,46.282,8a1.567,1.567,0,0,0-1.346.667A3.354,3.354,0,0,0,44.454,10.642ZM55.137,14a2.467,2.467,0,0,1-.165-.724,2.62,2.62,0,0,1-1.955.851,2.424,2.424,0,0,1-1.666-.574A1.859,1.859,0,0,1,50.7,12.1a1.942,1.942,0,0,1,.816-1.666,3.846,3.846,0,0,1,2.295-.594h1.143V9.3a1.319,1.319,0,0,0-.368-.981A1.48,1.48,0,0,0,53.5,7.951a1.712,1.712,0,0,0-1.054.317.935.935,0,0,0-.425.768H50.84a1.621,1.621,0,0,1,.365-.993,2.491,2.491,0,0,1,.99-.759A3.331,3.331,0,0,1,53.569,7a2.715,2.715,0,0,1,1.86.594,2.141,2.141,0,0,1,.7,1.635v3.161a3.865,3.865,0,0,0,.241,1.5V14Zm-1.949-.9a2.064,2.064,0,0,0,1.047-.286,1.728,1.728,0,0,0,.717-.743V10.667h-.92q-2.158,0-2.158,1.263a1.069,1.069,0,0,0,.368.863A1.415,1.415,0,0,0,53.188,13.1Zm7.535.063a1.692,1.692,0,0,0,1.1-.381,1.34,1.34,0,0,0,.521-.952h1.111a2.13,2.13,0,0,1-.406,1.124,2.676,2.676,0,0,1-1,.851,2.885,2.885,0,0,1-1.323.317,2.829,2.829,0,0,1-2.231-.936,3.729,3.729,0,0,1-.828-2.561v-.2a4.135,4.135,0,0,1,.368-1.784,2.8,2.8,0,0,1,1.057-1.212A3,3,0,0,1,60.717,7a2.755,2.755,0,0,1,1.92.692,2.473,2.473,0,0,1,.816,1.8H62.342a1.618,1.618,0,0,0-.5-1.095,1.57,1.57,0,0,0-1.12-.428,1.644,1.644,0,0,0-1.387.644,3.026,3.026,0,0,0-.492,1.863V10.7a2.965,2.965,0,0,0,.489,1.828A1.651,1.651,0,0,0,60.723,13.168ZM66.049,14H64.874V7.132h1.174Zm-1.27-8.69a.7.7,0,0,1,.175-.482.655.655,0,0,1,.517-.2.666.666,0,0,1,.521.2.694.694,0,0,1,.178.482.671.671,0,0,1-.178.476.678.678,0,0,1-.521.19.667.667,0,0,1-.517-.19A.678.678,0,0,1,64.779,5.31ZM67.616,10.5a4.057,4.057,0,0,1,.4-1.815,2.96,2.96,0,0,1,1.1-1.244A3.007,3.007,0,0,1,70.733,7,2.9,2.9,0,0,1,73,7.976a3.736,3.736,0,0,1,.866,2.583v.083a4.092,4.092,0,0,1-.384,1.8,2.916,2.916,0,0,1-1.1,1.241,3.041,3.041,0,0,1-1.641.444,2.889,2.889,0,0,1-2.263-.971,3.718,3.718,0,0,1-.866-2.571Zm1.181.14a2.938,2.938,0,0,0,.53,1.834,1.8,1.8,0,0,0,2.841-.01,3.213,3.213,0,0,0,.527-1.965,2.933,2.933,0,0,0-.536-1.831,1.705,1.705,0,0,0-1.425-.7,1.686,1.686,0,0,0-1.4.692A3.189,3.189,0,0,0,68.8,10.642ZM71.266,4.25h1.422l-1.7,1.866-.946,0Zm5.186,2.882L76.49,8A2.5,2.5,0,0,1,78.547,7q2.177,0,2.2,2.457V14H79.569V9.455a1.581,1.581,0,0,0-.34-1.1A1.361,1.361,0,0,0,78.192,8a1.7,1.7,0,0,0-1,.3,2.069,2.069,0,0,0-.673.8V14H75.342V7.132ZM9.139,25.509a4.023,4.023,0,0,1,.749-2.542A2.369,2.369,0,0,1,11.849,22a2.382,2.382,0,0,1,1.911.825V19.25h1.174V29H13.855l-.057-.736a2.391,2.391,0,0,1-1.961.863,2.346,2.346,0,0,1-1.946-.978A4.069,4.069,0,0,1,9.139,25.6Zm1.174.133A3.046,3.046,0,0,0,10.8,27.47a1.56,1.56,0,0,0,1.333.66,1.713,1.713,0,0,0,1.631-1V23.973A1.726,1.726,0,0,0,12.141,23a1.567,1.567,0,0,0-1.346.667A3.354,3.354,0,0,0,10.313,25.642Zm9.293,3.485a3,3,0,0,1-2.272-.917,3.4,3.4,0,0,1-.876-2.453v-.216a4.121,4.121,0,0,1,.39-1.825,3.045,3.045,0,0,1,1.092-1.257A2.745,2.745,0,0,1,19.46,22a2.572,2.572,0,0,1,2.082.882,3.82,3.82,0,0,1,.743,2.526V25.9H17.632a2.441,2.441,0,0,0,.594,1.641,1.866,1.866,0,0,0,1.444.625,2.045,2.045,0,0,0,1.054-.254,2.648,2.648,0,0,0,.755-.673l.717.559A2.884,2.884,0,0,1,19.606,29.127ZM19.46,22.97a1.566,1.566,0,0,0-1.193.517,2.515,2.515,0,0,0-.6,1.45h3.44v-.089a2.237,2.237,0,0,0-.482-1.387A1.475,1.475,0,0,0,19.46,22.97Zm13.2,2.672a4.113,4.113,0,0,1-.717,2.526A2.3,2.3,0,0,1,30,29.127a2.519,2.519,0,0,1-1.968-.793v3.307H26.861V22.132h1.073l.057.762A2.419,2.419,0,0,1,29.984,22a2.342,2.342,0,0,1,1.958.933,4.157,4.157,0,0,1,.72,2.6Zm-1.174-.133a3.035,3.035,0,0,0-.5-1.834A1.6,1.6,0,0,0,29.635,23a1.726,1.726,0,0,0-1.6.946v3.282a1.73,1.73,0,0,0,1.612.939,1.587,1.587,0,0,0,1.343-.67A3.312,3.312,0,0,0,31.489,25.509Zm5.986-2.323a3.519,3.519,0,0,0-.578-.044,1.547,1.547,0,0,0-1.568.984V29H34.155V22.132H35.3l.019.793A1.829,1.829,0,0,1,36.954,22a1.2,1.2,0,0,1,.521.089Zm.641,2.317a4.057,4.057,0,0,1,.4-1.815,2.96,2.96,0,0,1,1.1-1.244A3.007,3.007,0,0,1,41.232,22a2.9,2.9,0,0,1,2.269.971,3.736,3.736,0,0,1,.866,2.583v.083a4.092,4.092,0,0,1-.384,1.8,2.916,2.916,0,0,1-1.1,1.241,3.041,3.041,0,0,1-1.641.444,2.889,2.889,0,0,1-2.263-.971,3.718,3.718,0,0,1-.866-2.571Zm1.181.14a2.938,2.938,0,0,0,.53,1.834,1.8,1.8,0,0,0,2.841-.01,3.213,3.213,0,0,0,.527-1.965,2.933,2.933,0,0,0-.536-1.831,1.705,1.705,0,0,0-1.425-.7,1.686,1.686,0,0,0-1.4.692A3.189,3.189,0,0,0,39.3,25.642Zm9.3,2.526a1.692,1.692,0,0,0,1.1-.381,1.34,1.34,0,0,0,.521-.952h1.111a2.13,2.13,0,0,1-.406,1.124,2.676,2.676,0,0,1-1,.851,2.885,2.885,0,0,1-1.323.317,2.829,2.829,0,0,1-2.231-.936,3.729,3.729,0,0,1-.828-2.561v-.2a4.135,4.135,0,0,1,.368-1.784,2.8,2.8,0,0,1,1.057-1.212A3,3,0,0,1,48.589,22a2.755,2.755,0,0,1,1.92.692,2.473,2.473,0,0,1,.816,1.8H50.214a1.618,1.618,0,0,0-.5-1.095,1.57,1.57,0,0,0-1.12-.428,1.644,1.644,0,0,0-1.387.644,3.026,3.026,0,0,0-.492,1.863V25.7a2.965,2.965,0,0,0,.489,1.828A1.651,1.651,0,0,0,48.6,28.168Zm6.9.958a3,3,0,0,1-2.272-.917,3.4,3.4,0,0,1-.876-2.453v-.216a4.121,4.121,0,0,1,.39-1.825,3.045,3.045,0,0,1,1.092-1.257A2.745,2.745,0,0,1,55.35,22a2.572,2.572,0,0,1,2.082.882,3.82,3.82,0,0,1,.743,2.526V25.9H53.521a2.441,2.441,0,0,0,.594,1.641,1.866,1.866,0,0,0,1.444.625,2.045,2.045,0,0,0,1.054-.254,2.648,2.648,0,0,0,.755-.673l.717.559A2.884,2.884,0,0,1,55.5,29.127ZM55.35,22.97a1.566,1.566,0,0,0-1.193.517,2.515,2.515,0,0,0-.6,1.45H57v-.089a2.237,2.237,0,0,0-.482-1.387A1.475,1.475,0,0,0,55.35,22.97Zm8.182,4.208a.865.865,0,0,0-.359-.74,3.452,3.452,0,0,0-1.25-.454,5.912,5.912,0,0,1-1.416-.457,2.014,2.014,0,0,1-.774-.635,1.518,1.518,0,0,1-.251-.876,1.782,1.782,0,0,1,.714-1.428A2.789,2.789,0,0,1,62.021,22a2.87,2.87,0,0,1,1.895.6,1.915,1.915,0,0,1,.727,1.542H63.462a1.06,1.06,0,0,0-.409-.832,1.534,1.534,0,0,0-1.031-.349,1.606,1.606,0,0,0-1,.279.879.879,0,0,0-.362.73.712.712,0,0,0,.336.641,4.139,4.139,0,0,0,1.216.413,6.334,6.334,0,0,1,1.425.47,2.079,2.079,0,0,1,.809.657,1.615,1.615,0,0,1,.263.936,1.758,1.758,0,0,1-.736,1.476,3.089,3.089,0,0,1-1.911.555,3.459,3.459,0,0,1-1.46-.292,2.375,2.375,0,0,1-.993-.816,1.966,1.966,0,0,1-.359-1.133h1.174a1.216,1.216,0,0,0,.473.936,1.835,1.835,0,0,0,1.165.346,1.894,1.894,0,0,0,1.07-.27A.829.829,0,0,0,63.532,27.178ZM65.925,25.5a4.057,4.057,0,0,1,.4-1.815,2.96,2.96,0,0,1,1.1-1.244A3.007,3.007,0,0,1,69.042,22a2.9,2.9,0,0,1,2.269.971,3.736,3.736,0,0,1,.866,2.583v.083a4.092,4.092,0,0,1-.384,1.8,2.916,2.916,0,0,1-1.1,1.241,3.041,3.041,0,0,1-1.641.444,2.889,2.889,0,0,1-2.263-.971,3.718,3.718,0,0,1-.866-2.571Zm1.181.14a2.938,2.938,0,0,0,.53,1.834,1.8,1.8,0,0,0,2.841-.01A3.213,3.213,0,0,0,71,25.5a2.933,2.933,0,0,0-.536-1.831,1.705,1.705,0,0,0-1.425-.7,1.686,1.686,0,0,0-1.4.692A3.189,3.189,0,0,0,67.105,25.642Zm10.543,1.536a.864.864,0,0,0-.359-.74,3.452,3.452,0,0,0-1.25-.454,5.912,5.912,0,0,1-1.416-.457,2.014,2.014,0,0,1-.774-.635,1.518,1.518,0,0,1-.251-.876,1.782,1.782,0,0,1,.714-1.428A2.789,2.789,0,0,1,76.138,22a2.87,2.87,0,0,1,1.895.6,1.915,1.915,0,0,1,.727,1.542H77.579a1.06,1.06,0,0,0-.409-.832,1.534,1.534,0,0,0-1.031-.349,1.606,1.606,0,0,0-1,.279.879.879,0,0,0-.362.73.712.712,0,0,0,.336.641,4.139,4.139,0,0,0,1.216.413,6.334,6.334,0,0,1,1.425.47,2.079,2.079,0,0,1,.809.657,1.615,1.615,0,0,1,.263.936,1.758,1.758,0,0,1-.736,1.476,3.089,3.089,0,0,1-1.911.555,3.459,3.459,0,0,1-1.46-.292,2.375,2.375,0,0,1-.993-.816,1.966,1.966,0,0,1-.359-1.133h1.174a1.216,1.216,0,0,0,.473.936,1.835,1.835,0,0,0,1.165.346,1.894,1.894,0,0,0,1.07-.27A.829.829,0,0,0,77.649,27.178Z" transform="translate(1286.521 -2285.357)" fill="#12263f"/>
    <path id="Trazado_603927" data-name="Trazado 603927" d="M31.321,9.728H27.316V13h4.653v1H26.1V4.758h5.808v1H27.316V8.731h4.005Zm5.979,2.45a.865.865,0,0,0-.359-.74,3.452,3.452,0,0,0-1.25-.454,5.912,5.912,0,0,1-1.416-.457,2.014,2.014,0,0,1-.774-.635,1.518,1.518,0,0,1-.251-.876,1.782,1.782,0,0,1,.714-1.428A2.789,2.789,0,0,1,35.79,7a2.87,2.87,0,0,1,1.895.6,1.915,1.915,0,0,1,.727,1.542H37.231a1.06,1.06,0,0,0-.409-.832A1.534,1.534,0,0,0,35.79,7.97a1.605,1.605,0,0,0-1,.279.879.879,0,0,0-.362.73.712.712,0,0,0,.336.641,4.139,4.139,0,0,0,1.216.413,6.334,6.334,0,0,1,1.425.47,2.079,2.079,0,0,1,.809.657,1.615,1.615,0,0,1,.263.936,1.758,1.758,0,0,1-.736,1.476,3.089,3.089,0,0,1-1.911.555,3.459,3.459,0,0,1-1.46-.292,2.375,2.375,0,0,1-.993-.816,1.966,1.966,0,0,1-.359-1.133H34.19a1.216,1.216,0,0,0,.473.936,1.835,1.835,0,0,0,1.165.346,1.894,1.894,0,0,0,1.07-.27A.829.829,0,0,0,37.3,12.178Zm4.3-6.709V7.132H42.88V8.04H41.6V12.3a.953.953,0,0,0,.171.62.721.721,0,0,0,.584.207,2.843,2.843,0,0,0,.559-.076V14a3.424,3.424,0,0,1-.9.126,1.462,1.462,0,0,1-1.187-.476,2.045,2.045,0,0,1-.4-1.352V8.04h-1.25V7.132h1.25V5.469ZM48.491,14a2.467,2.467,0,0,1-.165-.724,2.62,2.62,0,0,1-1.955.851,2.424,2.424,0,0,1-1.666-.574,1.859,1.859,0,0,1-.651-1.457,1.942,1.942,0,0,1,.816-1.666,3.846,3.846,0,0,1,2.295-.594h1.143V9.3a1.319,1.319,0,0,0-.368-.981,1.48,1.48,0,0,0-1.085-.365,1.712,1.712,0,0,0-1.054.317.935.935,0,0,0-.425.768H44.194a1.621,1.621,0,0,1,.365-.993,2.491,2.491,0,0,1,.99-.759A3.331,3.331,0,0,1,46.924,7a2.715,2.715,0,0,1,1.86.594,2.141,2.141,0,0,1,.7,1.635v3.161a3.865,3.865,0,0,0,.241,1.5V14Zm-1.949-.9a2.064,2.064,0,0,0,1.047-.286,1.728,1.728,0,0,0,.717-.743V10.667h-.92q-2.158,0-2.158,1.263a1.069,1.069,0,0,0,.368.863A1.415,1.415,0,0,0,46.543,13.1Zm10.594-2.463a4.084,4.084,0,0,1-.724,2.53,2.312,2.312,0,0,1-1.942.955,2.394,2.394,0,0,1-2.012-.92L52.4,14H51.323V4.25H52.5V7.887A2.381,2.381,0,0,1,54.458,7a2.326,2.326,0,0,1,1.965.946,4.206,4.206,0,0,1,.714,2.59Zm-1.174-.133A3.173,3.173,0,0,0,55.5,8.655,1.534,1.534,0,0,0,54.166,8,1.724,1.724,0,0,0,52.5,9.081v2.971a1.772,1.772,0,0,0,1.682,1.079,1.526,1.526,0,0,0,1.314-.654A3.374,3.374,0,0,0,55.963,10.509ZM59.892,14H58.718V4.25h1.174Zm4.729.127a3,3,0,0,1-2.272-.917,3.4,3.4,0,0,1-.876-2.453v-.216a4.121,4.121,0,0,1,.39-1.825,3.045,3.045,0,0,1,1.092-1.257A2.745,2.745,0,0,1,64.475,7a2.572,2.572,0,0,1,2.082.882,3.82,3.82,0,0,1,.743,2.526V10.9H62.647a2.441,2.441,0,0,0,.594,1.641,1.866,1.866,0,0,0,1.444.625,2.045,2.045,0,0,0,1.054-.254,2.648,2.648,0,0,0,.755-.673l.717.559A2.884,2.884,0,0,1,64.621,14.127ZM64.475,7.97a1.566,1.566,0,0,0-1.193.517,2.515,2.515,0,0,0-.6,1.45h3.44V9.849a2.237,2.237,0,0,0-.482-1.387A1.475,1.475,0,0,0,64.475,7.97Zm6.938,5.2a1.691,1.691,0,0,0,1.1-.381,1.34,1.34,0,0,0,.521-.952h1.111a2.13,2.13,0,0,1-.406,1.124,2.676,2.676,0,0,1-1,.851,2.885,2.885,0,0,1-1.323.317,2.829,2.829,0,0,1-2.231-.936,3.729,3.729,0,0,1-.828-2.561v-.2a4.135,4.135,0,0,1,.368-1.784,2.8,2.8,0,0,1,1.057-1.212A3,3,0,0,1,71.406,7a2.755,2.755,0,0,1,1.92.692,2.473,2.473,0,0,1,.816,1.8H73.031a1.618,1.618,0,0,0-.5-1.095,1.57,1.57,0,0,0-1.12-.428,1.644,1.644,0,0,0-1.387.644,3.026,3.026,0,0,0-.492,1.863V10.7a2.966,2.966,0,0,0,.489,1.828A1.651,1.651,0,0,0,71.413,13.168Zm6.9.958a3,3,0,0,1-2.272-.917,3.4,3.4,0,0,1-.876-2.453v-.216a4.121,4.121,0,0,1,.39-1.825,3.045,3.045,0,0,1,1.092-1.257A2.745,2.745,0,0,1,78.167,7a2.572,2.572,0,0,1,2.082.882,3.82,3.82,0,0,1,.743,2.526V10.9H76.339a2.441,2.441,0,0,0,.594,1.641,1.866,1.866,0,0,0,1.444.625,2.045,2.045,0,0,0,1.054-.254,2.648,2.648,0,0,0,.755-.673l.717.559A2.884,2.884,0,0,1,78.313,14.127ZM78.167,7.97a1.566,1.566,0,0,0-1.193.517,2.515,2.515,0,0,0-.6,1.45h3.44V9.849a2.237,2.237,0,0,0-.482-1.387A1.475,1.475,0,0,0,78.167,7.97Zm7.5.216a3.519,3.519,0,0,0-.578-.044,1.547,1.547,0,0,0-1.568.984V14H82.35V7.132h1.143l.019.793A1.829,1.829,0,0,1,85.149,7a1.2,1.2,0,0,1,.521.089ZM10.253,25.642a4.113,4.113,0,0,1-.717,2.526,2.3,2.3,0,0,1-1.942.958,2.519,2.519,0,0,1-1.968-.793v3.307H4.451V22.132H5.524l.057.762A2.419,2.419,0,0,1,7.574,22a2.342,2.342,0,0,1,1.958.933,4.157,4.157,0,0,1,.72,2.6Zm-1.174-.133a3.035,3.035,0,0,0-.5-1.834A1.6,1.6,0,0,0,7.225,23a1.726,1.726,0,0,0-1.6.946v3.282a1.73,1.73,0,0,0,1.612.939,1.587,1.587,0,0,0,1.343-.67A3.312,3.312,0,0,0,9.079,25.509Zm5.986-2.323a3.519,3.519,0,0,0-.578-.044,1.547,1.547,0,0,0-1.568.984V29H11.745V22.132h1.143l.019.793A1.829,1.829,0,0,1,14.544,22a1.2,1.2,0,0,1,.521.089Zm.641,2.317a4.057,4.057,0,0,1,.4-1.815,2.96,2.96,0,0,1,1.1-1.244A3.007,3.007,0,0,1,18.823,22a2.9,2.9,0,0,1,2.269.971,3.736,3.736,0,0,1,.866,2.583v.083a4.092,4.092,0,0,1-.384,1.8,2.916,2.916,0,0,1-1.1,1.241,3.041,3.041,0,0,1-1.641.444,2.889,2.889,0,0,1-2.263-.971,3.718,3.718,0,0,1-.866-2.571Zm1.181.14a2.938,2.938,0,0,0,.53,1.834,1.8,1.8,0,0,0,2.841-.01,3.213,3.213,0,0,0,.527-1.965,2.933,2.933,0,0,0-.536-1.831,1.705,1.705,0,0,0-1.425-.7,1.686,1.686,0,0,0-1.4.692A3.189,3.189,0,0,0,16.886,25.642Zm9.3,2.526a1.692,1.692,0,0,0,1.1-.381,1.34,1.34,0,0,0,.521-.952h1.111a2.13,2.13,0,0,1-.406,1.124,2.676,2.676,0,0,1-1,.851,2.885,2.885,0,0,1-1.323.317,2.829,2.829,0,0,1-2.231-.936,3.729,3.729,0,0,1-.828-2.561v-.2a4.135,4.135,0,0,1,.368-1.784,2.8,2.8,0,0,1,1.057-1.212A3,3,0,0,1,26.179,22a2.755,2.755,0,0,1,1.92.692,2.473,2.473,0,0,1,.816,1.8H27.8a1.618,1.618,0,0,0-.5-1.095,1.57,1.57,0,0,0-1.12-.428,1.644,1.644,0,0,0-1.387.644,3.026,3.026,0,0,0-.492,1.863V25.7a2.965,2.965,0,0,0,.489,1.828A1.651,1.651,0,0,0,26.186,28.168Zm6.9.958a3,3,0,0,1-2.272-.917,3.4,3.4,0,0,1-.876-2.453v-.216a4.121,4.121,0,0,1,.39-1.825,3.045,3.045,0,0,1,1.092-1.257A2.745,2.745,0,0,1,32.94,22a2.572,2.572,0,0,1,2.082.882,3.82,3.82,0,0,1,.743,2.526V25.9H31.112a2.441,2.441,0,0,0,.594,1.641,1.866,1.866,0,0,0,1.444.625,2.045,2.045,0,0,0,1.054-.254,2.648,2.648,0,0,0,.755-.673l.717.559A2.884,2.884,0,0,1,33.086,29.127ZM32.94,22.97a1.566,1.566,0,0,0-1.193.517,2.515,2.515,0,0,0-.6,1.45h3.44v-.089a2.237,2.237,0,0,0-.482-1.387A1.475,1.475,0,0,0,32.94,22.97Zm8.182,4.208a.865.865,0,0,0-.359-.74,3.452,3.452,0,0,0-1.25-.454,5.912,5.912,0,0,1-1.416-.457,2.014,2.014,0,0,1-.774-.635,1.518,1.518,0,0,1-.251-.876,1.782,1.782,0,0,1,.714-1.428A2.789,2.789,0,0,1,39.611,22a2.87,2.87,0,0,1,1.895.6,1.915,1.915,0,0,1,.727,1.542H41.052a1.06,1.06,0,0,0-.409-.832,1.534,1.534,0,0,0-1.031-.349,1.606,1.606,0,0,0-1,.279.879.879,0,0,0-.362.73.712.712,0,0,0,.336.641,4.139,4.139,0,0,0,1.216.413,6.334,6.334,0,0,1,1.425.47,2.079,2.079,0,0,1,.809.657,1.615,1.615,0,0,1,.263.936,1.758,1.758,0,0,1-.736,1.476,3.089,3.089,0,0,1-1.911.555,3.459,3.459,0,0,1-1.46-.292,2.375,2.375,0,0,1-.993-.816,1.966,1.966,0,0,1-.359-1.133h1.174a1.216,1.216,0,0,0,.473.936,1.835,1.835,0,0,0,1.165.346,1.894,1.894,0,0,0,1.07-.27A.829.829,0,0,0,41.122,27.178ZM43.515,25.5a4.057,4.057,0,0,1,.4-1.815,2.96,2.96,0,0,1,1.1-1.244A3.007,3.007,0,0,1,46.632,22a2.9,2.9,0,0,1,2.269.971,3.736,3.736,0,0,1,.866,2.583v.083a4.092,4.092,0,0,1-.384,1.8,2.916,2.916,0,0,1-1.1,1.241,3.041,3.041,0,0,1-1.641.444,2.889,2.889,0,0,1-2.263-.971,3.718,3.718,0,0,1-.866-2.571Zm1.181.14a2.938,2.938,0,0,0,.53,1.834,1.8,1.8,0,0,0,2.841-.01,3.213,3.213,0,0,0,.527-1.965,2.933,2.933,0,0,0-.536-1.831,1.705,1.705,0,0,0-1.425-.7,1.686,1.686,0,0,0-1.4.692A3.189,3.189,0,0,0,44.7,25.642Zm10.543,1.536a.865.865,0,0,0-.359-.74,3.452,3.452,0,0,0-1.25-.454,5.912,5.912,0,0,1-1.416-.457,2.014,2.014,0,0,1-.774-.635,1.518,1.518,0,0,1-.251-.876,1.782,1.782,0,0,1,.714-1.428A2.789,2.789,0,0,1,53.728,22a2.87,2.87,0,0,1,1.895.6,1.915,1.915,0,0,1,.727,1.542H55.169a1.06,1.06,0,0,0-.409-.832,1.534,1.534,0,0,0-1.031-.349,1.606,1.606,0,0,0-1,.279.879.879,0,0,0-.362.73.712.712,0,0,0,.336.641,4.139,4.139,0,0,0,1.216.413,6.334,6.334,0,0,1,1.425.47,2.079,2.079,0,0,1,.809.657,1.615,1.615,0,0,1,.263.936,1.758,1.758,0,0,1-.736,1.476,3.089,3.089,0,0,1-1.911.555,3.459,3.459,0,0,1-1.46-.292,2.375,2.375,0,0,1-.993-.816,1.966,1.966,0,0,1-.359-1.133h1.174a1.216,1.216,0,0,0,.473.936,1.835,1.835,0,0,0,1.165.346,1.894,1.894,0,0,0,1.07-.27A.829.829,0,0,0,55.239,27.178ZM65.4,29a2.467,2.467,0,0,1-.165-.724,2.62,2.62,0,0,1-1.955.851,2.424,2.424,0,0,1-1.666-.574,1.859,1.859,0,0,1-.651-1.457,1.942,1.942,0,0,1,.816-1.666,3.846,3.846,0,0,1,2.295-.594h1.143V24.3a1.319,1.319,0,0,0-.368-.981,1.48,1.48,0,0,0-1.085-.365,1.712,1.712,0,0,0-1.054.317.935.935,0,0,0-.425.768H61.1a1.621,1.621,0,0,1,.365-.993,2.491,2.491,0,0,1,.99-.759A3.331,3.331,0,0,1,63.834,22a2.715,2.715,0,0,1,1.86.594,2.141,2.141,0,0,1,.7,1.635v3.161a3.865,3.865,0,0,0,.241,1.5V29Zm-1.949-.9a2.064,2.064,0,0,0,1.047-.286,1.728,1.728,0,0,0,.717-.743V25.667H64.3q-2.158,0-2.158,1.263a1.069,1.069,0,0,0,.368.863A1.415,1.415,0,0,0,63.453,28.1Zm6.056.9H68.334V19.25h1.174Zm3.472-8.531v1.663h1.282v.908H72.981V27.3a.953.953,0,0,0,.171.62.721.721,0,0,0,.584.207,2.843,2.843,0,0,0,.559-.076V29a3.424,3.424,0,0,1-.9.126,1.462,1.462,0,0,1-1.187-.476,2.045,2.045,0,0,1-.4-1.352V23.04h-1.25v-.908h1.25V20.469Zm5.5,8.658a3,3,0,0,1-2.272-.917,3.4,3.4,0,0,1-.876-2.453v-.216a4.121,4.121,0,0,1,.39-1.825,3.045,3.045,0,0,1,1.092-1.257A2.745,2.745,0,0,1,78.338,22a2.572,2.572,0,0,1,2.082.882,3.82,3.82,0,0,1,.743,2.526V25.9H76.51a2.441,2.441,0,0,0,.594,1.641,1.866,1.866,0,0,0,1.444.625,2.045,2.045,0,0,0,1.054-.254,2.648,2.648,0,0,0,.755-.673l.717.559A2.884,2.884,0,0,1,78.484,29.127Zm-.146-6.157a1.566,1.566,0,0,0-1.193.517,2.515,2.515,0,0,0-.6,1.45h3.44v-.089a2.237,2.237,0,0,0-.482-1.387A1.475,1.475,0,0,0,78.338,22.97Zm7.5.216a3.519,3.519,0,0,0-.578-.044,1.547,1.547,0,0,0-1.568.984V29H82.521V22.132h1.143l.019.793A1.829,1.829,0,0,1,85.321,22a1.2,1.2,0,0,1,.521.089Zm2.19-1.054.038.863A2.5,2.5,0,0,1,90.126,22q2.177,0,2.2,2.457V29H91.148V24.455a1.581,1.581,0,0,0-.34-1.1A1.361,1.361,0,0,0,89.77,23a1.7,1.7,0,0,0-1,.3,2.069,2.069,0,0,0-.673.8V29H86.92V22.132ZM93.782,25.5a4.057,4.057,0,0,1,.4-1.815,2.96,2.96,0,0,1,1.1-1.244A3.007,3.007,0,0,1,96.9,22a2.9,2.9,0,0,1,2.269.971,3.736,3.736,0,0,1,.866,2.583v.083a4.092,4.092,0,0,1-.384,1.8,2.916,2.916,0,0,1-1.1,1.241,3.041,3.041,0,0,1-1.641.444,2.889,2.889,0,0,1-2.263-.971,3.718,3.718,0,0,1-.866-2.571Zm1.181.14a2.938,2.938,0,0,0,.53,1.834,1.8,1.8,0,0,0,2.841-.01A3.213,3.213,0,0,0,98.86,25.5a2.933,2.933,0,0,0-.536-1.831,1.705,1.705,0,0,0-1.425-.7,1.686,1.686,0,0,0-1.4.692A3.189,3.189,0,0,0,94.963,25.642Zm10.543,1.536a.864.864,0,0,0-.359-.74,3.452,3.452,0,0,0-1.25-.454,5.912,5.912,0,0,1-1.416-.457,2.014,2.014,0,0,1-.774-.635,1.518,1.518,0,0,1-.251-.876,1.782,1.782,0,0,1,.714-1.428A2.789,2.789,0,0,1,104,22a2.87,2.87,0,0,1,1.895.6,1.915,1.915,0,0,1,.727,1.542h-1.181a1.06,1.06,0,0,0-.409-.832A1.534,1.534,0,0,0,104,22.97a1.606,1.606,0,0,0-1,.279.879.879,0,0,0-.362.73.712.712,0,0,0,.336.641,4.139,4.139,0,0,0,1.216.413,6.334,6.334,0,0,1,1.425.47,2.079,2.079,0,0,1,.809.657,1.615,1.615,0,0,1,.263.936,1.758,1.758,0,0,1-.736,1.476,3.089,3.089,0,0,1-1.911.555,3.459,3.459,0,0,1-1.46-.292,2.375,2.375,0,0,1-.993-.816,1.966,1.966,0,0,1-.359-1.133H102.4a1.216,1.216,0,0,0,.473.936,1.835,1.835,0,0,0,1.165.346,1.894,1.894,0,0,0,1.07-.27A.829.829,0,0,0,105.506,27.178Z" transform="translate(1273.496 -2097.677)" fill="#12263f"/>
    <path id="Trazado_603928" data-name="Trazado 603928" d="M4.447,10.382V14H3.228V4.758H6.637a3.425,3.425,0,0,1,2.377.774,2.625,2.625,0,0,1,.86,2.05,2.591,2.591,0,0,1-.841,2.073,3.578,3.578,0,0,1-2.409.727Zm0-1h2.19a2.19,2.19,0,0,0,1.5-.461,1.686,1.686,0,0,0,.521-1.332,1.742,1.742,0,0,0-.521-1.323,2.051,2.051,0,0,0-1.428-.515H4.447Zm10.118-1.2a3.519,3.519,0,0,0-.578-.044,1.547,1.547,0,0,0-1.568.984V14H11.245V7.132h1.143l.019.793A1.829,1.829,0,0,1,14.044,7a1.2,1.2,0,0,1,.521.089Zm.641,2.317a4.057,4.057,0,0,1,.4-1.815,2.96,2.96,0,0,1,1.1-1.244A3.007,3.007,0,0,1,18.323,7a2.9,2.9,0,0,1,2.269.971,3.736,3.736,0,0,1,.866,2.583v.083a4.092,4.092,0,0,1-.384,1.8,2.916,2.916,0,0,1-1.1,1.241,3.041,3.041,0,0,1-1.641.444,2.889,2.889,0,0,1-2.263-.971,3.718,3.718,0,0,1-.866-2.571Zm1.181.14a2.938,2.938,0,0,0,.53,1.834,1.8,1.8,0,0,0,2.841-.01,3.213,3.213,0,0,0,.527-1.965,2.933,2.933,0,0,0-.536-1.831,1.705,1.705,0,0,0-1.425-.7,1.686,1.686,0,0,0-1.4.692A3.189,3.189,0,0,0,16.387,10.642Zm9.3,2.526a1.692,1.692,0,0,0,1.1-.381,1.34,1.34,0,0,0,.521-.952h1.111a2.13,2.13,0,0,1-.406,1.124,2.676,2.676,0,0,1-1,.851,2.885,2.885,0,0,1-1.323.317,2.829,2.829,0,0,1-2.231-.936,3.729,3.729,0,0,1-.828-2.561v-.2a4.135,4.135,0,0,1,.368-1.784,2.8,2.8,0,0,1,1.057-1.212A3,3,0,0,1,25.68,7,2.755,2.755,0,0,1,27.6,7.7a2.473,2.473,0,0,1,.816,1.8H27.3A1.618,1.618,0,0,0,26.8,8.4a1.57,1.57,0,0,0-1.12-.428,1.644,1.644,0,0,0-1.387.644,3.026,3.026,0,0,0-.492,1.863V10.7a2.966,2.966,0,0,0,.489,1.828A1.651,1.651,0,0,0,25.686,13.168Zm6.9.958a3,3,0,0,1-2.272-.917,3.4,3.4,0,0,1-.876-2.453v-.216a4.121,4.121,0,0,1,.39-1.825A3.045,3.045,0,0,1,30.92,7.459,2.745,2.745,0,0,1,32.44,7a2.572,2.572,0,0,1,2.082.882,3.82,3.82,0,0,1,.743,2.526V10.9H30.612a2.441,2.441,0,0,0,.594,1.641,1.866,1.866,0,0,0,1.444.625,2.045,2.045,0,0,0,1.054-.254,2.648,2.648,0,0,0,.755-.673l.717.559A2.884,2.884,0,0,1,32.586,14.127ZM32.44,7.97a1.566,1.566,0,0,0-1.193.517,2.515,2.515,0,0,0-.6,1.45h3.44V9.849a2.237,2.237,0,0,0-.482-1.387A1.475,1.475,0,0,0,32.44,7.97Zm8.182,4.208a.865.865,0,0,0-.359-.74,3.452,3.452,0,0,0-1.25-.454,5.912,5.912,0,0,1-1.416-.457,2.014,2.014,0,0,1-.774-.635,1.518,1.518,0,0,1-.251-.876,1.782,1.782,0,0,1,.714-1.428A2.789,2.789,0,0,1,39.111,7a2.87,2.87,0,0,1,1.895.6,1.915,1.915,0,0,1,.727,1.542H40.552a1.06,1.06,0,0,0-.409-.832,1.534,1.534,0,0,0-1.031-.349,1.605,1.605,0,0,0-1,.279.879.879,0,0,0-.362.73.712.712,0,0,0,.336.641,4.139,4.139,0,0,0,1.216.413,6.334,6.334,0,0,1,1.425.47,2.079,2.079,0,0,1,.809.657,1.615,1.615,0,0,1,.263.936,1.758,1.758,0,0,1-.736,1.476,3.089,3.089,0,0,1-1.911.555,3.459,3.459,0,0,1-1.46-.292,2.375,2.375,0,0,1-.993-.816,1.966,1.966,0,0,1-.359-1.133h1.174a1.216,1.216,0,0,0,.473.936,1.835,1.835,0,0,0,1.165.346,1.894,1.894,0,0,0,1.07-.27A.829.829,0,0,0,40.622,12.178ZM43.015,10.5a4.057,4.057,0,0,1,.4-1.815,2.96,2.96,0,0,1,1.1-1.244A3.007,3.007,0,0,1,46.132,7a2.9,2.9,0,0,1,2.269.971,3.736,3.736,0,0,1,.866,2.583v.083a4.092,4.092,0,0,1-.384,1.8,2.916,2.916,0,0,1-1.1,1.241,3.041,3.041,0,0,1-1.641.444,2.889,2.889,0,0,1-2.263-.971,3.718,3.718,0,0,1-.866-2.571Zm1.181.14a2.938,2.938,0,0,0,.53,1.834,1.8,1.8,0,0,0,2.841-.01,3.213,3.213,0,0,0,.527-1.965,2.933,2.933,0,0,0-.536-1.831,1.705,1.705,0,0,0-1.425-.7,1.686,1.686,0,0,0-1.4.692A3.189,3.189,0,0,0,44.2,10.642Zm10.543,1.536a.865.865,0,0,0-.359-.74,3.452,3.452,0,0,0-1.25-.454,5.912,5.912,0,0,1-1.416-.457,2.014,2.014,0,0,1-.774-.635,1.518,1.518,0,0,1-.251-.876A1.782,1.782,0,0,1,51.4,7.589,2.789,2.789,0,0,1,53.229,7a2.87,2.87,0,0,1,1.895.6A1.915,1.915,0,0,1,55.85,9.15H54.669a1.06,1.06,0,0,0-.409-.832,1.534,1.534,0,0,0-1.031-.349,1.605,1.605,0,0,0-1,.279.879.879,0,0,0-.362.73.712.712,0,0,0,.336.641,4.139,4.139,0,0,0,1.216.413,6.334,6.334,0,0,1,1.425.47,2.079,2.079,0,0,1,.809.657,1.615,1.615,0,0,1,.263.936,1.758,1.758,0,0,1-.736,1.476,3.089,3.089,0,0,1-1.911.555,3.459,3.459,0,0,1-1.46-.292,2.375,2.375,0,0,1-.993-.816,1.966,1.966,0,0,1-.359-1.133h1.174a1.216,1.216,0,0,0,.473.936,1.835,1.835,0,0,0,1.165.346,1.894,1.894,0,0,0,1.07-.27A.829.829,0,0,0,54.739,12.178Zm5.637-1.669a4.023,4.023,0,0,1,.749-2.542A2.548,2.548,0,0,1,65,7.83V4.25h1.174V14H65.092l-.057-.736a2.391,2.391,0,0,1-1.961.863,2.346,2.346,0,0,1-1.946-.978,4.069,4.069,0,0,1-.752-2.552Zm1.174.133a3.046,3.046,0,0,0,.482,1.828,1.56,1.56,0,0,0,1.333.66,1.713,1.713,0,0,0,1.631-1V8.973A1.726,1.726,0,0,0,63.378,8a1.567,1.567,0,0,0-1.346.667A3.354,3.354,0,0,0,61.55,10.642Zm9.293,3.485a3,3,0,0,1-2.272-.917,3.4,3.4,0,0,1-.876-2.453v-.216a4.121,4.121,0,0,1,.39-1.825,3.045,3.045,0,0,1,1.092-1.257A2.745,2.745,0,0,1,70.7,7a2.572,2.572,0,0,1,2.082.882,3.82,3.82,0,0,1,.743,2.526V10.9H68.869a2.441,2.441,0,0,0,.594,1.641,1.866,1.866,0,0,0,1.444.625,2.045,2.045,0,0,0,1.054-.254,2.648,2.648,0,0,0,.755-.673l.717.559A2.884,2.884,0,0,1,70.843,14.127ZM70.7,7.97a1.566,1.566,0,0,0-1.193.517,2.515,2.515,0,0,0-.6,1.45h3.44V9.849a2.237,2.237,0,0,0-.482-1.387A1.475,1.475,0,0,0,70.7,7.97Zm8.512-.838L79.248,8A2.5,2.5,0,0,1,81.3,7q2.177,0,2.2,2.457V14H82.326V9.455a1.581,1.581,0,0,0-.34-1.1A1.361,1.361,0,0,0,80.949,8a1.7,1.7,0,0,0-1,.3,2.069,2.069,0,0,0-.673.8V14H78.1V7.132Zm8.912,7a3,3,0,0,1-2.272-.917,3.4,3.4,0,0,1-.876-2.453v-.216a4.121,4.121,0,0,1,.39-1.825,3.045,3.045,0,0,1,1.092-1.257A2.745,2.745,0,0,1,87.976,7a2.572,2.572,0,0,1,2.082.882,3.82,3.82,0,0,1,.743,2.526V10.9H86.147a2.441,2.441,0,0,0,.594,1.641,1.866,1.866,0,0,0,1.444.625,2.045,2.045,0,0,0,1.054-.254,2.648,2.648,0,0,0,.755-.673l.717.559A2.884,2.884,0,0,1,88.122,14.127ZM87.976,7.97a1.566,1.566,0,0,0-1.193.517,2.515,2.515,0,0,0-.6,1.45h3.44V9.849a2.237,2.237,0,0,0-.482-1.387A1.475,1.475,0,0,0,87.976,7.97Zm3.9,2.539a4.037,4.037,0,0,1,.743-2.555,2.56,2.56,0,0,1,3.929-.06l.057-.762h1.073v6.7a2.794,2.794,0,0,1-.79,2.1,2.916,2.916,0,0,1-2.123.768,3.532,3.532,0,0,1-1.454-.317,2.5,2.5,0,0,1-1.085-.87l.609-.7a2.3,2.3,0,0,0,1.847.933,1.8,1.8,0,0,0,1.336-.482A1.844,1.844,0,0,0,96.5,13.9v-.59a2.414,2.414,0,0,1-1.923.813,2.346,2.346,0,0,1-1.952-.971A4.244,4.244,0,0,1,91.879,10.509Zm1.181.133a3.08,3.08,0,0,0,.476,1.825,1.547,1.547,0,0,0,1.333.663A1.72,1.72,0,0,0,96.5,12.121V8.985A1.74,1.74,0,0,0,94.882,8a1.561,1.561,0,0,0-1.339.667A3.354,3.354,0,0,0,93.06,10.642Zm6.081-.14a4.057,4.057,0,0,1,.4-1.815,2.96,2.96,0,0,1,1.1-1.244A3.007,3.007,0,0,1,102.258,7a2.9,2.9,0,0,1,2.269.971,3.736,3.736,0,0,1,.866,2.583v.083a4.092,4.092,0,0,1-.384,1.8,2.916,2.916,0,0,1-1.1,1.241,3.041,3.041,0,0,1-1.641.444,2.889,2.889,0,0,1-2.263-.971,3.718,3.718,0,0,1-.866-2.571Zm1.181.14a2.938,2.938,0,0,0,.53,1.834,1.8,1.8,0,0,0,2.841-.01,3.213,3.213,0,0,0,.527-1.965,2.933,2.933,0,0,0-.536-1.831,1.705,1.705,0,0,0-1.425-.7,1.686,1.686,0,0,0-1.4.692A3.189,3.189,0,0,0,100.322,10.642Zm9.3,2.526a1.691,1.691,0,0,0,1.1-.381,1.34,1.34,0,0,0,.521-.952h1.111a2.13,2.13,0,0,1-.406,1.124,2.676,2.676,0,0,1-1,.851,2.885,2.885,0,0,1-1.323.317,2.829,2.829,0,0,1-2.231-.936,3.729,3.729,0,0,1-.828-2.561v-.2a4.135,4.135,0,0,1,.368-1.784,2.8,2.8,0,0,1,1.057-1.212A3,3,0,0,1,109.615,7a2.755,2.755,0,0,1,1.92.692,2.473,2.473,0,0,1,.816,1.8H111.24a1.618,1.618,0,0,0-.5-1.095,1.57,1.57,0,0,0-1.12-.428,1.644,1.644,0,0,0-1.387.644,3.026,3.026,0,0,0-.492,1.863V10.7a2.966,2.966,0,0,0,.489,1.828A1.651,1.651,0,0,0,109.621,13.168Zm5.326.832h-1.174V7.132h1.174Zm-1.27-8.69a.7.7,0,0,1,.175-.482.655.655,0,0,1,.517-.2.666.666,0,0,1,.521.2.694.694,0,0,1,.178.482.671.671,0,0,1-.178.476.678.678,0,0,1-.521.19.667.667,0,0,1-.517-.19A.678.678,0,0,1,113.677,5.31Zm2.837,5.192a4.057,4.057,0,0,1,.4-1.815,2.96,2.96,0,0,1,1.1-1.244A3.007,3.007,0,0,1,119.631,7a2.9,2.9,0,0,1,2.269.971,3.736,3.736,0,0,1,.866,2.583v.083a4.092,4.092,0,0,1-.384,1.8,2.916,2.916,0,0,1-1.1,1.241,3.041,3.041,0,0,1-1.641.444,2.889,2.889,0,0,1-2.263-.971,3.718,3.718,0,0,1-.866-2.571Zm1.181.14a2.938,2.938,0,0,0,.53,1.834,1.8,1.8,0,0,0,2.841-.01,3.213,3.213,0,0,0,.527-1.965,2.933,2.933,0,0,0-.536-1.831,1.705,1.705,0,0,0-1.425-.7,1.686,1.686,0,0,0-1.4.692A3.189,3.189,0,0,0,117.7,10.642Z" transform="translate(1021.158 -2309)" fill="#12263f"/>
    <path id="Trazado_603929" data-name="Trazado 603929" d="M20.316,12.1H16.977L16.342,14H14.317l3.44-9.242h1.765L22.982,14H20.957Zm-2.825-1.542H19.8L18.64,7.094Zm7.617-3.421.057.793A2.4,2.4,0,0,1,27.14,7a1.993,1.993,0,0,1,1.625.641,2.991,2.991,0,0,1,.546,1.917V14H27.476V9.607a1.19,1.19,0,0,0-.254-.847,1.137,1.137,0,0,0-.844-.263,1.262,1.262,0,0,0-1.162.66V14H23.382V7.132ZM34.681,14a2.037,2.037,0,0,1-.184-.616,2.22,2.22,0,0,1-1.733.743,2.439,2.439,0,0,1-1.673-.584,1.878,1.878,0,0,1-.663-1.473,1.941,1.941,0,0,1,.809-1.676,3.994,3.994,0,0,1,2.339-.59h.844V9.411a1.132,1.132,0,0,0-.244-.762.961.961,0,0,0-.771-.286,1.093,1.093,0,0,0-.727.222.755.755,0,0,0-.263.609H30.58a1.843,1.843,0,0,1,.368-1.1,2.434,2.434,0,0,1,1.041-.8A3.794,3.794,0,0,1,33.5,7a3,3,0,0,1,2.015.638,2.232,2.232,0,0,1,.746,1.793v2.977a3.284,3.284,0,0,0,.273,1.479V14Zm-1.517-1.276a1.58,1.58,0,0,0,.749-.181,1.188,1.188,0,0,0,.508-.486V10.877h-.686q-1.377,0-1.466.952l-.006.108a.734.734,0,0,0,.241.565A.937.937,0,0,0,33.164,12.724Zm.7-8.474h2L34.1,6.218H32.611ZM39.606,14H37.766V4.25h1.841Zm3.447,0H41.212V7.132h1.841ZM41.1,5.354a.9.9,0,0,1,.276-.679,1.19,1.19,0,0,1,1.5,0,.9.9,0,0,1,.279.679.9.9,0,0,1-.282.686,1.177,1.177,0,0,1-1.492,0A.9.9,0,0,1,41.1,5.354ZM48.284,12.1a.591.591,0,0,0-.333-.53,3.785,3.785,0,0,0-1.07-.346q-2.45-.514-2.45-2.082a1.887,1.887,0,0,1,.759-1.527A3.06,3.06,0,0,1,47.173,7a3.293,3.293,0,0,1,2.092.616,1.94,1.94,0,0,1,.784,1.6H48.214a.888.888,0,0,0-.254-.651,1.075,1.075,0,0,0-.793-.257,1.1,1.1,0,0,0-.717.209.661.661,0,0,0-.254.533.565.565,0,0,0,.289.492,2.971,2.971,0,0,0,.974.324,7.959,7.959,0,0,1,1.155.308,1.9,1.9,0,0,1,1.454,1.847,1.792,1.792,0,0,1-.806,1.52,3.478,3.478,0,0,1-2.082.581,3.632,3.632,0,0,1-1.533-.308,2.572,2.572,0,0,1-1.051-.844,1.962,1.962,0,0,1-.381-1.158h1.739a.958.958,0,0,0,.362.749,1.435,1.435,0,0,0,.9.26,1.328,1.328,0,0,0,.8-.2A.622.622,0,0,0,48.284,12.1Zm4.9,1.9H51.343V7.132h1.841ZM51.235,5.354a.9.9,0,0,1,.276-.679,1.19,1.19,0,0,1,1.5,0,.9.9,0,0,1,.279.679.9.9,0,0,1-.282.686,1.177,1.177,0,0,1-1.492,0A.9.9,0,0,1,51.235,5.354ZM58.415,12.1a.591.591,0,0,0-.333-.53,3.785,3.785,0,0,0-1.07-.346q-2.45-.514-2.45-2.082a1.887,1.887,0,0,1,.759-1.527A3.06,3.06,0,0,1,57.3,7a3.293,3.293,0,0,1,2.092.616,1.94,1.94,0,0,1,.784,1.6H58.345a.888.888,0,0,0-.254-.651,1.075,1.075,0,0,0-.793-.257,1.1,1.1,0,0,0-.717.209.661.661,0,0,0-.254.533.565.565,0,0,0,.289.492,2.971,2.971,0,0,0,.974.324,7.959,7.959,0,0,1,1.155.308A1.9,1.9,0,0,1,60.2,12.026a1.792,1.792,0,0,1-.806,1.52,3.478,3.478,0,0,1-2.082.581,3.632,3.632,0,0,1-1.533-.308,2.572,2.572,0,0,1-1.051-.844,1.962,1.962,0,0,1-.381-1.158h1.739a.958.958,0,0,0,.362.749,1.435,1.435,0,0,0,.9.26,1.328,1.328,0,0,0,.8-.2A.622.622,0,0,0,58.415,12.1ZM66.552,14H64.711V7.132h1.841ZM64.6,5.354a.9.9,0,0,1,.276-.679,1.19,1.19,0,0,1,1.5,0,.9.9,0,0,1,.279.679.9.9,0,0,1-.282.686,1.177,1.177,0,0,1-1.492,0A.9.9,0,0,1,64.6,5.354Zm5.18,1.777.057.768A2.414,2.414,0,0,1,71.814,7a1.832,1.832,0,0,1,1.822,1.047A2.358,2.358,0,0,1,75.7,7a2.049,2.049,0,0,1,1.663.651,2.991,2.991,0,0,1,.546,1.958V14H76.067V9.62a1.308,1.308,0,0,0-.229-.854,1.013,1.013,0,0,0-.806-.27,1.145,1.145,0,0,0-1.143.787L73.9,14H72.062V9.626a1.292,1.292,0,0,0-.235-.863,1.023,1.023,0,0,0-.8-.267,1.189,1.189,0,0,0-1.13.647V14H68.063V7.132Zm15.717,3.5a4.119,4.119,0,0,1-.72,2.542,2.31,2.31,0,0,1-1.946.955,2.14,2.14,0,0,1-1.682-.724v3.237H79.317V7.132h1.7l.063.673A2.156,2.156,0,0,1,82.821,7a2.326,2.326,0,0,1,1.974.939,4.231,4.231,0,0,1,.7,2.59ZM83.666,10.5a2.7,2.7,0,0,0-.34-1.479,1.106,1.106,0,0,0-.987-.521,1.2,1.2,0,0,0-1.187.66v2.812a1.222,1.222,0,0,0,1.2.679Q83.666,12.648,83.666,10.5ZM90.616,14a2.037,2.037,0,0,1-.184-.616,2.22,2.22,0,0,1-1.733.743,2.439,2.439,0,0,1-1.673-.584,1.878,1.878,0,0,1-.663-1.473,1.941,1.941,0,0,1,.809-1.676,3.994,3.994,0,0,1,2.339-.59h.844V9.411a1.132,1.132,0,0,0-.244-.762.961.961,0,0,0-.771-.286,1.093,1.093,0,0,0-.727.222.755.755,0,0,0-.263.609H86.516a1.843,1.843,0,0,1,.368-1.1,2.434,2.434,0,0,1,1.041-.8A3.794,3.794,0,0,1,89.436,7a3,3,0,0,1,2.015.638A2.232,2.232,0,0,1,92.2,9.436v2.977a3.284,3.284,0,0,0,.273,1.479V14ZM89.1,12.724a1.58,1.58,0,0,0,.749-.181,1.188,1.188,0,0,0,.508-.486V10.877H89.67q-1.377,0-1.466.952l-.006.108a.734.734,0,0,0,.241.565A.937.937,0,0,0,89.1,12.724Zm7.363-.076a1.2,1.2,0,0,0,.825-.279.979.979,0,0,0,.33-.743h1.72a2.353,2.353,0,0,1-.381,1.279,2.513,2.513,0,0,1-1.025.9,3.208,3.208,0,0,1-1.438.321,2.982,2.982,0,0,1-2.323-.936A3.705,3.705,0,0,1,93.32,10.6v-.121a3.663,3.663,0,0,1,.844-2.533A2.947,2.947,0,0,1,96.481,7a2.889,2.889,0,0,1,2.066.733,2.6,2.6,0,0,1,.79,1.952h-1.72a1.261,1.261,0,0,0-.33-.871,1.227,1.227,0,0,0-1.806.132,2.708,2.708,0,0,0-.327,1.516v.191a2.742,2.742,0,0,0,.324,1.526A1.119,1.119,0,0,0,96.462,12.648Zm6.119-7.2V7.132h1.174V8.478h-1.174v3.428a.818.818,0,0,0,.146.546.733.733,0,0,0,.559.165,2.926,2.926,0,0,0,.54-.044v1.39a3.777,3.777,0,0,1-1.111.165,1.752,1.752,0,0,1-1.968-1.949v-3.7h-1V7.132h1V5.443ZM104.3,10.5a4.073,4.073,0,0,1,.394-1.822,2.881,2.881,0,0,1,1.133-1.238A3.306,3.306,0,0,1,107.545,7a3.127,3.127,0,0,1,2.269.851,3.414,3.414,0,0,1,.981,2.311l.013.47a3.59,3.59,0,0,1-.882,2.536,3.42,3.42,0,0,1-4.739,0,3.653,3.653,0,0,1-.885-2.59Zm1.834.13a2.567,2.567,0,0,0,.368,1.5,1.323,1.323,0,0,0,2.095.006,2.809,2.809,0,0,0,.375-1.637,2.542,2.542,0,0,0-.375-1.488,1.217,1.217,0,0,0-1.054-.528,1.2,1.2,0,0,0-1.041.524A2.857,2.857,0,0,0,106.136,10.633ZM29.326,26.515a4.139,4.139,0,0,1,.72-2.558A2.338,2.338,0,0,1,32.018,23a2.1,2.1,0,0,1,1.657.749v-3.5h1.841V30H33.859l-.089-.73a2.159,2.159,0,0,1-1.765.857,2.331,2.331,0,0,1-1.946-.955A4.272,4.272,0,0,1,29.326,26.515Zm1.834.137a2.711,2.711,0,0,0,.336,1.481,1.1,1.1,0,0,0,.978.515,1.227,1.227,0,0,0,1.2-.718V25.215a1.21,1.21,0,0,0-1.187-.718Q31.161,24.5,31.161,26.652ZM40.1,30.127a3.372,3.372,0,0,1-2.46-.927,3.294,3.294,0,0,1-.949-2.469v-.178a4.149,4.149,0,0,1,.4-1.85,2.935,2.935,0,0,1,1.133-1.257A3.18,3.18,0,0,1,39.9,23a2.85,2.85,0,0,1,2.219.889,3.611,3.611,0,0,1,.809,2.52v.749H38.55a1.7,1.7,0,0,0,.536,1.079,1.621,1.621,0,0,0,1.133.406,1.98,1.98,0,0,0,1.657-.768l.9,1.009a2.754,2.754,0,0,1-1.117.911A3.665,3.665,0,0,1,40.1,30.127Zm-.209-5.643a1.146,1.146,0,0,0-.885.37,1.915,1.915,0,0,0-.435,1.058H41.12v-.147a1.366,1.366,0,0,0-.33-.947A1.183,1.183,0,0,0,39.889,24.484ZM45.9,30H44.059V20.25H45.9Zm6.437-6.868.057.793A2.4,2.4,0,0,1,54.368,23a1.993,1.993,0,0,1,1.625.641,2.991,2.991,0,0,1,.546,1.917V30H54.7V25.607a1.19,1.19,0,0,0-.254-.847,1.137,1.137,0,0,0-.844-.263,1.262,1.262,0,0,0-1.162.66V30H50.61V23.132Zm8.753,7a3.372,3.372,0,0,1-2.46-.927,3.294,3.294,0,0,1-.949-2.469v-.178a4.149,4.149,0,0,1,.4-1.85,2.935,2.935,0,0,1,1.133-1.257A3.18,3.18,0,0,1,60.887,23a2.85,2.85,0,0,1,2.219.889,3.611,3.611,0,0,1,.809,2.52v.749H59.541a1.7,1.7,0,0,0,.536,1.079,1.621,1.621,0,0,0,1.133.406,1.98,1.98,0,0,0,1.657-.768l.9,1.009a2.754,2.754,0,0,1-1.117.911A3.665,3.665,0,0,1,61.09,30.127Zm-.209-5.643a1.146,1.146,0,0,0-.885.37,1.915,1.915,0,0,0-.435,1.058h2.552v-.147a1.366,1.366,0,0,0-.33-.947A1.183,1.183,0,0,0,60.881,24.484Zm3.809,2.031a4.025,4.025,0,0,1,.752-2.545A2.437,2.437,0,0,1,67.469,23a2.138,2.138,0,0,1,1.758.774l.076-.647h1.663v6.64a2.935,2.935,0,0,1-.409,1.568,2.629,2.629,0,0,1-1.152,1.016,4.05,4.05,0,0,1-1.739.349,3.766,3.766,0,0,1-1.473-.3,2.614,2.614,0,0,1-1.085-.778l.813-1.117a2.149,2.149,0,0,0,1.663.768,1.573,1.573,0,0,0,1.136-.39,1.464,1.464,0,0,0,.406-1.108V29.41a2.122,2.122,0,0,1-1.669.717,2.431,2.431,0,0,1-2-.968,4.024,4.024,0,0,1-.765-2.568Zm1.834.137a2.506,2.506,0,0,0,.375,1.465,1.191,1.191,0,0,0,1.028.531,1.274,1.274,0,0,0,1.2-.629V25.126a1.271,1.271,0,0,0-1.187-.629,1.2,1.2,0,0,0-1.038.54A2.825,2.825,0,0,0,66.524,26.652Zm5.567-.149a4.073,4.073,0,0,1,.394-1.822,2.881,2.881,0,0,1,1.133-1.238A3.306,3.306,0,0,1,75.334,23a3.127,3.127,0,0,1,2.269.851,3.414,3.414,0,0,1,.981,2.311l.013.47a3.59,3.59,0,0,1-.882,2.536,3.42,3.42,0,0,1-4.739,0,3.653,3.653,0,0,1-.885-2.59Zm1.834.13a2.567,2.567,0,0,0,.368,1.5,1.323,1.323,0,0,0,2.095.006,2.809,2.809,0,0,0,.375-1.637,2.542,2.542,0,0,0-.375-1.488,1.217,1.217,0,0,0-1.054-.528,1.2,1.2,0,0,0-1.041.524A2.857,2.857,0,0,0,73.925,26.633Zm8.658,2.015a1.2,1.2,0,0,0,.825-.279.979.979,0,0,0,.33-.743h1.72a2.353,2.353,0,0,1-.381,1.279,2.513,2.513,0,0,1-1.025.9,3.208,3.208,0,0,1-1.438.321,2.982,2.982,0,0,1-2.323-.936,3.705,3.705,0,0,1-.851-2.587v-.121a3.663,3.663,0,0,1,.844-2.533A2.947,2.947,0,0,1,82.6,23a2.889,2.889,0,0,1,2.066.733,2.6,2.6,0,0,1,.79,1.952h-1.72a1.261,1.261,0,0,0-.33-.871,1.227,1.227,0,0,0-1.806.132,2.708,2.708,0,0,0-.327,1.516v.191a2.742,2.742,0,0,0,.324,1.526A1.119,1.119,0,0,0,82.583,28.648ZM88.442,30H86.6V23.132h1.841Zm-1.949-8.646a.9.9,0,0,1,.276-.679,1.19,1.19,0,0,1,1.5,0,.969.969,0,0,1,0,1.365,1.177,1.177,0,0,1-1.492,0A.9.9,0,0,1,86.493,21.354ZM89.667,26.5a4.073,4.073,0,0,1,.394-1.822,2.881,2.881,0,0,1,1.133-1.238A3.306,3.306,0,0,1,92.911,23a3.127,3.127,0,0,1,2.269.851,3.414,3.414,0,0,1,.981,2.311l.013.47a3.59,3.59,0,0,1-.882,2.536,3.42,3.42,0,0,1-4.739,0,3.653,3.653,0,0,1-.885-2.59Zm1.834.13a2.567,2.567,0,0,0,.368,1.5,1.323,1.323,0,0,0,2.095.006,2.809,2.809,0,0,0,.375-1.637,2.542,2.542,0,0,0-.375-1.488,1.217,1.217,0,0,0-1.054-.528,1.2,1.2,0,0,0-1.041.524A2.857,2.857,0,0,0,91.5,26.633Z" transform="translate(777.637 -2217.357)" fill="#12263f"/>
    <path id="Trazado_603930" data-name="Trazado 603930" d="M26.159,14H24.94V4.758h1.219Zm1.758-3.491a4.023,4.023,0,0,1,.749-2.542,2.548,2.548,0,0,1,3.872-.136V4.25h1.174V14H32.634l-.057-.736a2.391,2.391,0,0,1-1.961.863,2.346,2.346,0,0,1-1.946-.978,4.069,4.069,0,0,1-.752-2.552Zm1.174.133a3.046,3.046,0,0,0,.482,1.828,1.56,1.56,0,0,0,1.333.66,1.713,1.713,0,0,0,1.631-1V8.973A1.726,1.726,0,0,0,30.92,8a1.567,1.567,0,0,0-1.346.667A3.354,3.354,0,0,0,29.092,10.642Zm9.293,3.485a3,3,0,0,1-2.272-.917,3.4,3.4,0,0,1-.876-2.453v-.216a4.121,4.121,0,0,1,.39-1.825,3.045,3.045,0,0,1,1.092-1.257A2.745,2.745,0,0,1,38.239,7a2.572,2.572,0,0,1,2.082.882,3.82,3.82,0,0,1,.743,2.526V10.9H36.41A2.441,2.441,0,0,0,37,12.543a1.866,1.866,0,0,0,1.444.625,2.045,2.045,0,0,0,1.054-.254,2.648,2.648,0,0,0,.755-.673l.717.559A2.884,2.884,0,0,1,38.385,14.127ZM38.239,7.97a1.566,1.566,0,0,0-1.193.517,2.515,2.515,0,0,0-.6,1.45h3.44V9.849a2.237,2.237,0,0,0-.482-1.387A1.475,1.475,0,0,0,38.239,7.97Zm5.294-.838L43.571,8A2.5,2.5,0,0,1,45.627,7q2.177,0,2.2,2.457V14H46.649V9.455a1.581,1.581,0,0,0-.34-1.1A1.361,1.361,0,0,0,45.272,8a1.7,1.7,0,0,0-1,.3,2.069,2.069,0,0,0-.673.8V14H42.422V7.132Zm7.655-1.663V7.132H52.47V8.04H51.188V12.3a.953.953,0,0,0,.171.62.721.721,0,0,0,.584.207,2.843,2.843,0,0,0,.559-.076V14a3.424,3.424,0,0,1-.9.126,1.462,1.462,0,0,1-1.187-.476,2.045,2.045,0,0,1-.4-1.352V8.04h-1.25V7.132h1.25V5.469ZM55.117,14H53.943V7.132h1.174Zm-1.27-8.69a.7.7,0,0,1,.175-.482.655.655,0,0,1,.517-.2.666.666,0,0,1,.521.2.694.694,0,0,1,.178.482.671.671,0,0,1-.178.476.678.678,0,0,1-.521.19.667.667,0,0,1-.517-.19A.678.678,0,0,1,53.847,5.31ZM57.389,14V8.04H56.3V7.132h1.085V6.548a2.386,2.386,0,0,1,.657-1.79A2.548,2.548,0,0,1,59.9,4.117a5.591,5.591,0,0,1,1.8.387l-.2.99a4.069,4.069,0,0,0-1.511-.317,1.478,1.478,0,0,0-1.089.34,1.4,1.4,0,0,0-.333,1.019v.6h1.4V8.04h-1.4V14Zm4.894,0H61.1V7.132h1.181Zm4.666-.832a1.691,1.691,0,0,0,1.1-.381,1.34,1.34,0,0,0,.521-.952h1.111a2.13,2.13,0,0,1-.406,1.124,2.676,2.676,0,0,1-1,.851,2.885,2.885,0,0,1-1.323.317,2.829,2.829,0,0,1-2.231-.936,3.729,3.729,0,0,1-.828-2.561v-.2a4.135,4.135,0,0,1,.368-1.784,2.8,2.8,0,0,1,1.057-1.212A3,3,0,0,1,66.943,7a2.755,2.755,0,0,1,1.92.692,2.473,2.473,0,0,1,.816,1.8H68.568a1.618,1.618,0,0,0-.5-1.095,1.57,1.57,0,0,0-1.12-.428,1.644,1.644,0,0,0-1.387.644,3.026,3.026,0,0,0-.492,1.863V10.7a2.966,2.966,0,0,0,.489,1.828A1.651,1.651,0,0,0,66.949,13.168Zm8.29.832a2.467,2.467,0,0,1-.165-.724,2.62,2.62,0,0,1-1.955.851,2.424,2.424,0,0,1-1.666-.574A1.859,1.859,0,0,1,70.8,12.1a1.942,1.942,0,0,1,.816-1.666,3.846,3.846,0,0,1,2.295-.594h1.143V9.3a1.319,1.319,0,0,0-.368-.981A1.48,1.48,0,0,0,73.6,7.951a1.712,1.712,0,0,0-1.054.317.935.935,0,0,0-.425.768H70.942a1.621,1.621,0,0,1,.365-.993,2.491,2.491,0,0,1,.99-.759A3.331,3.331,0,0,1,73.671,7a2.715,2.715,0,0,1,1.86.594,2.141,2.141,0,0,1,.7,1.635v3.161a3.865,3.865,0,0,0,.241,1.5V14Zm-1.949-.9a2.064,2.064,0,0,0,1.047-.286,1.728,1.728,0,0,0,.717-.743V10.667h-.92q-2.158,0-2.158,1.263a1.069,1.069,0,0,0,.368.863A1.415,1.415,0,0,0,73.29,13.1Zm7.535.063a1.691,1.691,0,0,0,1.1-.381,1.34,1.34,0,0,0,.521-.952h1.111a2.13,2.13,0,0,1-.406,1.124,2.676,2.676,0,0,1-1,.851,2.885,2.885,0,0,1-1.323.317,2.829,2.829,0,0,1-2.231-.936,3.729,3.729,0,0,1-.828-2.561v-.2a4.135,4.135,0,0,1,.368-1.784A2.8,2.8,0,0,1,79.19,7.437,3,3,0,0,1,80.819,7a2.755,2.755,0,0,1,1.92.692,2.473,2.473,0,0,1,.816,1.8H82.444a1.618,1.618,0,0,0-.5-1.095,1.57,1.57,0,0,0-1.12-.428,1.644,1.644,0,0,0-1.387.644,3.026,3.026,0,0,0-.492,1.863V10.7a2.966,2.966,0,0,0,.489,1.828A1.651,1.651,0,0,0,80.825,13.168ZM86.151,14H84.976V7.132h1.174Zm-1.27-8.69a.7.7,0,0,1,.175-.482.655.655,0,0,1,.517-.2.666.666,0,0,1,.521.2.694.694,0,0,1,.178.482.671.671,0,0,1-.178.476.678.678,0,0,1-.521.19.667.667,0,0,1-.517-.19A.678.678,0,0,1,84.881,5.31ZM87.719,10.5a4.057,4.057,0,0,1,.4-1.815,2.96,2.96,0,0,1,1.1-1.244A3.007,3.007,0,0,1,90.835,7a2.9,2.9,0,0,1,2.269.971,3.736,3.736,0,0,1,.866,2.583v.083a4.092,4.092,0,0,1-.384,1.8,2.916,2.916,0,0,1-1.1,1.241,3.041,3.041,0,0,1-1.641.444,2.889,2.889,0,0,1-2.263-.971,3.718,3.718,0,0,1-.866-2.571Zm1.181.14a2.938,2.938,0,0,0,.53,1.834,1.8,1.8,0,0,0,2.841-.01A3.213,3.213,0,0,0,92.8,10.5a2.933,2.933,0,0,0-.536-1.831,1.705,1.705,0,0,0-1.425-.7,1.686,1.686,0,0,0-1.4.692A3.189,3.189,0,0,0,88.9,10.642ZM91.368,4.25H92.79l-1.7,1.866-.946,0Zm5.186,2.882L96.593,8A2.5,2.5,0,0,1,98.649,7q2.177,0,2.2,2.457V14H99.671V9.455a1.581,1.581,0,0,0-.34-1.1A1.361,1.361,0,0,0,98.294,8a1.7,1.7,0,0,0-1,.3,2.069,2.069,0,0,0-.673.8V14H95.444V7.132ZM19.719,26.642A4.113,4.113,0,0,1,19,29.168a2.3,2.3,0,0,1-1.942.958,2.519,2.519,0,0,1-1.968-.793v3.307H13.917V23.132H14.99l.057.762A2.419,2.419,0,0,1,17.041,23,2.342,2.342,0,0,1,19,23.938a4.157,4.157,0,0,1,.72,2.6Zm-1.174-.133a3.035,3.035,0,0,0-.5-1.834A1.6,1.6,0,0,0,16.691,24a1.726,1.726,0,0,0-1.6.946v3.282a1.73,1.73,0,0,0,1.612.939,1.587,1.587,0,0,0,1.343-.67A3.312,3.312,0,0,0,18.545,26.509Zm5.986-2.323a3.519,3.519,0,0,0-.578-.044,1.547,1.547,0,0,0-1.568.984V30H21.211V23.132h1.143l.019.793A1.829,1.829,0,0,1,24.01,23a1.2,1.2,0,0,1,.521.089Zm.641,2.317a4.057,4.057,0,0,1,.4-1.815,2.96,2.96,0,0,1,1.1-1.244A3.007,3.007,0,0,1,28.289,23a2.9,2.9,0,0,1,2.269.971,3.736,3.736,0,0,1,.866,2.583v.083a4.092,4.092,0,0,1-.384,1.8,2.916,2.916,0,0,1-1.1,1.241,3.041,3.041,0,0,1-1.641.444,2.889,2.889,0,0,1-2.263-.971,3.718,3.718,0,0,1-.866-2.571Zm1.181.14a2.938,2.938,0,0,0,.53,1.834,1.8,1.8,0,0,0,2.841-.01A3.213,3.213,0,0,0,30.25,26.5a2.933,2.933,0,0,0-.536-1.831,1.705,1.705,0,0,0-1.425-.7,1.686,1.686,0,0,0-1.4.692A3.189,3.189,0,0,0,26.353,26.642Zm9.3,2.526a1.692,1.692,0,0,0,1.1-.381,1.34,1.34,0,0,0,.521-.952h1.111a2.13,2.13,0,0,1-.406,1.124,2.676,2.676,0,0,1-1,.851,2.885,2.885,0,0,1-1.323.317,2.829,2.829,0,0,1-2.231-.936,3.729,3.729,0,0,1-.828-2.561v-.2a4.135,4.135,0,0,1,.368-1.784,2.8,2.8,0,0,1,1.057-1.212A3,3,0,0,1,35.646,23a2.755,2.755,0,0,1,1.92.692,2.473,2.473,0,0,1,.816,1.8H37.271a1.618,1.618,0,0,0-.5-1.095,1.57,1.57,0,0,0-1.12-.428,1.644,1.644,0,0,0-1.387.644,3.026,3.026,0,0,0-.492,1.863V26.7a2.965,2.965,0,0,0,.489,1.828A1.651,1.651,0,0,0,35.652,29.168Zm6.9.958a3,3,0,0,1-2.272-.917,3.4,3.4,0,0,1-.876-2.453v-.216a4.121,4.121,0,0,1,.39-1.825,3.045,3.045,0,0,1,1.092-1.257A2.745,2.745,0,0,1,42.406,23a2.572,2.572,0,0,1,2.082.882,3.82,3.82,0,0,1,.743,2.526V26.9H40.578a2.441,2.441,0,0,0,.594,1.641,1.866,1.866,0,0,0,1.444.625,2.045,2.045,0,0,0,1.054-.254,2.648,2.648,0,0,0,.755-.673l.717.559A2.884,2.884,0,0,1,42.552,30.127Zm-.146-6.157a1.566,1.566,0,0,0-1.193.517,2.515,2.515,0,0,0-.6,1.45h3.44v-.089a2.237,2.237,0,0,0-.482-1.387A1.475,1.475,0,0,0,42.406,23.97Zm8.182,4.208a.865.865,0,0,0-.359-.74,3.452,3.452,0,0,0-1.25-.454,5.912,5.912,0,0,1-1.416-.457,2.014,2.014,0,0,1-.774-.635,1.518,1.518,0,0,1-.251-.876,1.782,1.782,0,0,1,.714-1.428A2.789,2.789,0,0,1,49.077,23a2.87,2.87,0,0,1,1.895.6A1.915,1.915,0,0,1,51.7,25.15H50.518a1.06,1.06,0,0,0-.409-.832,1.534,1.534,0,0,0-1.031-.349,1.606,1.606,0,0,0-1,.279.879.879,0,0,0-.362.73.712.712,0,0,0,.336.641,4.139,4.139,0,0,0,1.216.413,6.334,6.334,0,0,1,1.425.47,2.079,2.079,0,0,1,.809.657,1.615,1.615,0,0,1,.263.936,1.758,1.758,0,0,1-.736,1.476,3.089,3.089,0,0,1-1.911.555,3.459,3.459,0,0,1-1.46-.292,2.375,2.375,0,0,1-.993-.816,1.966,1.966,0,0,1-.359-1.133h1.174a1.216,1.216,0,0,0,.473.936,1.835,1.835,0,0,0,1.165.346,1.894,1.894,0,0,0,1.07-.27A.829.829,0,0,0,50.588,28.178ZM52.981,26.5a4.057,4.057,0,0,1,.4-1.815,2.96,2.96,0,0,1,1.1-1.244A3.007,3.007,0,0,1,56.1,23a2.9,2.9,0,0,1,2.269.971,3.736,3.736,0,0,1,.866,2.583v.083a4.092,4.092,0,0,1-.384,1.8,2.916,2.916,0,0,1-1.1,1.241,3.041,3.041,0,0,1-1.641.444,2.889,2.889,0,0,1-2.263-.971,3.718,3.718,0,0,1-.866-2.571Zm1.181.14a2.938,2.938,0,0,0,.53,1.834,1.8,1.8,0,0,0,2.841-.01,3.213,3.213,0,0,0,.527-1.965,2.933,2.933,0,0,0-.536-1.831,1.705,1.705,0,0,0-1.425-.7,1.686,1.686,0,0,0-1.4.692A3.189,3.189,0,0,0,54.162,26.642Zm10.543,1.536a.864.864,0,0,0-.359-.74,3.452,3.452,0,0,0-1.25-.454,5.912,5.912,0,0,1-1.416-.457,2.014,2.014,0,0,1-.774-.635,1.518,1.518,0,0,1-.251-.876,1.782,1.782,0,0,1,.714-1.428A2.789,2.789,0,0,1,63.194,23a2.87,2.87,0,0,1,1.895.6,1.915,1.915,0,0,1,.727,1.542H64.635a1.06,1.06,0,0,0-.409-.832,1.534,1.534,0,0,0-1.031-.349,1.606,1.606,0,0,0-1,.279.879.879,0,0,0-.362.73.712.712,0,0,0,.336.641,4.139,4.139,0,0,0,1.216.413,6.334,6.334,0,0,1,1.425.47,2.079,2.079,0,0,1,.809.657,1.615,1.615,0,0,1,.263.936,1.758,1.758,0,0,1-.736,1.476,3.089,3.089,0,0,1-1.911.555,3.459,3.459,0,0,1-1.46-.292,2.375,2.375,0,0,1-.993-.816,1.966,1.966,0,0,1-.359-1.133h1.174a1.216,1.216,0,0,0,.473.936,1.835,1.835,0,0,0,1.165.346,1.894,1.894,0,0,0,1.07-.27A.829.829,0,0,0,64.705,28.178Zm8.677.99a1.691,1.691,0,0,0,1.1-.381A1.34,1.34,0,0,0,75,27.835h1.111a2.13,2.13,0,0,1-.406,1.124,2.676,2.676,0,0,1-1,.851,2.885,2.885,0,0,1-1.323.317,2.829,2.829,0,0,1-2.231-.936,3.729,3.729,0,0,1-.828-2.561v-.2a4.135,4.135,0,0,1,.368-1.784,2.8,2.8,0,0,1,1.057-1.212A3,3,0,0,1,73.376,23a2.755,2.755,0,0,1,1.92.692,2.473,2.473,0,0,1,.816,1.8H75a1.618,1.618,0,0,0-.5-1.095,1.57,1.57,0,0,0-1.12-.428,1.644,1.644,0,0,0-1.387.644,3.026,3.026,0,0,0-.492,1.863V26.7a2.966,2.966,0,0,0,.489,1.828A1.651,1.651,0,0,0,73.382,29.168Zm7.37-4.983a3.519,3.519,0,0,0-.578-.044,1.547,1.547,0,0,0-1.568.984V30H77.432V23.132h1.143l.019.793A1.829,1.829,0,0,1,80.231,23a1.2,1.2,0,0,1,.521.089ZM83.107,30H81.926V23.132h1.181Zm.013-9.744h1.422l-1.7,1.866-.946,0Zm3.517,1.212v1.663h1.282v.908H86.636V28.3a.953.953,0,0,0,.171.62.721.721,0,0,0,.584.207,2.843,2.843,0,0,0,.559-.076V30a3.424,3.424,0,0,1-.9.126,1.462,1.462,0,0,1-1.187-.476,2.045,2.045,0,0,1-.4-1.352V24.04h-1.25v-.908h1.25V21.469ZM90.565,30H89.391V23.132h1.174ZM89.3,21.31a.7.7,0,0,1,.175-.482.655.655,0,0,1,.517-.2.666.666,0,0,1,.521.2.694.694,0,0,1,.178.482.671.671,0,0,1-.178.476.678.678,0,0,1-.521.19.667.667,0,0,1-.517-.19A.678.678,0,0,1,89.3,21.31Zm5.9,7.858a1.691,1.691,0,0,0,1.1-.381,1.34,1.34,0,0,0,.521-.952h1.111a2.13,2.13,0,0,1-.406,1.124,2.676,2.676,0,0,1-1,.851,2.885,2.885,0,0,1-1.323.317,2.829,2.829,0,0,1-2.231-.936,3.729,3.729,0,0,1-.828-2.561v-.2a4.135,4.135,0,0,1,.368-1.784,2.8,2.8,0,0,1,1.057-1.212A3,3,0,0,1,95.193,23a2.755,2.755,0,0,1,1.92.692,2.473,2.473,0,0,1,.816,1.8H96.818a1.618,1.618,0,0,0-.5-1.095,1.57,1.57,0,0,0-1.12-.428,1.644,1.644,0,0,0-1.387.644,3.026,3.026,0,0,0-.492,1.863V26.7a2.966,2.966,0,0,0,.489,1.828A1.651,1.651,0,0,0,95.2,29.168ZM98.938,26.5a4.057,4.057,0,0,1,.4-1.815,2.96,2.96,0,0,1,1.1-1.244A3.007,3.007,0,0,1,102.055,23a2.9,2.9,0,0,1,2.269.971,3.736,3.736,0,0,1,.866,2.583v.083a4.092,4.092,0,0,1-.384,1.8,2.916,2.916,0,0,1-1.1,1.241,3.041,3.041,0,0,1-1.641.444,2.889,2.889,0,0,1-2.263-.971,3.718,3.718,0,0,1-.866-2.571Zm1.181.14a2.938,2.938,0,0,0,.53,1.834,1.8,1.8,0,0,0,2.841-.01,3.213,3.213,0,0,0,.527-1.965,2.933,2.933,0,0,0-.536-1.831,1.705,1.705,0,0,0-1.425-.7,1.686,1.686,0,0,0-1.4.692A3.189,3.189,0,0,0,100.119,26.642Zm10.543,1.536a.864.864,0,0,0-.359-.74,3.452,3.452,0,0,0-1.25-.454,5.912,5.912,0,0,1-1.416-.457,2.014,2.014,0,0,1-.774-.635,1.518,1.518,0,0,1-.251-.876,1.782,1.782,0,0,1,.714-1.428A2.789,2.789,0,0,1,109.151,23a2.87,2.87,0,0,1,1.895.6,1.915,1.915,0,0,1,.727,1.542h-1.181a1.06,1.06,0,0,0-.409-.832,1.534,1.534,0,0,0-1.031-.349,1.606,1.606,0,0,0-1,.279.879.879,0,0,0-.362.73.712.712,0,0,0,.336.641,4.139,4.139,0,0,0,1.216.413,6.334,6.334,0,0,1,1.425.47,2.079,2.079,0,0,1,.809.657,1.615,1.615,0,0,1,.263.936,1.758,1.758,0,0,1-.736,1.476,3.089,3.089,0,0,1-1.911.555,3.459,3.459,0,0,1-1.46-.292,2.375,2.375,0,0,1-.993-.816,1.966,1.966,0,0,1-.359-1.133h1.174a1.216,1.216,0,0,0,.473.936,1.835,1.835,0,0,0,1.165.346,1.894,1.894,0,0,0,1.07-.27A.829.829,0,0,0,110.662,28.178Z" transform="translate(1021.158 -2127.781)" fill="#12263f"/>
  </g>
</svg>
