<svg xmlns="http://www.w3.org/2000/svg" xmlns:xlink="http://www.w3.org/1999/xlink" width="634.27" height="294.227" viewBox="0 0 634.27 294.227">
  <defs>
    <filter id="Elipse_180" x="0" y="19.399" width="211.269" height="211.269" filterUnits="userSpaceOnUse">
      <feOffset dx="5" dy="5" input="SourceAlpha"/>
      <feGaussianBlur stdDeviation="12.5" result="blur"/>
      <feFlood flood-opacity="0.161"/>
      <feComposite operator="in" in2="blur"/>
      <feComposite in="SourceGraphic"/>
    </filter>
    <filter id="Elipse_180-2" x="209" y="69.399" width="211.269" height="211.269" filterUnits="userSpaceOnUse">
      <feOffset dx="5" dy="5" input="SourceAlpha"/>
      <feGaussianBlur stdDeviation="12.5" result="blur-2"/>
      <feFlood flood-opacity="0.161"/>
      <feComposite operator="in" in2="blur-2"/>
      <feComposite in="SourceGraphic"/>
    </filter>
    <filter id="Elipse_180-3" x="417" y="19.399" width="211.269" height="211.269" filterUnits="userSpaceOnUse">
      <feOffset dx="5" dy="5" input="SourceAlpha"/>
      <feGaussianBlur stdDeviation="12.5" result="blur-3"/>
      <feFlood flood-opacity="0.161"/>
      <feComposite operator="in" in2="blur-3"/>
      <feComposite in="SourceGraphic"/>
    </filter>
  </defs>
  <g id="Grupo_879859" data-name="Grupo 879859" transform="translate(-175.73 -592.251)">
    <path id="Trazado_603862" data-name="Trazado 603862" d="M0,0H630V130H0Z" transform="translate(180 756.478)" fill="#fff3d3"/>
    <path id="Trazado_603863" data-name="Trazado 603863" d="M53.2,17V5.625h3.5a5.315,5.315,0,0,1,2.684.676,4.712,4.712,0,0,1,1.848,1.922,5.928,5.928,0,0,1,.664,2.832v.523a5.945,5.945,0,0,1-.652,2.82,4.672,4.672,0,0,1-1.84,1.914,5.355,5.355,0,0,1-2.68.688Zm2.344-9.477v7.594H56.68a2.545,2.545,0,0,0,2.1-.9,4.06,4.06,0,0,0,.742-2.57v-.6A4.124,4.124,0,0,0,58.8,8.418a2.537,2.537,0,0,0-2.1-.895ZM65.836,17H63.57V8.547h2.266Zm-2.4-10.641a1.112,1.112,0,0,1,.34-.836,1.465,1.465,0,0,1,1.848,0,1.105,1.105,0,0,1,.344.836,1.108,1.108,0,0,1-.348.844,1.448,1.448,0,0,1-1.836,0A1.108,1.108,0,0,1,63.438,6.359ZM72.594,17a2.507,2.507,0,0,1-.227-.758,2.732,2.732,0,0,1-2.133.914,3,3,0,0,1-2.059-.719,2.312,2.312,0,0,1-.816-1.812,2.389,2.389,0,0,1,1-2.062,4.915,4.915,0,0,1,2.879-.727h1.039v-.484a1.393,1.393,0,0,0-.3-.937,1.183,1.183,0,0,0-.949-.352,1.345,1.345,0,0,0-.895.273.929.929,0,0,0-.324.75H67.547A2.268,2.268,0,0,1,68,9.727a3,3,0,0,1,1.281-.98,4.669,4.669,0,0,1,1.859-.355,3.689,3.689,0,0,1,2.48.785,2.747,2.747,0,0,1,.918,2.207v3.664a4.041,4.041,0,0,0,.336,1.82V17Zm-1.867-1.57a1.945,1.945,0,0,0,.922-.223,1.462,1.462,0,0,0,.625-.6V13.156H71.43q-1.7,0-1.8,1.172l-.008.133a.9.9,0,0,0,.3.7A1.153,1.153,0,0,0,70.727,15.43Zm5.219-2.719a4.954,4.954,0,0,1,.926-3.133,3,3,0,0,1,2.5-1.187,2.631,2.631,0,0,1,2.164.953l.094-.8h2.047v8.172a3.613,3.613,0,0,1-.5,1.93A3.236,3.236,0,0,1,81.75,19.9a4.985,4.985,0,0,1-2.141.43,4.635,4.635,0,0,1-1.812-.371A3.217,3.217,0,0,1,76.461,19l1-1.375a2.645,2.645,0,0,0,2.047.945,1.936,1.936,0,0,0,1.4-.48,1.8,1.8,0,0,0,.5-1.363v-.453a2.612,2.612,0,0,1-2.055.883,2.992,2.992,0,0,1-2.465-1.191,4.953,4.953,0,0,1-.941-3.16Zm2.258.168a3.085,3.085,0,0,0,.461,1.8,1.466,1.466,0,0,0,1.266.653,1.568,1.568,0,0,0,1.477-.775V11a1.564,1.564,0,0,0-1.461-.775,1.476,1.476,0,0,0-1.277.665A3.477,3.477,0,0,0,78.2,12.879Zm9.281-4.332.07.977a2.951,2.951,0,0,1,2.43-1.133,2.453,2.453,0,0,1,2,.789,3.682,3.682,0,0,1,.672,2.359V17H90.4V11.594a1.465,1.465,0,0,0-.312-1.043,1.4,1.4,0,0,0-1.039-.324,1.553,1.553,0,0,0-1.43.813V17H85.359V8.547ZM94.016,12.7a5.013,5.013,0,0,1,.484-2.242A3.546,3.546,0,0,1,95.895,8.93a4.069,4.069,0,0,1,2.113-.539A3.849,3.849,0,0,1,100.8,9.438a4.2,4.2,0,0,1,1.207,2.844l.016.578a4.418,4.418,0,0,1-1.086,3.121,4.209,4.209,0,0,1-5.832,0,4.5,4.5,0,0,1-1.09-3.187Zm2.258.16a3.16,3.16,0,0,0,.453,1.843,1.628,1.628,0,0,0,2.578.008,3.457,3.457,0,0,0,.461-2.015A3.128,3.128,0,0,0,99.3,10.86a1.5,1.5,0,0,0-1.3-.649,1.474,1.474,0,0,0-1.281.646A3.516,3.516,0,0,0,96.273,12.856ZM98.453,5h2.461L98.75,7.422H96.914Zm9.539,9.664a.727.727,0,0,0-.41-.652,4.659,4.659,0,0,0-1.316-.426q-3.016-.633-3.016-2.562a2.323,2.323,0,0,1,.934-1.879,3.766,3.766,0,0,1,2.441-.754,4.053,4.053,0,0,1,2.574.758,2.388,2.388,0,0,1,.965,1.969h-2.258a1.092,1.092,0,0,0-.312-.8,1.322,1.322,0,0,0-.977-.316,1.351,1.351,0,0,0-.883.258.814.814,0,0,0-.312.656.7.7,0,0,0,.355.605,3.657,3.657,0,0,0,1.2.4,9.8,9.8,0,0,1,1.422.379,2.336,2.336,0,0,1,1.789,2.273,2.2,2.2,0,0,1-.992,1.871,4.28,4.28,0,0,1-2.562.715,4.47,4.47,0,0,1-1.887-.379,3.166,3.166,0,0,1-1.293-1.039,2.414,2.414,0,0,1-.469-1.426h2.141a1.179,1.179,0,0,0,.445.922,1.766,1.766,0,0,0,1.109.32,1.635,1.635,0,0,0,.98-.246A.766.766,0,0,0,107.992,14.664Zm6.352-8.2V8.547h1.445V10.2h-1.445v4.219a1.007,1.007,0,0,0,.18.672.9.9,0,0,0,.688.2,3.6,3.6,0,0,0,.664-.055v1.711a4.648,4.648,0,0,1-1.367.2,2.156,2.156,0,0,1-2.422-2.4V10.2h-1.234V8.547h1.234V6.469ZM119.43,17h-2.266V8.547h2.266Zm-2.4-10.641a1.112,1.112,0,0,1,.34-.836,1.465,1.465,0,0,1,1.848,0,1.105,1.105,0,0,1,.344.836,1.108,1.108,0,0,1-.348.844,1.448,1.448,0,0,1-1.836,0A1.108,1.108,0,0,1,117.031,6.359Zm7.773,8.977a1.481,1.481,0,0,0,1.016-.344,1.2,1.2,0,0,0,.406-.914h2.117a2.9,2.9,0,0,1-.469,1.574,3.093,3.093,0,0,1-1.262,1.109,3.949,3.949,0,0,1-1.77.395A3.67,3.67,0,0,1,121.984,16a4.56,4.56,0,0,1-1.047-3.184v-.148a4.508,4.508,0,0,1,1.039-3.117,3.627,3.627,0,0,1,2.852-1.164,3.555,3.555,0,0,1,2.543.9,3.2,3.2,0,0,1,.973,2.4h-2.117a1.551,1.551,0,0,0-.406-1.072,1.51,1.51,0,0,0-2.223.163,3.333,3.333,0,0,0-.4,1.866v.235a3.375,3.375,0,0,0,.4,1.878A1.377,1.377,0,0,0,124.8,15.336Zm4.477-2.641a5.013,5.013,0,0,1,.484-2.242A3.546,3.546,0,0,1,131.16,8.93a4.069,4.069,0,0,1,2.113-.539,3.849,3.849,0,0,1,2.793,1.047,4.2,4.2,0,0,1,1.207,2.844l.016.578A4.418,4.418,0,0,1,136.2,15.98a4.209,4.209,0,0,1-5.832,0,4.5,4.5,0,0,1-1.09-3.187Zm2.258.16a3.16,3.16,0,0,0,.453,1.843,1.628,1.628,0,0,0,2.578.008,3.457,3.457,0,0,0,.461-2.015,3.128,3.128,0,0,0-.461-1.831,1.5,1.5,0,0,0-1.3-.649,1.474,1.474,0,0,0-1.281.646A3.516,3.516,0,0,0,131.539,12.856Z" transform="translate(180 587.251)" fill="#12263f"/>
    <path id="Trazado_603864" data-name="Trazado 603864" d="M66.48,12.836H64.613V17H62.27V5.625H66.5a4.778,4.778,0,0,1,3.109.9A3.1,3.1,0,0,1,70.7,9.063,3.5,3.5,0,0,1,70.2,11a3.437,3.437,0,0,1-1.527,1.238l2.461,4.648V17H68.613Zm-1.867-1.9H66.5a1.936,1.936,0,0,0,1.367-.449,1.606,1.606,0,0,0,.484-1.238A1.719,1.719,0,0,0,67.9,7.984a1.9,1.9,0,0,0-1.4-.461H64.613Zm11.609,6.219A4.15,4.15,0,0,1,73.2,16.016a4.054,4.054,0,0,1-1.168-3.039v-.219a5.106,5.106,0,0,1,.492-2.277,3.612,3.612,0,0,1,1.395-1.547,3.914,3.914,0,0,1,2.059-.543A3.508,3.508,0,0,1,78.7,9.484a4.444,4.444,0,0,1,1,3.1v.922H74.316a2.1,2.1,0,0,0,.66,1.328,2,2,0,0,0,1.395.5,2.437,2.437,0,0,0,2.039-.945l1.109,1.242a3.389,3.389,0,0,1-1.375,1.121A4.511,4.511,0,0,1,76.223,17.156Zm-.258-6.945a1.411,1.411,0,0,0-1.09.455,2.357,2.357,0,0,0-.535,1.3H77.48v-.181a1.681,1.681,0,0,0-.406-1.165A1.456,1.456,0,0,0,75.965,10.211ZM84.5,15.336a1.481,1.481,0,0,0,1.016-.344,1.2,1.2,0,0,0,.406-.914h2.117a2.9,2.9,0,0,1-.469,1.574A3.093,3.093,0,0,1,86.3,16.762a3.949,3.949,0,0,1-1.77.395A3.67,3.67,0,0,1,81.676,16a4.56,4.56,0,0,1-1.047-3.184v-.148a4.508,4.508,0,0,1,1.039-3.117A3.627,3.627,0,0,1,84.52,8.391a3.555,3.555,0,0,1,2.543.9,3.2,3.2,0,0,1,.973,2.4H85.918a1.551,1.551,0,0,0-.406-1.072,1.51,1.51,0,0,0-2.223.163,3.333,3.333,0,0,0-.4,1.866v.235a3.375,3.375,0,0,0,.4,1.878A1.377,1.377,0,0,0,84.5,15.336Zm9.891.8a2.831,2.831,0,0,1-2.312,1.016A2.67,2.67,0,0,1,90,16.375a3.335,3.335,0,0,1-.73-2.289V8.547h2.258v5.467q0,1.322,1.2,1.322a1.63,1.63,0,0,0,1.578-.8V8.547h2.266V17H94.449Zm8.641-5.477a6.134,6.134,0,0,0-.812-.062,1.654,1.654,0,0,0-1.68.867V17H98.277V8.547h2.133l.063,1.008a2.092,2.092,0,0,1,1.883-1.164,2.366,2.366,0,0,1,.7.1Zm5.664,4a.727.727,0,0,0-.41-.652,4.659,4.659,0,0,0-1.316-.426q-3.016-.633-3.016-2.562a2.323,2.323,0,0,1,.934-1.879,3.766,3.766,0,0,1,2.441-.754,4.053,4.053,0,0,1,2.574.758,2.388,2.388,0,0,1,.965,1.969h-2.258a1.092,1.092,0,0,0-.312-.8,1.322,1.322,0,0,0-.977-.316,1.351,1.351,0,0,0-.883.258.814.814,0,0,0-.312.656.7.7,0,0,0,.355.605,3.657,3.657,0,0,0,1.2.4,9.8,9.8,0,0,1,1.422.379,2.336,2.336,0,0,1,1.789,2.273,2.2,2.2,0,0,1-.992,1.871,4.28,4.28,0,0,1-2.562.715,4.47,4.47,0,0,1-1.887-.379,3.166,3.166,0,0,1-1.293-1.039,2.414,2.414,0,0,1-.469-1.426h2.141a1.179,1.179,0,0,0,.445.922,1.766,1.766,0,0,0,1.109.32,1.635,1.635,0,0,0,.98-.246A.766.766,0,0,0,108.691,14.664Zm3.3-1.969a5.013,5.013,0,0,1,.484-2.242,3.546,3.546,0,0,1,1.395-1.523,4.069,4.069,0,0,1,2.113-.539,3.849,3.849,0,0,1,2.793,1.047,4.2,4.2,0,0,1,1.207,2.844l.016.578a4.418,4.418,0,0,1-1.086,3.121,4.209,4.209,0,0,1-5.832,0,4.5,4.5,0,0,1-1.09-3.187Zm2.258.16A3.16,3.16,0,0,0,114.7,14.7a1.628,1.628,0,0,0,2.578.008,3.457,3.457,0,0,0,.461-2.015,3.128,3.128,0,0,0-.461-1.831,1.5,1.5,0,0,0-1.3-.649,1.474,1.474,0,0,0-1.281.646A3.516,3.516,0,0,0,114.246,12.856Zm11.719,1.808a.727.727,0,0,0-.41-.652,4.659,4.659,0,0,0-1.316-.426q-3.016-.633-3.016-2.562a2.323,2.323,0,0,1,.934-1.879,3.766,3.766,0,0,1,2.441-.754,4.053,4.053,0,0,1,2.574.758,2.388,2.388,0,0,1,.965,1.969h-2.258a1.092,1.092,0,0,0-.312-.8A1.322,1.322,0,0,0,124.59,10a1.351,1.351,0,0,0-.883.258.814.814,0,0,0-.312.656.7.7,0,0,0,.355.605,3.657,3.657,0,0,0,1.2.4,9.8,9.8,0,0,1,1.422.379,2.336,2.336,0,0,1,1.789,2.273,2.2,2.2,0,0,1-.992,1.871,4.28,4.28,0,0,1-2.562.715,4.47,4.47,0,0,1-1.887-.379,3.166,3.166,0,0,1-1.293-1.039,2.414,2.414,0,0,1-.469-1.426H123.1a1.179,1.179,0,0,0,.445.922,1.766,1.766,0,0,0,1.109.32,1.635,1.635,0,0,0,.98-.246A.766.766,0,0,0,125.965,14.664Z" transform="translate(600 587.251)" fill="#12263f"/>
    <path id="Trazado_603865" data-name="Trazado 603865" d="M60.152,14.656H56.043L55.262,17H52.77L57,5.625h2.172L63.434,17H60.941Zm-3.477-1.9H59.52L58.09,8.5Zm11.188,2.578a1.481,1.481,0,0,0,1.016-.344,1.2,1.2,0,0,0,.406-.914H71.4a2.9,2.9,0,0,1-.469,1.574,3.093,3.093,0,0,1-1.262,1.109,3.949,3.949,0,0,1-1.77.395A3.67,3.67,0,0,1,65.043,16,4.56,4.56,0,0,1,64,12.82v-.148a4.508,4.508,0,0,1,1.039-3.117,3.627,3.627,0,0,1,2.852-1.164,3.555,3.555,0,0,1,2.543.9,3.2,3.2,0,0,1,.973,2.4H69.285a1.551,1.551,0,0,0-.406-1.072,1.51,1.51,0,0,0-2.223.163,3.333,3.333,0,0,0-.4,1.866v.235a3.375,3.375,0,0,0,.4,1.878A1.377,1.377,0,0,0,67.863,15.336Zm7.531-8.867V8.547H76.84V10.2H75.395v4.219a1.007,1.007,0,0,0,.18.672.9.9,0,0,0,.688.2,3.6,3.6,0,0,0,.664-.055v1.711a4.648,4.648,0,0,1-1.367.2,2.156,2.156,0,0,1-2.422-2.4V10.2H71.9V8.547h1.234V6.469ZM80.48,17H78.215V8.547H80.48Zm-2.4-10.641a1.112,1.112,0,0,1,.34-.836,1.465,1.465,0,0,1,1.848,0,1.105,1.105,0,0,1,.344.836,1.108,1.108,0,0,1-.348.844,1.448,1.448,0,0,1-1.836,0A1.108,1.108,0,0,1,78.082,6.359ZM85.5,14.242l1.57-5.7h2.359L86.582,17H84.426L81.574,8.547h2.359ZM92.809,17H90.543V8.547h2.266ZM90.41,6.359a1.112,1.112,0,0,1,.34-.836,1.465,1.465,0,0,1,1.848,0,1.105,1.105,0,0,1,.344.836,1.108,1.108,0,0,1-.348.844,1.448,1.448,0,0,1-1.836,0A1.108,1.108,0,0,1,90.41,6.359Zm3.906,6.352A5.094,5.094,0,0,1,95.2,9.563a2.877,2.877,0,0,1,2.426-1.172,2.589,2.589,0,0,1,2.039.922V5h2.266V17H99.895l-.109-.9a2.657,2.657,0,0,1-2.172,1.055,2.869,2.869,0,0,1-2.395-1.176A5.258,5.258,0,0,1,94.316,12.711Zm2.258.168a3.337,3.337,0,0,0,.414,1.823,1.349,1.349,0,0,0,1.2.634,1.511,1.511,0,0,0,1.477-.884V11.111a1.489,1.489,0,0,0-1.461-.884Q96.574,10.227,96.574,12.879ZM108.582,17a2.507,2.507,0,0,1-.227-.758,2.732,2.732,0,0,1-2.133.914,3,3,0,0,1-2.059-.719,2.312,2.312,0,0,1-.816-1.812,2.389,2.389,0,0,1,1-2.062,4.915,4.915,0,0,1,2.879-.727h1.039v-.484a1.393,1.393,0,0,0-.3-.937,1.183,1.183,0,0,0-.949-.352,1.345,1.345,0,0,0-.895.273.929.929,0,0,0-.324.75h-2.258a2.268,2.268,0,0,1,.453-1.359,3,3,0,0,1,1.281-.98,4.669,4.669,0,0,1,1.859-.355,3.689,3.689,0,0,1,2.48.785,2.747,2.747,0,0,1,.918,2.207v3.664a4.041,4.041,0,0,0,.336,1.82V17Zm-1.867-1.57a1.945,1.945,0,0,0,.922-.223,1.462,1.462,0,0,0,.625-.6V13.156h-.844q-1.7,0-1.8,1.172l-.008.133a.9.9,0,0,0,.3.7A1.153,1.153,0,0,0,106.715,15.43Zm5.2-2.719a5.094,5.094,0,0,1,.887-3.148,2.877,2.877,0,0,1,2.426-1.172,2.589,2.589,0,0,1,2.039.922V5h2.266V17h-2.039l-.109-.9a2.657,2.657,0,0,1-2.172,1.055,2.869,2.869,0,0,1-2.395-1.176A5.258,5.258,0,0,1,111.91,12.711Zm2.258.168a3.337,3.337,0,0,0,.414,1.823,1.349,1.349,0,0,0,1.2.634,1.511,1.511,0,0,0,1.477-.884V11.111a1.489,1.489,0,0,0-1.461-.884Q114.168,10.227,114.168,12.879Zm11,4.277a4.15,4.15,0,0,1-3.027-1.141,4.054,4.054,0,0,1-1.168-3.039v-.219a5.106,5.106,0,0,1,.492-2.277,3.612,3.612,0,0,1,1.395-1.547,3.914,3.914,0,0,1,2.059-.543,3.508,3.508,0,0,1,2.73,1.094,4.444,4.444,0,0,1,1,3.1v.922h-5.383a2.1,2.1,0,0,0,.66,1.328,2,2,0,0,0,1.395.5,2.437,2.437,0,0,0,2.039-.945l1.109,1.242a3.389,3.389,0,0,1-1.375,1.121A4.511,4.511,0,0,1,125.168,17.156Zm-.258-6.945a1.411,1.411,0,0,0-1.09.455,2.357,2.357,0,0,0-.535,1.3h3.141v-.181a1.681,1.681,0,0,0-.406-1.165A1.456,1.456,0,0,0,124.91,10.211Zm9.594,4.453a.727.727,0,0,0-.41-.652,4.659,4.659,0,0,0-1.316-.426q-3.016-.633-3.016-2.562a2.323,2.323,0,0,1,.934-1.879,3.766,3.766,0,0,1,2.441-.754,4.053,4.053,0,0,1,2.574.758,2.388,2.388,0,0,1,.965,1.969h-2.258a1.092,1.092,0,0,0-.312-.8,1.322,1.322,0,0,0-.977-.316,1.351,1.351,0,0,0-.883.258.814.814,0,0,0-.312.656.7.7,0,0,0,.355.605,3.657,3.657,0,0,0,1.2.4,9.8,9.8,0,0,1,1.422.379A2.336,2.336,0,0,1,136.7,14.57a2.205,2.205,0,0,1-.992,1.871,4.28,4.28,0,0,1-2.562.715,4.47,4.47,0,0,1-1.887-.379,3.166,3.166,0,0,1-1.293-1.039,2.414,2.414,0,0,1-.469-1.426h2.141a1.179,1.179,0,0,0,.445.922,1.766,1.766,0,0,0,1.109.32,1.635,1.635,0,0,0,.98-.246A.766.766,0,0,0,134.5,14.664Z" transform="translate(390 637.251)" fill="#12263f"/>
    <g id="Trazado_603866" data-name="Trazado 603866" transform="translate(392 668.251)" fill="#fff">
      <path d="M 93.5 181 C 45.25232315063477 181 6 141.7476806640625 6 93.5 C 6 45.25232315063477 45.25232315063477 6 93.5 6 C 141.7476806640625 6 181 45.25232315063477 181 93.5 C 181 141.7476806640625 141.7476806640625 181 93.5 181 Z" stroke="none"/>
      <path d="M 93.5 12 C 48.56074523925781 12 12 48.56074523925781 12 93.5 C 12 138.4392547607422 48.56074523925781 175 93.5 175 C 138.4392547607422 175 175 138.4392547607422 175 93.5 C 175 48.56074523925781 138.4392547607422 12 93.5 12 M 93.5 0 C 145.1386108398438 0 187 41.86135864257812 187 93.5 C 187 145.1386108398438 145.1386108398438 187 93.5 187 C 41.86135864257812 187 0 145.1386108398438 0 93.5 C 0 41.86135864257812 41.86135864257812 0 93.5 0 Z" stroke="none" fill="#7fd452"/>
    </g>
    <g id="Trazado_603867" data-name="Trazado 603867" transform="translate(600 618.251)" fill="#fff">
      <path d="M 93.5 181 C 45.25232315063477 181 6 141.7476806640625 6 93.5 C 6 45.25232315063477 45.25232315063477 6 93.5 6 C 141.7476806640625 6 181 45.25232315063477 181 93.5 C 181 141.7476806640625 141.7476806640625 181 93.5 181 Z" stroke="none"/>
      <path d="M 93.5 12 C 48.56074523925781 12 12 48.56074523925781 12 93.5 C 12 138.4392547607422 48.56074523925781 175 93.5 175 C 138.4392547607422 175 175 138.4392547607422 175 93.5 C 175 48.56074523925781 138.4392547607422 12 93.5 12 M 93.5 0 C 145.1386108398438 0 187 41.86135864257812 187 93.5 C 187 145.1386108398438 145.1386108398438 187 93.5 187 C 41.86135864257812 187 0 145.1386108398438 0 93.5 C 0 41.86135864257812 41.86135864257812 0 93.5 0 Z" stroke="none" fill="#f7cc54"/>
    </g>
    <g id="Trazado_598730" data-name="Trazado 598730" transform="translate(183 618.784)" fill="#fff">
      <path d="M 93.5 181 C 45.25232315063477 181 6 141.7476806640625 6 93.5 C 6 45.25232315063477 45.25232315063477 6 93.5 6 C 141.7476806640625 6 181 45.25232315063477 181 93.5 C 181 141.7476806640625 141.7476806640625 181 93.5 181 Z" stroke="none"/>
      <path d="M 93.5 12 C 48.56074523925781 12 12 48.56074523925781 12 93.5 C 12 138.4392547607422 48.56074523925781 175 93.5 175 C 138.4392547607422 175 175 138.4392547607422 175 93.5 C 175 48.56074523925781 138.4392547607422 12 93.5 12 M 93.5 0 C 145.1386108398438 0 187 41.86135864257812 187 93.5 C 187 145.1386108398438 145.1386108398438 187 93.5 187 C 41.86135864257812 187 0 145.1386108398438 0 93.5 C 0 41.86135864257812 41.86135864257812 0 93.5 0 Z" stroke="none" fill="#fa4861"/>
    </g>
    <g id="Grupo_877463" data-name="Grupo 877463" transform="translate(208.23 644.15)">
      <g id="Grupo_875625" data-name="Grupo 875625" transform="translate(0 0)">
        <g transform="matrix(1, 0, 0, 1, -32.5, -51.9)" filter="url(#Elipse_180)">
          <circle id="Elipse_180-4" data-name="Elipse 180" cx="68.134" cy="68.134" r="68.134" transform="translate(32.5 51.9)" fill="#fff"/>
        </g>
      </g>
      <g id="Grupo_879016" data-name="Grupo 879016" transform="translate(25.511 25.445)">
        <path id="Trazado_600934" data-name="Trazado 600934" d="M132.5,993.3a11.376,11.376,0,0,1-6.606-1.4c-3.148-1.975-3.957-4.989-4.116-8.375.606-.637,1.172-1.317,1.826-1.9a3.3,3.3,0,0,0,1.031-3.958c3.677-3.587,7.377-7.151,10.86-10.932.592.26,1.185.518,1.776.781a16.725,16.725,0,0,0,16.412-1.021,17.637,17.637,0,0,0,7.516-10.162,75.336,75.336,0,0,0,7.738-.109,6.851,6.851,0,0,0,1.125,1.1,2.659,2.659,0,0,0,3.644-.541,2.823,2.823,0,0,0-3.652-4.226,6.557,6.557,0,0,0-1.118,1.1l-7.286-.147a28.2,28.2,0,0,0-.636-6.362,1.892,1.892,0,0,0,1.274-.879c2.314-3,5.109-4.915,9.129-4.19a.954.954,0,0,0,.343-.074,8.606,8.606,0,0,0,.983,1,2.828,2.828,0,1,0,0-4.563,8.336,8.336,0,0,0-.978,1.007c-1.7-.048-3.4-.1-5.108-.14-.582-.013-1.205-.1-1.665.381-1.614,1.7-3.494,3.148-4.855,5.09l-2.436-3.688c.6-.652,1.188-1.31,1.791-1.956,2.216-2.372,4.748-4.44,6.762-7.008a8.937,8.937,0,0,0,1.579.013,2.833,2.833,0,0,0,2.3-3.078,2.867,2.867,0,0,0-2.886-2.547,2.8,2.8,0,0,0-2.762,2.659,8.583,8.583,0,0,0,.213,1.559c-.9-.057-1.351.64-1.891,1.165q-3.623,3.523-7.232,7.061l-3.686-2.436c1.939-1.363,3.387-3.241,5.087-4.854a1.41,1.41,0,0,0,.38-1.136,44.767,44.767,0,0,0-.143-5.635,8.507,8.507,0,0,0,1.005-.981,2.831,2.831,0,1,0-4.562,0,8.389,8.389,0,0,0,1.01.976,20.5,20.5,0,0,0-.123,2.986,4.436,4.436,0,0,1-1.622,4.019c-1.237,1.128-2.657,2.147-3.4,3.744a23.332,23.332,0,0,0-7.788-.459q-.071-3.731-.143-7.462a6.716,6.716,0,0,0,1.1-1.122,2.667,2.667,0,0,0-.543-3.647,2.822,2.822,0,0,0-4.228,3.651,8.548,8.548,0,0,0,1.109,1.116,63.973,63.973,0,0,0-.069,8.164c-.315.158-.625.327-.946.471A16.833,16.833,0,0,0,127.723,949.4c-.767,4.2.355,8.066,2.211,11.784l-8.031,7.768q-.038-13.316-.075-26.632c-.008-3.374,0-6.748,0-10.122,0-5.528-.018-11.057.015-16.585a10.767,10.767,0,0,0-.736-3.406c-.643-2-2.365-2.805-3.9-3.839.607-.558,1.355-.313,2.038-.313,18.341-.014,36.684.156,55.021-.122a8.353,8.353,0,0,1,8.74,8.679c-.16,21.831-.068,43.664-.068,65.5,0,.888.007,1.775.011,2.663l-40.427.014c-.887,0-1.773,0-2.659.006-.528,0-.907.149-.965.773C138.517,989.589,135.836,991.719,132.5,993.3Zm34.829-73.944c1.361.018,2.723.082,4.082.044a2.808,2.808,0,0,0,2.989-2.833c0-1.712-1.153-2.719-3.16-2.761-1.873-.026-3.748-.122-5.617-.054a2.69,2.69,0,0,0-2.583,2.791,2.757,2.757,0,0,0,2.536,2.848A14.319,14.319,0,0,0,167.329,919.359Zm.071,49.793c-3.308,0-6.618.035-9.925-.019-1.109-.019-1.6.264-1.575,1.477.018,1.105.421,1.407,1.47,1.4q9.925-.051,19.851,0c1.03.005,1.475-.254,1.485-1.383.011-1.189-.426-1.517-1.557-1.5C173.9,969.19,170.649,969.153,167.4,969.152Zm-5.788,8.6a2.838,2.838,0,1,0-2.861,2.768A2.839,2.839,0,0,0,161.612,977.748Zm5.757-2.9a2.838,2.838,0,1,0,2.77,2.859A2.839,2.839,0,0,0,167.369,974.843Zm11.3,2.9a2.837,2.837,0,1,0-2.853,2.776A2.839,2.839,0,0,0,178.665,977.739Z" transform="translate(-103.351 -907.933)" fill="#e1e6f5"/>
        <path id="Trazado_600935" data-name="Trazado 600935" d="M160.235,1132.61c3.337-1.584,6.018-3.714,6.394-7.739.058-.624.438-.772.965-.773.887,0,1.773-.005,2.659-.006l40.427-.014c1.419.005,2.84.064,4.256,0,1.224-.055,1.578.412,1.317,1.584a8.811,8.811,0,0,1-8.486,6.952Q184,1132.623,160.235,1132.61Z" transform="translate(-131.087 -1047.24)" fill="#c8cdec"/>
        <path id="Trazado_600936" data-name="Trazado 600936" d="M99.819,908.626c1.539,1.034,3.26,1.836,3.9,3.839a10.767,10.767,0,0,1,.735,3.406c-.034,5.528-.015,11.057-.015,16.585q-5.232,0-10.464,0c-2.906,0-3.744-.86-3.745-3.831q0-6.207,0-12.415C90.238,910.457,94.205,907.319,99.819,908.626Z" transform="translate(-85.968 -908.19)" fill="#c8cdec"/>
        <path id="Trazado_600937" data-name="Trazado 600937" d="M99.521,1093.405a3.3,3.3,0,0,1-1.031,3.957c-.654.583-1.22,1.264-1.826,1.9q-3.853,3.8-7.706,7.606c-2.807,2.758-6.5,2.9-8.988.37-2.441-2.489-2.3-6.129.4-8.859,3.163-3.2,6.386-6.341,9.53-9.559a3.4,3.4,0,0,1,3.984-1.049Z" transform="translate(-78.238 -1023.669)" fill="#3e5a93"/>
        <path id="Trazado_600938" data-name="Trazado 600938" d="M127.892,1074.222l-5.635-5.632,2.9-3.084,8.03-7.767a33.247,33.247,0,0,0,5.561,5.551C135.269,1067.071,131.569,1070.635,127.892,1074.222Z" transform="translate(-106.609 -1004.486)" fill="#6cc03d"/>
        <path id="Trazado_600939" data-name="Trazado 600939" d="M154.127,1015.893a33.253,33.253,0,0,1-5.561-5.552c-1.854-3.719-2.977-7.582-2.21-11.785a16.833,16.833,0,0,1,10.283-13.041c.321-.143.631-.313.946-.471l2.773-.7a23.335,23.335,0,0,1,7.788.458l2.369.881,3.686,2.436,2.125,2.131,2.436,3.688.882,2.365a28.2,28.2,0,0,1,.636,6.362l-.451,2.825a17.635,17.635,0,0,1-7.515,10.162,16.725,16.725,0,0,1-16.412,1.021C155.312,1016.411,154.719,1016.153,154.127,1015.893Zm-2.29-14.624a11.36,11.36,0,1,0,11.386-11.376A11.365,11.365,0,0,0,151.837,1001.269Z" transform="translate(-121.985 -957.088)" fill="#3c5992"/>
        <path id="Trazado_600940" data-name="Trazado 600940" d="M237.56,1080.112c3.249,0,6.5.038,9.748-.02,1.132-.021,1.568.307,1.557,1.5-.011,1.129-.455,1.388-1.485,1.383q-9.925-.048-19.851,0c-1.049.005-1.452-.3-1.47-1.4-.02-1.213.466-1.5,1.575-1.477C230.942,1080.147,234.251,1080.112,237.56,1080.112Z" transform="translate(-173.511 -1018.892)" fill="#cbcbcb"/>
        <path id="Trazado_600941" data-name="Trazado 600941" d="M210.468,967.29l-2.369-.882c.745-1.6,2.165-2.616,3.4-3.744a4.436,4.436,0,0,0,1.622-4.019,20.543,20.543,0,0,1,.122-2.985,4.231,4.231,0,0,0,2.547,0,44.769,44.769,0,0,1,.143,5.635,1.41,1.41,0,0,1-.38,1.136C213.855,964.049,212.407,965.927,210.468,967.29Z" transform="translate(-161.936 -938.694)" fill="#cacacb"/>
        <path id="Trazado_600942" data-name="Trazado 600942" d="M238.847,1004.017l-.882-2.365c1.361-1.942,3.241-3.389,4.855-5.09.46-.485,1.083-.394,1.665-.381,1.7.037,3.405.092,5.107.139a4.3,4.3,0,0,0,0,2.553.956.956,0,0,1-.343.074c-4.019-.725-6.815,1.19-9.129,4.19A1.891,1.891,0,0,1,238.847,1004.017Z" transform="translate(-181.185 -964.801)" fill="#cacacb"/>
        <path id="Trazado_600943" data-name="Trazado 600943" d="M250.438,929.873a14.3,14.3,0,0,1-1.753.035,2.757,2.757,0,0,1-2.536-2.848,2.69,2.69,0,0,1,2.583-2.791c1.869-.068,3.744.028,5.617.054a4.073,4.073,0,0,1-.621,2.175C252.962,927.953,251.541,928.756,250.438,929.873Z" transform="translate(-186.46 -918.447)" fill="#f7d167"/>
        <path id="Trazado_600944" data-name="Trazado 600944" d="M227.259,982.44l-2.125-2.131q3.615-3.532,7.232-7.061c.54-.525.988-1.221,1.892-1.165l1.554,1.393c-2.014,2.568-4.546,4.636-6.762,7.008C228.446,981.13,227.856,981.788,227.259,982.44Z" transform="translate(-172.916 -949.277)" fill="#cacaca"/>
        <path id="Trazado_600945" data-name="Trazado 600945" d="M175.724,953.664a8.533,8.533,0,0,1-1.109-1.116,2.822,2.822,0,0,1,4.228-3.651,2.667,2.667,0,0,1,.543,3.647,6.711,6.711,0,0,1-1.1,1.122A4.042,4.042,0,0,1,175.724,953.664Z" transform="translate(-140.054 -933.872)" fill="#b63630"/>
        <path id="Trazado_600946" data-name="Trazado 600946" d="M262.355,1033.681a6.558,6.558,0,0,1,1.118-1.1,2.822,2.822,0,1,1,.008,4.767,6.839,6.839,0,0,1-1.125-1.1A4.074,4.074,0,0,1,262.355,1033.681Z" transform="translate(-196.772 -987.956)" fill="#b63630"/>
        <path id="Trazado_600947" data-name="Trazado 600947" d="M251.965,965.832l-1.554-1.393a8.593,8.593,0,0,1-.213-1.559,2.8,2.8,0,0,1,2.762-2.66,2.867,2.867,0,0,1,2.886,2.547,2.833,2.833,0,0,1-2.3,3.077A8.925,8.925,0,0,1,251.965,965.832Z" transform="translate(-189.069 -941.633)" fill="#b63630"/>
        <path id="Trazado_600948" data-name="Trazado 600948" d="M222.268,945.706a4.231,4.231,0,0,1-2.547,0,8.443,8.443,0,0,1-1.01-.977,2.829,2.829,0,1,1,4.562,0A8.509,8.509,0,0,1,222.268,945.706Z" transform="translate(-168.411 -928.736)" fill="#6fc142"/>
        <path id="Trazado_600949" data-name="Trazado 600949" d="M270.322,996.308a4.3,4.3,0,0,1,0-2.553,8.386,8.386,0,0,1,.978-1.007,2.83,2.83,0,1,1,0,4.563A8.6,8.6,0,0,1,270.322,996.308Z" transform="translate(-201.916 -962.234)" fill="#6fc142"/>
        <path id="Trazado_600950" data-name="Trazado 600950" d="M231.843,1099.059a2.838,2.838,0,1,1-2.725-2.9A2.839,2.839,0,0,1,231.843,1099.059Z" transform="translate(-173.583 -1029.244)" fill="#7ede4c"/>
        <path id="Trazado_600951" data-name="Trazado 600951" d="M253.056,1096.158a2.838,2.838,0,1,1-2.9,2.724A2.836,2.836,0,0,1,253.056,1096.158Z" transform="translate(-189.039 -1029.247)" fill="#7ede4c"/>
        <path id="Trazado_600952" data-name="Trazado 600952" d="M279.816,1099.052a2.837,2.837,0,1,1-2.733-2.9A2.838,2.838,0,0,1,279.816,1099.052Z" transform="translate(-204.502 -1029.245)" fill="#7ede4c"/>
        <path id="Trazado_600953" data-name="Trazado 600953" d="M258.214,930.015c1.1-1.118,2.525-1.92,3.289-3.375a4.073,4.073,0,0,0,.621-2.174c2.007.042,3.16,1.049,3.16,2.761a2.808,2.808,0,0,1-2.989,2.833C260.937,930.1,259.575,930.033,258.214,930.015Z" transform="translate(-194.236 -918.588)" fill="#eeaf47"/>
        <path id="Trazado_600954" data-name="Trazado 600954" d="M178.284,963.609a4.046,4.046,0,0,0,2.562,0q.071,3.731.143,7.462l-2.773.7A63.968,63.968,0,0,1,178.284,963.609Z" transform="translate(-142.613 -943.817)" fill="#cacaca"/>
        <path id="Trazado_600955" data-name="Trazado 600955" d="M248.7,1036.3a4.074,4.074,0,0,0,0,2.568,75.267,75.267,0,0,1-7.738.109q.225-1.412.451-2.825Z" transform="translate(-183.12 -990.57)" fill="#cacacb"/>
        <path id="Trazado_600956" data-name="Trazado 600956" d="M162.217,1011.591a11.36,11.36,0,1,1,11.42,11.347A11.357,11.357,0,0,1,162.217,1011.591Z" transform="translate(-132.364 -967.411)" fill="#e0e5f4"/>
      </g>
    </g>
    <g id="Grupo_877460" data-name="Grupo 877460" transform="translate(417.23 694.15)">
      <g id="Grupo_875625-2" data-name="Grupo 875625" transform="translate(0 0)">
        <g transform="matrix(1, 0, 0, 1, -241.5, -101.9)" filter="url(#Elipse_180-2)">
          <circle id="Elipse_180-5" data-name="Elipse 180" cx="68.134" cy="68.134" r="68.134" transform="translate(241.5 101.9)" fill="#fff"/>
        </g>
      </g>
      <g id="Grupo_879017" data-name="Grupo 879017" transform="translate(24.244 24.25)">
        <path id="Trazado_600957" data-name="Trazado 600957" d="M592.949,956.974a25.108,25.108,0,0,1,13.788,12.2,24.727,24.727,0,0,1-17.686,35.518,41.98,41.98,0,0,1-7.342.3,28.9,28.9,0,0,1-12.7-5.5c-.44-.444-.874-.895-1.322-1.332a24.6,24.6,0,0,1,2.77-37.947c5.075-3.678,10.837-4.913,17.013-4.521Zm-19.922,26.733a2.83,2.83,0,0,0,1.038,2.194c1.259,1.244,2.574,2.44,3.732,3.772.906,1.043,1.571,1.076,2.633.172,4.825-4.1,9.721-8.122,14.579-12.186,1.549-1.3,1.78-2.873.673-4.17s-2.639-1.33-4.218-.025q-4.883,4.036-9.742,8.1c-2.09,1.746-2.091,1.765-4.128.106a2.82,2.82,0,0,0-3.043-.473A2.443,2.443,0,0,0,573.027,983.706Z" transform="translate(-521.65 -917.25)" fill="#49c7ee"/>
        <path id="Trazado_600958" data-name="Trazado 600958" d="M495.527,931.209a28.9,28.9,0,0,0,12.7,5.5q-27.337.02-54.675.025c-3.19,0-5.377-2.456-5.379-5.849q-.012-18.684,0-37.367,0-17.827,0-35.653c0-4.026,2.11-6.139,6.126-6.149q7.884-.02,15.768-.034,0,2.775,0,5.55c-4.9-.01-9.809.026-14.712-.061-1.362-.024-1.725.389-1.722,1.732q.063,26.262.036,52.525c0,.6-.2,1.275.388,1.755a.91.91,0,0,0,.656.923c1.13,1.188,2.232,2.406,3.4,3.56q6.338,6.29,12.709,12.545a.908.908,0,0,0,.919.656c.316.437.788.4,1.241.4Q484.251,931.237,495.527,931.209Z" transform="translate(-448.171 -848.968)" fill="#ebcd92"/>
        <path id="Trazado_600959" data-name="Trazado 600959" d="M511.986,852.037q0-2.775,0-5.55c.119-2.712.119-2.712,2.889-2.712h21.745c2.771,0,2.771,0,2.891,2.71q0,2.776,0,5.551c-.02.967-.016,1.936-.064,2.9a5.351,5.351,0,0,1-5.248,5.265q-8.455.118-16.912,0a5.351,5.351,0,0,1-5.248-5.265C512,853.973,512.005,853,511.986,852.037Z" transform="translate(-490.092 -843.776)" fill="#e66e54"/>
        <path id="Trazado_600960" data-name="Trazado 600960" d="M592.232,857.226q0-2.775,0-5.551,7.966.017,15.933.036c3.788.013,5.958,2.175,5.959,5.966q.006,15.506-.014,31.012l-5.482-1.283c0-9.511-.008-19.021.035-28.532.005-1.184-.187-1.734-1.564-1.71C602.141,857.255,597.187,857.216,592.232,857.226Z" transform="translate(-542.805 -848.965)" fill="#ebce93"/>
        <path id="Trazado_600961" data-name="Trazado 600961" d="M508.053,867.737c4.954-.01,9.909.029,14.862-.061,1.377-.025,1.569.526,1.564,1.71-.043,9.51-.031,19.021-.035,28.532-6.176-.392-11.937.843-17.013,4.521a24.6,24.6,0,0,0-2.77,37.947c.447.437.881.888,1.322,1.332q-11.276.026-22.552.051c-.453,0-.925.042-1.24-.4l-.08-.969c.191-5.376.168-10.753.011-16.129.088-.429-.085-.6-.512-.515-5.376-.159-10.752-.177-16.128.008l-.97-.078c-.593-.481-.388-1.155-.388-1.755q-.015-26.263-.036-52.525c0-1.344.36-1.757,1.722-1.732,4.9.087,9.808.051,14.712.061.019.968.015,1.936.062,2.9a5.351,5.351,0,0,0,5.248,5.265q8.455.118,16.912,0a5.351,5.351,0,0,0,5.248-5.265C508.037,869.672,508.033,868.7,508.053,867.737Zm-8.321,19.172c3.538,0,7.076.016,10.614-.006,1.916-.012,3.083-1.035,3.13-2.656.049-1.689-1.158-2.814-3.137-2.819q-10.529-.026-21.057,0c-2.021,0-3.217,1.056-3.215,2.742s1.2,2.726,3.223,2.737C492.769,886.922,496.251,886.909,499.731,886.908Zm-2.725,5.483c-2.567,0-5.135-.014-7.7,0-2.034.015-3.225,1.034-3.239,2.718s1.19,2.755,3.2,2.761q7.787.026,15.574,0c1.987-.008,3.191-1.114,3.153-2.8-.036-1.623-1.2-2.654-3.111-2.673C502.255,892.373,499.631,892.393,497.006,892.392Zm-5.576,16.454v-.006c1.026,0,2.057.066,3.076-.016a2.668,2.668,0,0,0,2.513-2.732,2.635,2.635,0,0,0-2.546-2.7c-1.934-.085-3.876-.081-5.811,0a2.635,2.635,0,0,0-2.6,2.646,2.683,2.683,0,0,0,2.631,2.8C489.6,908.9,490.518,908.846,491.43,908.846ZM475.083,884.04c.046,3.252-.4,2.863,2.194,2.858,3.734-.008,3.26.445,3.287-2.1.037-3.381.011-3.381-2.356-3.381C475.083,881.419,475.083,881.419,475.083,884.04Zm2.9,8.352c-3.27.047-2.87-.4-2.891,2.166-.027,3.323-.008,3.324,2.245,3.324,3.238,0,3.238,0,3.239-2.337C480.573,892.392,480.573,892.392,477.98,892.392Zm2.593,13.839c0-2.866,0-2.885-2.2-2.862-3.733.038-3.258-.438-3.286,2.107-.036,3.379-.011,3.379,2.359,3.379C480.573,908.855,480.573,908.855,480.573,906.231Zm-2.867,13.6c2.866,0,2.885,0,2.862-2.2-.038-3.731.44-3.259-2.107-3.286-3.378-.036-3.378-.011-3.379,2.189C475.082,919.827,475.082,919.827,477.706,919.827Z" transform="translate(-458.626 -859.476)" fill="#eee"/>
        <path id="Trazado_600962" data-name="Trazado 600962" d="M597.918,1016.017a2.442,2.442,0,0,1,1.525-2.512,2.82,2.82,0,0,1,3.043.473c2.037,1.659,2.038,1.639,4.128-.106q4.861-4.061,9.742-8.1c1.579-1.305,3.1-1.281,4.218.025s.877,2.873-.673,4.17c-4.858,4.064-9.755,8.083-14.579,12.186-1.063.9-1.728.871-2.633-.171-1.158-1.332-2.473-2.529-3.732-3.772A2.831,2.831,0,0,1,597.918,1016.017Z" transform="translate(-546.54 -949.56)" fill="#fafdfd"/>
        <path id="Trazado_600963" data-name="Trazado 600963" d="M484.189,1031.424c.157,5.377.18,10.753-.01,16.129-.316.007-.646-.024-.839.313q-6.357-6.27-12.709-12.545c-1.164-1.155-2.265-2.372-3.4-3.561.339-.194.307-.527.314-.845,5.376-.184,10.752-.167,16.128-.008A.5.5,0,0,0,484.189,1031.424Z" transform="translate(-460.695 -966.625)" fill="#e66e54"/>
        <path id="Trazado_600964" data-name="Trazado 600964" d="M466.289,1031.021c-.007.318.025.651-.314.845a.91.91,0,0,1-.656-.922Z" transform="translate(-459.435 -966.73)" fill="#e5674c"/>
        <path id="Trazado_600965" data-name="Trazado 600965" d="M514.176,1079.976c.193-.337.523-.307.839-.313q.04.484.08.969A.908.908,0,0,1,514.176,1079.976Z" transform="translate(-491.531 -998.735)" fill="#e5674c"/>
        <path id="Trazado_600966" data-name="Trazado 600966" d="M541.819,913.217c-3.481,0-6.962.013-10.443-.005-2.02-.011-3.221-1.056-3.223-2.737s1.194-2.737,3.215-2.742q10.529-.021,21.057,0c1.979,0,3.186,1.13,3.137,2.819-.047,1.621-1.213,2.644-3.13,2.656C548.895,913.233,545.357,913.217,541.819,913.217Z" transform="translate(-500.713 -885.784)" fill="#78959e"/>
        <path id="Trazado_600967" data-name="Trazado 600967" d="M539.092,939.708c2.625,0,5.249-.019,7.873.006,1.908.019,3.075,1.051,3.111,2.673.038,1.689-1.166,2.8-3.153,2.8q-7.787.029-15.574,0c-2.006-.007-3.21-1.078-3.2-2.761s1.2-2.7,3.239-2.718C533.958,939.694,536.525,939.708,539.092,939.708Z" transform="translate(-500.712 -906.792)" fill="#78959e"/>
        <path id="Trazado_600968" data-name="Trazado 600968" d="M533.513,977.127c-.912,0-1.827.052-2.735-.012a2.684,2.684,0,0,1-2.631-2.8,2.635,2.635,0,0,1,2.6-2.646c1.935-.077,3.878-.081,5.811,0a2.635,2.635,0,0,1,2.546,2.7,2.668,2.668,0,0,1-2.513,2.732c-1.019.082-2.05.016-3.076.016Z" transform="translate(-500.708 -927.756)" fill="#79969f"/>
        <path id="Trazado_600969" data-name="Trazado 600969" d="M496.134,910.358c0-2.621,0-2.621,3.125-2.621,2.367,0,2.393,0,2.356,3.381-.027,2.543.447,2.089-3.287,2.1C495.735,913.221,496.18,913.609,496.134,910.358Z" transform="translate(-479.677 -885.793)" fill="#78959e"/>
        <path id="Trazado_600970" data-name="Trazado 600970" d="M499.038,939.714c2.593,0,2.593,0,2.593,3.153,0,2.338,0,2.338-3.239,2.337-2.253,0-2.272,0-2.245-3.324C496.168,939.314,495.768,939.761,499.038,939.714Z" transform="translate(-479.684 -906.797)" fill="#78959e"/>
        <path id="Trazado_600971" data-name="Trazado 600971" d="M501.633,974.553c0,2.624,0,2.624-3.123,2.624-2.369,0-2.4,0-2.359-3.379.027-2.545-.447-2.069,3.286-2.107C501.632,971.668,501.633,971.687,501.633,974.553Z" transform="translate(-479.686 -927.797)" fill="#78959e"/>
        <path id="Trazado_600972" data-name="Trazado 600972" d="M498.763,1009.178c-2.625,0-2.625,0-2.623-3.293,0-2.2,0-2.225,3.379-2.189,2.547.027,2.068-.445,2.107,3.286C501.648,1009.177,501.629,1009.178,498.763,1009.178Z" transform="translate(-479.683 -948.826)" fill="#78959e"/>
        <path id="Trazado_600973" data-name="Trazado 600973" d="M515.672,1031.624a.5.5,0,0,1-.512-.515C515.587,1031.026,515.76,1031.195,515.672,1031.624Z" transform="translate(-492.177 -966.826)" fill="#e5674c"/>
      </g>
    </g>
    <g id="Grupo_877462" data-name="Grupo 877462" transform="translate(625.23 644.15)">
      <g id="Grupo_875625-3" data-name="Grupo 875625" transform="translate(0 0)">
        <g transform="matrix(1, 0, 0, 1, -449.5, -51.9)" filter="url(#Elipse_180-3)">
          <circle id="Elipse_180-6" data-name="Elipse 180" cx="68.134" cy="68.134" r="68.134" transform="translate(449.5 51.9)" fill="#fff"/>
        </g>
      </g>
      <g id="Grupo_879018" data-name="Grupo 879018" transform="translate(24.216 22.747)">
        <path id="Trazado_600974" data-name="Trazado 600974" d="M872.279,974.731c-1.315-10.358,2.551-19.042,8.8-26.911a58.71,58.71,0,0,1,11.491-10.933c2.748,1.531,5.759,1.772,8.814,1.8a1.192,1.192,0,0,0,.568,1.043,32.236,32.236,0,0,1,5.127,4.84c6.011,6.342,10.561,13.452,11.717,22.376,1.1,8.526-.877,15.956-7.309,21.944a2.024,2.024,0,0,1-1.524.756c-.659-3.386-2.556-5.688-6.006-6.339-2.3-.434-4.669-.446-6.981-.813-4.324-.685-8.913-.273-12.9-2.35C880.22,978.135,876.479,975.95,872.279,974.731Zm29.026-8.116c0,1.415-.033,2.83.011,4.243.03.966-.39,1.26-1.29,1.107a7.463,7.463,0,0,1-2.762-1.12c-.79-.5-1.619-.622-2.136.3-.494.878-.049,1.587.759,2.064a8.382,8.382,0,0,0,3.919,1.508c1.305.039,1.6.647,1.514,1.778-.066.862.021,1.732,1.16,1.821a1.373,1.373,0,0,0,1.549-1.688c-.161-1.519.647-1.93,1.857-2.447a7.492,7.492,0,0,0,4.7-6.536c.293-2.913-.637-5.63-3.336-6.622-3.1-1.14-3.507-3.08-3.178-5.774a10.677,10.677,0,0,0,.007-1.59c-.088-3.02.026-3.346,2.679-1.633a1.2,1.2,0,0,0,1.839-.31,1.319,1.319,0,0,0-.266-1.9,5.3,5.3,0,0,0-2.3-1.274c-1.367-.263-2.19-.819-2.073-2.41a1.321,1.321,0,1,0-2.626.133c.191,1.391-.53,1.869-1.708,2.358a6.15,6.15,0,0,0-3.932,5.246c-.273,2.391.188,4.787,2.518,5.736,3.145,1.281,3.407,3.546,3.1,6.3A6.805,6.805,0,0,0,901.3,966.615Z" transform="translate(-853.913 -917.721)" fill="#e9bc6b"/>
        <path id="Trazado_600975" data-name="Trazado 600975" d="M860.266,1043.035c4.2,1.219,7.941,3.4,11.791,5.409,3.99,2.078,8.579,1.665,12.9,2.35,2.312.367,4.685.38,6.981.813,3.45.651,5.347,2.953,6.006,6.339q-.066.691-.13,1.382-3,0-6,.006c-3.058,0-6.116.024-9.174-.013-.938-.011-1.546.433-1.627,1.256-.087.872.67,1.3,1.419,1.543a3.568,3.568,0,0,0,1.052.044c4.234,0,8.468.007,12.7-.006.565,0,1.192.188,1.657-.343.819-.294,1.657-.547,2.456-.891q7.983-3.43,15.952-6.893a1.848,1.848,0,0,0,.073.695c1.9,3.372.666,5.435-2.125,7.178-3.732,2.33-7.482,4.636-11.15,7.066a16.258,16.258,0,0,1-9.286,2.76c-6.475-.022-12.951,0-19.427-.009a13.845,13.845,0,0,1-2.094-.185c-3.585-.55-6.776-2.257-10.175-3.346-2.891-.926-5.545-2.572-8.649-2.842q0-11.328,0-22.656A53.23,53.23,0,0,1,860.266,1043.035Z" transform="translate(-841.9 -986.026)" fill="#fedccd"/>
        <path id="Trazado_600976" data-name="Trazado 600976" d="M981.8,985.042q-7.975,3.45-15.952,6.893c-.8.343-1.636.6-2.456.891q-.015-1.243-.031-2.486.065-.691.13-1.382a2.024,2.024,0,0,0,1.524-.755c6.432-5.988,8.413-13.419,7.309-21.944-1.156-8.924-5.706-16.034-11.717-22.376a32.23,32.23,0,0,0-5.127-4.84,1.193,1.193,0,0,1-.568-1.044c3.786-.038,7.618.159,10.949-2.172,8.846,6.505,16.115,14.294,19.643,24.939,2.662,8.035,2.205,15.864-2.367,23.216Z" transform="translate(-907.441 -917.036)" fill="#e7ae4e"/>
        <path id="Trazado_600977" data-name="Trazado 600977" d="M916.25,1068.217l1.338-1.061a13,13,0,0,0,4.429-1.649,6.514,6.514,0,0,1,4.612-.722,3.92,3.92,0,0,1,3.029,3.339,4.316,4.316,0,0,1-1.969,4.6c-8.334,5.319-16.673,10.633-25.063,15.864a14.726,14.726,0,0,1-8.047,2.291c-5.191-.049-10.4-.27-15.572.055-5.781.363-11.032-1.153-16.28-3.242-3.043-1.212-6.022-2.683-9.312-3.207q0-2.476,0-4.952c3.1.27,5.759,1.916,8.649,2.842,3.4,1.089,6.589,2.8,10.175,3.346a13.861,13.861,0,0,0,2.094.185c6.476.005,12.951-.013,19.427.009a16.259,16.259,0,0,0,9.286-2.76c3.667-2.43,7.417-4.736,11.15-7.066,2.791-1.743,4.028-3.806,2.125-7.178A1.849,1.849,0,0,1,916.25,1068.217Z" transform="translate(-841.896 -1000.211)" fill="#fccabe"/>
        <path id="Trazado_600978" data-name="Trazado 600978" d="M832.415,1056.531q0,2.476,0,4.952c-.027.706-.027,1.414-.087,2.117a2.421,2.421,0,0,1-2.492,2.465c-2.118.08-4.244.084-6.362,0-1.707-.068-2.561-1.167-2.565-3.143q-.02-11.224-.006-22.448c0-2.769-.018-5.538.007-8.307.02-2.169.958-3.105,3.137-3.15,1.531-.031,3.064-.01,4.6-.006,2.906.007,3.648.737,3.708,3.63.009.411.044.822.067,1.234Q832.415,1045.2,832.415,1056.531Z" transform="translate(-820.894 -977.209)" fill="#417193"/>
        <path id="Trazado_600979" data-name="Trazado 600979" d="M946.188,884.282a4.566,4.566,0,0,0,2.5-.762,3.419,3.419,0,0,1,4.126-.037,3.83,3.83,0,0,0,3.857.34c1.545-.629,2.183-.165,2.26,1.495a9.429,9.429,0,0,1-1.113,4.237,44.314,44.314,0,0,1-3.9,6.717c-.517.082-1.038.149-1.553.249-4.21.823-8.413,1.312-12.583-.209a5.738,5.738,0,0,1,1.209-2.111A37.744,37.744,0,0,0,946.188,884.282Z" transform="translate(-897.67 -882.797)" fill="#e8ae4e"/>
        <path id="Trazado_600980" data-name="Trazado 600980" d="M932.661,920.862c4.171,1.522,8.373,1.033,12.583.209.514-.1,1.035-.167,1.553-.249,2.178,1.177,2.373,3.165,2.173,5.314-3.331,2.331-7.164,2.133-10.949,2.172-3.055-.023-6.066-.264-8.814-1.8a.757.757,0,0,0-.41-.734,5.583,5.583,0,0,1,1.468-4.658l1.565-.268Z" transform="translate(-890.554 -907.346)" fill="#fedf7c"/>
        <path id="Trazado_600981" data-name="Trazado 600981" d="M900.07,911.765a5.583,5.583,0,0,0-1.468,4.658,36.216,36.216,0,0,0-5.412.7,10.7,10.7,0,0,0-6.481,3.963c-.535.726-1.161,1.284-2.054.625s-.724-1.506-.145-2.322c2.432-3.425,6.017-4.733,9.945-5.392,1.075-.181,2.161-.3,3.456-.47a6.614,6.614,0,0,0-6.193-2.568,14.212,14.212,0,0,1-8.182-1.589c-.879-.449-1.974-1.007-1.351-2.259s1.611-.731,2.564-.256a11.817,11.817,0,0,0,6.638,1.246A9.348,9.348,0,0,1,900.07,911.765Z" transform="translate(-860.358 -897.991)" fill="#fed36a"/>
        <path id="Trazado_600982" data-name="Trazado 600982" d="M929.447,896.292l-.831-.01c-1.524-2.714-3.317-5.287-4.33-8.27a6.567,6.567,0,0,1-.457-3.114c.171-1.135.777-1.8,1.948-1.229a4.119,4.119,0,0,0,4.479-.4,3.046,3.046,0,0,1,3.192-.089c.8.371,1.606.719,2.409,1.077a37.74,37.74,0,0,1-5.2,9.92A5.738,5.738,0,0,0,929.447,896.292Z" transform="translate(-887.339 -882.776)" fill="#eabc6c"/>
        <path id="Trazado_600983" data-name="Trazado 600983" d="M943.055,980.944a6.608,6.608,0,0,1,0-.707c.307-2.756.046-5.021-3.1-6.3-2.33-.949-2.791-3.345-2.518-5.736a6.15,6.15,0,0,1,3.932-5.246c1.178-.489,1.9-.967,1.708-2.358a1.321,1.321,0,1,1,2.626-.133c-.117,1.591.706,2.147,2.073,2.41a5.3,5.3,0,0,1,2.3,1.274,1.319,1.319,0,0,1,.266,1.9,1.2,1.2,0,0,1-1.839.31c-2.654-1.713-2.767-1.387-2.679,1.633a10.677,10.677,0,0,1-.007,1.59c-.329,2.694.077,4.634,3.178,5.774,2.7.992,3.628,3.71,3.336,6.622a7.492,7.492,0,0,1-4.7,6.536c-1.21.517-2.018.928-1.857,2.447a1.373,1.373,0,0,1-1.549,1.688c-1.139-.09-1.225-.959-1.16-1.821.086-1.13-.209-1.739-1.514-1.778a8.382,8.382,0,0,1-3.919-1.508c-.808-.477-1.253-1.187-.759-2.064.517-.919,1.346-.8,2.136-.3a7.463,7.463,0,0,0,2.762,1.12c.9.153,1.32-.141,1.29-1.107C943.021,983.774,943.054,982.359,943.055,980.944Zm6.685.485a4.519,4.519,0,0,0-2.93-4.32c-.791-.325-1.186-.312-1.169.71.04,2.473.029,4.947.007,7.42-.008,1.006.42,1.105,1.192.68A5.831,5.831,0,0,0,949.74,981.429ZM943.062,969c0-.938,0-1.876,0-2.814,0-.765-.326-.9-1-.568a3.73,3.73,0,0,0-.584,6.162c.374.259.766.735,1.228.556.639-.246.308-.917.346-1.4C943.1,970.292,943.065,969.645,943.062,969Z" transform="translate(-895.663 -932.051)" fill="#fdfcfa"/>
        <path id="Trazado_600984" data-name="Trazado 600984" d="M948.117,1089.723q.015,1.243.031,2.486c-.465.531-1.092.341-1.657.343-4.234.014-8.468.008-12.7.006a3.564,3.564,0,0,1-1.052-.043c-.749-.24-1.506-.671-1.419-1.543.082-.822.689-1.267,1.627-1.256,3.057.037,6.116.014,9.174.013Q945.118,1089.727,948.117,1089.723Z" transform="translate(-892.202 -1016.419)" fill="#fecbbe"/>
        <path id="Trazado_600985" data-name="Trazado 600985" d="M966.1,1013.97a5.831,5.831,0,0,1-2.9,4.49c-.772.425-1.2.326-1.192-.68.022-2.473.033-4.947-.007-7.42-.017-1.022.378-1.035,1.169-.71A4.519,4.519,0,0,1,966.1,1013.97Z" transform="translate(-912.019 -964.591)" fill="#eabf72"/>
        <path id="Trazado_600986" data-name="Trazado 600986" d="M949.334,980.62c0,.645.04,1.292-.011,1.934-.038.486.293,1.157-.346,1.4-.462.178-.853-.3-1.228-.556a3.73,3.73,0,0,1,.584-6.162c.672-.331,1-.2,1,.568C949.334,978.744,949.333,979.682,949.334,980.62Z" transform="translate(-901.933 -943.671)" fill="#eabf73"/>
      </g>
    </g>
  </g>
</svg>
