<svg xmlns="http://www.w3.org/2000/svg" width="505" height="212.569" viewBox="0 0 505 212.569">
  <g id="Grupo_879865" data-name="Grupo 879865" transform="translate(-810 -3569.706)">
    <path id="Trazado_603934" data-name="Trazado 603934" d="M10,0H495a10,10,0,0,1,10,10V119a10,10,0,0,1-10,10H10A10,10,0,0,1,0,119V10A10,10,0,0,1,10,0Z" transform="translate(810 3630.706)" fill="#a4f977"/>
    <path id="Trazado_603935" data-name="Trazado 603935" d="M52.417,16.363H47.794L46.915,19h-2.8L48.875,6.2h2.443L56.108,19H53.3Zm-3.911-2.136h3.2L50.1,9.438ZM59.519,9.49l.079,1.063a3.342,3.342,0,0,1,2.733-1.239,2.536,2.536,0,0,1,2.522,1.45,3.265,3.265,0,0,1,2.856-1.45,2.836,2.836,0,0,1,2.3.9,4.141,4.141,0,0,1,.756,2.711V19H68.22V12.936a1.811,1.811,0,0,0-.316-1.182,1.4,1.4,0,0,0-1.116-.374,1.585,1.585,0,0,0-1.582,1.09L65.214,19h-2.54V12.944a1.789,1.789,0,0,0-.325-1.2,1.416,1.416,0,0,0-1.107-.369,1.646,1.646,0,0,0-1.564.9V19h-2.54V9.49Zm21.771,4.843a5.758,5.758,0,0,1-.976,3.564,3.231,3.231,0,0,1-2.725,1.279,2.969,2.969,0,0,1-2.47-1.187L75,19H72.72V5.5h2.54v4.843a2.893,2.893,0,0,1,2.312-1.028A3.258,3.258,0,0,1,80.3,10.593a5.767,5.767,0,0,1,.989,3.6Zm-2.54-.185a3.783,3.783,0,0,0-.457-2.1,1.545,1.545,0,0,0-1.362-.664,1.676,1.676,0,0,0-1.67.993v3.753a1.7,1.7,0,0,0,1.688,1,1.568,1.568,0,0,0,1.617-1.213A6.257,6.257,0,0,0,78.749,14.148ZM85.534,19H82.985V9.49h2.549Zm-2.7-11.971a1.251,1.251,0,0,1,.382-.94,1.648,1.648,0,0,1,2.079,0,1.244,1.244,0,0,1,.387.94,1.247,1.247,0,0,1-.391.949,1.629,1.629,0,0,1-2.065,0A1.247,1.247,0,0,1,82.836,7.029ZM92,19.176A4.668,4.668,0,0,1,88.6,17.893a4.561,4.561,0,0,1-1.314-3.419v-.246a5.745,5.745,0,0,1,.554-2.562,4.064,4.064,0,0,1,1.569-1.74,4.4,4.4,0,0,1,2.316-.611,3.947,3.947,0,0,1,3.072,1.23,5,5,0,0,1,1.121,3.489v1.037H89.858a2.36,2.36,0,0,0,.743,1.494,2.245,2.245,0,0,0,1.569.563,2.742,2.742,0,0,0,2.294-1.063l1.248,1.4a3.813,3.813,0,0,1-1.547,1.261A5.075,5.075,0,0,1,92,19.176Zm-.29-7.813a1.587,1.587,0,0,0-1.226.512,2.651,2.651,0,0,0-.6,1.466h3.533v-.2a1.891,1.891,0,0,0-.457-1.311A1.638,1.638,0,0,0,91.713,11.362Zm7.98-1.872.079,1.1a3.32,3.32,0,0,1,2.733-1.274,2.759,2.759,0,0,1,2.25.888,4.142,4.142,0,0,1,.756,2.654V19h-2.54V12.918a1.648,1.648,0,0,0-.352-1.173,1.574,1.574,0,0,0-1.169-.365,1.747,1.747,0,0,0-1.608.914V19H97.3V9.49Zm10.784-2.338V9.49H112.1v1.863h-1.626V16.1a1.133,1.133,0,0,0,.2.756,1.015,1.015,0,0,0,.773.229,4.051,4.051,0,0,0,.747-.062v1.925a5.229,5.229,0,0,1-1.538.229,2.425,2.425,0,0,1-2.725-2.7V11.354h-1.389V9.49h1.389V7.152ZM119.029,19a2.821,2.821,0,0,1-.255-.853,3.073,3.073,0,0,1-2.4,1.028,3.376,3.376,0,0,1-2.316-.809,2.6,2.6,0,0,1-.918-2.039,2.687,2.687,0,0,1,1.121-2.32,5.529,5.529,0,0,1,3.239-.817h1.169v-.545a1.567,1.567,0,0,0-.338-1.055,1.331,1.331,0,0,0-1.068-.4,1.513,1.513,0,0,0-1.006.308,1.045,1.045,0,0,0-.365.844h-2.54a2.551,2.551,0,0,1,.51-1.529,3.37,3.37,0,0,1,1.441-1.1,5.253,5.253,0,0,1,2.092-.4,4.15,4.15,0,0,1,2.791.883,3.09,3.09,0,0,1,1.033,2.483V16.8a4.546,4.546,0,0,0,.378,2.048V19Zm-2.1-1.767a2.188,2.188,0,0,0,1.037-.25,1.645,1.645,0,0,0,.7-.672V14.676h-.949q-1.907,0-2.03,1.318l-.009.149a1.017,1.017,0,0,0,.334.782A1.3,1.3,0,0,0,116.929,17.233ZM125.85,19H123.3V5.5h2.549Zm6.469.176a4.668,4.668,0,0,1-3.406-1.283,4.561,4.561,0,0,1-1.314-3.419v-.246a5.745,5.745,0,0,1,.554-2.562,4.064,4.064,0,0,1,1.569-1.74,4.4,4.4,0,0,1,2.316-.611,3.947,3.947,0,0,1,3.072,1.23,5,5,0,0,1,1.121,3.489v1.037h-6.056a2.36,2.36,0,0,0,.743,1.494,2.245,2.245,0,0,0,1.569.563,2.742,2.742,0,0,0,2.294-1.063l1.248,1.4a3.813,3.813,0,0,1-1.547,1.261A5.075,5.075,0,0,1,132.318,19.176Zm-.29-7.813a1.587,1.587,0,0,0-1.226.512,2.651,2.651,0,0,0-.6,1.466h3.533v-.2a1.891,1.891,0,0,0-.457-1.311A1.638,1.638,0,0,0,132.028,11.362Zm10.793,5.01a.818.818,0,0,0-.461-.734,5.241,5.241,0,0,0-1.481-.479q-3.393-.712-3.393-2.883a2.613,2.613,0,0,1,1.05-2.114,4.237,4.237,0,0,1,2.747-.848,4.56,4.56,0,0,1,2.9.853,2.687,2.687,0,0,1,1.085,2.215h-2.54a1.229,1.229,0,0,0-.352-.9,1.488,1.488,0,0,0-1.1-.356,1.52,1.52,0,0,0-.993.29.916.916,0,0,0-.352.738.783.783,0,0,0,.4.681,4.114,4.114,0,0,0,1.349.448,11.019,11.019,0,0,1,1.6.426,2.628,2.628,0,0,1,2.013,2.558,2.481,2.481,0,0,1-1.116,2.1,4.815,4.815,0,0,1-2.883.8,5.029,5.029,0,0,1-2.123-.426,3.561,3.561,0,0,1-1.455-1.169,2.716,2.716,0,0,1-.527-1.6H139.6a1.326,1.326,0,0,0,.5,1.037,1.987,1.987,0,0,0,1.248.36,1.839,1.839,0,0,0,1.1-.277A.861.861,0,0,0,142.821,16.372Z" transform="translate(968 3704.706)" fill="#12263f"/>
    <path id="Trazado_603936" data-name="Trazado 603936" d="M0,0H40V40H0Z" transform="translate(1062.5 3725.706) rotate(45)" fill="#a4f977"/>
    <g id="Grupo_879120" data-name="Grupo 879120" transform="translate(1006.053 3569.706)">
      <rect id="Rectángulo_297787" data-name="Rectángulo 297787" width="115" height="115" transform="translate(-0.053)" fill="none"/>
      <g id="Grupo_879119" data-name="Grupo 879119" transform="translate(-356.05 386.664)">
        <path id="Trazado_601829" data-name="Trazado 601829" d="M383.6-281.435A33.543,33.543,0,0,1,395.943-294.9c1.4,2.036,2.839,4.042,4.174,6.116,1.242,1.93,2.89,2.749,5.124,2.118,3.611-1.021,5.291-2.757,5.325-5.526s-.012-5.562-.023-8.344l1.384-.444,4.063-.23,3.12.1,3.909.461,4.162,1.115q-3.884,5.193-7.767,10.387c-.605.811-1.26,1.619-.613,2.72a2.615,2.615,0,0,0,2.595,1.155c2.317-.02,4.636-.053,6.951.015a3.828,3.828,0,0,1,4.011,3.888,4.01,4.01,0,0,1-4,3.978c-1.463.083-2.934.009-4.4.027-4.255.052-7.261,2.773-7.391,6.675-.131,3.936,2.905,7,7.179,7.187,1.311.059,2.628.061,3.938.007,1.977-.081,2.8.832,2.765,2.787-.058,3.475.037,6.953-.033,10.427-.044,2.177.612,3.893,2.851,4.43,2.27.544,3.579-.8,4.518-2.72,2.068-4.23,4.2-8.429,6.3-12.645,1.562-3.14,1.185-3.905-2.2-4.387a3.771,3.771,0,0,1-3.413-3,3.731,3.731,0,0,1,1.551-4.075,4.5,4.5,0,0,1,3.076-.806,4.428,4.428,0,0,0,4.685-3.016c.62-1.4,1.436-2.72,2.165-4.075,5.789,11.231,5.716,22.591.237,33.813A37.446,37.446,0,0,1,406.5-227.276a19.956,19.956,0,0,1-1.926-.749c.125-2.219-.464-4.778,1.166-6.475,2.966-3.087,3.055-6.722,2.926-10.563a4.668,4.668,0,0,0-2.2-4.076c-2.456-1.608-4.868-3.285-7.337-4.871-4.75-3.053-10.1-1.634-12.784,3.354-.913,1.7-1.805,3.4-2.707,5.1a34.647,34.647,0,0,1-4.587-20.01c2.315-.006,4.63.018,6.944-.022,2.881-.05,4.374-1.207,4.764-3.988a7.759,7.759,0,0,1,2.028-4.292c1.083-1.2,2.043-2.514,3.091-3.749a2.348,2.348,0,0,0,.642-2.54c-.456-1.086-1.43-1.266-2.5-1.263C390.545-281.4,387.073-281.426,383.6-281.435Z" transform="translate(-2.186 -45.769)" fill="#2883ea"/>
        <path id="Trazado_601830" data-name="Trazado 601830" d="M493.293-278.646c-.729,1.355-1.545,2.672-2.165,4.075a4.428,4.428,0,0,1-4.685,3.016,4.5,4.5,0,0,0-3.076.806,3.731,3.731,0,0,0-1.551,4.075,3.771,3.771,0,0,0,3.413,3c3.39.482,3.766,1.247,2.2,4.387-2.1,4.216-4.229,8.414-6.3,12.645-.939,1.92-2.248,3.263-4.518,2.72-2.239-.536-2.895-2.252-2.851-4.43.07-3.474-.025-6.952.033-10.427.032-1.955-.788-2.868-2.765-2.787-1.31.054-2.628.052-3.938-.007-4.274-.192-7.31-3.25-7.179-7.187.13-3.9,3.136-6.622,7.391-6.675,1.468-.018,2.939.056,4.4-.027a4.01,4.01,0,0,0,4-3.978,3.828,3.828,0,0,0-4.011-3.888c-2.315-.068-4.634-.035-6.951-.015a2.615,2.615,0,0,1-2.595-1.155c-.647-1.1.008-1.909.613-2.72q3.878-5.2,7.767-10.387A35.627,35.627,0,0,1,493.293-278.646Z" transform="translate(-45.536 -47.699)" fill="#8fce4b"/>
        <path id="Trazado_601831" data-name="Trazado 601831" d="M468.182-352.163c-5.585-4.918-5.387-12.678.458-18.052a26.85,26.85,0,0,1,16.808-6.894c4.08-.294,8.17-.468,12.26-.6,2.213-.072,2.45.449,1.333,2.422-2.4,4.229-5.253,8.2-7.264,12.641a32.9,32.9,0,0,0-1.739,4.777c-2.339,8.445-10.078,12.058-18.15,8.421,1.268-3.151,2.309-6.576,6.7-6.409,1.546.059,2.968-.295,3.347-1.815.391-1.571-1.273-1.991-2.471-2.79a18.1,18.1,0,0,1,4.908-3.493c1.415-.611,1.885-1.645,1.181-2.962-.685-1.28-1.813-1.18-3-.576a17.855,17.855,0,0,0-4.963,3.333c-.508.526-1.049,1.328-1.623-.1-.389-.965-1.1-2.111-2.4-1.631a2.552,2.552,0,0,0-1.656,2.992C472.647-358.62,470.538-355.353,468.182-352.163Z" transform="translate(-47.789 -4.793)" fill="#91cf4c"/>
        <path id="Trazado_601832" data-name="Trazado 601832" d="M389.013-192.967c.9-1.7,1.794-3.407,2.707-5.1,2.683-4.988,8.034-6.406,12.784-3.354,2.469,1.586,4.881,3.263,7.337,4.871a4.668,4.668,0,0,1,2.2,4.076c.129,3.841.04,7.475-2.926,10.563-1.63,1.7-1.041,4.256-1.166,6.475A35.041,35.041,0,0,1,389.013-192.967Z" transform="translate(-7.562 -98.354)" fill="#8fce4b"/>
        <path id="Trazado_601833" data-name="Trazado 601833" d="M400.931-362.681c-5.856,3.9-15.532,2.055-17.607-6.785-1.241-5.282-4.718-9.487-7.374-14.079-.444-.768-1.423-1.5-.913-2.46.523-.982,1.681-.594,2.553-.532,6.357.451,12.853.007,18.882,2.7a19.246,19.246,0,0,1,7.851,5.935c2.921,3.915,2.852,8.182-.191,12.112-2.7-2.2-4.377-4.841-3.7-8.53a1.842,1.842,0,0,0-1.385-2.329,1.987,1.987,0,0,0-2.394,1.3c-.233.445-.423.913-.641,1.392-2.045-1.44-3.971-2.833-5.938-4.165-1.113-.753-2.358-1.12-3.213.287-.843,1.389-.284,2.519,1.1,3.238a31.347,31.347,0,0,1,4.763,3.462c-1.249.528-2.239,1.185-2.011,2.674a1.868,1.868,0,0,0,1.634,1.7,5.741,5.741,0,0,0,1.844.037C397.594-367.281,399.415-365.246,400.931-362.681Z" transform="translate(0 0)" fill="#91cf4c"/>
        <path id="Trazado_601834" data-name="Trazado 601834" d="M414.277-353.595c-1.517-2.565-3.337-4.6-6.744-4.043a5.744,5.744,0,0,1-1.844-.037,1.868,1.868,0,0,1-1.634-1.7c-.227-1.488.763-2.146,2.011-2.674a31.348,31.348,0,0,0-4.763-3.462c-1.379-.718-1.939-1.849-1.1-3.238.855-1.407,2.1-1.04,3.213-.287,1.967,1.332,3.892,2.725,5.938,4.165.219-.479.408-.947.641-1.392a1.987,1.987,0,0,1,2.394-1.3,1.842,1.842,0,0,1,1.385,2.329c-.679,3.689.993,6.326,3.7,8.53,3.032,4.639,6.233,9.185,8.163,14.445.53,1.444,1.007,2.909,1.508,4.364l-4.064.23C421.037-343.463,418.454-348.97,414.277-353.595Z" transform="translate(-13.345 -9.086)" fill="#7fbe2d"/>
        <path id="Trazado_601835" data-name="Trazado 601835" d="M383.688-258.632c3.472.009,6.944.03,10.416.019,1.071,0,2.045.177,2.5,1.263a2.348,2.348,0,0,1-.642,2.54c-1.048,1.235-2.008,2.546-3.091,3.749a7.759,7.759,0,0,0-2.028,4.292c-.389,2.78-1.883,3.938-4.764,3.988-2.314.04-4.629.017-6.944.022A32.126,32.126,0,0,1,383.688-258.632Z" transform="translate(-2.273 -68.572)" fill="#8fcd4d"/>
        <path id="Trazado_601836" data-name="Trazado 601836" d="M468.864-340.87c2.356-3.191,4.465-6.458,3.733-10.733a2.552,2.552,0,0,1,1.656-2.992c1.3-.479,2.01.667,2.4,1.631.574,1.424,1.115.622,1.623.1a17.854,17.854,0,0,1,4.963-3.333c1.186-.6,2.314-.7,3,.576.7,1.317.234,2.35-1.181,2.962a18.1,18.1,0,0,0-4.908,3.493c1.2.8,2.862,1.22,2.471,2.79-.379,1.52-1.8,1.874-3.347,1.815-4.394-.167-5.435,3.258-6.7,6.409-1.694,2.355-2.327,5.153-3.265,7.823l-3.909-.461C466.01-334.337,467.96-337.424,468.864-340.87Z" transform="translate(-48.471 -16.086)" fill="#7ebd2b"/>
        <path id="Trazado_601837" data-name="Trazado 601837" d="M430.111-299.756c.011,2.781.057,5.563.023,8.344s-1.714,4.5-5.325,5.526c-2.234.632-3.882-.188-5.123-2.118-1.335-2.075-2.778-4.081-4.174-6.116A31.021,31.021,0,0,1,430.111-299.756Z" transform="translate(-21.755 -46.546)" fill="#8fce4c"/>
      </g>
    </g>
  </g>
</svg>
