<svg xmlns="http://www.w3.org/2000/svg" xmlns:xlink="http://www.w3.org/1999/xlink" width="1240" height="521.967" viewBox="0 0 1240 521.967">
  <defs>
    <clipPath id="clip-path">
      <path id="Trazado_602616" data-name="Trazado 602616" d="M289.473,0c2.072,17.4,9.793,34.366,21.056,47.944,17.545,21.152,42.662,34.878,68.745,43.535s53.43,12.675,80.475,17.556c52.556,9.485,105.4,22.713,151.247,50.1a237.566,237.566,0,0,1,40.374,30.294V8.135A8.135,8.135,0,0,0,643.235,0Z" fill="#fff3d3"/>
    </clipPath>
    <clipPath id="clip-path-2">
      <rect id="Rectángulo_298529" data-name="Rectángulo 298529" width="680.731" height="332.536" fill="#f7e5b4"/>
    </clipPath>
    <clipPath id="clip-path-3">
      <rect id="Rectángulo_298543" data-name="Rectángulo 298543" width="355.203" height="311.941" fill="none"/>
    </clipPath>
    <clipPath id="clip-path-5">
      <path id="Trazado_602627" data-name="Trazado 602627" d="M112.626,87.834a9.581,9.581,0,0,0-9.581,9.581V218.579a12.471,12.471,0,0,0,12.471,12.471H270.564a12.472,12.472,0,0,0,12.472-12.471V118.561a12.473,12.473,0,0,0-12.472-12.472H180.208a8.117,8.117,0,0,1-7.518-5.06l-2.965-7.3a9.581,9.581,0,0,0-8.845-5.9Z" transform="translate(-103.045 -87.834)" fill="#f7cc54"/>
    </clipPath>
    <clipPath id="clip-path-7">
      <path id="Trazado_602638" data-name="Trazado 602638" d="M101.407,96.891a9.582,9.582,0,0,0-9.581,9.582V227.636A12.473,12.473,0,0,0,104.3,240.109H259.346a12.473,12.473,0,0,0,12.472-12.472V127.619a12.473,12.473,0,0,0-12.472-12.472H168.989a8.114,8.114,0,0,1-7.517-5.06l-2.966-7.3a9.582,9.582,0,0,0-8.845-5.9Z" transform="translate(-91.826 -96.891)" fill="#f7cc54"/>
    </clipPath>
    <clipPath id="clip-path-9">
      <rect id="Rectángulo_298539" data-name="Rectángulo 298539" width="20.681" height="67.219" fill="none"/>
    </clipPath>
    <clipPath id="clip-path-10">
      <rect id="Rectángulo_298540" data-name="Rectángulo 298540" width="14.399" height="66.091" fill="none"/>
    </clipPath>
    <clipPath id="clip-path-11">
      <rect id="Rectángulo_298541" data-name="Rectángulo 298541" width="285.627" height="73.521" fill="#fa4861"/>
    </clipPath>
    <filter id="Trazado_603871" x="310.349" y="146.5" width="133" height="133" filterUnits="userSpaceOnUse">
      <feOffset dx="5" dy="5" input="SourceAlpha"/>
      <feGaussianBlur stdDeviation="12.5" result="blur"/>
      <feFlood flood-opacity="0.063"/>
      <feComposite operator="in" in2="blur"/>
      <feComposite in="SourceGraphic"/>
    </filter>
    <filter id="Trazado_603872" x="313.349" y="328.5" width="133" height="133" filterUnits="userSpaceOnUse">
      <feOffset dx="5" dy="5" input="SourceAlpha"/>
      <feGaussianBlur stdDeviation="12.5" result="blur-2"/>
      <feFlood flood-opacity="0.063"/>
      <feComposite operator="in" in2="blur-2"/>
      <feComposite in="SourceGraphic"/>
    </filter>
    <filter id="Trazado_603890" x="361.198" y="237.452" width="133" height="133" filterUnits="userSpaceOnUse">
      <feOffset dx="5" dy="5" input="SourceAlpha"/>
      <feGaussianBlur stdDeviation="12.5" result="blur-3"/>
      <feFlood flood-opacity="0.063"/>
      <feComposite operator="in" in2="blur-3"/>
      <feComposite in="SourceGraphic"/>
    </filter>
  </defs>
  <g id="Grupo_879860" data-name="Grupo 879860" transform="translate(-180 -4134.947)">
    <path id="Trazado_602650" data-name="Trazado 602650" d="M0,0H1240V521H0Z" transform="translate(180 4134.947)" fill="#fffaef"/>
    <g id="Grupo_879423" data-name="Grupo 879423" transform="translate(768.63 4134.947)" clip-path="url(#clip-path)">
      <rect id="Rectángulo_298533" data-name="Rectángulo 298533" width="361.062" height="405.552" transform="translate(201.06 128.689) rotate(-55.51)" fill="#fff3d3"/>
    </g>
    <g id="Grupo_879415" data-name="Grupo 879415" transform="translate(180 4324.378)">
      <g id="Grupo_879414" data-name="Grupo 879414" clip-path="url(#clip-path-2)">
        <path id="Trazado_602594" data-name="Trazado 602594" d="M670.208,446.921c-38.233-59.409-105.325-93.779-172.317-116.21-88.985-29.794-182.465-43.2-274.012-63.821-53.185-11.98-106.955-26.937-151.94-57.735C42.451,188.97,18.474,162.719,0,132.729V453.723a11.541,11.541,0,0,0,11.542,11.542H680.731c-3.209-6.268-6.7-12.4-10.523-18.343" transform="translate(0 -132.729)" fill="#f7e5b4"/>
      </g>
    </g>
    <g id="Grupo_879459" data-name="Grupo 879459" transform="translate(180 4344.973)" clip-path="url(#clip-path-3)">
      <g id="Grupo_879441" data-name="Grupo 879441">
        <g id="Grupo_879440" data-name="Grupo 879440" clip-path="url(#clip-path-3)">
          <path id="Trazado_602617" data-name="Trazado 602617" d="M37.631,181a17.278,17.278,0,0,0,.541,8.607c3.014,9.284,14.445,15.687,23.019,19.045-2.658,2.769-4.823,6.192-5.295,10-1.311,10.576,10.376,12.863,18.448,10.8,11.807-3.025,20.71-12.467,32.381-15.871a6.657,6.657,0,0,1,4.511-.126,4.529,4.529,0,0,1,2.392-3.085,66.627,66.627,0,0,1-8.359-16.386c-2.772-8.015-5.849-19.074-14.91-22.068-7.556-2.5-15.27,5.031-14.18,12.662-4.57-5.388-9.642-10.7-16.2-13.324s-14.973-1.835-19.489,3.6A13.773,13.773,0,0,0,37.631,181" transform="translate(-0.875 -3.983)" fill="#91e565"/>
          <path id="Trazado_602618" data-name="Trazado 602618" d="M49.268,197.577q7.487-1.251,15.026-2.121Q53.967,190.3,44.123,184.174c-.659-.411.115-1.336.765-.932q9.952,6.2,20.439,11.394-3.023-8.32-5.847-16.71a.6.6,0,0,1,1.133-.408q3.013,8.976,6.263,17.87a242.706,242.706,0,0,0,26.51,11.033,94.672,94.672,0,0,0-6.274-22.2c-.3-.717.834-1.124,1.134-.408a96,96,0,0,1,6.385,22.769.575.575,0,0,1-.021.27,243.354,243.354,0,0,0,34.233,9.016.6.6,0,0,1-.2,1.187A244.267,244.267,0,0,1,94.278,208,125.771,125.771,0,0,1,66.522,221.65a.6.6,0,0,1-.408-1.134A124.54,124.54,0,0,0,92.831,207.5a244.825,244.825,0,0,1-26.526-11.062q-8.5.936-16.933,2.344c-.767.128-.866-1.073-.1-1.2" transform="translate(-1.029 -4.155)" fill="#7fd452"/>
          <path id="Trazado_602619" data-name="Trazado 602619" d="M101.754,157.47c-14.614.294-28.334.741-42.446-4.159-4.673-1.622-9.357-3.765-12.617-7.485s-4.755-9.357-2.463-13.741c1.849-3.536,5.69-5.572,9.506-6.736-8-2.023-13.39-9.572-16.533-17.207-4.406-10.7-4.959-24.441,6.9-30.327,12.249-6.081,26.264,10.441,32.951,18.763A10.832,10.832,0,0,1,82,87.177c15.5-10.35,25.3,17.58,27.6,28.409,2.188,10.291,2.729,20.875,4.865,31.177" transform="translate(-0.805 -1.795)" fill="#ffc4cc"/>
          <path id="Trazado_602620" data-name="Trazado 602620" d="M46.85,91.944q8.984,12.05,18.9,23.341a55.414,55.414,0,0,1-16.715-.984c-1.09-.231-1.329,1.477-.249,1.706a56.878,56.878,0,0,0,18.33.882c.01,0,.016-.007.025-.009q10.851,12.241,22.727,23.513a141.7,141.7,0,0,1-29.14.262c-1.1-.1-1.355,1.6-.249,1.706A143.926,143.926,0,0,0,91.091,142a.87.87,0,0,0,.358-.122q13.1,12.294,27.32,23.336a.862.862,0,0,0,1.059-1.36q-13.787-10.684-26.516-22.594a.841.841,0,0,0,.27-.452,107.5,107.5,0,0,0,1.445-37.59.862.862,0,0,0-1.71.213,106.078,106.078,0,0,1-1.335,36.584q-12.14-11.45-23.243-23.932a.866.866,0,0,0,.239-.644,76.021,76.021,0,0,0-5.229-25.347.863.863,0,0,0-1.593.66A74.514,74.514,0,0,1,67.2,114.322Q57.257,103,48.219,90.9a.863.863,0,0,0-1.369,1.048" transform="translate(-1.095 -2.101)" fill="#fff"/>
          <path id="Trazado_602621" data-name="Trazado 602621" d="M148.447,151.252a264.925,264.925,0,0,1-25.5-34.452,27.869,27.869,0,0,0,4.644-7.653c1.479-3.671,2.1-8.131-.035-11.469a2.955,2.955,0,0,0-1.061-1.083,2.659,2.659,0,0,0-2.882.7,9.027,9.027,0,0,0-2.341,4.465,24.425,24.425,0,0,0,0,12.295q-5.1-8.424-9.583-17.211a27.844,27.844,0,0,0,4.7-7.723c1.479-3.67,2.1-8.13-.035-11.469a2.925,2.925,0,0,0-1.061-1.083,2.659,2.659,0,0,0-2.882.7,9.018,9.018,0,0,0-2.34,4.465,24.408,24.408,0,0,0-.185,11.507q-4.028-8.2-7.5-16.676a.863.863,0,0,0,.212-.17,27.739,27.739,0,0,0,5.184-7.629c1.648-3.593,2.475-8.015.5-11.454a2.948,2.948,0,0,0-1.01-1.134,2.658,2.658,0,0,0-2.912.559,8.992,8.992,0,0,0-2.545,4.344,24.38,24.38,0,0,0-.339,13.244q-3.511-8.79-6.408-17.826a.8.8,0,0,0,.262-.12,27.24,27.24,0,0,0,6.7-6.253c2.382-3.125,4.14-7.245,2.947-11.043a2.989,2.989,0,0,0-.742-1.332,2.664,2.664,0,0,0-2.965-.117,8.84,8.84,0,0,0-3.42,3.653,24.188,24.188,0,0,0-3.165,13.432l.276,1.457h0q-2.631-8.24-4.729-16.655a27.253,27.253,0,0,0,6.6-6.179c2.383-3.125,4.141-7.245,2.948-11.042a3,3,0,0,0-.743-1.333,2.661,2.661,0,0,0-2.964-.117,8.834,8.834,0,0,0-3.42,3.653,24.166,24.166,0,0,0-3.2,11.845q-1.9-8.029-3.314-16.184a28.254,28.254,0,0,0,2.8-8.023c.72-3.907.443-8.409-2.3-11.238a2.89,2.89,0,0,0-1.252-.84A2.674,2.674,0,0,0,82.7,1.351a9.158,9.158,0,0,0-1.4,4.867A24.4,24.4,0,0,0,84.471,19.69l.579.76q.864,4.969,1.91,9.9A28.183,28.183,0,0,0,83.1,25.1c-2.7-2.876-6.442-5.261-10.261-4.6a2.812,2.812,0,0,0-1.383.562,2.844,2.844,0,0,0-.5,3,9.079,9.079,0,0,0,3.073,4.008A22.973,22.973,0,0,0,86.563,33.24l1.012-.049q1.685,7.532,3.795,14.943A28.017,28.017,0,0,0,86.076,42c-2.983-2.563-6.95-4.523-10.675-3.442a2.379,2.379,0,0,0-1.5,3.751,9.005,9.005,0,0,0,3.472,3.649,22.821,22.821,0,0,0,13,3.755l1.391-.223Q94.326,58.343,97.481,67a27.873,27.873,0,0,0-5.091-5.044c-3.126-2.376-7.2-4.088-10.852-2.778a2.826,2.826,0,0,0-1.27.792,2.855,2.855,0,0,0-.008,3.046,8.972,8.972,0,0,0,3.678,3.43,22.747,22.747,0,0,0,13.186,2.948l1.139-.256q3.1,8.273,6.722,16.32a27.687,27.687,0,0,0-4.548-3.953C97.2,79.28,93.058,77.77,89.472,79.257a2.392,2.392,0,0,0-1.1,3.9A8.927,8.927,0,0,0,92.206,86.4a22.69,22.69,0,0,0,13.3,2.3l.848-.234q3.905,8.405,8.369,16.526a27.571,27.571,0,0,0-3.58-2.934c-3.232-2.221-7.379-3.732-10.966-2.245a2.393,2.393,0,0,0-1.1,3.9,8.929,8.929,0,0,0,3.832,3.247,22.688,22.688,0,0,0,13.3,2.3l.781-.215q3.448,6.017,7.2,11.851A27.119,27.119,0,0,0,118,117.822c-3.684-1.266-8.065-1.6-11.134.817a2.9,2.9,0,0,0-.965,1.16,2.852,2.852,0,0,0,.915,2.9,8.736,8.736,0,0,0,4.526,2.093,22.536,22.536,0,0,0,13.4-1.4l.789-.478a264.949,264.949,0,0,0,22.031,29.032c.48.55,1.375-.141.889-.7" transform="translate(-1.66 0)" fill="#849eff"/>
          <path id="Trazado_602622" data-name="Trazado 602622" d="M315.362,45.582a23.2,23.2,0,0,1,6.072,9.862c3.885,12.519-3.7,28.4-10.5,38.722,5.06.979,10.087,3.059,13.554,6.872,9.63,10.588-1.421,22.149-11.878,26.132-15.3,5.825-32.376,2.363-47.817,7.667-1.951.67-3.987,1.584-5.046,3.354a6.087,6.087,0,0,0-5.013-1.532,89.458,89.458,0,0,0-3.52-24.452c-3.166-10.941-8.355-25.456-.734-35.758,6.356-8.59,20.65-6.307,25.364,2.909.843-9.45,2.29-19.21,7.457-27.167s15.007-13.61,24.168-11.145a18.494,18.494,0,0,1,7.9,4.536" transform="translate(-5.783 -0.949)" fill="#91e565"/>
          <path id="Trazado_602623" data-name="Trazado 602623" d="M315.365,72.775q-9.183,4.427-18.128,9.31,7.337-13.653,13.392-28c.4-.961-1.162-1.376-1.56-.431q-6.116,14.512-13.6,28.331-3.127-11.469-6.527-22.86a.809.809,0,0,0-1.56.43q3.646,12.181,6.97,24.455a326.292,326.292,0,0,1-20.54,32.637A127.09,127.09,0,0,1,263.5,87.427c-.226-1.019-1.785-.586-1.56.431a128.92,128.92,0,0,0,10.631,29.924.765.765,0,0,0,.232.28,327.056,327.056,0,0,1-30.575,36.4c-.728.748.415,1.893,1.144,1.145a328.151,328.151,0,0,0,30.686-36.54,168.979,168.979,0,0,0,41.022-6.522.81.81,0,0,0-.43-1.561,167.235,167.235,0,0,1-39.4,6.407,328.372,328.372,0,0,0,20.535-32.68q10.052-5.556,20.393-10.544c.939-.452.119-1.848-.816-1.4" transform="translate(-5.677 -1.246)" fill="#7fd452"/>
          <path id="Trazado_602624" data-name="Trazado 602624" d="M248.674,165.272a201.111,201.111,0,0,0,29.477-14.8,21.4,21.4,0,0,1-.708-6.881c.187-3.039,1.244-6.321,3.863-7.874a2.262,2.262,0,0,1,1.109-.375,2.137,2.137,0,0,1,1.794,1.486,6.9,6.9,0,0,1,.152,3.885,18.2,18.2,0,0,1-4.111,8.455q6.41-4.015,12.5-8.494a21.421,21.421,0,0,1-.724-6.949c.187-3.039,1.244-6.321,3.863-7.873a2.251,2.251,0,0,1,1.109-.375,2.136,2.136,0,0,1,1.794,1.485,6.9,6.9,0,0,1,.152,3.886,18.192,18.192,0,0,1-3.721,7.975q5.581-4.238,10.861-8.851a.693.693,0,0,1-.092-.191,21.38,21.38,0,0,1-1.1-7.052c.042-3.045.94-6.374,3.483-8.049a2.25,2.25,0,0,1,1.09-.428,2.137,2.137,0,0,1,1.862,1.4,6.906,6.906,0,0,1,.338,3.874,18.186,18.186,0,0,1-4.193,9.224q5.412-4.821,10.475-10.023a.672.672,0,0,1-.145-.174,21.421,21.421,0,0,1-2.626-6.637c-.631-2.978-.489-6.424,1.62-8.619a2.261,2.261,0,0,1,.969-.657,2.137,2.137,0,0,1,2.126.952,6.9,6.9,0,0,1,1.185,3.7,18.176,18.176,0,0,1-2.268,10.338l-.682.906h0q4.61-4.749,8.9-9.8a21.409,21.409,0,0,1-2.578-6.549c-.631-2.978-.489-6.424,1.62-8.619a2.264,2.264,0,0,1,.969-.658,2.136,2.136,0,0,1,2.126.953,6.9,6.9,0,0,1,1.185,3.7,18.2,18.2,0,0,1-1.712,9.26q4.027-4.857,7.749-9.973a21.4,21.4,0,0,1,.717-6.491c.8-2.937,2.5-5.936,5.383-6.924a2.255,2.255,0,0,1,1.162-.142,2.137,2.137,0,0,1,1.455,1.819,6.9,6.9,0,0,1-.641,3.835,18.186,18.186,0,0,1-6.745,8.157l-.662.32q-2.27,3.116-4.655,6.139a21.334,21.334,0,0,1,4.472-2.259c2.863-1.037,6.295-1.372,8.761.414a2.249,2.249,0,0,1,.785.868,2.137,2.137,0,0,1-.649,2.237,6.9,6.9,0,0,1-3.5,1.685,18.176,18.176,0,0,1-10.553-.817l-.7-.386q-3.706,4.592-7.673,8.952a21.369,21.369,0,0,1,5.78-2.374c2.958-.724,6.406-.688,8.666,1.353a2.26,2.26,0,0,1,.688.948,2.137,2.137,0,0,1-.887,2.153,6.9,6.9,0,0,1-3.665,1.3,18.182,18.182,0,0,1-10.4-1.946l-.9-.638q-4.769,5.2-9.887,10.047a21.378,21.378,0,0,1,5.27-1.694c3-.545,6.435-.3,8.568,1.87a2.26,2.26,0,0,1,.629.987,2.137,2.137,0,0,1-1.014,2.1,6.907,6.907,0,0,1-3.736,1.076,18.185,18.185,0,0,1-10.268-2.567l-.716-.572q-4.947,4.61-10.192,8.879a21.333,21.333,0,0,1,4.523-1.134c3.018-.4,6.443,0,8.47,2.277a2.257,2.257,0,0,1,.581,1.016,2.138,2.138,0,0,1-1.112,2.047,6.9,6.9,0,0,1-3.784.9,18.183,18.183,0,0,1-10.134-3.054l-.518-.457q-5.562,4.419-11.421,8.447a21.346,21.346,0,0,1,3.5-.77c3.017-.4,6.442,0,8.47,2.277a2.264,2.264,0,0,1,.581,1.017,2.137,2.137,0,0,1-1.113,2.046,6.9,6.9,0,0,1-3.783.9,18.187,18.187,0,0,1-10.135-3.055l-.477-.42q-4.443,2.937-9.037,5.639a21.417,21.417,0,0,1,5.4.05c3.016.414,6.21,1.713,7.562,4.441a2.268,2.268,0,0,1,.291,1.134,2.137,2.137,0,0,1-1.616,1.678,6.9,6.9,0,0,1-3.886-.138,18.181,18.181,0,0,1-8.961-5.633l-.4-.6a201.406,201.406,0,0,1-25.222,12.284c-.522.211-.921-.575-.393-.788" transform="translate(-5.828 -1.953)" fill="#849eff"/>
          <path id="Trazado_602625" data-name="Trazado 602625" d="M277.862,198.12c3.825-12.5,7.271-24.276,15.368-34.9,2.682-3.517,5.807-6.9,9.877-8.631s9.274-1.43,12.359,1.739c2.488,2.556,3.146,6.388,3.071,9.953,3.951-6.235,11.865-8.706,19.227-9.247,10.322-.758,22.144,2.6,23.838,14.317,1.75,12.1-16.193,19.4-25.127,22.76a9.678,9.678,0,0,1,6.606,6.821c4.47,16.056-21.987,16.59-31.828,15.527-9.351-1.01-18.494-3.5-27.84-4.559" transform="translate(-6.518 -3.602)" fill="#ffc4cc"/>
          <path id="Trazado_602626" data-name="Trazado 602626" d="M348.9,169.844q-12.741,4.274-25.1,9.547a49.537,49.537,0,0,1,5.5-13.924c.5-.861-.883-1.541-1.38-.688a50.884,50.884,0,0,0-5.859,15.326.194.194,0,0,1,0,.023q-13.424,5.805-26.31,12.75a126.737,126.737,0,0,1,7.9-24.827c.4-.909-.981-1.6-1.379-.686a128.658,128.658,0,0,0-8.226,26.1.772.772,0,0,0,0,.339q-14.1,7.7-27.441,16.7a.771.771,0,0,0,.86,1.278q12.918-8.732,26.586-16.223a.751.751,0,0,0,.309.355A96.12,96.12,0,0,0,325.9,207.626a.771.771,0,0,0,.295-1.513,94.81,94.81,0,0,1-30.7-11.335q13.112-7.118,26.81-13.071a.776.776,0,0,0,.48.385,68,68,0,0,0,22.99,2.625.771.771,0,0,0-.117-1.537,66.689,66.689,0,0,1-21.43-2.291q12.392-5.285,25.191-9.591a.771.771,0,0,0-.508-1.455" transform="translate(-6.247 -3.856)" fill="#fff"/>
        </g>
      </g>
      <g id="Grupo_879443" data-name="Grupo 879443" transform="translate(100.628 85.774)">
        <g id="Grupo_879442" data-name="Grupo 879442" clip-path="url(#clip-path-5)">
          <rect id="Rectángulo_298535" data-name="Rectángulo 298535" width="228.673" height="228.405" transform="translate(-71.604 70.87) rotate(-44.705)" fill="#f7cc54"/>
        </g>
      </g>
      <g id="Grupo_879445" data-name="Grupo 879445">
        <g id="Grupo_879444" data-name="Grupo 879444" clip-path="url(#clip-path-3)">
          <path id="Trazado_602628" data-name="Trazado 602628" d="M258.405,144.354H162.419a8.12,8.12,0,0,1-8.121-8.12V36.653a8.121,8.121,0,0,1,8.121-8.121h95.986a8.12,8.12,0,0,1,8.12,8.121v99.581a8.12,8.12,0,0,1-8.12,8.12" transform="translate(-3.62 -0.669)" fill="#002ed9"/>
          <path id="Trazado_602629" data-name="Trazado 602629" d="M250.687,53.354h-79.9a2.66,2.66,0,0,1-2.66-2.66v-3.47a2.659,2.659,0,0,1,2.66-2.66h79.9a2.66,2.66,0,0,1,2.66,2.66v3.47a2.661,2.661,0,0,1-2.66,2.66" transform="translate(-3.944 -1.045)" fill="#e8e8e8"/>
          <path id="Trazado_602630" data-name="Trazado 602630" d="M250.687,72.482h-79.9a2.66,2.66,0,0,1-2.66-2.66v-3.47a2.659,2.659,0,0,1,2.66-2.66h79.9a2.66,2.66,0,0,1,2.66,2.66v3.47a2.661,2.661,0,0,1-2.66,2.66" transform="translate(-3.944 -1.494)" fill="#e8e8e8"/>
          <path id="Trazado_602631" data-name="Trazado 602631" d="M250.687,91.609h-79.9a2.66,2.66,0,0,1-2.66-2.66v-3.47a2.659,2.659,0,0,1,2.66-2.66h79.9a2.66,2.66,0,0,1,2.66,2.66v3.47a2.661,2.661,0,0,1-2.66,2.66" transform="translate(-3.944 -1.943)" fill="#e8e8e8"/>
          <path id="Trazado_602632" data-name="Trazado 602632" d="M250.687,110.737h-79.9a2.659,2.659,0,0,1-2.66-2.66v-3.47a2.659,2.659,0,0,1,2.66-2.66h79.9a2.66,2.66,0,0,1,2.66,2.66v3.47a2.66,2.66,0,0,1-2.66,2.66" transform="translate(-3.944 -2.392)" fill="#e8e8e8"/>
          <path id="Trazado_602633" data-name="Trazado 602633" d="M240.222,144.016h-103a8.12,8.12,0,0,1-8.121-8.12V29.072a8.121,8.121,0,0,1,8.121-8.121h103a8.12,8.12,0,0,1,8.12,8.121V135.9a8.12,8.12,0,0,1-8.12,8.12" transform="translate(-3.028 -0.491)" fill="#849eff"/>
          <path id="Trazado_602634" data-name="Trazado 602634" d="M231.679,47.325H146.447a2.66,2.66,0,0,1-2.66-2.659V40.646a2.66,2.66,0,0,1,2.66-2.66h85.232a2.66,2.66,0,0,1,2.66,2.66v4.019a2.66,2.66,0,0,1-2.66,2.659" transform="translate(-3.373 -0.891)" fill="#fff"/>
          <path id="Trazado_602635" data-name="Trazado 602635" d="M231.679,67.649H146.447a2.661,2.661,0,0,1-2.66-2.66V60.969a2.661,2.661,0,0,1,2.66-2.66h85.232a2.661,2.661,0,0,1,2.66,2.66v4.019a2.661,2.661,0,0,1-2.66,2.66" transform="translate(-3.373 -1.368)" fill="#fff"/>
          <path id="Trazado_602636" data-name="Trazado 602636" d="M231.679,87.973H146.447a2.661,2.661,0,0,1-2.66-2.66V81.293a2.661,2.661,0,0,1,2.66-2.66h85.232a2.661,2.661,0,0,1,2.66,2.66v4.019a2.661,2.661,0,0,1-2.66,2.66" transform="translate(-3.373 -1.845)" fill="#fff"/>
          <path id="Trazado_602637" data-name="Trazado 602637" d="M231.679,108.3H146.447a2.661,2.661,0,0,1-2.66-2.66v-4.019a2.66,2.66,0,0,1,2.66-2.66h85.232a2.66,2.66,0,0,1,2.66,2.66v4.019a2.661,2.661,0,0,1-2.66,2.66" transform="translate(-3.373 -2.321)" fill="#fff"/>
        </g>
      </g>
      <g id="Grupo_879447" data-name="Grupo 879447" transform="translate(89.672 94.618)">
        <g id="Grupo_879446" data-name="Grupo 879446" clip-path="url(#clip-path-7)">
          <rect id="Rectángulo_298537" data-name="Rectángulo 298537" width="227.838" height="229.112" transform="translate(-71.523 75.115) rotate(-46.403)" fill="#f7cc54"/>
        </g>
      </g>
      <g id="Grupo_879458" data-name="Grupo 879458">
        <g id="Grupo_879457" data-name="Grupo 879457" clip-path="url(#clip-path-3)">
          <path id="Trazado_602639" data-name="Trazado 602639" d="M141.947,117.283H107.59a3.538,3.538,0,0,1-3.539-3.539v-4.757a3.538,3.538,0,0,1,3.539-3.539h34.357a3.539,3.539,0,0,1,3.539,3.539v4.757a3.539,3.539,0,0,1-3.539,3.539" transform="translate(-2.441 -2.474)" fill="#fff"/>
          <path id="Trazado_602649" data-name="Trazado 602649" d="M0,0H10.009V39.6H0Z" transform="translate(236.977 196.457) rotate(-50.36)" fill="#002ed9"/>
          <path id="Trazado_602640" data-name="Trazado 602640" d="M328.375,264.39l-1.079,1.3a7.78,7.78,0,0,1-10.955,1.028L267.9,226.59a7.781,7.781,0,0,1-1.028-10.956l1.079-1.3a7.78,7.78,0,0,1,10.955-1.028l48.44,40.13a7.782,7.782,0,0,1,1.027,10.956" transform="translate(-6.219 -4.962)" fill="#5e7ff8"/>
          <path id="Trazado_602641" data-name="Trazado 602641" d="M248.809,145.781a41.319,41.319,0,1,0,5.458,58.178,41.319,41.319,0,0,0-5.458-58.178" transform="translate(-4.249 -3.197)" fill="#5e7ff8"/>
          <path id="Trazado_602642" data-name="Trazado 602642" d="M244.24,151.689a33.878,33.878,0,1,0,4.476,47.7,33.877,33.877,0,0,0-4.476-47.7" transform="translate(-4.428 -3.376)" fill="#e6f3f9"/>
          <g id="Grupo_879450" data-name="Grupo 879450" transform="translate(197.9 141.054)" style="mix-blend-mode: multiply;isolation: isolate">
            <g id="Grupo_879449" data-name="Grupo 879449">
              <g id="Grupo_879448" data-name="Grupo 879448" clip-path="url(#clip-path-9)">
                <path id="Trazado_602643" data-name="Trazado 602643" d="M223.335,211.658q-3.154-33.609-6.307-67.217a33.762,33.762,0,0,0-14.376,6.228l5.4,57.544a33.765,33.765,0,0,0,15.283,3.445" transform="translate(-202.654 -144.442)" fill="#e6f3f9"/>
              </g>
            </g>
          </g>
          <g id="Grupo_879453" data-name="Grupo 879453" transform="translate(221.846 140.723)" style="mix-blend-mode: multiply;isolation: isolate">
            <g id="Grupo_879452" data-name="Grupo 879452">
              <g id="Grupo_879451" data-name="Grupo 879451" clip-path="url(#clip-path-10)">
                <path id="Trazado_602644" data-name="Trazado 602644" d="M241.574,206.455l-5.648-60.2a33.745,33.745,0,0,0-8.75-2.15q3.1,33.046,6.2,66.091a33.727,33.727,0,0,0,8.2-3.74" transform="translate(-227.175 -144.104)" fill="#e6f3f9"/>
              </g>
            </g>
          </g>
          <path id="Trazado_602645" data-name="Trazado 602645" d="M263.121,268.09a34.756,34.756,0,0,0,14.121-14.784,51.915,51.915,0,0,0,5.32-19.919,10.815,10.815,0,0,1,1.1-4.89c.88-1.44,2.856-2.372,4.3-1.508,1.164.694,1.523,2.187,1.728,3.526a55.156,55.156,0,0,1-.047,16.852,56.317,56.317,0,0,1,13.335-24.27c.834-.891,2-1.831,3.141-1.412,1.016.372,1.386,1.611,1.46,2.689.273,3.981-1.593,6.471-3.088,9.84-1.979,4.457-3.375,9.283-5.042,13.867,1.753-4.82,6.733-10.168,10.008-14.069,1.939-2.311,3.8-5.023,6.372-6.687,2.555-1.655,6.714-1.568,6.758,2.338.045,4.054-4.343,9.645-6.525,12.839-2.846,4.164-6.08,8.046-9.306,11.915a31.4,31.4,0,0,1,17.07-10.172c1.556-.337,3.445-.446,4.467.774a3.338,3.338,0,0,1,.646,2.342c-.153,2.676-2.2,4.826-4.221,6.583a64.259,64.259,0,0,1-12.45,8.469,83.651,83.651,0,0,1,10.95-1.236,7.168,7.168,0,0,1,3.511.451,3.841,3.841,0,0,1,1.928,4.4c-1.1,3.713-9.777,5.139-12.98,6.316a73.2,73.2,0,0,0-11.737,5.023c-5.475,3.181-10.152,7.56-15.408,11.093a31.346,31.346,0,0,1-12.487,5.376c-3.813.574-6.738-1.319-10.466-1.653" transform="translate(-6.173 -5.198)" fill="#e8c873"/>
          <path id="Trazado_602646" data-name="Trazado 602646" d="M276.512,276.147c-.154-.206-.369-.487-.605-.791-.333-.415-.662-.833-1-1.245a169.98,169.98,0,0,0-11.474-12.764q-1.345-1.333-2.716-2.641c-24.767,14.174-53.669,22.871-82.173,23.678-32.088.909-63.92-6.348-93.053-19.523a188.486,188.486,0,0,1-61.784-44.605C18.588,212.6,8.183,200.358,0,189.532V308.443a7.944,7.944,0,0,0,7.944,7.944H257.972a205.521,205.521,0,0,0,18.248-15.921c.893-.882,5.116-5.663,9.407-10.961-1.218-1.944-2.462-3.872-3.752-5.769-1.741-2.562-3.511-5.106-5.363-7.59" transform="translate(0 -4.446)" fill="#d91f39"/>
          <g id="Grupo_879456" data-name="Grupo 879456" transform="translate(0 238.421)" style="isolation: isolate">
            <g id="Grupo_879455" data-name="Grupo 879455">
              <g id="Grupo_879454" data-name="Grupo 879454" clip-path="url(#clip-path-11)">
                <path id="Trazado_602647" data-name="Trazado 602647" d="M276.512,277.429c-.154-.206-.369-.487-.605-.791-.074-.093-.149-.186-.224-.279a231.728,231.728,0,0,1-32.11,13.715c-57.69,19.9-122.751,23.306-179.029-.29A184.521,184.521,0,0,1,0,244.148v65.577a7.944,7.944,0,0,0,7.944,7.944H257.972a205.521,205.521,0,0,0,18.248-15.921c.893-.882,5.116-5.663,9.407-10.961-1.218-1.944-2.462-3.872-3.752-5.769-1.741-2.562-3.511-5.106-5.363-7.59" transform="translate(0 -244.148)" fill="#fa4861"/>
              </g>
            </g>
          </g>
          <path id="Trazado_602648" data-name="Trazado 602648" d="M257.4,265.445c-.932.464-1.876.9-2.815,1.352,6.606,7.36,13.084,14.829,19.192,22.58q4.708,5.973,8.959,12.3c.465-.5,1.137-1.252,1.951-2.181q-3.62-5.355-7.546-10.518c-6.2-8.125-12.883-15.9-19.741-23.529" transform="translate(-5.972 -6.227)" fill="#fff"/>
        </g>
      </g>
    </g>
    <path id="Trazado_603867" data-name="Trazado 603867" transform="translate(1150.897 4584.899)" fill="#fff"/>
    <path id="Trazado_602584" data-name="Trazado 602584" d="M-3556.651-7264.048h197.3" transform="translate(4476.849 11698.947)" fill="none" stroke="#f7cc54" stroke-width="3"/>
    <path id="Trazado_602590" data-name="Trazado 602590" d="M-3556.651-7264.048h67.082" transform="translate(4320.848 11607.947)" fill="none" stroke="#7fd452" stroke-width="3"/>
    <path id="Trazado_602592" data-name="Trazado 602592" d="M-3556.651-7264.048h106.517" transform="translate(4354.389 11545.506)" fill="none" stroke="#7fd452" stroke-width="3"/>
    <path id="Trazado_602593" data-name="Trazado 602593" d="M-3556.651-7264.048h33.541" transform="translate(4354.389 11483.064)" fill="none" stroke="#7fd452" stroke-width="3"/>
    <path id="Trazado_602591" data-name="Trazado 602591" d="M-3556.651-7264.048h122.981" transform="translate(8061.785 786.297) rotate(-90)" fill="none" stroke="#7fd452" stroke-width="3"/>
    <path id="Trazado_602587" data-name="Trazado 602587" d="M-3556.651-7264.048h177.913" transform="translate(-2369.149 -2771.148) rotate(180)" fill="none" stroke="#f7cc54" stroke-width="3"/>
    <path id="Trazado_602589" data-name="Trazado 602589" d="M-3556.651-7264.048h121.9" transform="translate(8273.638 999.199) rotate(-90)" fill="none" stroke="#f7cc54" stroke-width="3"/>
    <path id="Trazado_602588" data-name="Trazado 602588" d="M-3556.651-7264.048h107.913" transform="translate(-2439.15 -2708.197) rotate(180)" fill="none" stroke="#f7cc54" stroke-width="3"/>
    <path id="Trazado_603868" data-name="Trazado 603868" d="M32.5,0H212.849a32.5,32.5,0,0,1,0,65H32.5a32.5,32.5,0,0,1,0-65Z" transform="translate(519.849 4310.899)" fill="#7fd452"/>
    <path id="Trazado_603869" data-name="Trazado 603869" d="M32.5,0H317.849a32.5,32.5,0,0,1,0,65H32.5a32.5,32.5,0,0,1,0-65Z" transform="translate(569.849 4401.899)" fill="#f7cc54"/>
    <path id="Trazado_603870" data-name="Trazado 603870" d="M32.5,0H237.849a32.5,32.5,0,0,1,0,65H32.5a32.5,32.5,0,0,1,0-65Z" transform="translate(522.849 4492.899)" fill="#fa4861"/>
    <g transform="matrix(1, 0, 0, 1, 180, 4134.95)" filter="url(#Trazado_603871)">
      <path id="Trazado_603871-2" data-name="Trazado 603871" d="M29,0A29,29,0,1,1,0,29,29,29,0,0,1,29,0Z" transform="translate(342.85 179)" fill="#fff"/>
    </g>
    <g transform="matrix(1, 0, 0, 1, 180, 4134.95)" filter="url(#Trazado_603872)">
      <path id="Trazado_603872-2" data-name="Trazado 603872" d="M29,0A29,29,0,1,1,0,29,29,29,0,0,1,29,0Z" transform="translate(345.85 361)" fill="#fff"/>
    </g>
    <path id="Trazado_603873" data-name="Trazado 603873" d="M16.992,18.027a8.147,8.147,0,0,1-1.553,5.332,5.366,5.366,0,0,1-4.377,1.875,5.4,5.4,0,0,1-4.406-1.887A8.135,8.135,0,0,1,5.1,18.027V14.91A8.147,8.147,0,0,1,6.65,9.578,5.379,5.379,0,0,1,11.039,7.7,5.381,5.381,0,0,1,15.434,9.59a8.155,8.155,0,0,1,1.559,5.332Zm-3.949-3.621a6.085,6.085,0,0,0-.48-2.748,1.606,1.606,0,0,0-1.523-.908,1.568,1.568,0,0,0-1.482.844,5.733,5.733,0,0,0-.5,2.555v4.359a6.131,6.131,0,0,0,.48,2.795,1.612,1.612,0,0,0,1.523.885,1.59,1.59,0,0,0,1.488-.861,5.853,5.853,0,0,0,.492-2.7ZM27.8,25H23.836V12.391l-3.891,1.137v-3l7.488-2.59H27.8Z" transform="translate(533.849 4327.399)" fill="#12263f"/>
    <path id="Trazado_603874" data-name="Trazado 603874" d="M16.992,18.027a8.147,8.147,0,0,1-1.553,5.332,5.366,5.366,0,0,1-4.377,1.875,5.4,5.4,0,0,1-4.406-1.887A8.135,8.135,0,0,1,5.1,18.027V14.91A8.147,8.147,0,0,1,6.65,9.578,5.379,5.379,0,0,1,11.039,7.7,5.381,5.381,0,0,1,15.434,9.59a8.155,8.155,0,0,1,1.559,5.332Zm-3.949-3.621a6.085,6.085,0,0,0-.48-2.748,1.606,1.606,0,0,0-1.523-.908,1.568,1.568,0,0,0-1.482.844,5.733,5.733,0,0,0-.5,2.555v4.359a6.131,6.131,0,0,0,.48,2.795,1.612,1.612,0,0,0,1.523.885,1.59,1.59,0,0,0,1.488-.861,5.853,5.853,0,0,0,.492-2.7Zm9.609.41h1.863a1.937,1.937,0,0,0,2.215-2.168,1.875,1.875,0,0,0-.527-1.377,2,2,0,0,0-1.488-.533,2.141,2.141,0,0,0-1.365.457,1.394,1.394,0,0,0-.58,1.137H18.82a4.043,4.043,0,0,1,.75-2.4,4.953,4.953,0,0,1,2.08-1.646,7.112,7.112,0,0,1,2.924-.592,6.988,6.988,0,0,1,4.477,1.3,4.324,4.324,0,0,1,1.629,3.574,3.6,3.6,0,0,1-.674,2.08,4.8,4.8,0,0,1-1.963,1.588,4.587,4.587,0,0,1,2.133,1.494,3.935,3.935,0,0,1,.773,2.479,4.4,4.4,0,0,1-1.758,3.656,7.3,7.3,0,0,1-4.617,1.371,7.567,7.567,0,0,1-3.111-.639,4.875,4.875,0,0,1-2.174-1.77,4.6,4.6,0,0,1-.738-2.572h3.973a1.778,1.778,0,0,0,.633,1.359,2.234,2.234,0,0,0,1.559.574,2.34,2.34,0,0,0,1.664-.58A1.939,1.939,0,0,0,27,20.125a2.267,2.267,0,0,0-.645-1.828,2.694,2.694,0,0,0-1.781-.539H22.652Z" transform="translate(536.849 4509.399)" fill="#12263f"/>
    <path id="Trazado_603875" data-name="Trazado 603875" d="M12,12.4H9.332V17H7.824V5.625H11.59a4.457,4.457,0,0,1,2.957.875,3.148,3.148,0,0,1,1.035,2.547,3.062,3.062,0,0,1-.574,1.852,3.428,3.428,0,0,1-1.6,1.18l2.672,4.828V17H14.473ZM9.332,11.172h2.3a2.6,2.6,0,0,0,1.777-.579,1.959,1.959,0,0,0,.66-1.55,2.062,2.062,0,0,0-.629-1.62,2.663,2.663,0,0,0-1.816-.571h-2.3Zm11.633,5.984a3.693,3.693,0,0,1-2.8-1.129,4.19,4.19,0,0,1-1.078-3.02v-.266a5.073,5.073,0,0,1,.48-2.246,3.748,3.748,0,0,1,1.344-1.547,3.378,3.378,0,0,1,1.871-.559,3.166,3.166,0,0,1,2.563,1.086,4.7,4.7,0,0,1,.914,3.109v.6H18.535a3,3,0,0,0,.73,2.02,2.3,2.3,0,0,0,1.777.77,2.517,2.517,0,0,0,1.3-.312,3.259,3.259,0,0,0,.93-.828l.883.688A3.55,3.55,0,0,1,20.965,17.156Zm-.18-7.578a1.928,1.928,0,0,0-1.469.637A3.1,3.1,0,0,0,18.582,12h4.234v-.109a2.753,2.753,0,0,0-.594-1.707A1.815,1.815,0,0,0,20.785,9.578Zm10.367,6.586a3.07,3.07,0,0,1-2.477.992,2.628,2.628,0,0,1-2.059-.785,3.4,3.4,0,0,1-.715-2.324v-5.5h1.445v5.461q0,1.922,1.563,1.922a2.163,2.163,0,0,0,2.2-1.234V8.547h1.445V17H31.184Zm4.969-7.617.047,1.063A3.08,3.08,0,0,1,38.7,8.391q2.68,0,2.7,3.023V17H39.957V11.406a1.946,1.946,0,0,0-.418-1.352,1.675,1.675,0,0,0-1.277-.437,2.086,2.086,0,0,0-1.234.375,2.546,2.546,0,0,0-.828.984V17H34.754V8.547ZM45.152,17H43.707V8.547h1.445ZM43.59,6.3a.863.863,0,0,1,.215-.594.807.807,0,0,1,.637-.242.819.819,0,0,1,.641.242A.854.854,0,0,1,45.3,6.3a.826.826,0,0,1-.219.586.834.834,0,0,1-.641.234.821.821,0,0,1-.637-.234A.834.834,0,0,1,43.59,6.3Zm7.961,3.539a4.331,4.331,0,0,0-.711-.055A1.9,1.9,0,0,0,48.91,11v6H47.465V8.547h1.406l.023.977A2.251,2.251,0,0,1,50.91,8.391a1.477,1.477,0,0,1,.641.109ZM58.41,17H56.965V8.547H58.41ZM56.848,6.3a.863.863,0,0,1,.215-.594.807.807,0,0,1,.637-.242.819.819,0,0,1,.641.242.854.854,0,0,1,.219.594.826.826,0,0,1-.219.586.834.834,0,0,1-.641.234.821.821,0,0,1-.637-.234A.834.834,0,0,1,56.848,6.3ZM62.09,8.547l.047,1.063a3.08,3.08,0,0,1,2.531-1.219q2.68,0,2.7,3.023V17H65.926V11.406a1.946,1.946,0,0,0-.418-1.352,1.675,1.675,0,0,0-1.277-.437A2.086,2.086,0,0,0,63,9.992a2.546,2.546,0,0,0-.828.984V17H60.723V8.547ZM70.262,17V9.664H68.926V8.547h1.336V7.68a2.878,2.878,0,0,1,.727-2.1,2.745,2.745,0,0,1,2.055-.742,3.816,3.816,0,0,1,.992.132l-.078,1.165a4.151,4.151,0,0,0-.781-.07,1.41,1.41,0,0,0-1.086.411,1.669,1.669,0,0,0-.383,1.18v.893h1.8V9.664h-1.8V17Zm4.461-4.3a4.993,4.993,0,0,1,.488-2.234A3.643,3.643,0,0,1,76.57,8.93a3.7,3.7,0,0,1,1.988-.539,3.565,3.565,0,0,1,2.793,1.2,4.6,4.6,0,0,1,1.066,3.18v.1a5.036,5.036,0,0,1-.473,2.215,3.589,3.589,0,0,1-1.352,1.527,3.743,3.743,0,0,1-2.02.547,3.556,3.556,0,0,1-2.785-1.2A4.575,4.575,0,0,1,74.723,12.8Zm1.453.172a3.616,3.616,0,0,0,.652,2.258,2.211,2.211,0,0,0,3.5-.012,3.955,3.955,0,0,0,.648-2.418,3.61,3.61,0,0,0-.66-2.254,2.1,2.1,0,0,0-1.754-.863,2.075,2.075,0,0,0-1.727.852A3.925,3.925,0,0,0,76.176,12.867ZM88.316,9.844a4.331,4.331,0,0,0-.711-.055A1.9,1.9,0,0,0,85.676,11v6H84.23V8.547h1.406l.023.977a2.251,2.251,0,0,1,2.016-1.133,1.477,1.477,0,0,1,.641.109ZM91,8.547l.039.938a3.122,3.122,0,0,1,2.508-1.094A2.417,2.417,0,0,1,95.965,9.75a3.2,3.2,0,0,1,1.1-.984,3.242,3.242,0,0,1,1.6-.375q2.781,0,2.828,2.945V17h-1.445V11.422a1.941,1.941,0,0,0-.414-1.355,1.823,1.823,0,0,0-1.391-.449,1.916,1.916,0,0,0-1.336.48,1.949,1.949,0,0,0-.617,1.293V17H94.832V11.461a1.613,1.613,0,0,0-1.8-1.844,1.934,1.934,0,0,0-1.945,1.211V17H89.637V8.547ZM108.887,17a3.036,3.036,0,0,1-.2-.891,3.225,3.225,0,0,1-2.406,1.047,2.984,2.984,0,0,1-2.051-.707,2.288,2.288,0,0,1-.8-1.793,2.39,2.39,0,0,1,1-2.051,4.733,4.733,0,0,1,2.824-.73h1.406v-.664A1.623,1.623,0,0,0,108.207,10a1.821,1.821,0,0,0-1.336-.449,2.108,2.108,0,0,0-1.3.391,1.151,1.151,0,0,0-.523.945H103.6a2,2,0,0,1,.449-1.223,3.066,3.066,0,0,1,1.219-.934,4.1,4.1,0,0,1,1.691-.344,3.342,3.342,0,0,1,2.289.73,2.635,2.635,0,0,1,.859,2.012v3.891a4.757,4.757,0,0,0,.3,1.852V17Zm-2.4-1.1a2.54,2.54,0,0,0,1.289-.352,2.127,2.127,0,0,0,.883-.914V12.9h-1.133q-2.656,0-2.656,1.555a1.316,1.316,0,0,0,.453,1.063A1.742,1.742,0,0,0,106.488,15.9Zm9.273.078a2.082,2.082,0,0,0,1.352-.469,1.649,1.649,0,0,0,.641-1.172h1.367a2.621,2.621,0,0,1-.5,1.383,3.293,3.293,0,0,1-1.23,1.047,3.55,3.55,0,0,1-1.629.391A3.482,3.482,0,0,1,113.016,16,4.59,4.59,0,0,1,112,12.852v-.242a5.089,5.089,0,0,1,.453-2.2,3.451,3.451,0,0,1,1.3-1.492,3.7,3.7,0,0,1,2-.531,3.39,3.39,0,0,1,2.363.852,3.043,3.043,0,0,1,1,2.211h-1.367a1.992,1.992,0,0,0-.621-1.348,1.932,1.932,0,0,0-1.379-.527,2.023,2.023,0,0,0-1.707.793,3.724,3.724,0,0,0-.605,2.293v.273a3.65,3.65,0,0,0,.6,2.25A2.033,2.033,0,0,0,115.762,15.977ZM122.316,17h-1.445V8.547h1.445ZM120.754,6.3a.863.863,0,0,1,.215-.594.807.807,0,0,1,.637-.242.819.819,0,0,1,.641.242.854.854,0,0,1,.219.594.826.826,0,0,1-.219.586.834.834,0,0,1-.641.234.821.821,0,0,1-.637-.234A.834.834,0,0,1,120.754,6.3Zm3.492,6.391a4.993,4.993,0,0,1,.488-2.234,3.643,3.643,0,0,1,1.359-1.531,3.7,3.7,0,0,1,1.988-.539,3.565,3.565,0,0,1,2.793,1.2,4.6,4.6,0,0,1,1.066,3.18v.1a5.036,5.036,0,0,1-.473,2.215,3.589,3.589,0,0,1-1.352,1.527,3.743,3.743,0,0,1-2.02.547,3.556,3.556,0,0,1-2.785-1.2,4.575,4.575,0,0,1-1.066-3.164Zm1.453.172a3.616,3.616,0,0,0,.652,2.258,2.211,2.211,0,0,0,3.5-.012A3.954,3.954,0,0,0,130.5,12.7a3.61,3.61,0,0,0-.66-2.254,2.1,2.1,0,0,0-1.754-.863,2.075,2.075,0,0,0-1.727.852A3.925,3.925,0,0,0,125.7,12.867ZM128.738,5h1.75l-2.094,2.3-1.164,0Zm6.383,3.547.047,1.063A3.08,3.08,0,0,1,137.7,8.391q2.68,0,2.7,3.023V17h-1.445V11.406a1.946,1.946,0,0,0-.418-1.352,1.675,1.675,0,0,0-1.277-.437,2.086,2.086,0,0,0-1.234.375,2.546,2.546,0,0,0-.828.984V17h-1.445V8.547Z" transform="translate(588.849 4333.399)" fill="#12263f"/>
    <path id="Trazado_603876" data-name="Trazado 603876" d="M16.84,11.742H11.91v4.031h5.727V17H10.41V5.625h7.148V6.852H11.91v3.664h4.93Zm5.023,3.3,2.094-6.492h1.477L22.4,17H21.3L18.238,8.547h1.477ZM31.926,17a3.036,3.036,0,0,1-.2-.891,3.225,3.225,0,0,1-2.406,1.047,2.984,2.984,0,0,1-2.051-.707,2.287,2.287,0,0,1-.8-1.793,2.39,2.39,0,0,1,1-2.051,4.733,4.733,0,0,1,2.824-.73H31.7v-.664A1.623,1.623,0,0,0,31.246,10a1.821,1.821,0,0,0-1.336-.449,2.107,2.107,0,0,0-1.3.391,1.151,1.151,0,0,0-.523.945H26.637a2,2,0,0,1,.449-1.223A3.066,3.066,0,0,1,28.3,8.734,4.1,4.1,0,0,1,30,8.391a3.342,3.342,0,0,1,2.289.73,2.635,2.635,0,0,1,.859,2.012v3.891a4.757,4.757,0,0,0,.3,1.852V17Zm-2.4-1.1a2.54,2.54,0,0,0,1.289-.352,2.127,2.127,0,0,0,.883-.914V12.9H30.566q-2.656,0-2.656,1.555a1.316,1.316,0,0,0,.453,1.063A1.742,1.742,0,0,0,29.527,15.9ZM36.98,17H35.535V5H36.98Zm7.531-.836a3.07,3.07,0,0,1-2.477.992,2.628,2.628,0,0,1-2.059-.785,3.4,3.4,0,0,1-.715-2.324v-5.5h1.445v5.461q0,1.922,1.563,1.922a2.163,2.163,0,0,0,2.2-1.234V8.547h1.445V17H44.543Zm8.82.836a3.036,3.036,0,0,1-.2-.891,3.225,3.225,0,0,1-2.406,1.047,2.984,2.984,0,0,1-2.051-.707,2.287,2.287,0,0,1-.8-1.793,2.39,2.39,0,0,1,1-2.051,4.733,4.733,0,0,1,2.824-.73h1.406v-.664A1.623,1.623,0,0,0,52.652,10a1.821,1.821,0,0,0-1.336-.449,2.107,2.107,0,0,0-1.3.391,1.151,1.151,0,0,0-.523.945H48.043a2,2,0,0,1,.449-1.223,3.066,3.066,0,0,1,1.219-.934A4.1,4.1,0,0,1,51.4,8.391a3.342,3.342,0,0,1,2.289.73,2.635,2.635,0,0,1,.859,2.012v3.891a4.757,4.757,0,0,0,.3,1.852V17Zm-2.4-1.1a2.54,2.54,0,0,0,1.289-.352,2.127,2.127,0,0,0,.883-.914V12.9H51.973q-2.656,0-2.656,1.555a1.316,1.316,0,0,0,.453,1.063A1.742,1.742,0,0,0,50.934,15.9ZM60.9,9.844a4.331,4.331,0,0,0-.711-.055A1.9,1.9,0,0,0,58.262,11v6H56.816V8.547h1.406l.023.977a2.251,2.251,0,0,1,2.016-1.133A1.477,1.477,0,0,1,60.9,8.5ZM67.762,17H66.316V5h1.445Zm7.531,0a3.036,3.036,0,0,1-.2-.891,3.225,3.225,0,0,1-2.406,1.047,2.984,2.984,0,0,1-2.051-.707,2.288,2.288,0,0,1-.8-1.793,2.39,2.39,0,0,1,1-2.051,4.733,4.733,0,0,1,2.824-.73h1.406v-.664A1.623,1.623,0,0,0,74.613,10a1.821,1.821,0,0,0-1.336-.449,2.108,2.108,0,0,0-1.3.391,1.151,1.151,0,0,0-.523.945H70a2,2,0,0,1,.449-1.223,3.066,3.066,0,0,1,1.219-.934,4.1,4.1,0,0,1,1.691-.344,3.342,3.342,0,0,1,2.289.73,2.635,2.635,0,0,1,.859,2.012v3.891a4.757,4.757,0,0,0,.3,1.852V17Zm-2.4-1.1a2.54,2.54,0,0,0,1.289-.352,2.127,2.127,0,0,0,.883-.914V12.9H73.934q-2.656,0-2.656,1.555a1.316,1.316,0,0,0,.453,1.063A1.742,1.742,0,0,0,72.895,15.9ZM84.309,17H82.863V8.547h1.445ZM82.746,6.3a.863.863,0,0,1,.215-.594.807.807,0,0,1,.637-.242.819.819,0,0,1,.641.242.854.854,0,0,1,.219.594.826.826,0,0,1-.219.586.834.834,0,0,1-.641.234.821.821,0,0,1-.637-.234A.834.834,0,0,1,82.746,6.3Zm5.242,2.242.047,1.063a3.08,3.08,0,0,1,2.531-1.219q2.68,0,2.7,3.023V17H91.824V11.406a1.946,1.946,0,0,0-.418-1.352,1.675,1.675,0,0,0-1.277-.437,2.086,2.086,0,0,0-1.234.375,2.546,2.546,0,0,0-.828.984V17H86.621V8.547ZM96.16,17V9.664H94.824V8.547H96.16V7.68a2.878,2.878,0,0,1,.727-2.1,2.745,2.745,0,0,1,2.055-.742,3.816,3.816,0,0,1,.992.132l-.078,1.165a4.151,4.151,0,0,0-.781-.07,1.41,1.41,0,0,0-1.086.411,1.669,1.669,0,0,0-.383,1.18v.893h1.8V9.664h-1.8V17Zm4.461-4.3a4.993,4.993,0,0,1,.488-2.234,3.643,3.643,0,0,1,1.359-1.531,3.7,3.7,0,0,1,1.988-.539,3.565,3.565,0,0,1,2.793,1.2,4.6,4.6,0,0,1,1.066,3.18v.1a5.036,5.036,0,0,1-.473,2.215,3.589,3.589,0,0,1-1.352,1.527,3.743,3.743,0,0,1-2.02.547,3.556,3.556,0,0,1-2.785-1.2,4.575,4.575,0,0,1-1.066-3.164Zm1.453.172a3.616,3.616,0,0,0,.652,2.258,2.211,2.211,0,0,0,3.5-.012,3.955,3.955,0,0,0,.648-2.418,3.61,3.61,0,0,0-.66-2.254,2.1,2.1,0,0,0-1.754-.863,2.075,2.075,0,0,0-1.727.852A3.925,3.925,0,0,0,102.074,12.867Zm12.141-3.023a4.331,4.331,0,0,0-.711-.055A1.9,1.9,0,0,0,111.574,11v6h-1.445V8.547h1.406l.023.977a2.251,2.251,0,0,1,2.016-1.133,1.477,1.477,0,0,1,.641.109Zm2.688-1.3.039.938a3.122,3.122,0,0,1,2.508-1.094,2.417,2.417,0,0,1,2.414,1.359,3.2,3.2,0,0,1,1.1-.984,3.242,3.242,0,0,1,1.6-.375q2.781,0,2.828,2.945V17h-1.445V11.422a1.941,1.941,0,0,0-.414-1.355,1.823,1.823,0,0,0-1.391-.449,1.916,1.916,0,0,0-1.336.48,1.949,1.949,0,0,0-.617,1.293V17H120.73V11.461a1.613,1.613,0,0,0-1.8-1.844,1.934,1.934,0,0,0-1.945,1.211V17h-1.445V8.547ZM134.785,17a3.036,3.036,0,0,1-.2-.891,3.225,3.225,0,0,1-2.406,1.047,2.984,2.984,0,0,1-2.051-.707,2.287,2.287,0,0,1-.8-1.793,2.39,2.39,0,0,1,1-2.051,4.733,4.733,0,0,1,2.824-.73h1.406v-.664A1.623,1.623,0,0,0,134.105,10a1.821,1.821,0,0,0-1.336-.449,2.107,2.107,0,0,0-1.3.391,1.151,1.151,0,0,0-.523.945H129.5a2,2,0,0,1,.449-1.223,3.066,3.066,0,0,1,1.219-.934,4.1,4.1,0,0,1,1.691-.344,3.342,3.342,0,0,1,2.289.73A2.635,2.635,0,0,1,136,11.133v3.891a4.757,4.757,0,0,0,.3,1.852V17Zm-2.4-1.1a2.54,2.54,0,0,0,1.289-.352,2.127,2.127,0,0,0,.883-.914V12.9h-1.133q-2.656,0-2.656,1.555a1.316,1.316,0,0,0,.453,1.063A1.742,1.742,0,0,0,132.387,15.9Zm9.273.078a2.082,2.082,0,0,0,1.352-.469,1.649,1.649,0,0,0,.641-1.172h1.367a2.621,2.621,0,0,1-.5,1.383,3.293,3.293,0,0,1-1.23,1.047,3.55,3.55,0,0,1-1.629.391A3.482,3.482,0,0,1,138.914,16a4.59,4.59,0,0,1-1.02-3.152v-.242a5.089,5.089,0,0,1,.453-2.2,3.451,3.451,0,0,1,1.3-1.492,3.7,3.7,0,0,1,2-.531,3.39,3.39,0,0,1,2.363.852,3.043,3.043,0,0,1,1,2.211h-1.367a1.992,1.992,0,0,0-.621-1.348,1.932,1.932,0,0,0-1.379-.527,2.023,2.023,0,0,0-1.707.793,3.724,3.724,0,0,0-.605,2.293v.273a3.65,3.65,0,0,0,.6,2.25A2.033,2.033,0,0,0,141.66,15.977ZM148.215,17H146.77V8.547h1.445ZM146.652,6.3a.863.863,0,0,1,.215-.594.807.807,0,0,1,.637-.242.819.819,0,0,1,.641.242.854.854,0,0,1,.219.594.826.826,0,0,1-.219.586.834.834,0,0,1-.641.234.821.821,0,0,1-.637-.234A.834.834,0,0,1,146.652,6.3Zm3.492,6.391a4.993,4.993,0,0,1,.488-2.234,3.642,3.642,0,0,1,1.359-1.531,3.7,3.7,0,0,1,1.988-.539,3.565,3.565,0,0,1,2.793,1.2,4.6,4.6,0,0,1,1.066,3.18v.1a5.036,5.036,0,0,1-.473,2.215,3.589,3.589,0,0,1-1.352,1.527,3.743,3.743,0,0,1-2.02.547,3.556,3.556,0,0,1-2.785-1.2,4.575,4.575,0,0,1-1.066-3.164Zm1.453.172a3.616,3.616,0,0,0,.652,2.258,2.211,2.211,0,0,0,3.5-.012,3.954,3.954,0,0,0,.648-2.418,3.61,3.61,0,0,0-.66-2.254,2.1,2.1,0,0,0-1.754-.863,2.075,2.075,0,0,0-1.727.852A3.925,3.925,0,0,0,151.6,12.867ZM154.637,5h1.75l-2.094,2.3-1.164,0Zm6.383,3.547.047,1.063A3.08,3.08,0,0,1,163.6,8.391q2.68,0,2.7,3.023V17h-1.445V11.406a1.946,1.946,0,0,0-.418-1.352,1.675,1.675,0,0,0-1.277-.437,2.086,2.086,0,0,0-1.234.375,2.546,2.546,0,0,0-.828.984V17h-1.445V8.547Zm15.508,1.3a4.331,4.331,0,0,0-.711-.055A1.9,1.9,0,0,0,173.887,11v6h-1.445V8.547h1.406l.023.977a2.251,2.251,0,0,1,2.016-1.133,1.477,1.477,0,0,1,.641.109Zm4.836,7.313a3.693,3.693,0,0,1-2.8-1.129,4.19,4.19,0,0,1-1.078-3.02v-.266a5.073,5.073,0,0,1,.48-2.246,3.748,3.748,0,0,1,1.344-1.547,3.378,3.378,0,0,1,1.871-.559,3.166,3.166,0,0,1,2.563,1.086,4.7,4.7,0,0,1,.914,3.109v.6h-5.727a3,3,0,0,0,.73,2.02,2.3,2.3,0,0,0,1.777.77,2.517,2.517,0,0,0,1.3-.312,3.258,3.258,0,0,0,.93-.828l.883.688A3.55,3.55,0,0,1,181.363,17.156Zm-.18-7.578a1.928,1.928,0,0,0-1.469.637A3.1,3.1,0,0,0,178.98,12h4.234v-.109a2.753,2.753,0,0,0-.594-1.707A1.815,1.815,0,0,0,181.184,9.578Zm8.539,6.4a2.082,2.082,0,0,0,1.352-.469,1.649,1.649,0,0,0,.641-1.172h1.367a2.621,2.621,0,0,1-.5,1.383,3.293,3.293,0,0,1-1.23,1.047,3.55,3.55,0,0,1-1.629.391A3.482,3.482,0,0,1,186.977,16a4.59,4.59,0,0,1-1.02-3.152v-.242a5.089,5.089,0,0,1,.453-2.2,3.451,3.451,0,0,1,1.3-1.492,3.7,3.7,0,0,1,2-.531,3.39,3.39,0,0,1,2.363.852,3.043,3.043,0,0,1,1,2.211h-1.367a1.992,1.992,0,0,0-.621-1.348,1.932,1.932,0,0,0-1.379-.527,2.023,2.023,0,0,0-1.707.793,3.724,3.724,0,0,0-.605,2.293v.273a3.65,3.65,0,0,0,.6,2.25A2.033,2.033,0,0,0,189.723,15.977Zm4.6-3.281a4.993,4.993,0,0,1,.488-2.234,3.642,3.642,0,0,1,1.359-1.531,3.7,3.7,0,0,1,1.988-.539,3.565,3.565,0,0,1,2.793,1.2,4.6,4.6,0,0,1,1.066,3.18v.1a5.036,5.036,0,0,1-.473,2.215,3.589,3.589,0,0,1-1.352,1.527,3.743,3.743,0,0,1-2.02.547,3.556,3.556,0,0,1-2.785-1.2,4.575,4.575,0,0,1-1.066-3.164Zm1.453.172a3.616,3.616,0,0,0,.652,2.258,2.211,2.211,0,0,0,3.5-.012,3.954,3.954,0,0,0,.648-2.418,3.61,3.61,0,0,0-.66-2.254,2.1,2.1,0,0,0-1.754-.863,2.075,2.075,0,0,0-1.727.852A3.925,3.925,0,0,0,195.777,12.867Zm15.2,0a5.062,5.062,0,0,1-.883,3.109,2.829,2.829,0,0,1-2.391,1.18,3.1,3.1,0,0,1-2.422-.977v4.07h-1.445V8.547h1.32l.07.938a2.977,2.977,0,0,1,2.453-1.094,2.882,2.882,0,0,1,2.41,1.148,5.117,5.117,0,0,1,.887,3.2Zm-1.445-.164a3.735,3.735,0,0,0-.609-2.258,1.963,1.963,0,0,0-1.672-.828,2.125,2.125,0,0,0-1.969,1.164V14.82a2.129,2.129,0,0,0,1.984,1.156,1.954,1.954,0,0,0,1.652-.824A4.077,4.077,0,0,0,209.527,12.7Zm4.852,4.3h-1.445V8.547h1.445ZM212.816,6.3a.863.863,0,0,1,.215-.594.807.807,0,0,1,.637-.242.819.819,0,0,1,.641.242.854.854,0,0,1,.219.594.826.826,0,0,1-.219.586.834.834,0,0,1-.641.234.821.821,0,0,1-.637-.234A.834.834,0,0,1,212.816,6.3ZM218.262,17h-1.445V5h1.445Zm7.531,0a3.036,3.036,0,0,1-.2-.891,3.225,3.225,0,0,1-2.406,1.047,2.984,2.984,0,0,1-2.051-.707,2.287,2.287,0,0,1-.8-1.793,2.39,2.39,0,0,1,1-2.051,4.733,4.733,0,0,1,2.824-.73h1.406v-.664A1.623,1.623,0,0,0,225.113,10a1.821,1.821,0,0,0-1.336-.449,2.107,2.107,0,0,0-1.3.391,1.151,1.151,0,0,0-.523.945H220.5a2,2,0,0,1,.449-1.223,3.066,3.066,0,0,1,1.219-.934,4.1,4.1,0,0,1,1.691-.344,3.342,3.342,0,0,1,2.289.73,2.635,2.635,0,0,1,.859,2.012v3.891a4.757,4.757,0,0,0,.3,1.852V17Zm-2.4-1.1a2.54,2.54,0,0,0,1.289-.352,2.127,2.127,0,0,0,.883-.914V12.9h-1.133q-2.656,0-2.656,1.555a1.316,1.316,0,0,0,.453,1.063A1.742,1.742,0,0,0,223.395,15.9Zm5.531-3.2a4.952,4.952,0,0,1,.922-3.129,3.137,3.137,0,0,1,4.766-.168V5h1.445V17H234.73l-.07-.906a2.943,2.943,0,0,1-2.414,1.063,2.887,2.887,0,0,1-2.395-1.2,5.008,5.008,0,0,1-.926-3.141Zm1.445.164a3.749,3.749,0,0,0,.594,2.25,1.919,1.919,0,0,0,1.641.813,2.108,2.108,0,0,0,2.008-1.234V10.813a2.125,2.125,0,0,0-1.992-1.2,1.929,1.929,0,0,0-1.656.82A4.128,4.128,0,0,0,230.371,12.867ZM243.52,17a3.036,3.036,0,0,1-.2-.891,3.225,3.225,0,0,1-2.406,1.047,2.984,2.984,0,0,1-2.051-.707,2.287,2.287,0,0,1-.8-1.793,2.39,2.39,0,0,1,1-2.051,4.733,4.733,0,0,1,2.824-.73h1.406v-.664A1.623,1.623,0,0,0,242.84,10a1.821,1.821,0,0,0-1.336-.449,2.107,2.107,0,0,0-1.3.391,1.151,1.151,0,0,0-.523.945H238.23a2,2,0,0,1,.449-1.223,3.066,3.066,0,0,1,1.219-.934,4.1,4.1,0,0,1,1.691-.344,3.342,3.342,0,0,1,2.289.73,2.635,2.635,0,0,1,.859,2.012v3.891a4.757,4.757,0,0,0,.3,1.852V17Zm-2.4-1.1a2.54,2.54,0,0,0,1.289-.352,2.127,2.127,0,0,0,.883-.914V12.9H242.16q-2.656,0-2.656,1.555a1.316,1.316,0,0,0,.453,1.063A1.742,1.742,0,0,0,241.121,15.9Z" transform="translate(638.849 4424.399)" fill="#12263f"/>
    <path id="Trazado_603877" data-name="Trazado 603877" d="M14.874,17h-1.5V5.625h1.5Zm3.883-8.453L18.8,9.609a3.08,3.08,0,0,1,2.531-1.219q2.68,0,2.7,3.023V17H22.592V11.406a1.946,1.946,0,0,0-.418-1.352A1.675,1.675,0,0,0,20.9,9.617a2.086,2.086,0,0,0-1.234.375,2.546,2.546,0,0,0-.828.984V17H17.389V8.547ZM26.928,17V9.664H25.592V8.547h1.336V7.68a2.878,2.878,0,0,1,.727-2.1,2.745,2.745,0,0,1,2.055-.742,3.816,3.816,0,0,1,.992.132l-.078,1.165a4.151,4.151,0,0,0-.781-.07,1.41,1.41,0,0,0-1.086.411,1.669,1.669,0,0,0-.383,1.18v.893h1.8V9.664h-1.8V17Zm4.461-4.3a4.993,4.993,0,0,1,.488-2.234A3.643,3.643,0,0,1,33.237,8.93a3.7,3.7,0,0,1,1.988-.539,3.565,3.565,0,0,1,2.793,1.2,4.6,4.6,0,0,1,1.066,3.18v.1a5.036,5.036,0,0,1-.473,2.215,3.589,3.589,0,0,1-1.352,1.527,3.743,3.743,0,0,1-2.02.547,3.556,3.556,0,0,1-2.785-1.2A4.575,4.575,0,0,1,31.389,12.8Zm1.453.172a3.616,3.616,0,0,0,.652,2.258,2.211,2.211,0,0,0,3.5-.012,3.955,3.955,0,0,0,.648-2.418,3.61,3.61,0,0,0-.66-2.254,2.1,2.1,0,0,0-1.754-.863,2.075,2.075,0,0,0-1.727.852A3.925,3.925,0,0,0,32.842,12.867ZM44.983,9.844a4.331,4.331,0,0,0-.711-.055A1.9,1.9,0,0,0,42.342,11v6H40.9V8.547H42.3l.023.977a2.251,2.251,0,0,1,2.016-1.133,1.477,1.477,0,0,1,.641.109Zm2.688-1.3.039.938a3.122,3.122,0,0,1,2.508-1.094A2.417,2.417,0,0,1,52.631,9.75a3.2,3.2,0,0,1,1.1-.984,3.242,3.242,0,0,1,1.6-.375q2.781,0,2.828,2.945V17H56.71V11.422a1.941,1.941,0,0,0-.414-1.355A1.823,1.823,0,0,0,54.9,9.617a1.917,1.917,0,0,0-1.336.48,1.949,1.949,0,0,0-.617,1.293V17H51.5V11.461a1.613,1.613,0,0,0-1.8-1.844,1.934,1.934,0,0,0-1.945,1.211V17H46.3V8.547Zm16.172,8.609a3.693,3.693,0,0,1-2.8-1.129,4.19,4.19,0,0,1-1.078-3.02v-.266a5.073,5.073,0,0,1,.48-2.246,3.748,3.748,0,0,1,1.344-1.547,3.378,3.378,0,0,1,1.871-.559,3.166,3.166,0,0,1,2.563,1.086,4.7,4.7,0,0,1,.914,3.109v.6H61.413a3,3,0,0,0,.73,2.02,2.3,2.3,0,0,0,1.777.77,2.517,2.517,0,0,0,1.3-.312,3.259,3.259,0,0,0,.93-.828l.883.688A3.55,3.55,0,0,1,63.842,17.156Zm-.18-7.578a1.928,1.928,0,0,0-1.469.637A3.1,3.1,0,0,0,61.46,12h4.234v-.109a2.753,2.753,0,0,0-.594-1.707A1.815,1.815,0,0,0,63.663,9.578ZM72.421,12.7a4.952,4.952,0,0,1,.922-3.129,3.137,3.137,0,0,1,4.766-.168V5h1.445V17H78.225l-.07-.906a2.943,2.943,0,0,1-2.414,1.063,2.887,2.887,0,0,1-2.395-1.2,5.008,5.008,0,0,1-.926-3.141Zm1.445.164a3.749,3.749,0,0,0,.594,2.25,1.92,1.92,0,0,0,1.641.813A2.108,2.108,0,0,0,78.108,14.7V10.813a2.125,2.125,0,0,0-1.992-1.2,1.929,1.929,0,0,0-1.656.82A4.128,4.128,0,0,0,73.866,12.867ZM85.3,17.156a3.693,3.693,0,0,1-2.8-1.129,4.19,4.19,0,0,1-1.078-3.02v-.266a5.073,5.073,0,0,1,.48-2.246,3.748,3.748,0,0,1,1.344-1.547,3.378,3.378,0,0,1,1.871-.559,3.166,3.166,0,0,1,2.563,1.086,4.7,4.7,0,0,1,.914,3.109v.6H82.874a3,3,0,0,0,.73,2.02,2.3,2.3,0,0,0,1.777.77,2.517,2.517,0,0,0,1.3-.312,3.259,3.259,0,0,0,.93-.828l.883.688A3.55,3.55,0,0,1,85.3,17.156Zm-.18-7.578a1.928,1.928,0,0,0-1.469.637A3.1,3.1,0,0,0,82.921,12h4.234v-.109a2.753,2.753,0,0,0-.594-1.707A1.815,1.815,0,0,0,85.124,9.578ZM95.678,9.57a3.073,3.073,0,0,1,2.5-1.18q2.68,0,2.7,3.023V17H99.436V11.406a1.946,1.946,0,0,0-.418-1.352,1.675,1.675,0,0,0-1.277-.437,2.086,2.086,0,0,0-1.234.375,2.546,2.546,0,0,0-.828.984V17H94.233V5h1.445ZM108.264,17a3.036,3.036,0,0,1-.2-.891,3.225,3.225,0,0,1-2.406,1.047,2.984,2.984,0,0,1-2.051-.707,2.288,2.288,0,0,1-.8-1.793,2.39,2.39,0,0,1,1-2.051,4.733,4.733,0,0,1,2.824-.73h1.406v-.664A1.623,1.623,0,0,0,107.585,10a1.821,1.821,0,0,0-1.336-.449,2.108,2.108,0,0,0-1.3.391,1.151,1.151,0,0,0-.523.945h-1.453a2,2,0,0,1,.449-1.223,3.066,3.066,0,0,1,1.219-.934,4.1,4.1,0,0,1,1.691-.344,3.342,3.342,0,0,1,2.289.73,2.635,2.635,0,0,1,.859,2.012v3.891a4.757,4.757,0,0,0,.3,1.852V17Zm-2.4-1.1a2.54,2.54,0,0,0,1.289-.352,2.127,2.127,0,0,0,.883-.914V12.9H106.9q-2.656,0-2.656,1.555a1.316,1.316,0,0,0,.453,1.063A1.742,1.742,0,0,0,105.866,15.9Zm7.453,1.1h-1.445V5h1.445Zm3.883,0h-1.445V5H117.2Zm7.531,0a3.036,3.036,0,0,1-.2-.891,3.225,3.225,0,0,1-2.406,1.047,2.984,2.984,0,0,1-2.051-.707,2.288,2.288,0,0,1-.8-1.793,2.39,2.39,0,0,1,1-2.051,4.733,4.733,0,0,1,2.824-.73h1.406v-.664A1.623,1.623,0,0,0,124.053,10a1.821,1.821,0,0,0-1.336-.449,2.108,2.108,0,0,0-1.3.391,1.151,1.151,0,0,0-.523.945h-1.453a2,2,0,0,1,.449-1.223,3.066,3.066,0,0,1,1.219-.934,4.1,4.1,0,0,1,1.691-.344,3.342,3.342,0,0,1,2.289.73,2.635,2.635,0,0,1,.859,2.012v3.891a4.757,4.757,0,0,0,.3,1.852V17Zm-2.4-1.1a2.54,2.54,0,0,0,1.289-.352,2.127,2.127,0,0,0,.883-.914V12.9h-1.133q-2.656,0-2.656,1.555a1.316,1.316,0,0,0,.453,1.063A1.742,1.742,0,0,0,122.335,15.9Zm7.242-.078h4.945V17h-6.711V15.938l4.664-6.2h-4.594v-1.2h6.406V9.57ZM135.8,12.7a4.968,4.968,0,0,1,.914-3.145,3.151,3.151,0,0,1,4.836-.074l.07-.937h1.32V16.8a3.439,3.439,0,0,1-.973,2.586,3.589,3.589,0,0,1-2.613.945,4.348,4.348,0,0,1-1.789-.391,3.08,3.08,0,0,1-1.336-1.07l.75-.867a2.826,2.826,0,0,0,2.273,1.148,2.214,2.214,0,0,0,1.645-.594,2.269,2.269,0,0,0,.59-1.672v-.727a2.971,2.971,0,0,1-2.367,1,2.887,2.887,0,0,1-2.4-1.2A5.224,5.224,0,0,1,135.8,12.7Zm1.453.164a3.79,3.79,0,0,0,.586,2.246,1.9,1.9,0,0,0,1.641.816,2.117,2.117,0,0,0,2.008-1.242V10.828A2.142,2.142,0,0,0,139.5,9.617a1.921,1.921,0,0,0-1.648.82A4.128,4.128,0,0,0,137.256,12.867Zm7.484-.172a4.993,4.993,0,0,1,.488-2.234,3.642,3.642,0,0,1,1.359-1.531,3.7,3.7,0,0,1,1.988-.539,3.565,3.565,0,0,1,2.793,1.2,4.6,4.6,0,0,1,1.066,3.18v.1a5.036,5.036,0,0,1-.473,2.215,3.589,3.589,0,0,1-1.352,1.527,3.743,3.743,0,0,1-2.02.547,3.556,3.556,0,0,1-2.785-1.2,4.575,4.575,0,0,1-1.066-3.164Zm1.453.172a3.616,3.616,0,0,0,.652,2.258,2.211,2.211,0,0,0,3.5-.012,3.954,3.954,0,0,0,.648-2.418,3.61,3.61,0,0,0-.66-2.254,2.1,2.1,0,0,0-1.754-.863,2.075,2.075,0,0,0-1.727.852A3.925,3.925,0,0,0,146.194,12.867Zm12.977,1.891a1.064,1.064,0,0,0-.441-.91,4.249,4.249,0,0,0-1.539-.559,7.277,7.277,0,0,1-1.742-.562,2.479,2.479,0,0,1-.953-.781,1.869,1.869,0,0,1-.309-1.078,2.193,2.193,0,0,1,.879-1.758,3.432,3.432,0,0,1,2.246-.719,3.532,3.532,0,0,1,2.332.742,2.357,2.357,0,0,1,.895,1.9h-1.453a1.3,1.3,0,0,0-.5-1.023,1.888,1.888,0,0,0-1.27-.43,1.976,1.976,0,0,0-1.234.344,1.082,1.082,0,0,0-.445.9.877.877,0,0,0,.414.789,5.1,5.1,0,0,0,1.5.508,7.8,7.8,0,0,1,1.754.578,2.558,2.558,0,0,1,1,.809,1.988,1.988,0,0,1,.324,1.152,2.163,2.163,0,0,1-.906,1.816,3.8,3.8,0,0,1-2.352.684,4.257,4.257,0,0,1-1.8-.359,2.922,2.922,0,0,1-1.223-1A2.42,2.42,0,0,1,153.9,14.4h1.445a1.5,1.5,0,0,0,.582,1.152,2.258,2.258,0,0,0,1.434.426,2.331,2.331,0,0,0,1.316-.332A1.02,1.02,0,0,0,159.171,14.758Z" transform="translate(591.849 4515.399)" fill="#fff"/>
    <path id="Trazado_603878" data-name="Trazado 603878" d="M15,0H131a15,15,0,0,1,15,15V31a15,15,0,0,1-15,15H15A15,15,0,0,1,0,31V15A15,15,0,0,1,15,0Z" transform="translate(901.849 4255.899)" fill="#65a941"/>
    <path id="Trazado_603879" data-name="Trazado 603879" d="M15,0H131a15,15,0,0,1,15,15V31a15,15,0,0,1-15,15H15A15,15,0,0,1,0,31V15A15,15,0,0,1,15,0Z" transform="translate(828.849 4195.899)" fill="#65a941"/>
    <path id="Trazado_603880" data-name="Trazado 603880" d="M15,0H131a15,15,0,0,1,15,15V31a15,15,0,0,1-15,15H15A15,15,0,0,1,0,31V15A15,15,0,0,1,15,0Z" transform="translate(828.849 4319.899)" fill="#65a941"/>
    <path id="Trazado_603881" data-name="Trazado 603881" d="M20.25,11.742H15.32v4.031h5.727V17H13.82V5.625h7.148V6.852H15.32v3.664h4.93Zm3.8-3.2L24.1,9.609a3.08,3.08,0,0,1,2.531-1.219q2.68,0,2.7,3.023V17H27.891V11.406a1.946,1.946,0,0,0-.418-1.352A1.675,1.675,0,0,0,26.2,9.617a2.086,2.086,0,0,0-1.234.375,2.546,2.546,0,0,0-.828.984V17H22.688V8.547ZM33.477,6.5V8.547h1.578V9.664H33.477v5.249a1.173,1.173,0,0,0,.211.763.888.888,0,0,0,.719.254,3.5,3.5,0,0,0,.688-.094V17a4.215,4.215,0,0,1-1.109.155,1.8,1.8,0,0,1-1.461-.586,2.517,2.517,0,0,1-.492-1.664V9.664H30.492V8.547h1.539V6.5Zm7.352,3.344a4.331,4.331,0,0,0-.711-.055A1.9,1.9,0,0,0,38.188,11v6H36.742V8.547h1.406l.023.977a2.251,2.251,0,0,1,2.016-1.133,1.477,1.477,0,0,1,.641.109Zm4.836,7.313a3.693,3.693,0,0,1-2.8-1.129,4.19,4.19,0,0,1-1.078-3.02v-.266a5.073,5.073,0,0,1,.48-2.246,3.748,3.748,0,0,1,1.344-1.547,3.378,3.378,0,0,1,1.871-.559,3.166,3.166,0,0,1,2.563,1.086,4.7,4.7,0,0,1,.914,3.109v.6H43.234a3,3,0,0,0,.73,2.02,2.3,2.3,0,0,0,1.777.77,2.517,2.517,0,0,0,1.3-.312,3.259,3.259,0,0,0,.93-.828l.883.688A3.55,3.55,0,0,1,45.664,17.156Zm-.18-7.578a1.928,1.928,0,0,0-1.469.637A3.1,3.1,0,0,0,43.281,12h4.234v-.109a2.753,2.753,0,0,0-.594-1.707A1.815,1.815,0,0,0,45.484,9.578Zm7.836,5.461,2.094-6.492h1.477L53.859,17h-1.1L49.7,8.547h1.477ZM59.852,17H58.406V8.547h1.445ZM58.289,6.3a.863.863,0,0,1,.215-.594.807.807,0,0,1,.637-.242.819.819,0,0,1,.641.242A.854.854,0,0,1,60,6.3a.826.826,0,0,1-.219.586.834.834,0,0,1-.641.234.821.821,0,0,1-.637-.234A.834.834,0,0,1,58.289,6.3Zm8.8,8.453a1.064,1.064,0,0,0-.441-.91,4.249,4.249,0,0,0-1.539-.559,7.277,7.277,0,0,1-1.742-.562,2.479,2.479,0,0,1-.953-.781,1.869,1.869,0,0,1-.309-1.078,2.193,2.193,0,0,1,.879-1.758,3.432,3.432,0,0,1,2.246-.719,3.532,3.532,0,0,1,2.332.742,2.357,2.357,0,0,1,.895,1.9H67a1.3,1.3,0,0,0-.5-1.023,1.888,1.888,0,0,0-1.27-.43,1.976,1.976,0,0,0-1.234.344,1.082,1.082,0,0,0-.445.9.877.877,0,0,0,.414.789,5.1,5.1,0,0,0,1.5.508,7.8,7.8,0,0,1,1.754.578,2.558,2.558,0,0,1,1,.809,1.988,1.988,0,0,1,.324,1.152,2.163,2.163,0,0,1-.906,1.816,3.8,3.8,0,0,1-2.352.684,4.257,4.257,0,0,1-1.8-.359,2.922,2.922,0,0,1-1.223-1,2.42,2.42,0,0,1-.441-1.395h1.445a1.5,1.5,0,0,0,.582,1.152,2.258,2.258,0,0,0,1.434.426,2.331,2.331,0,0,0,1.316-.332A1.02,1.02,0,0,0,67.086,14.758ZM72.375,6.5V8.547h1.578V9.664H72.375v5.249a1.173,1.173,0,0,0,.211.763.888.888,0,0,0,.719.254,3.5,3.5,0,0,0,.688-.094V17a4.215,4.215,0,0,1-1.109.155,1.8,1.8,0,0,1-1.461-.586,2.517,2.517,0,0,1-.492-1.664V9.664H69.391V8.547H70.93V6.5ZM80.859,17a3.036,3.036,0,0,1-.2-.891,3.225,3.225,0,0,1-2.406,1.047,2.984,2.984,0,0,1-2.051-.707,2.288,2.288,0,0,1-.8-1.793,2.39,2.39,0,0,1,1-2.051,4.733,4.733,0,0,1,2.824-.73h1.406v-.664A1.623,1.623,0,0,0,80.18,10a1.821,1.821,0,0,0-1.336-.449,2.108,2.108,0,0,0-1.3.391,1.151,1.151,0,0,0-.523.945H75.57a2,2,0,0,1,.449-1.223,3.066,3.066,0,0,1,1.219-.934,4.1,4.1,0,0,1,1.691-.344,3.342,3.342,0,0,1,2.289.73,2.635,2.635,0,0,1,.859,2.012v3.891a4.757,4.757,0,0,0,.3,1.852V17Zm-2.4-1.1a2.54,2.54,0,0,0,1.289-.352,2.127,2.127,0,0,0,.883-.914V12.9H79.5q-2.656,0-2.656,1.555a1.316,1.316,0,0,0,.453,1.063A1.742,1.742,0,0,0,78.461,15.9Zm10.8-1.141a1.064,1.064,0,0,0-.441-.91,4.249,4.249,0,0,0-1.539-.559,7.277,7.277,0,0,1-1.742-.562,2.479,2.479,0,0,1-.953-.781,1.869,1.869,0,0,1-.309-1.078,2.193,2.193,0,0,1,.879-1.758,3.432,3.432,0,0,1,2.246-.719,3.532,3.532,0,0,1,2.332.742,2.357,2.357,0,0,1,.895,1.9H89.18a1.3,1.3,0,0,0-.5-1.023,1.888,1.888,0,0,0-1.27-.43,1.976,1.976,0,0,0-1.234.344,1.082,1.082,0,0,0-.445.9.877.877,0,0,0,.414.789,5.1,5.1,0,0,0,1.5.508,7.8,7.8,0,0,1,1.754.578,2.558,2.558,0,0,1,1,.809,1.988,1.988,0,0,1,.324,1.152,2.163,2.163,0,0,1-.906,1.816,3.8,3.8,0,0,1-2.352.684,4.257,4.257,0,0,1-1.8-.359,2.922,2.922,0,0,1-1.223-1,2.42,2.42,0,0,1-.441-1.395h1.445a1.5,1.5,0,0,0,.582,1.152,2.258,2.258,0,0,0,1.434.426,2.331,2.331,0,0,0,1.316-.332A1.02,1.02,0,0,0,89.266,14.758Z" transform="translate(922.849 4267.899)" fill="#fff"/>
    <path id="Trazado_603882" data-name="Trazado 603882" d="M22.738,11.742h-4.93v4.031h5.727V17H16.309V5.625h7.148V6.852H17.809v3.664h4.93Zm3.8-3.2.047,1.063a3.08,3.08,0,0,1,2.531-1.219q2.68,0,2.7,3.023V17H30.379V11.406a1.946,1.946,0,0,0-.418-1.352,1.675,1.675,0,0,0-1.277-.437,2.086,2.086,0,0,0-1.234.375,2.546,2.546,0,0,0-.828.984V17H25.176V8.547Zm10.852,7.43a2.082,2.082,0,0,0,1.352-.469,1.649,1.649,0,0,0,.641-1.172h1.367a2.621,2.621,0,0,1-.5,1.383,3.293,3.293,0,0,1-1.23,1.047,3.55,3.55,0,0,1-1.629.391A3.482,3.482,0,0,1,34.648,16a4.59,4.59,0,0,1-1.02-3.152v-.242a5.089,5.089,0,0,1,.453-2.2,3.451,3.451,0,0,1,1.3-1.492,3.7,3.7,0,0,1,2-.531,3.39,3.39,0,0,1,2.363.852,3.043,3.043,0,0,1,1,2.211H39.387a1.992,1.992,0,0,0-.621-1.348,1.932,1.932,0,0,0-1.379-.527,2.023,2.023,0,0,0-1.707.793,3.724,3.724,0,0,0-.605,2.293v.273a3.65,3.65,0,0,0,.6,2.25A2.033,2.033,0,0,0,37.395,15.977Zm10.2.188a3.07,3.07,0,0,1-2.477.992,2.628,2.628,0,0,1-2.059-.785,3.4,3.4,0,0,1-.715-2.324v-5.5h1.445v5.461q0,1.922,1.563,1.922a2.163,2.163,0,0,0,2.2-1.234V8.547H49V17H47.629Zm7.109.992a3.693,3.693,0,0,1-2.8-1.129,4.19,4.19,0,0,1-1.078-3.02v-.266a5.073,5.073,0,0,1,.48-2.246,3.748,3.748,0,0,1,1.344-1.547,3.378,3.378,0,0,1,1.871-.559A3.166,3.166,0,0,1,57.09,9.477,4.7,4.7,0,0,1,58,12.586v.6H52.277a3,3,0,0,0,.73,2.02,2.3,2.3,0,0,0,1.777.77,2.517,2.517,0,0,0,1.3-.312,3.259,3.259,0,0,0,.93-.828l.883.688A3.55,3.55,0,0,1,54.707,17.156Zm-.18-7.578a1.928,1.928,0,0,0-1.469.637A3.1,3.1,0,0,0,52.324,12h4.234v-.109a2.753,2.753,0,0,0-.594-1.707A1.815,1.815,0,0,0,54.527,9.578Zm10.07,5.18a1.064,1.064,0,0,0-.441-.91,4.249,4.249,0,0,0-1.539-.559,7.277,7.277,0,0,1-1.742-.562,2.479,2.479,0,0,1-.953-.781,1.869,1.869,0,0,1-.309-1.078,2.193,2.193,0,0,1,.879-1.758,3.432,3.432,0,0,1,2.246-.719,3.532,3.532,0,0,1,2.332.742,2.357,2.357,0,0,1,.895,1.9H64.512a1.3,1.3,0,0,0-.5-1.023,1.888,1.888,0,0,0-1.27-.43,1.976,1.976,0,0,0-1.234.344,1.082,1.082,0,0,0-.445.9.877.877,0,0,0,.414.789,5.1,5.1,0,0,0,1.5.508,7.8,7.8,0,0,1,1.754.578,2.558,2.558,0,0,1,1,.809,1.988,1.988,0,0,1,.324,1.152,2.163,2.163,0,0,1-.906,1.816,3.8,3.8,0,0,1-2.352.684,4.257,4.257,0,0,1-1.8-.359,2.922,2.922,0,0,1-1.223-1,2.42,2.42,0,0,1-.441-1.395H60.77a1.5,1.5,0,0,0,.582,1.152,2.258,2.258,0,0,0,1.434.426,2.331,2.331,0,0,0,1.316-.332A1.02,1.02,0,0,0,64.6,14.758ZM69.887,6.5V8.547h1.578V9.664H69.887v5.249a1.173,1.173,0,0,0,.211.763.888.888,0,0,0,.719.254,3.5,3.5,0,0,0,.688-.094V17a4.215,4.215,0,0,1-1.109.155,1.8,1.8,0,0,1-1.461-.586,2.517,2.517,0,0,1-.492-1.664V9.664H66.9V8.547h1.539V6.5ZM78.371,17a3.036,3.036,0,0,1-.2-.891,3.225,3.225,0,0,1-2.406,1.047,2.984,2.984,0,0,1-2.051-.707,2.288,2.288,0,0,1-.8-1.793,2.39,2.39,0,0,1,1-2.051,4.733,4.733,0,0,1,2.824-.73h1.406v-.664A1.623,1.623,0,0,0,77.691,10a1.821,1.821,0,0,0-1.336-.449,2.108,2.108,0,0,0-1.3.391,1.151,1.151,0,0,0-.523.945H73.082a2,2,0,0,1,.449-1.223,3.066,3.066,0,0,1,1.219-.934,4.1,4.1,0,0,1,1.691-.344,3.342,3.342,0,0,1,2.289.73,2.635,2.635,0,0,1,.859,2.012v3.891a4.757,4.757,0,0,0,.3,1.852V17Zm-2.4-1.1a2.54,2.54,0,0,0,1.289-.352,2.127,2.127,0,0,0,.883-.914V12.9H77.012q-2.656,0-2.656,1.555a1.316,1.316,0,0,0,.453,1.063A1.742,1.742,0,0,0,75.973,15.9Zm10.8-1.141a1.064,1.064,0,0,0-.441-.91,4.249,4.249,0,0,0-1.539-.559,7.277,7.277,0,0,1-1.742-.562,2.479,2.479,0,0,1-.953-.781,1.869,1.869,0,0,1-.309-1.078,2.193,2.193,0,0,1,.879-1.758,3.432,3.432,0,0,1,2.246-.719,3.532,3.532,0,0,1,2.332.742,2.357,2.357,0,0,1,.895,1.9H86.691a1.3,1.3,0,0,0-.5-1.023,1.888,1.888,0,0,0-1.27-.43,1.976,1.976,0,0,0-1.234.344,1.082,1.082,0,0,0-.445.9.877.877,0,0,0,.414.789,5.1,5.1,0,0,0,1.5.508A7.8,7.8,0,0,1,86.9,12.7a2.558,2.558,0,0,1,1,.809,1.988,1.988,0,0,1,.324,1.152,2.163,2.163,0,0,1-.906,1.816,3.8,3.8,0,0,1-2.352.684,4.257,4.257,0,0,1-1.8-.359,2.922,2.922,0,0,1-1.223-1A2.42,2.42,0,0,1,81.5,14.4h1.445a1.5,1.5,0,0,0,.582,1.152,2.258,2.258,0,0,0,1.434.426,2.331,2.331,0,0,0,1.316-.332A1.02,1.02,0,0,0,86.777,14.758Z" transform="translate(849.849 4207.899)" fill="#fff"/>
    <path id="Trazado_603883" data-name="Trazado 603883" d="M28.8,6.852H25.148V17H23.656V6.852H20.008V5.625h8.8ZM34.6,17a3.036,3.036,0,0,1-.2-.891,3.225,3.225,0,0,1-2.406,1.047,2.984,2.984,0,0,1-2.051-.707,2.287,2.287,0,0,1-.8-1.793,2.39,2.39,0,0,1,1-2.051,4.733,4.733,0,0,1,2.824-.73h1.406v-.664A1.623,1.623,0,0,0,33.922,10a1.821,1.821,0,0,0-1.336-.449,2.107,2.107,0,0,0-1.3.391,1.151,1.151,0,0,0-.523.945H29.313a2,2,0,0,1,.449-1.223,3.066,3.066,0,0,1,1.219-.934,4.1,4.1,0,0,1,1.691-.344,3.342,3.342,0,0,1,2.289.73,2.635,2.635,0,0,1,.859,2.012v3.891a4.757,4.757,0,0,0,.3,1.852V17Zm-2.4-1.1a2.54,2.54,0,0,0,1.289-.352,2.127,2.127,0,0,0,.883-.914V12.9H33.242q-2.656,0-2.656,1.555a1.316,1.316,0,0,0,.453,1.063A1.742,1.742,0,0,0,32.2,15.9ZM39.656,17H38.211V5h1.445Zm3.883,0H42.094V5h1.445Zm5.82.156a3.693,3.693,0,0,1-2.8-1.129,4.19,4.19,0,0,1-1.078-3.02v-.266a5.073,5.073,0,0,1,.48-2.246,3.748,3.748,0,0,1,1.344-1.547,3.378,3.378,0,0,1,1.871-.559,3.166,3.166,0,0,1,2.563,1.086,4.7,4.7,0,0,1,.914,3.109v.6H46.93a3,3,0,0,0,.73,2.02,2.3,2.3,0,0,0,1.777.77,2.517,2.517,0,0,0,1.3-.312,3.259,3.259,0,0,0,.93-.828l.883.688A3.55,3.55,0,0,1,49.359,17.156Zm-.18-7.578a1.928,1.928,0,0,0-1.469.637A3.1,3.1,0,0,0,46.977,12h4.234v-.109a2.753,2.753,0,0,0-.594-1.707A1.815,1.815,0,0,0,49.18,9.578Zm9.234.266a4.331,4.331,0,0,0-.711-.055A1.9,1.9,0,0,0,55.773,11v6H54.328V8.547h1.406l.023.977a2.251,2.251,0,0,1,2.016-1.133,1.477,1.477,0,0,1,.641.109Zm4.836,7.313a3.693,3.693,0,0,1-2.8-1.129,4.19,4.19,0,0,1-1.078-3.02v-.266a5.073,5.073,0,0,1,.48-2.246A3.748,3.748,0,0,1,61.2,8.949a3.378,3.378,0,0,1,1.871-.559,3.166,3.166,0,0,1,2.563,1.086,4.7,4.7,0,0,1,.914,3.109v.6H60.82a3,3,0,0,0,.73,2.02,2.3,2.3,0,0,0,1.777.77,2.517,2.517,0,0,0,1.3-.312,3.259,3.259,0,0,0,.93-.828l.883.688A3.55,3.55,0,0,1,63.25,17.156Zm-.18-7.578a1.928,1.928,0,0,0-1.469.637A3.1,3.1,0,0,0,60.867,12H65.1v-.109a2.753,2.753,0,0,0-.594-1.707A1.815,1.815,0,0,0,63.07,9.578Zm10.07,5.18a1.064,1.064,0,0,0-.441-.91,4.249,4.249,0,0,0-1.539-.559,7.277,7.277,0,0,1-1.742-.562,2.479,2.479,0,0,1-.953-.781,1.869,1.869,0,0,1-.309-1.078,2.193,2.193,0,0,1,.879-1.758,3.432,3.432,0,0,1,2.246-.719,3.532,3.532,0,0,1,2.332.742,2.357,2.357,0,0,1,.895,1.9H73.055a1.3,1.3,0,0,0-.5-1.023,1.888,1.888,0,0,0-1.27-.43,1.976,1.976,0,0,0-1.234.344,1.082,1.082,0,0,0-.445.9.877.877,0,0,0,.414.789,5.1,5.1,0,0,0,1.5.508,7.8,7.8,0,0,1,1.754.578,2.558,2.558,0,0,1,1,.809,1.988,1.988,0,0,1,.324,1.152,2.163,2.163,0,0,1-.906,1.816,3.8,3.8,0,0,1-2.352.684,4.257,4.257,0,0,1-1.8-.359,2.922,2.922,0,0,1-1.223-1,2.42,2.42,0,0,1-.441-1.395h1.445a1.5,1.5,0,0,0,.582,1.152,2.258,2.258,0,0,0,1.434.426,2.331,2.331,0,0,0,1.316-.332A1.02,1.02,0,0,0,73.141,14.758Z" transform="translate(854.849 4332.399)" fill="#fff"/>
    <path id="Trazado_603884" data-name="Trazado 603884" d="M15,0H131a15,15,0,0,1,15,15V31a15,15,0,0,1-15,15H15A15,15,0,0,1,0,31V15A15,15,0,0,1,15,0Z" transform="translate(1113.849 4410.899)" fill="#edbd37"/>
    <path id="Trazado_603885" data-name="Trazado 603885" d="M15,0H131a15,15,0,0,1,15,15V31a15,15,0,0,1-15,15H15A15,15,0,0,1,0,31V15A15,15,0,0,1,15,0Z" transform="translate(1186.849 4470.899)" fill="#edbd37"/>
    <path id="Trazado_603886" data-name="Trazado 603886" d="M15,0H131a15,15,0,0,1,15,15V31a15,15,0,0,1-15,15H15A15,15,0,0,1,0,31V15A15,15,0,0,1,15,0Z" transform="translate(1113.849 4530.899)" fill="#edbd37"/>
    <path id="Trazado_603887" data-name="Trazado 603887" d="M16.852,15.008,20.1,5.625h1.641L17.523,17H16.2L11.984,5.625h1.633Zm9.7,2.148a3.693,3.693,0,0,1-2.8-1.129,4.19,4.19,0,0,1-1.078-3.02v-.266a5.073,5.073,0,0,1,.48-2.246A3.748,3.748,0,0,1,24.5,8.949a3.378,3.378,0,0,1,1.871-.559A3.166,3.166,0,0,1,28.93,9.477a4.7,4.7,0,0,1,.914,3.109v.6H24.117a3,3,0,0,0,.73,2.02,2.3,2.3,0,0,0,1.777.77,2.517,2.517,0,0,0,1.3-.312,3.259,3.259,0,0,0,.93-.828l.883.688A3.55,3.55,0,0,1,26.547,17.156Zm-.18-7.578a1.928,1.928,0,0,0-1.469.637A3.1,3.1,0,0,0,24.164,12H28.4v-.109a2.753,2.753,0,0,0-.594-1.707A1.815,1.815,0,0,0,26.367,9.578Zm9.234.266a4.331,4.331,0,0,0-.711-.055A1.9,1.9,0,0,0,32.961,11v6H31.516V8.547h1.406l.023.977a2.251,2.251,0,0,1,2.016-1.133A1.477,1.477,0,0,1,35.6,8.5ZM41.836,17a3.036,3.036,0,0,1-.2-.891,3.225,3.225,0,0,1-2.406,1.047,2.984,2.984,0,0,1-2.051-.707,2.287,2.287,0,0,1-.8-1.793,2.39,2.39,0,0,1,1-2.051,4.733,4.733,0,0,1,2.824-.73h1.406v-.664A1.623,1.623,0,0,0,41.156,10a1.821,1.821,0,0,0-1.336-.449,2.107,2.107,0,0,0-1.3.391,1.151,1.151,0,0,0-.523.945H36.547A2,2,0,0,1,37,9.668a3.066,3.066,0,0,1,1.219-.934,4.1,4.1,0,0,1,1.691-.344,3.342,3.342,0,0,1,2.289.73,2.635,2.635,0,0,1,.859,2.012v3.891a4.757,4.757,0,0,0,.3,1.852V17Zm-2.4-1.1a2.54,2.54,0,0,0,1.289-.352,2.127,2.127,0,0,0,.883-.914V12.9H40.477q-2.656,0-2.656,1.555a1.316,1.316,0,0,0,.453,1.063A1.742,1.742,0,0,0,39.438,15.9Zm9.273.078a2.082,2.082,0,0,0,1.352-.469,1.649,1.649,0,0,0,.641-1.172H52.07a2.621,2.621,0,0,1-.5,1.383,3.293,3.293,0,0,1-1.23,1.047,3.55,3.55,0,0,1-1.629.391A3.482,3.482,0,0,1,45.965,16a4.59,4.59,0,0,1-1.02-3.152v-.242a5.089,5.089,0,0,1,.453-2.2,3.451,3.451,0,0,1,1.3-1.492,3.7,3.7,0,0,1,2-.531,3.39,3.39,0,0,1,2.363.852,3.043,3.043,0,0,1,1,2.211H50.7a1.992,1.992,0,0,0-.621-1.348A1.932,1.932,0,0,0,48.7,9.578,2.023,2.023,0,0,0,47,10.371a3.724,3.724,0,0,0-.605,2.293v.273a3.65,3.65,0,0,0,.6,2.25A2.033,2.033,0,0,0,48.711,15.977ZM55.266,17H53.82V8.547h1.445ZM53.7,6.3a.863.863,0,0,1,.215-.594.807.807,0,0,1,.637-.242.819.819,0,0,1,.641.242.854.854,0,0,1,.219.594.826.826,0,0,1-.219.586.834.834,0,0,1-.641.234.821.821,0,0,1-.637-.234A.834.834,0,0,1,53.7,6.3Zm3.523,6.4a4.952,4.952,0,0,1,.922-3.129,3.137,3.137,0,0,1,4.766-.168V5h1.445V17H63.031l-.07-.906a2.943,2.943,0,0,1-2.414,1.063,2.887,2.887,0,0,1-2.395-1.2,5.008,5.008,0,0,1-.926-3.141Zm1.445.164a3.749,3.749,0,0,0,.594,2.25,1.92,1.92,0,0,0,1.641.813A2.108,2.108,0,0,0,62.914,14.7V10.813a2.125,2.125,0,0,0-1.992-1.2,1.929,1.929,0,0,0-1.656.82A4.128,4.128,0,0,0,58.672,12.867ZM71.82,17a3.036,3.036,0,0,1-.2-.891,3.225,3.225,0,0,1-2.406,1.047,2.984,2.984,0,0,1-2.051-.707,2.288,2.288,0,0,1-.8-1.793,2.39,2.39,0,0,1,1-2.051,4.733,4.733,0,0,1,2.824-.73h1.406v-.664A1.623,1.623,0,0,0,71.141,10,1.821,1.821,0,0,0,69.8,9.555a2.108,2.108,0,0,0-1.3.391,1.151,1.151,0,0,0-.523.945H66.531a2,2,0,0,1,.449-1.223A3.066,3.066,0,0,1,68.2,8.734a4.1,4.1,0,0,1,1.691-.344,3.342,3.342,0,0,1,2.289.73,2.635,2.635,0,0,1,.859,2.012v3.891a4.757,4.757,0,0,0,.3,1.852V17Zm-2.4-1.1a2.54,2.54,0,0,0,1.289-.352,2.127,2.127,0,0,0,.883-.914V12.9H70.461q-2.656,0-2.656,1.555a1.316,1.316,0,0,0,.453,1.063A1.742,1.742,0,0,0,69.422,15.9Zm5.531-3.2a4.952,4.952,0,0,1,.922-3.129,3.137,3.137,0,0,1,4.766-.168V5h1.445V17H80.758l-.07-.906a2.943,2.943,0,0,1-2.414,1.063,2.887,2.887,0,0,1-2.395-1.2,5.008,5.008,0,0,1-.926-3.141Zm1.445.164a3.749,3.749,0,0,0,.594,2.25,1.92,1.92,0,0,0,1.641.813A2.108,2.108,0,0,0,80.641,14.7V10.813a2.125,2.125,0,0,0-1.992-1.2,1.929,1.929,0,0,0-1.656.82A4.128,4.128,0,0,0,76.4,12.867Z" transform="translate(1139.849 4423.399)" fill="#12263f"/>
    <path id="Trazado_603888" data-name="Trazado 603888" d="M30.371,13.391a4.185,4.185,0,0,1-1.332,2.785,4.365,4.365,0,0,1-2.98.98,4.008,4.008,0,0,1-3.23-1.445,5.815,5.815,0,0,1-1.215-3.867V10.75a6.481,6.481,0,0,1,.566-2.789,4.231,4.231,0,0,1,1.605-1.848,4.47,4.47,0,0,1,2.406-.645A4.11,4.11,0,0,1,29.1,6.48a4.235,4.235,0,0,1,1.273,2.8H28.863a3.268,3.268,0,0,0-.848-1.975A2.565,2.565,0,0,0,26.191,6.7a2.684,2.684,0,0,0-2.254,1.063,4.882,4.882,0,0,0-.816,3.026v1.1a5.018,5.018,0,0,0,.773,2.948,2.5,2.5,0,0,0,2.164,1.095,2.886,2.886,0,0,0,1.918-.566,3.143,3.143,0,0,0,.887-1.973ZM37.41,17a3.036,3.036,0,0,1-.2-.891A3.225,3.225,0,0,1,34.8,17.156a2.984,2.984,0,0,1-2.051-.707,2.287,2.287,0,0,1-.8-1.793,2.39,2.39,0,0,1,1-2.051,4.733,4.733,0,0,1,2.824-.73h1.406v-.664A1.623,1.623,0,0,0,36.73,10a1.821,1.821,0,0,0-1.336-.449,2.107,2.107,0,0,0-1.3.391,1.151,1.151,0,0,0-.523.945H32.121a2,2,0,0,1,.449-1.223,3.066,3.066,0,0,1,1.219-.934,4.1,4.1,0,0,1,1.691-.344,3.342,3.342,0,0,1,2.289.73,2.635,2.635,0,0,1,.859,2.012v3.891a4.757,4.757,0,0,0,.3,1.852V17Zm-2.4-1.1a2.54,2.54,0,0,0,1.289-.352,2.127,2.127,0,0,0,.883-.914V12.9H36.051q-2.656,0-2.656,1.555a1.316,1.316,0,0,0,.453,1.063A1.742,1.742,0,0,0,35.012,15.9ZM42.465,17H41.02V5h1.445Zm3.883,0H44.9V8.547h1.445ZM44.785,6.3A.863.863,0,0,1,45,5.711a.807.807,0,0,1,.637-.242.819.819,0,0,1,.641.242A.854.854,0,0,1,46.5,6.3a.826.826,0,0,1-.219.586.834.834,0,0,1-.641.234A.821.821,0,0,1,45,6.891.834.834,0,0,1,44.785,6.3Zm3.523,6.4a4.952,4.952,0,0,1,.922-3.129A3.137,3.137,0,0,1,54,9.406V5h1.445V17H54.113l-.07-.906a2.943,2.943,0,0,1-2.414,1.063,2.887,2.887,0,0,1-2.395-1.2,5.008,5.008,0,0,1-.926-3.141Zm1.445.164a3.749,3.749,0,0,0,.594,2.25,1.92,1.92,0,0,0,1.641.813A2.108,2.108,0,0,0,54,14.7V10.813A2.125,2.125,0,0,0,52,9.617a1.929,1.929,0,0,0-1.656.82A4.128,4.128,0,0,0,49.754,12.867ZM62.9,17a3.036,3.036,0,0,1-.2-.891,3.225,3.225,0,0,1-2.406,1.047,2.984,2.984,0,0,1-2.051-.707,2.287,2.287,0,0,1-.8-1.793,2.39,2.39,0,0,1,1-2.051,4.733,4.733,0,0,1,2.824-.73h1.406v-.664A1.623,1.623,0,0,0,62.223,10a1.821,1.821,0,0,0-1.336-.449,2.107,2.107,0,0,0-1.3.391,1.151,1.151,0,0,0-.523.945H57.613a2,2,0,0,1,.449-1.223,3.066,3.066,0,0,1,1.219-.934,4.1,4.1,0,0,1,1.691-.344,3.342,3.342,0,0,1,2.289.73,2.635,2.635,0,0,1,.859,2.012v3.891a4.757,4.757,0,0,0,.3,1.852V17Zm-2.4-1.1a2.54,2.54,0,0,0,1.289-.352,2.127,2.127,0,0,0,.883-.914V12.9H61.543q-2.656,0-2.656,1.555a1.316,1.316,0,0,0,.453,1.063A1.742,1.742,0,0,0,60.5,15.9Zm5.531-3.2a4.952,4.952,0,0,1,.922-3.129,3.137,3.137,0,0,1,4.766-.168V5h1.445V17H71.84l-.07-.906a2.943,2.943,0,0,1-2.414,1.063,2.887,2.887,0,0,1-2.395-1.2,5.008,5.008,0,0,1-.926-3.141Zm1.445.164a3.749,3.749,0,0,0,.594,2.25,1.92,1.92,0,0,0,1.641.813A2.108,2.108,0,0,0,71.723,14.7V10.813a2.125,2.125,0,0,0-1.992-1.2,1.929,1.929,0,0,0-1.656.82A4.128,4.128,0,0,0,67.48,12.867Z" transform="translate(1212.849 4483.399)" fill="#12263f"/>
    <path id="Trazado_603889" data-name="Trazado 603889" d="M15.219,13.391a4.185,4.185,0,0,1-1.332,2.785,4.365,4.365,0,0,1-2.98.98,4.008,4.008,0,0,1-3.23-1.445,5.815,5.815,0,0,1-1.215-3.867V10.75a6.481,6.481,0,0,1,.566-2.789A4.231,4.231,0,0,1,8.633,6.113a4.47,4.47,0,0,1,2.406-.645A4.11,4.11,0,0,1,13.945,6.48a4.235,4.235,0,0,1,1.273,2.8H13.711a3.268,3.268,0,0,0-.848-1.975A2.565,2.565,0,0,0,11.039,6.7,2.684,2.684,0,0,0,8.785,7.759a4.882,4.882,0,0,0-.816,3.026v1.1a5.018,5.018,0,0,0,.773,2.948,2.5,2.5,0,0,0,2.164,1.095,2.886,2.886,0,0,0,1.918-.566,3.143,3.143,0,0,0,.887-1.973Zm1.438-.7a4.993,4.993,0,0,1,.488-2.234A3.643,3.643,0,0,1,18.5,8.93a3.7,3.7,0,0,1,1.988-.539,3.565,3.565,0,0,1,2.793,1.2,4.6,4.6,0,0,1,1.066,3.18v.1a5.036,5.036,0,0,1-.473,2.215,3.589,3.589,0,0,1-1.352,1.527,3.743,3.743,0,0,1-2.02.547,3.556,3.556,0,0,1-2.785-1.2A4.575,4.575,0,0,1,16.656,12.8Zm1.453.172a3.616,3.616,0,0,0,.652,2.258,2.211,2.211,0,0,0,3.5-.012,3.955,3.955,0,0,0,.648-2.418,3.61,3.61,0,0,0-.66-2.254,2.1,2.1,0,0,0-1.754-.863,2.075,2.075,0,0,0-1.727.852A3.925,3.925,0,0,0,18.109,12.867Zm9.414-4.32.039.938A3.122,3.122,0,0,1,30.07,8.391,2.417,2.417,0,0,1,32.484,9.75a3.2,3.2,0,0,1,1.1-.984,3.242,3.242,0,0,1,1.6-.375q2.781,0,2.828,2.945V17H36.563V11.422a1.941,1.941,0,0,0-.414-1.355,1.823,1.823,0,0,0-1.391-.449,1.917,1.917,0,0,0-1.336.48,1.949,1.949,0,0,0-.617,1.293V17H31.352V11.461a1.613,1.613,0,0,0-1.8-1.844A1.934,1.934,0,0,0,27.6,10.828V17H26.156V8.547Zm19.8,4.32a5.062,5.062,0,0,1-.883,3.109,2.829,2.829,0,0,1-2.391,1.18,3.1,3.1,0,0,1-2.422-.977v4.07H40.188V8.547h1.32l.07.938a2.977,2.977,0,0,1,2.453-1.094,2.882,2.882,0,0,1,2.41,1.148,5.117,5.117,0,0,1,.887,3.2ZM45.883,12.7a3.735,3.735,0,0,0-.609-2.258A1.963,1.963,0,0,0,43.6,9.617a2.125,2.125,0,0,0-1.969,1.164V14.82a2.129,2.129,0,0,0,1.984,1.156,1.954,1.954,0,0,0,1.652-.824A4.077,4.077,0,0,0,45.883,12.7ZM53.25,9.844a4.331,4.331,0,0,0-.711-.055A1.9,1.9,0,0,0,50.609,11v6H49.164V8.547H50.57l.023.977a2.251,2.251,0,0,1,2.016-1.133,1.477,1.477,0,0,1,.641.109Zm.789,2.852a4.993,4.993,0,0,1,.488-2.234A3.643,3.643,0,0,1,55.887,8.93a3.7,3.7,0,0,1,1.988-.539,3.565,3.565,0,0,1,2.793,1.2,4.6,4.6,0,0,1,1.066,3.18v.1a5.036,5.036,0,0,1-.473,2.215,3.589,3.589,0,0,1-1.352,1.527,3.743,3.743,0,0,1-2.02.547,3.556,3.556,0,0,1-2.785-1.2A4.575,4.575,0,0,1,54.039,12.8Zm1.453.172a3.616,3.616,0,0,0,.652,2.258,2.211,2.211,0,0,0,3.5-.012,3.955,3.955,0,0,0,.648-2.418,3.61,3.61,0,0,0-.66-2.254,2.1,2.1,0,0,0-1.754-.863,2.075,2.075,0,0,0-1.727.852A3.925,3.925,0,0,0,55.492,12.867Zm15.211,0a5.026,5.026,0,0,1-.891,3.113,2.846,2.846,0,0,1-2.391,1.176,2.947,2.947,0,0,1-2.477-1.133l-.07.977H63.547V5h1.445V9.477a2.93,2.93,0,0,1,2.414-1.086,2.863,2.863,0,0,1,2.418,1.164,5.177,5.177,0,0,1,.879,3.188ZM69.258,12.7a3.906,3.906,0,0,0-.57-2.281,1.888,1.888,0,0,0-1.641-.8,2.122,2.122,0,0,0-2.055,1.328V14.6a2.181,2.181,0,0,0,2.07,1.328,1.878,1.878,0,0,0,1.617-.8A4.153,4.153,0,0,0,69.258,12.7ZM77.742,17a3.036,3.036,0,0,1-.2-.891,3.225,3.225,0,0,1-2.406,1.047,2.984,2.984,0,0,1-2.051-.707,2.288,2.288,0,0,1-.8-1.793,2.39,2.39,0,0,1,1-2.051,4.733,4.733,0,0,1,2.824-.73h1.406v-.664A1.623,1.623,0,0,0,77.063,10a1.821,1.821,0,0,0-1.336-.449,2.108,2.108,0,0,0-1.3.391,1.151,1.151,0,0,0-.523.945H72.453A2,2,0,0,1,72.9,9.668a3.066,3.066,0,0,1,1.219-.934,4.1,4.1,0,0,1,1.691-.344,3.342,3.342,0,0,1,2.289.73,2.635,2.635,0,0,1,.859,2.012v3.891a4.757,4.757,0,0,0,.3,1.852V17Zm-2.4-1.1a2.54,2.54,0,0,0,1.289-.352,2.127,2.127,0,0,0,.883-.914V12.9H76.383q-2.656,0-2.656,1.555a1.316,1.316,0,0,0,.453,1.063A1.742,1.742,0,0,0,75.344,15.9Zm13.039-3.031a5.026,5.026,0,0,1-.891,3.113A2.846,2.846,0,0,1,85.1,17.156a2.947,2.947,0,0,1-2.477-1.133l-.07.977H81.227V5h1.445V9.477a2.93,2.93,0,0,1,2.414-1.086A2.863,2.863,0,0,1,87.5,9.555a5.177,5.177,0,0,1,.879,3.188ZM86.938,12.7a3.906,3.906,0,0,0-.57-2.281,1.888,1.888,0,0,0-1.641-.8,2.122,2.122,0,0,0-2.055,1.328V14.6a2.181,2.181,0,0,0,2.07,1.328,1.878,1.878,0,0,0,1.617-.8A4.153,4.153,0,0,0,86.938,12.7ZM91.773,17H90.328V5h1.445Zm5.82.156a3.693,3.693,0,0,1-2.8-1.129,4.19,4.19,0,0,1-1.078-3.02v-.266A5.073,5.073,0,0,1,94.2,10.5a3.748,3.748,0,0,1,1.344-1.547,3.378,3.378,0,0,1,1.871-.559,3.166,3.166,0,0,1,2.563,1.086,4.7,4.7,0,0,1,.914,3.109v.6H95.164a3,3,0,0,0,.73,2.02,2.3,2.3,0,0,0,1.777.77,2.517,2.517,0,0,0,1.3-.312,3.259,3.259,0,0,0,.93-.828l.883.688A3.55,3.55,0,0,1,97.594,17.156Zm-.18-7.578a1.928,1.928,0,0,0-1.469.637A3.1,3.1,0,0,0,95.211,12h4.234v-.109a2.753,2.753,0,0,0-.594-1.707A1.815,1.815,0,0,0,97.414,9.578Z" transform="translate(1133.849 4543.399)" fill="#12263f"/>
    <g transform="matrix(1, 0, 0, 1, 180, 4134.95)" filter="url(#Trazado_603890)">
      <path id="Trazado_603890-2" data-name="Trazado 603890" d="M29,0A29,29,0,1,1,0,29,29,29,0,0,1,29,0Z" transform="translate(393.7 269.95)" fill="#fff"/>
    </g>
    <path id="Trazado_603891" data-name="Trazado 603891" d="M16.992,18.027a8.147,8.147,0,0,1-1.553,5.332,5.366,5.366,0,0,1-4.377,1.875,5.4,5.4,0,0,1-4.406-1.887A8.135,8.135,0,0,1,5.1,18.027V14.91A8.147,8.147,0,0,1,6.65,9.578,5.379,5.379,0,0,1,11.039,7.7,5.381,5.381,0,0,1,15.434,9.59a8.155,8.155,0,0,1,1.559,5.332Zm-3.949-3.621a6.085,6.085,0,0,0-.48-2.748,1.606,1.606,0,0,0-1.523-.908,1.568,1.568,0,0,0-1.482.844,5.733,5.733,0,0,0-.5,2.555v4.359a6.131,6.131,0,0,0,.48,2.795,1.612,1.612,0,0,0,1.523.885,1.59,1.59,0,0,0,1.488-.861,5.853,5.853,0,0,0,.492-2.7ZM30.949,25H19.043V22.422l5.484-5.766q2.027-2.309,2.027-3.668a2.551,2.551,0,0,0-.48-1.676,1.715,1.715,0,0,0-1.395-.574,1.737,1.737,0,0,0-1.465.768,3.155,3.155,0,0,0-.562,1.916H18.691a5.6,5.6,0,0,1,.785-2.9,5.506,5.506,0,0,1,2.18-2.08,6.475,6.475,0,0,1,3.117-.75,6.369,6.369,0,0,1,4.26,1.277,4.56,4.56,0,0,1,1.494,3.668,5.326,5.326,0,0,1-.375,1.963,8.608,8.608,0,0,1-1.166,2,29.372,29.372,0,0,1-2.549,2.807l-2.2,2.543h6.715Z" transform="translate(583.849 4418.399)" fill="#12263f"/>
  </g>
</svg>
