<svg xmlns="http://www.w3.org/2000/svg" width="505" height="212.569" viewBox="0 0 505 212.569">
  <g id="Grupo_879864" data-name="Grupo 879864" transform="translate(-285 -3569.706)">
    <path id="Trazado_603931" data-name="Trazado 603931" d="M10,0H495a10,10,0,0,1,10,10V119a10,10,0,0,1-10,10H10A10,10,0,0,1,0,119V10A10,10,0,0,1,10,0Z" transform="translate(285 3630.706)" fill="#ff8596"/>
    <path id="Trazado_603932" data-name="Trazado 603932" d="M47.231,19H44.595V6.2h2.637Zm4.614-9.51.079,1.1a3.32,3.32,0,0,1,2.733-1.274,2.759,2.759,0,0,1,2.25.888,4.142,4.142,0,0,1,.756,2.654V19h-2.54V12.918a1.648,1.648,0,0,0-.352-1.173A1.574,1.574,0,0,0,53.6,11.38,1.747,1.747,0,0,0,52,12.294V19h-2.54V9.49ZM60.283,19V11.354H58.868V9.49h1.415V8.682A3.283,3.283,0,0,1,61.2,6.2a3.557,3.557,0,0,1,2.571-.883,5.938,5.938,0,0,1,1.292.176L65.038,7.46a3.238,3.238,0,0,0-.773-.079q-1.433,0-1.433,1.345V9.49h1.89v1.863h-1.89V19Zm5.361-4.843a5.64,5.64,0,0,1,.545-2.522,3.989,3.989,0,0,1,1.569-1.714,4.577,4.577,0,0,1,2.377-.606,4.33,4.33,0,0,1,3.142,1.178,4.727,4.727,0,0,1,1.358,3.2l.018.65a4.97,4.97,0,0,1-1.222,3.511,4.735,4.735,0,0,1-6.561,0,5.058,5.058,0,0,1-1.226-3.586Zm2.54.18a3.555,3.555,0,0,0,.51,2.073,1.831,1.831,0,0,0,2.9.009,3.89,3.89,0,0,0,.519-2.267,3.519,3.519,0,0,0-.519-2.06,1.686,1.686,0,0,0-1.459-.731,1.658,1.658,0,0,0-1.441.726A3.955,3.955,0,0,0,68.185,14.338Zm13.377-2.465a6.9,6.9,0,0,0-.914-.07,1.86,1.86,0,0,0-1.89.976V19h-2.54V9.49h2.4l.07,1.134a2.354,2.354,0,0,1,2.118-1.31,2.662,2.662,0,0,1,.791.114Zm3.6-2.382.079,1.063a3.342,3.342,0,0,1,2.733-1.239,2.536,2.536,0,0,1,2.522,1.45,3.265,3.265,0,0,1,2.856-1.45,2.836,2.836,0,0,1,2.3.9,4.141,4.141,0,0,1,.756,2.711V19H93.866V12.936a1.811,1.811,0,0,0-.316-1.182,1.4,1.4,0,0,0-1.116-.374,1.585,1.585,0,0,0-1.582,1.09L90.86,19H88.32V12.944a1.789,1.789,0,0,0-.325-1.2,1.416,1.416,0,0,0-1.107-.369,1.646,1.646,0,0,0-1.564.9V19h-2.54V9.49ZM103.877,19a2.821,2.821,0,0,1-.255-.853,3.073,3.073,0,0,1-2.4,1.028,3.376,3.376,0,0,1-2.316-.809,2.6,2.6,0,0,1-.918-2.039,2.687,2.687,0,0,1,1.121-2.32,5.529,5.529,0,0,1,3.239-.817h1.169v-.545a1.567,1.567,0,0,0-.338-1.055,1.331,1.331,0,0,0-1.068-.4,1.513,1.513,0,0,0-1.006.308,1.045,1.045,0,0,0-.365.844H98.2a2.551,2.551,0,0,1,.51-1.529,3.37,3.37,0,0,1,1.441-1.1,5.253,5.253,0,0,1,2.092-.4,4.15,4.15,0,0,1,2.791.883,3.09,3.09,0,0,1,1.033,2.483V16.8a4.546,4.546,0,0,0,.378,2.048V19Zm-2.1-1.767a2.188,2.188,0,0,0,1.037-.25,1.645,1.645,0,0,0,.7-.672V14.676h-.949q-1.907,0-2.03,1.318l-.009.149a1.017,1.017,0,0,0,.334.782A1.3,1.3,0,0,0,101.776,17.233ZM102.743,5.5h2.769l-2.435,2.725h-2.065Zm8.314,1.652V9.49h1.626v1.863h-1.626V16.1a1.133,1.133,0,0,0,.2.756,1.015,1.015,0,0,0,.773.229,4.051,4.051,0,0,0,.747-.062v1.925a5.229,5.229,0,0,1-1.538.229,2.425,2.425,0,0,1-2.725-2.7V11.354h-1.389V9.49h1.389V7.152ZM116.779,19H114.23V9.49h2.549Zm-2.7-11.971a1.251,1.251,0,0,1,.382-.94,1.648,1.648,0,0,1,2.079,0,1.244,1.244,0,0,1,.387.94,1.247,1.247,0,0,1-.391.949,1.629,1.629,0,0,1-2.065,0A1.247,1.247,0,0,1,114.081,7.029Zm8.745,10.1a1.666,1.666,0,0,0,1.143-.387,1.355,1.355,0,0,0,.457-1.028h2.382a3.258,3.258,0,0,1-.527,1.771,3.48,3.48,0,0,1-1.419,1.248,4.442,4.442,0,0,1-1.991.444,4.129,4.129,0,0,1-3.217-1.3,5.13,5.13,0,0,1-1.178-3.582v-.167a5.071,5.071,0,0,1,1.169-3.507,4.08,4.08,0,0,1,3.208-1.31,4,4,0,0,1,2.861,1.015,3.594,3.594,0,0,1,1.094,2.7h-2.382a1.745,1.745,0,0,0-.457-1.206,1.7,1.7,0,0,0-2.5.183,3.749,3.749,0,0,0-.453,2.1v.264a3.8,3.8,0,0,0,.448,2.113A1.549,1.549,0,0,0,122.826,17.128Zm5.036-2.971a5.64,5.64,0,0,1,.545-2.522,3.989,3.989,0,0,1,1.569-1.714,4.577,4.577,0,0,1,2.377-.606,4.33,4.33,0,0,1,3.142,1.178,4.727,4.727,0,0,1,1.358,3.2l.018.65a4.97,4.97,0,0,1-1.222,3.511,4.735,4.735,0,0,1-6.561,0,5.058,5.058,0,0,1-1.226-3.586Zm2.54.18a3.555,3.555,0,0,0,.51,2.073,1.831,1.831,0,0,0,2.9.009,3.89,3.89,0,0,0,.519-2.267,3.519,3.519,0,0,0-.519-2.06,1.686,1.686,0,0,0-1.459-.731,1.658,1.658,0,0,0-1.441.726A3.955,3.955,0,0,0,130.4,14.338Zm13.184,2.035a.818.818,0,0,0-.461-.734,5.241,5.241,0,0,0-1.481-.479q-3.393-.712-3.393-2.883a2.613,2.613,0,0,1,1.05-2.114,4.237,4.237,0,0,1,2.747-.848,4.56,4.56,0,0,1,2.9.853,2.687,2.687,0,0,1,1.085,2.215h-2.54a1.229,1.229,0,0,0-.352-.9,1.488,1.488,0,0,0-1.1-.356,1.52,1.52,0,0,0-.993.29.916.916,0,0,0-.352.738.783.783,0,0,0,.4.681,4.114,4.114,0,0,0,1.349.448,11.019,11.019,0,0,1,1.6.426,2.628,2.628,0,0,1,2.013,2.558,2.481,2.481,0,0,1-1.116,2.1,4.815,4.815,0,0,1-2.883.8,5.029,5.029,0,0,1-2.123-.426,3.561,3.561,0,0,1-1.455-1.169,2.716,2.716,0,0,1-.527-1.6h2.408a1.326,1.326,0,0,0,.5,1.037,1.987,1.987,0,0,0,1.248.36,1.839,1.839,0,0,0,1.1-.277A.861.861,0,0,0,143.586,16.372Z" transform="translate(443 3704.706)" fill="#12263f"/>
    <path id="Trazado_603933" data-name="Trazado 603933" d="M0,0H40V40H0Z" transform="translate(537.5 3725.706) rotate(45)" fill="#ff8596"/>
    <g id="Grupo_878566" data-name="Grupo 878566" transform="translate(482.053 3569.706)">
      <rect id="Rectángulo_297787" data-name="Rectángulo 297787" width="115" height="115" transform="translate(-0.053)" fill="none"/>
      <g id="Grupo_879121" data-name="Grupo 879121" transform="translate(-725.521 381.674)">
        <path id="Trazado_601838" data-name="Trazado 601838" d="M828.789-331.277q.008,19.221.009,38.442c0,4.752-1.977,6.693-6.743,6.7-7.292.011-14.584,0-21.876.011-.77,0-1.539.113-2.309.173a23.154,23.154,0,0,0-6.092-.418c-4.946,0-9.892-.053-14.837.017-3.657.051-7.336-.371-10.967.4-4.74-.405-9.49-.1-14.235-.17-3.476-.051-6.953.017-10.43-.017-4.177-.041-6.257-2.128-6.262-6.345q-.027-26.607,0-53.215c0-4.47,2.025-6.5,6.533-6.5q21.6-.019,43.208.022c-.013.611-.357.876-.936.893-4.662.13-7.683,2.7-9.806,6.6-10.211-.012-20.423.014-30.634-.077-1.606-.014-2.007.409-2,2,.064,13.616.038,27.232.03,40.848,0,.774-.084,1.549-.129,2.323-.288.136-.364.279-.014.435a4.809,4.809,0,0,0,2.5.22q37.438.021,74.875.012c3.719,0,3.707,0,3.721-3.651q.053-13.393.125-26.787l.509-.452A14.784,14.784,0,0,0,828.789-331.277Zm-46.78,36.725c-1.26.056-2.031.653-2.065,1.933a1.8,1.8,0,0,0,1.906,2.048,1.8,1.8,0,0,0,2.047-1.907A1.857,1.857,0,0,0,782.009-294.552Z" transform="translate(0 -11.42)" fill="#434a54"/>
        <path id="Trazado_601839" data-name="Trazado 601839" d="M880.582-342.7a14.784,14.784,0,0,1-5.758,1.455l-.614,0-10.541-.022h-2.4l-11.563.03h-2.158c-3.688-.022-7.377,0-11.064-.078-4.339-.094-7.8-1.751-9.986-5.708-1.638-2.961-1.313-6-.658-9.093,2.123-3.9,5.145-6.469,9.806-6.6.579-.016.924-.281.936-.893,1.627-2.866,3.486-5.471,6.57-7.019a13.212,13.212,0,0,1,17.557,5.054c.734,1.26,1.15,1.774,2.645.923,3.11-1.77,6.023-.5,8.837,1.024,1.758,2.486,3.047,5.093,2.219,8.278-.091.352,0,.8.492.691,2.089-.451,3.825.7,5.706,1.189.426,1.342,1.555,2.3,1.9,3.719C883.173-347,881.966-344.84,880.582-342.7Z" transform="translate(-51.792)" fill="#5fbcfa"/>
        <path id="Trazado_601840" data-name="Trazado 601840" d="M832.8-162.63c1.339.044,2.68.057,4.017.141,2.122.133,3.468,1.441,3.43,3.27a3.157,3.157,0,0,1-3.342,3.129q-10.5.091-21,0a3.167,3.167,0,0,1-3.341-3.129c-.038-1.831,1.307-3.138,3.43-3.271,1.337-.084,2.678-.1,4.018-.141Z" transform="translate(-44.485 -120.194)" fill="#3b4047"/>
        <path id="Trazado_601841" data-name="Trazado 601841" d="M807.624-197.4c3.631-.772,7.31-.35,10.967-.4,4.945-.069,9.891-.019,14.837-.017a23.154,23.154,0,0,1,6.092.418c0,3.658-1.44,5.1-5.119,5.118-1.411.006-2.822,0-4.233,0H816.976c-1.411,0-2.822.009-4.234,0C809.054-192.3,807.621-193.732,807.624-197.4Z" transform="translate(-41.65 -99.974)" fill="#343940"/>
        <path id="Trazado_601842" data-name="Trazado 601842" d="M758.927-164.492a6.462,6.462,0,0,1-6.31-6.429,6.46,6.46,0,0,1,6.557-6.392,6.448,6.448,0,0,1,6.2,6.533A6.453,6.453,0,0,1,758.927-164.492Z" transform="translate(-10.088 -111.767)" fill="#d94758"/>
        <path id="Trazado_601843" data-name="Trazado 601843" d="M829.565-184.761h13.193c-.4,3.137-.038,6.291-.2,9.433H829.767C829.6-178.47,829.965-181.624,829.565-184.761Z" transform="translate(-54.239 -107.496)" fill="#464e57"/>
        <path id="Trazado_601844" data-name="Trazado 601844" d="M925.241-174.1a5.362,5.362,0,0,1-5.277-5.274,5.351,5.351,0,0,1,5.4-5.36,5.347,5.347,0,0,1,5.275,5.271A5.35,5.35,0,0,1,925.241-174.1Z" transform="translate(-106.108 -107.509)" fill="#da4859"/>
        <path id="Trazado_601845" data-name="Trazado 601845" d="M943.724-342.039c-1.881-.486-3.617-1.64-5.706-1.189-.49.106-.583-.34-.492-.691.827-3.184-.461-5.792-2.219-8.278,1.062.012,2.131-.046,3.187.049a5.308,5.308,0,0,1,5.159,5.217C943.775-345.307,943.707-343.67,943.724-342.039Z" transform="translate(-114.911 -11.421)" fill="#434a54"/>
        <path id="Trazado_601846" data-name="Trazado 601846" d="M740.941-180.781c-.308,1.034-.721,1.8-1.781,1.661a1.552,1.552,0,0,1-1.472-1.748,1.479,1.479,0,0,1,1.585-1.4C740.241-182.276,740.648-181.466,740.941-180.781Z" transform="translate(-1.52 -108.924)" fill="#a7bbca"/>
        <path id="Trazado_601847" data-name="Trazado 601847" d="M899.108-177.413a1.755,1.755,0,0,1,1.635,1.6,1.465,1.465,0,0,1-1.372,1.61,1.551,1.551,0,0,1-1.781-1.432C897.425-176.7,898.2-177.1,899.108-177.413Z" transform="translate(-93.257 -111.712)" fill="#a7bbca"/>
        <path id="Trazado_601848" data-name="Trazado 601848" d="M799.175-174.722a1.554,1.554,0,0,1,1.648,1.623,1.541,1.541,0,0,1-1.464,1.553,1.474,1.474,0,0,1-1.7-1.49A1.623,1.623,0,0,1,799.175-174.722Z" transform="translate(-35.933 -113.256)" fill="#a7bbca"/>
        <path id="Trazado_601849" data-name="Trazado 601849" d="M950.784-155.686c-.277.927-.693,1.693-1.751,1.555a1.552,1.552,0,0,1-1.471-1.75,1.469,1.469,0,0,1,1.584-1.4A1.753,1.753,0,0,1,950.784-155.686Z" transform="translate(-121.941 -123.262)" fill="#a7bbca"/>
        <path id="Trazado_601850" data-name="Trazado 601850" d="M782.475-334.674c-.655,3.094-.98,6.133.658,9.093,2.19,3.957,5.648,5.614,9.986,5.708,3.687.08,7.376.056,11.064.078,0,1.77-.1,3.547.034,5.307.125,1.652-.543,2.012-2.078,2-7.149-.059-14.3-.007-21.449.005-.076-.119-.157-.235-.226-.357-1.241-2.188-3.014-3.1-5.005-2.576a4.3,4.3,0,0,0-3.2,4.022,4.309,4.309,0,0,0,3.2,4.236c1.988.526,3.765-.39,5.005-2.577.069-.122.15-.238.226-.357,7.764.012,15.528.007,23.292.05,1.655.009,2.47-.528,2.384-2.343-.116-2.465-.026-4.94-.025-7.41l11.563-.03c-.008,4.875-.108,9.752.021,14.623.052,1.953-.523,2.5-2.475,2.475-6.919-.079-13.841.038-20.762.08-.237-.428-.45-.873-.717-1.283a4.3,4.3,0,0,0-5.561-1.549,4.283,4.283,0,0,0-1.978,5.429,4.3,4.3,0,0,0,5.065,2.424c1.7-.412,2.459-1.75,3.189-3.133,7.928.041,15.857.067,23.785.136,1.788.016,1.859-1.144,1.858-2.419q-.008-8.392-.024-16.783l10.542.021.1.448q-.063,13.393-.125,26.787c-.014,3.651,0,3.651-3.721,3.651q-37.438,0-74.875-.011a4.809,4.809,0,0,1-2.5-.22l.014-.435c.045-.774.128-1.549.129-2.323.008-13.616.033-27.232-.03-40.848-.007-1.586.394-2.01,2-2C762.052-334.659,772.264-334.686,782.475-334.674Zm-16.6,15.8a54.349,54.349,0,0,1-9.4-.016c-.177-.36-.292-.26-.379.05a1.17,1.17,0,0,1-.036.283l-.583.419a.551.551,0,0,0,0,.922l.581.416a1.133,1.133,0,0,1,.036.283c.087.31.2.411.378.05a54.532,54.532,0,0,1,9.405-.017l.2.27.24-.436a1.289,1.289,0,0,0,0-2.057l-.24-.435Zm-9.783-8.293c.087.31.2.41.378.05a54.574,54.574,0,0,1,9.405-.018l.2.27.24-.436a1.289,1.289,0,0,0,0-2.057l-.24-.435-.2.269a54.392,54.392,0,0,1-9.4-.016c-.177-.36-.292-.26-.379.05a1.17,1.17,0,0,1-.036.283l-.583.419a.551.551,0,0,0,0,.922l.581.416A1.132,1.132,0,0,1,756.094-327.164Zm4.875,5.228h4.461c.7,0,1.325-.194,1.38-.991s-.5-1.123-1.228-1.125q-4.567-.014-9.134,0a1.038,1.038,0,0,0-1.174.977c-.042.794.516,1.119,1.235,1.13C757.995-321.924,759.482-321.939,760.969-321.937Z" transform="translate(-8.431 -21.435)" fill="#e7edfc"/>
        <path id="Trazado_601851" data-name="Trazado 601851" d="M842.465-216.941a1.857,1.857,0,0,1,1.889,2.074,1.8,1.8,0,0,1-2.047,1.907,1.8,1.8,0,0,1-1.907-2.048C840.434-216.288,841.205-216.885,842.465-216.941Z" transform="translate(-60.456 -89.032)" fill="#d94758"/>
        <path id="Trazado_601852" data-name="Trazado 601852" d="M940.155-299.239l-.1-.448.613,0Z" transform="translate(-117.633 -41.552)" fill="#313942"/>
        <path id="Trazado_601853" data-name="Trazado 601853" d="M749.428-228.781l-.014.435C749.064-228.5,749.14-228.645,749.428-228.781Z" transform="translate(-8.117 -82.238)" fill="#313942"/>
        <path id="Trazado_601854" data-name="Trazado 601854" d="M855.211-282.552c6.921-.042,13.843-.159,20.762-.08,1.952.022,2.527-.523,2.475-2.476-.129-4.871-.029-9.749-.021-14.623h2.4q.012,8.392.023,16.783c0,1.275-.07,2.435-1.858,2.419-7.928-.069-15.857-.1-23.785-.136Q855.211-281.608,855.211-282.552Z" transform="translate(-68.954 -41.529)" fill="#a4b8c8"/>
        <path id="Trazado_601855" data-name="Trazado 601855" d="M848.02-299.661c0,2.47-.092,4.945.025,7.41.086,1.815-.729,2.352-2.384,2.343-7.764-.043-15.528-.038-23.292-.05q0-1.2,0-2.392c7.15-.012,14.3-.064,21.449-.005,1.534.013,2.2-.347,2.078-2-.133-1.76-.032-3.537-.034-5.307Z" transform="translate(-50.11 -41.569)" fill="#a7bbca"/>
        <path id="Trazado_601856" data-name="Trazado 601856" d="M843.671-263.856q0,.944,0,1.888c-.73,1.383-1.486,2.721-3.189,3.133a4.3,4.3,0,0,1-5.065-2.424,4.283,4.283,0,0,1,1.978-5.429,4.3,4.3,0,0,1,5.561,1.549C843.221-264.729,843.434-264.284,843.671-263.856Z" transform="translate(-57.414 -60.225)" fill="#3357c1"/>
        <path id="Trazado_601857" data-name="Trazado 601857" d="M811.016-286.651v2.392c-.076.118-.157.234-.226.357-1.24,2.187-3.017,3.1-5.005,2.577a4.309,4.309,0,0,1-3.2-4.236,4.3,4.3,0,0,1,3.2-4.022c1.991-.526,3.764.388,5.005,2.576C810.859-286.886,810.94-286.77,811.016-286.651Z" transform="translate(-38.756 -47.268)" fill="#3659c1"/>
        <path id="Trazado_601858" data-name="Trazado 601858" d="M768.429-307.547c-1.487,0-2.974.014-4.46-.007-.719-.011-1.277-.335-1.235-1.13a1.038,1.038,0,0,1,1.174-.977q4.567-.016,9.134,0c.731,0,1.283.329,1.228,1.125s-.679.992-1.38.991Z" transform="translate(-15.892 -35.826)" fill="#3659c1"/>
        <path id="Trazado_601859" data-name="Trazado 601859" d="M773.278-320.114a54.571,54.571,0,0,0-9.405.017.467.467,0,0,0-.378-.05,1.135,1.135,0,0,0-.036-.283l-.581-.416a.551.551,0,0,1,0-.922l.583-.419a1.173,1.173,0,0,0,.036-.283l.195.015.185-.066a54.393,54.393,0,0,0,9.4.016l.436.166a1.289,1.289,0,0,1,0,2.057Z" transform="translate(-15.832 -28.453)" fill="#3659c1"/>
        <path id="Trazado_601860" data-name="Trazado 601860" d="M763.494-295.161a1.135,1.135,0,0,0-.036-.283l-.581-.416a.551.551,0,0,1,0-.922l.583-.419a1.173,1.173,0,0,0,.036-.283l.195.015.185-.065a54.35,54.35,0,0,0,9.4.016l.436.166a1.289,1.289,0,0,1,0,2.057l-.436.166a54.531,54.531,0,0,0-9.405.017A.467.467,0,0,0,763.494-295.161Z" transform="translate(-15.832 -42.79)" fill="#3659c1"/>
        <path id="Trazado_601861" data-name="Trazado 601861" d="M787.616-317.1l.436-.166-.24.436Z" transform="translate(-30.17 -31.468)" fill="#f7f9fa"/>
        <path id="Trazado_601862" data-name="Trazado 601862" d="M788.051-322.678l-.436-.166.2-.269Z" transform="translate(-30.169 -28.113)" fill="#f7f9fa"/>
        <path id="Trazado_601863" data-name="Trazado 601863" d="M787.616-292.114l.436-.166-.24.436Z" transform="translate(-30.17 -45.804)" fill="#f7f9fa"/>
        <path id="Trazado_601864" data-name="Trazado 601864" d="M788.051-297.692l-.436-.166.2-.269Z" transform="translate(-30.169 -42.449)" fill="#f7f9fa"/>
        <path id="Trazado_601865" data-name="Trazado 601865" d="M764.662-291.993a.467.467,0,0,1,.379.05C764.865-291.582,764.749-291.683,764.662-291.993Z" transform="translate(-16.999 -45.958)" fill="#f7f9fa"/>
        <path id="Trazado_601866" data-name="Trazado 601866" d="M764.662-316.978a.467.467,0,0,1,.379.05C764.865-316.568,764.749-316.668,764.662-316.978Z" transform="translate(-16.999 -31.622)" fill="#f7f9fa"/>
        <path id="Trazado_601867" data-name="Trazado 601867" d="M763.216-318.592l.581.416Z" transform="translate(-16.17 -30.707)" fill="#2349ba"/>
        <path id="Trazado_601868" data-name="Trazado 601868" d="M763.792-321.738l-.583.419Z" transform="translate(-16.166 -28.902)" fill="#2349ba"/>
        <path id="Trazado_601869" data-name="Trazado 601869" d="M765.04-297.842l-.185.065-.195-.015C764.749-298.1,764.864-298.2,765.04-297.842Z" transform="translate(-16.999 -42.481)" fill="#f7f9fa"/>
        <path id="Trazado_601870" data-name="Trazado 601870" d="M765.04-322.828l-.185.066-.195-.015C764.749-323.088,764.864-323.187,765.04-322.828Z" transform="translate(-16.999 -28.145)" fill="#f7f9fa"/>
        <path id="Trazado_601871" data-name="Trazado 601871" d="M763.792-296.753l-.583.419Z" transform="translate(-16.166 -43.237)" fill="#2349ba"/>
        <path id="Trazado_601872" data-name="Trazado 601872" d="M763.216-293.607l.581.416Z" transform="translate(-16.17 -45.042)" fill="#2349ba"/>
      </g>
    </g>
  </g>
</svg>
