<svg xmlns="http://www.w3.org/2000/svg" width="715" height="402" viewBox="0 0 715 402">
  <g id="Grupo_879863" data-name="Grupo 879863" transform="translate(-729 2438)">
    <path id="Trazado_603897" data-name="Trazado 603897" d="M17,0H698a17,17,0,0,1,17,17V385a17,17,0,0,1-17,17H17A17,17,0,0,1,0,385V17A17,17,0,0,1,17,0Z" transform="translate(729 -2438)" fill="#fff"/>
    <path id="Trazado_603898" data-name="Trazado 603898" d="M19,0H696a19,19,0,0,1,19,19V383a19,19,0,0,1-19,19H19A19,19,0,0,1,0,383V19A19,19,0,0,1,19,0Z" transform="translate(729 -2438)" fill="#f8f8f8"/>
    <path id="Trazado_603899" data-name="Trazado 603899" d="M0,0V188.937" transform="translate(1206.298 -2393.5)" fill="none" stroke="#f1cc69" stroke-width="2"/>
    <path id="Trazado_603900" data-name="Trazado 603900" d="M0,0V188.937" transform="translate(963.74 -2300.445)" fill="none" stroke="#f1cc69" stroke-width="2"/>
    <path id="Trazado_603901" data-name="Trazado 603901" d="M0,0V60.563" transform="translate(1206.298 -2141.063)" fill="none" stroke="#f1cc69" stroke-width="2"/>
    <path id="Trazado_603902" data-name="Trazado 603902" d="M51.991,0H0" transform="translate(1206.298 -2393.5)" fill="none" stroke="#f1cc69" stroke-width="2"/>
    <path id="Trazado_603903" data-name="Trazado 603903" d="M51.991,0H0" transform="translate(1206.298 -2204.96)" fill="none" stroke="#f1cc69" stroke-width="2"/>
    <path id="Trazado_603904" data-name="Trazado 603904" d="M51.991,0H0" transform="translate(1206.298 -2141.063)" fill="none" stroke="#f1cc69" stroke-width="2"/>
    <path id="Trazado_603905" data-name="Trazado 603905" d="M51.991,0H0" transform="translate(1206.298 -2080.27)" fill="none" stroke="#f1cc69" stroke-width="2"/>
    <path id="Trazado_603906" data-name="Trazado 603906" d="M51.991,0H0" transform="translate(1206.298 -2268.857)" fill="none" stroke="#f1cc69" stroke-width="2"/>
    <path id="Trazado_603907" data-name="Trazado 603907" d="M49.2,0H0" transform="translate(1156.269 -2300)" fill="none" stroke="#f1cc69" stroke-width="2"/>
    <path id="Trazado_603908" data-name="Trazado 603908" d="M49.2,0H0" transform="translate(914.54 -2200.167)" fill="none" stroke="#f1cc69" stroke-width="2"/>
    <path id="Trazado_603909" data-name="Trazado 603909" d="M49.2,0H0" transform="translate(963.74 -2300)" fill="none" stroke="#f1cc69" stroke-width="2"/>
    <path id="Trazado_603910" data-name="Trazado 603910" d="M49.2,0H0" transform="translate(1156.269 -2110.781)" fill="none" stroke="#f1cc69" stroke-width="2"/>
    <path id="Trazado_603911" data-name="Trazado 603911" d="M49.2,0H0" transform="translate(963.74 -2110.781)" fill="none" stroke="#f1cc69" stroke-width="2"/>
    <path id="Trazado_603912" data-name="Trazado 603912" d="M51.991,0H0" transform="translate(1206.298 -2329.65)" fill="none" stroke="#f1cc69" stroke-width="2"/>
    <g id="Trazado_603913" data-name="Trazado 603913" transform="translate(1258.29 -2353.753)" fill="#fff9e6">
      <path d="M 136.4617614746094 45.37983703613281 L 8.000000953674316 45.37983703613281 C 4.140180587768555 45.37983703613281 1.000000715255737 42.23965835571289 1.000000715255737 38.37983703613281 L 1.000000715255737 7.999996662139893 C 1.000000715255737 4.140176773071289 4.140180587768555 0.9999966025352478 8.000000953674316 0.9999966025352478 L 136.4617614746094 0.9999966025352478 C 140.3215789794922 0.9999966025352478 143.4617614746094 4.140176773071289 143.4617614746094 7.999996662139893 L 143.4617614746094 38.37983703613281 C 143.4617614746094 42.23965835571289 140.3215789794922 45.37983703613281 136.4617614746094 45.37983703613281 Z" stroke="none"/>
      <path d="M 8 1.999996185302734 C 4.691574096679688 1.999996185302734 2 4.691577911376953 2 7.999996185302734 L 2 38.37983703613281 C 2 41.68825531005859 4.691574096679688 44.37983703613281 8 44.37983703613281 L 136.4617614746094 44.37983703613281 C 139.7701873779297 44.37983703613281 142.4617614746094 41.68825531005859 142.4617614746094 38.37983703613281 L 142.4617614746094 7.999996185302734 C 142.4617614746094 4.691577911376953 139.7701873779297 1.999996185302734 136.4617614746094 1.999996185302734 L 8 1.999996185302734 M 8 -3.814697265625e-06 L 136.4617614746094 -3.814697265625e-06 C 140.8800354003906 -3.814697265625e-06 144.4617614746094 3.581718444824219 144.4617614746094 7.999996185302734 L 144.4617614746094 38.37983703613281 C 144.4617614746094 42.79811859130859 140.8800354003906 46.37983703613281 136.4617614746094 46.37983703613281 L 8 46.37983703613281 C 3.58172607421875 46.37983703613281 0 42.79811859130859 0 38.37983703613281 L 0 7.999996185302734 C 0 3.581718444824219 3.58172607421875 -3.814697265625e-06 8 -3.814697265625e-06 Z" stroke="none" fill="#f1cc69"/>
    </g>
    <g id="Trazado_603914" data-name="Trazado 603914" transform="translate(1258.29 -2416.753)" fill="#fff9e6">
      <path d="M 136.4617614746094 45.37983703613281 L 8.000000953674316 45.37983703613281 C 4.140180587768555 45.37983703613281 1.000000715255737 42.23965835571289 1.000000715255737 38.37983703613281 L 1.000000715255737 7.999996662139893 C 1.000000715255737 4.140176773071289 4.140180587768555 0.9999966025352478 8.000000953674316 0.9999966025352478 L 136.4617614746094 0.9999966025352478 C 140.3215789794922 0.9999966025352478 143.4617614746094 4.140176773071289 143.4617614746094 7.999996662139893 L 143.4617614746094 38.37983703613281 C 143.4617614746094 42.23965835571289 140.3215789794922 45.37983703613281 136.4617614746094 45.37983703613281 Z" stroke="none"/>
      <path d="M 8 1.999996185302734 C 4.691574096679688 1.999996185302734 2 4.691577911376953 2 7.999996185302734 L 2 38.37983703613281 C 2 41.68825531005859 4.691574096679688 44.37983703613281 8 44.37983703613281 L 136.4617614746094 44.37983703613281 C 139.7701873779297 44.37983703613281 142.4617614746094 41.68825531005859 142.4617614746094 38.37983703613281 L 142.4617614746094 7.999996185302734 C 142.4617614746094 4.691577911376953 139.7701873779297 1.999996185302734 136.4617614746094 1.999996185302734 L 8 1.999996185302734 M 8 -3.814697265625e-06 L 136.4617614746094 -3.814697265625e-06 C 140.8800354003906 -3.814697265625e-06 144.4617614746094 3.581718444824219 144.4617614746094 7.999996185302734 L 144.4617614746094 38.37983703613281 C 144.4617614746094 42.79811859130859 140.8800354003906 46.37983703613281 136.4617614746094 46.37983703613281 L 8 46.37983703613281 C 3.58172607421875 46.37983703613281 0 42.79811859130859 0 38.37983703613281 L 0 7.999996185302734 C 0 3.581718444824219 3.58172607421875 -3.814697265625e-06 8 -3.814697265625e-06 Z" stroke="none" fill="#f1cc69"/>
    </g>
    <g id="Trazado_603915" data-name="Trazado 603915" transform="translate(1258.29 -2165.15)" fill="#fff9e6">
      <path d="M 136.4617614746094 45.37983703613281 L 8.000000953674316 45.37983703613281 C 4.140180587768555 45.37983703613281 1.000000715255737 42.23965835571289 1.000000715255737 38.37983703613281 L 1.000000715255737 7.999996662139893 C 1.000000715255737 4.140176773071289 4.140180587768555 0.9999966025352478 8.000000953674316 0.9999966025352478 L 136.4617614746094 0.9999966025352478 C 140.3215789794922 0.9999966025352478 143.4617614746094 4.140176773071289 143.4617614746094 7.999996662139893 L 143.4617614746094 38.37983703613281 C 143.4617614746094 42.23965835571289 140.3215789794922 45.37983703613281 136.4617614746094 45.37983703613281 Z" stroke="none"/>
      <path d="M 8 1.999996185302734 C 4.691574096679688 1.999996185302734 2 4.691577911376953 2 7.999996185302734 L 2 38.37983703613281 C 2 41.68825531005859 4.691574096679688 44.37983703613281 8 44.37983703613281 L 136.4617614746094 44.37983703613281 C 139.7701873779297 44.37983703613281 142.4617614746094 41.68825531005859 142.4617614746094 38.37983703613281 L 142.4617614746094 7.999996185302734 C 142.4617614746094 4.691577911376953 139.7701873779297 1.999996185302734 136.4617614746094 1.999996185302734 L 8 1.999996185302734 M 8 -3.814697265625e-06 L 136.4617614746094 -3.814697265625e-06 C 140.8800354003906 -3.814697265625e-06 144.4617614746094 3.581718444824219 144.4617614746094 7.999996185302734 L 144.4617614746094 38.37983703613281 C 144.4617614746094 42.79811859130859 140.8800354003906 46.37983703613281 136.4617614746094 46.37983703613281 L 8 46.37983703613281 C 3.58172607421875 46.37983703613281 0 42.79811859130859 0 38.37983703613281 L 0 7.999996185302734 C 0 3.581718444824219 3.58172607421875 -3.814697265625e-06 8 -3.814697265625e-06 Z" stroke="none" fill="#f1cc69"/>
    </g>
    <g id="Trazado_603916" data-name="Trazado 603916" transform="translate(1258.29 -2227.753)" fill="#fff9e6">
      <path d="M 136.4617614746094 45.37983703613281 L 8.000000953674316 45.37983703613281 C 4.140180587768555 45.37983703613281 1.000000715255737 42.23965835571289 1.000000715255737 38.37983703613281 L 1.000000715255737 7.999996662139893 C 1.000000715255737 4.140176773071289 4.140180587768555 0.9999966025352478 8.000000953674316 0.9999966025352478 L 136.4617614746094 0.9999966025352478 C 140.3215789794922 0.9999966025352478 143.4617614746094 4.140176773071289 143.4617614746094 7.999996662139893 L 143.4617614746094 38.37983703613281 C 143.4617614746094 42.23965835571289 140.3215789794922 45.37983703613281 136.4617614746094 45.37983703613281 Z" stroke="none"/>
      <path d="M 8 1.999996185302734 C 4.691574096679688 1.999996185302734 2 4.691577911376953 2 7.999996185302734 L 2 38.37983703613281 C 2 41.68825531005859 4.691574096679688 44.37983703613281 8 44.37983703613281 L 136.4617614746094 44.37983703613281 C 139.7701873779297 44.37983703613281 142.4617614746094 41.68825531005859 142.4617614746094 38.37983703613281 L 142.4617614746094 7.999996185302734 C 142.4617614746094 4.691577911376953 139.7701873779297 1.999996185302734 136.4617614746094 1.999996185302734 L 8 1.999996185302734 M 8 -3.814697265625e-06 L 136.4617614746094 -3.814697265625e-06 C 140.8800354003906 -3.814697265625e-06 144.4617614746094 3.581718444824219 144.4617614746094 7.999996185302734 L 144.4617614746094 38.37983703613281 C 144.4617614746094 42.79811859130859 140.8800354003906 46.37983703613281 136.4617614746094 46.37983703613281 L 8 46.37983703613281 C 3.58172607421875 46.37983703613281 0 42.79811859130859 0 38.37983703613281 L 0 7.999996185302734 C 0 3.581718444824219 3.58172607421875 -3.814697265625e-06 8 -3.814697265625e-06 Z" stroke="none" fill="#f1cc69"/>
    </g>
    <g id="Trazado_603917" data-name="Trazado 603917" transform="translate(1013.769 -2323.19)" fill="#fff9e6">
      <path d="M 136.4617614746094 45.37983703613281 L 8.000000953674316 45.37983703613281 C 4.140180587768555 45.37983703613281 1.000000715255737 42.23965835571289 1.000000715255737 38.37983703613281 L 1.000000715255737 7.999996662139893 C 1.000000715255737 4.140176773071289 4.140180587768555 0.9999966025352478 8.000000953674316 0.9999966025352478 L 136.4617614746094 0.9999966025352478 C 140.3215789794922 0.9999966025352478 143.4617614746094 4.140176773071289 143.4617614746094 7.999996662139893 L 143.4617614746094 38.37983703613281 C 143.4617614746094 42.23965835571289 140.3215789794922 45.37983703613281 136.4617614746094 45.37983703613281 Z" stroke="none"/>
      <path d="M 8 1.999996185302734 C 4.691574096679688 1.999996185302734 2 4.691577911376953 2 7.999996185302734 L 2 38.37983703613281 C 2 41.68825531005859 4.691574096679688 44.37983703613281 8 44.37983703613281 L 136.4617614746094 44.37983703613281 C 139.7701873779297 44.37983703613281 142.4617614746094 41.68825531005859 142.4617614746094 38.37983703613281 L 142.4617614746094 7.999996185302734 C 142.4617614746094 4.691577911376953 139.7701873779297 1.999996185302734 136.4617614746094 1.999996185302734 L 8 1.999996185302734 M 8 -3.814697265625e-06 L 136.4617614746094 -3.814697265625e-06 C 140.8800354003906 -3.814697265625e-06 144.4617614746094 3.581718444824219 144.4617614746094 7.999996185302734 L 144.4617614746094 38.37983703613281 C 144.4617614746094 42.79811859130859 140.8800354003906 46.37983703613281 136.4617614746094 46.37983703613281 L 8 46.37983703613281 C 3.58172607421875 46.37983703613281 0 42.79811859130859 0 38.37983703613281 L 0 7.999996185302734 C 0 3.581718444824219 3.58172607421875 -3.814697265625e-06 8 -3.814697265625e-06 Z" stroke="none" fill="#f1cc69"/>
    </g>
    <g id="Trazado_603918" data-name="Trazado 603918" transform="translate(770.249 -2223.357)" fill="#fff9e6">
      <path d="M 136.4617614746094 45.37983703613281 L 8.000000953674316 45.37983703613281 C 4.140180587768555 45.37983703613281 1.000000715255737 42.23965835571289 1.000000715255737 38.37983703613281 L 1.000000715255737 7.999996662139893 C 1.000000715255737 4.140176773071289 4.140180587768555 0.9999966025352478 8.000000953674316 0.9999966025352478 L 136.4617614746094 0.9999966025352478 C 140.3215789794922 0.9999966025352478 143.4617614746094 4.140176773071289 143.4617614746094 7.999996662139893 L 143.4617614746094 38.37983703613281 C 143.4617614746094 42.23965835571289 140.3215789794922 45.37983703613281 136.4617614746094 45.37983703613281 Z" stroke="none"/>
      <path d="M 8 1.999996185302734 C 4.691574096679688 1.999996185302734 2 4.691577911376953 2 7.999996185302734 L 2 38.37983703613281 C 2 41.68825531005859 4.691574096679688 44.37983703613281 8 44.37983703613281 L 136.4617614746094 44.37983703613281 C 139.7701873779297 44.37983703613281 142.4617614746094 41.68825531005859 142.4617614746094 38.37983703613281 L 142.4617614746094 7.999996185302734 C 142.4617614746094 4.691577911376953 139.7701873779297 1.999996185302734 136.4617614746094 1.999996185302734 L 8 1.999996185302734 M 8 -3.814697265625e-06 L 136.4617614746094 -3.814697265625e-06 C 140.8800354003906 -3.814697265625e-06 144.4617614746094 3.581718444824219 144.4617614746094 7.999996185302734 L 144.4617614746094 38.37983703613281 C 144.4617614746094 42.79811859130859 140.8800354003906 46.37983703613281 136.4617614746094 46.37983703613281 L 8 46.37983703613281 C 3.58172607421875 46.37983703613281 0 42.79811859130859 0 38.37983703613281 L 0 7.999996185302734 C 0 3.581718444824219 3.58172607421875 -3.814697265625e-06 8 -3.814697265625e-06 Z" stroke="none" fill="#f1cc69"/>
    </g>
    <g id="Trazado_603919" data-name="Trazado 603919" transform="translate(1013.769 -2133.971)" fill="#fff9e6">
      <path d="M 136.4617614746094 45.37983703613281 L 8.000000953674316 45.37983703613281 C 4.140180587768555 45.37983703613281 1.000000715255737 42.23965835571289 1.000000715255737 38.37983703613281 L 1.000000715255737 7.999996662139893 C 1.000000715255737 4.140176773071289 4.140180587768555 0.9999966025352478 8.000000953674316 0.9999966025352478 L 136.4617614746094 0.9999966025352478 C 140.3215789794922 0.9999966025352478 143.4617614746094 4.140176773071289 143.4617614746094 7.999996662139893 L 143.4617614746094 38.37983703613281 C 143.4617614746094 42.23965835571289 140.3215789794922 45.37983703613281 136.4617614746094 45.37983703613281 Z" stroke="none"/>
      <path d="M 8 1.999996185302734 C 4.691574096679688 1.999996185302734 2 4.691577911376953 2 7.999996185302734 L 2 38.37983703613281 C 2 41.68825531005859 4.691574096679688 44.37983703613281 8 44.37983703613281 L 136.4617614746094 44.37983703613281 C 139.7701873779297 44.37983703613281 142.4617614746094 41.68825531005859 142.4617614746094 38.37983703613281 L 142.4617614746094 7.999996185302734 C 142.4617614746094 4.691577911376953 139.7701873779297 1.999996185302734 136.4617614746094 1.999996185302734 L 8 1.999996185302734 M 8 -3.814697265625e-06 L 136.4617614746094 -3.814697265625e-06 C 140.8800354003906 -3.814697265625e-06 144.4617614746094 3.581718444824219 144.4617614746094 7.999996185302734 L 144.4617614746094 38.37983703613281 C 144.4617614746094 42.79811859130859 140.8800354003906 46.37983703613281 136.4617614746094 46.37983703613281 L 8 46.37983703613281 C 3.58172607421875 46.37983703613281 0 42.79811859130859 0 38.37983703613281 L 0 7.999996185302734 C 0 3.581718444824219 3.58172607421875 -3.814697265625e-06 8 -3.814697265625e-06 Z" stroke="none" fill="#f1cc69"/>
    </g>
    <g id="Trazado_603920" data-name="Trazado 603920" transform="translate(1258.29 -2290.753)" fill="#fff9e6">
      <path d="M 136.4617614746094 45.37983703613281 L 8.000000953674316 45.37983703613281 C 4.140180587768555 45.37983703613281 1.000000715255737 42.23965835571289 1.000000715255737 38.37983703613281 L 1.000000715255737 7.999996662139893 C 1.000000715255737 4.140176773071289 4.140180587768555 0.9999966025352478 8.000000953674316 0.9999966025352478 L 136.4617614746094 0.9999966025352478 C 140.3215789794922 0.9999966025352478 143.4617614746094 4.140176773071289 143.4617614746094 7.999996662139893 L 143.4617614746094 38.37983703613281 C 143.4617614746094 42.23965835571289 140.3215789794922 45.37983703613281 136.4617614746094 45.37983703613281 Z" stroke="none"/>
      <path d="M 8 1.999996185302734 C 4.691574096679688 1.999996185302734 2 4.691577911376953 2 7.999996185302734 L 2 38.37983703613281 C 2 41.68825531005859 4.691574096679688 44.37983703613281 8 44.37983703613281 L 136.4617614746094 44.37983703613281 C 139.7701873779297 44.37983703613281 142.4617614746094 41.68825531005859 142.4617614746094 38.37983703613281 L 142.4617614746094 7.999996185302734 C 142.4617614746094 4.691577911376953 139.7701873779297 1.999996185302734 136.4617614746094 1.999996185302734 L 8 1.999996185302734 M 8 -3.814697265625e-06 L 136.4617614746094 -3.814697265625e-06 C 140.8800354003906 -3.814697265625e-06 144.4617614746094 3.581718444824219 144.4617614746094 7.999996185302734 L 144.4617614746094 38.37983703613281 C 144.4617614746094 42.79811859130859 140.8800354003906 46.37983703613281 136.4617614746094 46.37983703613281 L 8 46.37983703613281 C 3.58172607421875 46.37983703613281 0 42.79811859130859 0 38.37983703613281 L 0 7.999996185302734 C 0 3.581718444824219 3.58172607421875 -3.814697265625e-06 8 -3.814697265625e-06 Z" stroke="none" fill="#f1cc69"/>
    </g>
    <g id="Trazado_603921" data-name="Trazado 603921" transform="translate(1258.29 -2103.627)" fill="#fff9e6">
      <path d="M 136.4617614746094 45.37983703613281 L 8.000000953674316 45.37983703613281 C 4.140180587768555 45.37983703613281 1.000000715255737 42.23965835571289 1.000000715255737 38.37983703613281 L 1.000000715255737 7.999996662139893 C 1.000000715255737 4.140176773071289 4.140180587768555 0.9999966025352478 8.000000953674316 0.9999966025352478 L 136.4617614746094 0.9999966025352478 C 140.3215789794922 0.9999966025352478 143.4617614746094 4.140176773071289 143.4617614746094 7.999996662139893 L 143.4617614746094 38.37983703613281 C 143.4617614746094 42.23965835571289 140.3215789794922 45.37983703613281 136.4617614746094 45.37983703613281 Z" stroke="none"/>
      <path d="M 8 1.999996185302734 C 4.691574096679688 1.999996185302734 2 4.691577911376953 2 7.999996185302734 L 2 38.37983703613281 C 2 41.68825531005859 4.691574096679688 44.37983703613281 8 44.37983703613281 L 136.4617614746094 44.37983703613281 C 139.7701873779297 44.37983703613281 142.4617614746094 41.68825531005859 142.4617614746094 38.37983703613281 L 142.4617614746094 7.999996185302734 C 142.4617614746094 4.691577911376953 139.7701873779297 1.999996185302734 136.4617614746094 1.999996185302734 L 8 1.999996185302734 M 8 -3.814697265625e-06 L 136.4617614746094 -3.814697265625e-06 C 140.8800354003906 -3.814697265625e-06 144.4617614746094 3.581718444824219 144.4617614746094 7.999996185302734 L 144.4617614746094 38.37983703613281 C 144.4617614746094 42.79811859130859 140.8800354003906 46.37983703613281 136.4617614746094 46.37983703613281 L 8 46.37983703613281 C 3.58172607421875 46.37983703613281 0 42.79811859130859 0 38.37983703613281 L 0 7.999996185302734 C 0 3.581718444824219 3.58172607421875 -3.814697265625e-06 8 -3.814697265625e-06 Z" stroke="none" fill="#f1cc69"/>
    </g>
    <path id="Trazado_603922" data-name="Trazado 603922" d="M20.108,9.995H16.452V12.47h4.291V14h-6.2V4.758H20.73V6.3H16.452V8.5h3.656ZM25.459,12.1a.591.591,0,0,0-.333-.53,3.785,3.785,0,0,0-1.07-.346q-2.45-.514-2.45-2.082a1.887,1.887,0,0,1,.759-1.527A3.06,3.06,0,0,1,24.348,7a3.293,3.293,0,0,1,2.092.616,1.94,1.94,0,0,1,.784,1.6H25.389a.888.888,0,0,0-.254-.651,1.075,1.075,0,0,0-.793-.257,1.1,1.1,0,0,0-.717.209.661.661,0,0,0-.254.533.565.565,0,0,0,.289.492,2.971,2.971,0,0,0,.974.324,7.958,7.958,0,0,1,1.155.308,1.9,1.9,0,0,1,1.454,1.847,1.792,1.792,0,0,1-.806,1.52,3.478,3.478,0,0,1-2.082.581,3.632,3.632,0,0,1-1.533-.308,2.572,2.572,0,0,1-1.051-.844,1.962,1.962,0,0,1-.381-1.158h1.739a.958.958,0,0,0,.362.749,1.435,1.435,0,0,0,.9.26,1.328,1.328,0,0,0,.8-.2A.622.622,0,0,0,25.459,12.1ZM30.62,5.443V7.132h1.174V8.478H30.62v3.428a.818.818,0,0,0,.146.546.733.733,0,0,0,.559.165,2.926,2.926,0,0,0,.54-.044v1.39a3.777,3.777,0,0,1-1.111.165,1.752,1.752,0,0,1-1.968-1.949v-3.7h-1V7.132h1V5.443Zm6.056,3.409a4.984,4.984,0,0,0-.66-.051,1.344,1.344,0,0,0-1.365.7V14H32.816V7.132h1.733l.051.819A1.7,1.7,0,0,1,36.129,7a1.922,1.922,0,0,1,.571.083ZM41.347,14a2.037,2.037,0,0,1-.184-.616,2.22,2.22,0,0,1-1.733.743,2.439,2.439,0,0,1-1.673-.584,1.878,1.878,0,0,1-.663-1.473,1.941,1.941,0,0,1,.809-1.676,3.994,3.994,0,0,1,2.339-.59h.844V9.411a1.132,1.132,0,0,0-.244-.762.961.961,0,0,0-.771-.286,1.093,1.093,0,0,0-.727.222.755.755,0,0,0-.263.609H37.247a1.843,1.843,0,0,1,.368-1.1,2.434,2.434,0,0,1,1.041-.8A3.794,3.794,0,0,1,40.166,7a3,3,0,0,1,2.015.638,2.232,2.232,0,0,1,.746,1.793v2.977a3.284,3.284,0,0,0,.273,1.479V14ZM39.83,12.724a1.58,1.58,0,0,0,.749-.181,1.188,1.188,0,0,0,.508-.486V10.877H40.4q-1.377,0-1.466.952l-.006.108a.734.734,0,0,0,.241.565A.937.937,0,0,0,39.83,12.724Zm6.7-7.281V7.132h1.174V8.478H46.533v3.428a.818.818,0,0,0,.146.546.733.733,0,0,0,.559.165,2.925,2.925,0,0,0,.54-.044v1.39a3.776,3.776,0,0,1-1.111.165A1.752,1.752,0,0,1,44.7,12.178v-3.7h-1V7.132h1V5.443Zm5.357,8.684a3.372,3.372,0,0,1-2.46-.927,3.294,3.294,0,0,1-.949-2.469v-.178a4.149,4.149,0,0,1,.4-1.85,2.935,2.935,0,0,1,1.133-1.257A3.18,3.18,0,0,1,51.687,7a2.85,2.85,0,0,1,2.219.889,3.611,3.611,0,0,1,.809,2.52v.749H50.342a1.7,1.7,0,0,0,.536,1.079,1.621,1.621,0,0,0,1.133.406,1.98,1.98,0,0,0,1.657-.768l.9,1.009a2.754,2.754,0,0,1-1.117.911A3.665,3.665,0,0,1,51.891,14.127Zm-.209-5.643a1.146,1.146,0,0,0-.885.37,1.915,1.915,0,0,0-.435,1.058h2.552V9.765a1.366,1.366,0,0,0-.33-.947A1.183,1.183,0,0,0,51.681,8.484Zm3.809,2.031a4.025,4.025,0,0,1,.752-2.545A2.437,2.437,0,0,1,58.27,7a2.138,2.138,0,0,1,1.758.774l.076-.647h1.663v6.64a2.935,2.935,0,0,1-.409,1.568,2.629,2.629,0,0,1-1.152,1.016,4.05,4.05,0,0,1-1.739.349,3.766,3.766,0,0,1-1.473-.3,2.614,2.614,0,0,1-1.085-.778l.813-1.117a2.149,2.149,0,0,0,1.663.768,1.573,1.573,0,0,0,1.136-.39,1.464,1.464,0,0,0,.406-1.108V13.41a2.122,2.122,0,0,1-1.669.717,2.431,2.431,0,0,1-2-.968,4.024,4.024,0,0,1-.765-2.568Zm1.834.137a2.506,2.506,0,0,0,.375,1.465,1.191,1.191,0,0,0,1.028.531,1.274,1.274,0,0,0,1.2-.629V9.126A1.271,1.271,0,0,0,58.74,8.5a1.2,1.2,0,0,0-1.038.54A2.825,2.825,0,0,0,57.324,10.652ZM65.113,14H63.272V7.132h1.841ZM63.164,5.354a.9.9,0,0,1,.276-.679,1.19,1.19,0,0,1,1.5,0,.9.9,0,0,1,.279.679.9.9,0,0,1-.282.686,1.177,1.177,0,0,1-1.492,0A.9.9,0,0,1,63.164,5.354ZM70.6,14a2.037,2.037,0,0,1-.184-.616,2.22,2.22,0,0,1-1.733.743,2.439,2.439,0,0,1-1.673-.584,1.878,1.878,0,0,1-.663-1.473,1.941,1.941,0,0,1,.809-1.676A3.994,3.994,0,0,1,69.5,9.8h.844V9.411a1.132,1.132,0,0,0-.244-.762.961.961,0,0,0-.771-.286,1.093,1.093,0,0,0-.727.222.755.755,0,0,0-.263.609H66.5a1.843,1.843,0,0,1,.368-1.1,2.434,2.434,0,0,1,1.041-.8A3.794,3.794,0,0,1,69.423,7a3,3,0,0,1,2.015.638,2.232,2.232,0,0,1,.746,1.793v2.977a3.284,3.284,0,0,0,.273,1.479V14Zm-1.517-1.276a1.58,1.58,0,0,0,.749-.181,1.188,1.188,0,0,0,.508-.486V10.877h-.686q-1.377,0-1.466.952l-.006.108a.734.734,0,0,0,.241.565A.937.937,0,0,0,69.086,12.724Zm8.227-.622a.591.591,0,0,0-.333-.53,3.785,3.785,0,0,0-1.07-.346q-2.45-.514-2.45-2.082a1.887,1.887,0,0,1,.759-1.527A3.06,3.06,0,0,1,76.2,7a3.293,3.293,0,0,1,2.092.616,1.94,1.94,0,0,1,.784,1.6H77.243a.888.888,0,0,0-.254-.651,1.075,1.075,0,0,0-.793-.257,1.1,1.1,0,0,0-.717.209.661.661,0,0,0-.254.533.565.565,0,0,0,.289.492,2.971,2.971,0,0,0,.974.324,7.958,7.958,0,0,1,1.155.308A1.9,1.9,0,0,1,79.1,12.026a1.792,1.792,0,0,1-.806,1.52,3.478,3.478,0,0,1-2.082.581,3.632,3.632,0,0,1-1.533-.308,2.572,2.572,0,0,1-1.051-.844,1.962,1.962,0,0,1-.381-1.158h1.739a.958.958,0,0,0,.362.749,1.435,1.435,0,0,0,.9.26,1.328,1.328,0,0,0,.8-.2A.622.622,0,0,0,77.313,12.1Zm5.916-1.587a4.139,4.139,0,0,1,.72-2.558A2.338,2.338,0,0,1,85.92,7a2.1,2.1,0,0,1,1.657.749V4.25h1.841V14H87.761l-.089-.73a2.159,2.159,0,0,1-1.765.857,2.331,2.331,0,0,1-1.946-.955A4.272,4.272,0,0,1,83.229,10.515Zm1.834.137a2.711,2.711,0,0,0,.336,1.481,1.1,1.1,0,0,0,.978.515,1.228,1.228,0,0,0,1.2-.718V9.215A1.21,1.21,0,0,0,86.39,8.5Q85.063,8.5,85.063,10.652ZM94,14.127a3.372,3.372,0,0,1-2.46-.927,3.294,3.294,0,0,1-.949-2.469v-.178a4.149,4.149,0,0,1,.4-1.85,2.935,2.935,0,0,1,1.133-1.257A3.18,3.18,0,0,1,93.8,7a2.85,2.85,0,0,1,2.219.889,3.611,3.611,0,0,1,.809,2.52v.749H92.452a1.7,1.7,0,0,0,.536,1.079,1.621,1.621,0,0,0,1.133.406,1.98,1.98,0,0,0,1.657-.768l.9,1.009a2.754,2.754,0,0,1-1.117.911A3.665,3.665,0,0,1,94,14.127Zm-.209-5.643a1.146,1.146,0,0,0-.885.37,1.915,1.915,0,0,0-.435,1.058h2.552V9.765a1.366,1.366,0,0,0-.33-.947A1.183,1.183,0,0,0,93.791,8.484ZM21.733,23.852a4.984,4.984,0,0,0-.66-.051,1.344,1.344,0,0,0-1.365.7V29H17.874V22.132h1.733l.051.819A1.7,1.7,0,0,1,21.187,22a1.922,1.922,0,0,1,.571.083Zm4.043,5.275a3.372,3.372,0,0,1-2.46-.927,3.294,3.294,0,0,1-.949-2.469v-.178a4.149,4.149,0,0,1,.4-1.85A2.935,2.935,0,0,1,23.9,22.446,3.18,3.18,0,0,1,25.573,22a2.85,2.85,0,0,1,2.219.889,3.611,3.611,0,0,1,.809,2.52v.749H24.228a1.7,1.7,0,0,0,.536,1.079,1.621,1.621,0,0,0,1.133.406,1.98,1.98,0,0,0,1.657-.768l.9,1.009a2.754,2.754,0,0,1-1.117.911A3.665,3.665,0,0,1,25.776,29.127Zm-.209-5.643a1.146,1.146,0,0,0-.885.37,1.915,1.915,0,0,0-.435,1.058H26.8v-.147a1.366,1.366,0,0,0-.33-.947A1.183,1.183,0,0,0,25.567,23.484ZM32.5,27.648a1.2,1.2,0,0,0,.825-.279.979.979,0,0,0,.33-.743h1.72a2.353,2.353,0,0,1-.381,1.279,2.513,2.513,0,0,1-1.025.9,3.208,3.208,0,0,1-1.438.321,2.982,2.982,0,0,1-2.323-.936,3.705,3.705,0,0,1-.851-2.587v-.121a3.663,3.663,0,0,1,.844-2.533A2.947,2.947,0,0,1,32.518,22a2.889,2.889,0,0,1,2.066.733,2.6,2.6,0,0,1,.79,1.952h-1.72a1.261,1.261,0,0,0-.33-.871,1.227,1.227,0,0,0-1.806.132,2.708,2.708,0,0,0-.327,1.516v.191a2.742,2.742,0,0,0,.324,1.526A1.119,1.119,0,0,0,32.5,27.648Zm8.036.654a2.3,2.3,0,0,1-1.879.825,2.17,2.17,0,0,1-1.685-.635,2.71,2.71,0,0,1-.594-1.86v-4.5h1.834v4.442q0,1.074.978,1.074A1.325,1.325,0,0,0,40.471,27V22.132h1.841V29H40.585Zm9.344-2.672a4.119,4.119,0,0,1-.72,2.542,2.31,2.31,0,0,1-1.946.955A2.14,2.14,0,0,1,45.53,28.4v3.237H43.7V22.132h1.7l.063.673A2.156,2.156,0,0,1,47.2,22a2.326,2.326,0,0,1,1.974.939,4.231,4.231,0,0,1,.7,2.59ZM48.044,25.5a2.7,2.7,0,0,0-.34-1.479,1.106,1.106,0,0,0-.987-.521,1.2,1.2,0,0,0-1.187.66v2.812a1.222,1.222,0,0,0,1.2.679Q48.044,27.648,48.044,25.5Zm6.132,3.631a3.372,3.372,0,0,1-2.46-.927,3.294,3.294,0,0,1-.949-2.469v-.178a4.149,4.149,0,0,1,.4-1.85A2.935,2.935,0,0,1,52.3,22.446,3.18,3.18,0,0,1,53.973,22a2.85,2.85,0,0,1,2.219.889A3.611,3.611,0,0,1,57,25.414v.749H52.627a1.7,1.7,0,0,0,.536,1.079,1.621,1.621,0,0,0,1.133.406,1.98,1.98,0,0,0,1.657-.768l.9,1.009a2.754,2.754,0,0,1-1.117.911A3.665,3.665,0,0,1,54.176,29.127Zm-.209-5.643a1.146,1.146,0,0,0-.885.37,1.915,1.915,0,0,0-.435,1.058H55.2v-.147a1.366,1.366,0,0,0-.33-.947A1.183,1.183,0,0,0,53.966,23.484Zm7.935.368a4.984,4.984,0,0,0-.66-.051,1.344,1.344,0,0,0-1.365.7V29H58.041V22.132h1.733l.051.819A1.7,1.7,0,0,1,61.355,22a1.922,1.922,0,0,1,.571.083ZM66.573,29a2.037,2.037,0,0,1-.184-.616,2.22,2.22,0,0,1-1.733.743,2.439,2.439,0,0,1-1.673-.584,1.878,1.878,0,0,1-.663-1.473,1.941,1.941,0,0,1,.809-1.676,3.994,3.994,0,0,1,2.339-.59h.844v-.394a1.132,1.132,0,0,0-.244-.762.961.961,0,0,0-.771-.286,1.093,1.093,0,0,0-.727.222.755.755,0,0,0-.263.609H62.472a1.843,1.843,0,0,1,.368-1.1,2.434,2.434,0,0,1,1.041-.8A3.794,3.794,0,0,1,65.392,22a3,3,0,0,1,2.015.638,2.232,2.232,0,0,1,.746,1.793v2.977a3.284,3.284,0,0,0,.273,1.479V29Zm-1.517-1.276a1.58,1.58,0,0,0,.749-.181,1.188,1.188,0,0,0,.508-.486V25.877h-.686q-1.377,0-1.466.952l-.006.108a.734.734,0,0,0,.241.565A.937.937,0,0,0,65.056,27.724Zm7.363-.076a1.2,1.2,0,0,0,.825-.279.979.979,0,0,0,.33-.743h1.72a2.353,2.353,0,0,1-.381,1.279,2.513,2.513,0,0,1-1.025.9,3.208,3.208,0,0,1-1.438.321,2.982,2.982,0,0,1-2.323-.936,3.705,3.705,0,0,1-.851-2.587v-.121a3.663,3.663,0,0,1,.844-2.533A2.947,2.947,0,0,1,72.438,22a2.889,2.889,0,0,1,2.066.733,2.6,2.6,0,0,1,.79,1.952h-1.72a1.261,1.261,0,0,0-.33-.871,1.227,1.227,0,0,0-1.806.132,2.708,2.708,0,0,0-.327,1.516v.191a2.742,2.742,0,0,0,.324,1.526A1.119,1.119,0,0,0,72.419,27.648ZM78.278,29H76.437V22.132h1.841Zm-1.949-8.646a.9.9,0,0,1,.276-.679,1.19,1.19,0,0,1,1.5,0,.969.969,0,0,1,0,1.365,1.177,1.177,0,0,1-1.492,0A.9.9,0,0,1,76.329,20.354ZM79.5,25.5a4.073,4.073,0,0,1,.394-1.822,2.881,2.881,0,0,1,1.133-1.238A3.306,3.306,0,0,1,82.747,22a3.127,3.127,0,0,1,2.269.851A3.414,3.414,0,0,1,86,25.166l.013.47a3.59,3.59,0,0,1-.882,2.536,3.42,3.42,0,0,1-4.739,0,3.653,3.653,0,0,1-.885-2.59Zm1.834.13a2.567,2.567,0,0,0,.368,1.5,1.323,1.323,0,0,0,2.095.006,2.809,2.809,0,0,0,.375-1.637,2.542,2.542,0,0,0-.375-1.488,1.217,1.217,0,0,0-1.054-.528,1.2,1.2,0,0,0-1.041.524A2.857,2.857,0,0,0,81.337,25.633Zm1.771-6.383h2L83.35,21.218H81.858Zm5.719,2.882.057.793A2.4,2.4,0,0,1,90.859,22a1.993,1.993,0,0,1,1.625.641,2.991,2.991,0,0,1,.546,1.917V29H91.2V24.607a1.19,1.19,0,0,0-.254-.847A1.137,1.137,0,0,0,90.1,23.5a1.262,1.262,0,0,0-1.162.66V29H87.1V22.132Z" transform="translate(1273.496 -2346.15)" fill="#12263f"/>
    <path id="Trazado_603923" data-name="Trazado 603923" d="M11.91,12.832a3.305,3.305,0,0,1-1.454.955,6.087,6.087,0,0,1-2.082.34,4.124,4.124,0,0,1-2.1-.524,3.493,3.493,0,0,1-1.4-1.52,5.351,5.351,0,0,1-.5-2.342V9.112a5.682,5.682,0,0,1,.467-2.4A3.451,3.451,0,0,1,6.181,5.167a3.876,3.876,0,0,1,2.06-.536,3.86,3.86,0,0,1,2.571.784A3.35,3.35,0,0,1,11.91,7.7H10.056a1.843,1.843,0,0,0-.562-1.162,1.794,1.794,0,0,0-1.2-.368,1.689,1.689,0,0,0-1.479.73A3.838,3.838,0,0,0,6.3,9.068v.59a3.654,3.654,0,0,0,.552,2.2,1.891,1.891,0,0,0,1.619.743,2.112,2.112,0,0,0,1.53-.457V10.547H8.273v-1.4H11.91Zm4.583,1.295a3.372,3.372,0,0,1-2.46-.927,3.294,3.294,0,0,1-.949-2.469v-.178a4.149,4.149,0,0,1,.4-1.85,2.935,2.935,0,0,1,1.133-1.257A3.18,3.18,0,0,1,16.29,7a2.85,2.85,0,0,1,2.219.889,3.611,3.611,0,0,1,.809,2.52v.749H14.944a1.7,1.7,0,0,0,.536,1.079,1.621,1.621,0,0,0,1.133.406,1.98,1.98,0,0,0,1.657-.768l.9,1.009a2.754,2.754,0,0,1-1.117.911A3.665,3.665,0,0,1,16.493,14.127Zm-.209-5.643a1.146,1.146,0,0,0-.885.37,1.915,1.915,0,0,0-.435,1.058h2.552V9.765a1.366,1.366,0,0,0-.33-.947A1.183,1.183,0,0,0,16.283,8.484ZM24.078,12.1a.591.591,0,0,0-.333-.53,3.785,3.785,0,0,0-1.07-.346q-2.45-.514-2.45-2.082a1.887,1.887,0,0,1,.759-1.527A3.06,3.06,0,0,1,22.968,7a3.293,3.293,0,0,1,2.092.616,1.94,1.94,0,0,1,.784,1.6H24.009a.888.888,0,0,0-.254-.651,1.075,1.075,0,0,0-.793-.257,1.1,1.1,0,0,0-.717.209.661.661,0,0,0-.254.533.565.565,0,0,0,.289.492,2.971,2.971,0,0,0,.974.324,7.958,7.958,0,0,1,1.155.308,1.9,1.9,0,0,1,1.454,1.847,1.792,1.792,0,0,1-.806,1.52,3.478,3.478,0,0,1-2.082.581,3.632,3.632,0,0,1-1.533-.308,2.572,2.572,0,0,1-1.051-.844,1.962,1.962,0,0,1-.381-1.158h1.739a.958.958,0,0,0,.362.749,1.435,1.435,0,0,0,.9.26,1.328,1.328,0,0,0,.8-.2A.622.622,0,0,0,24.078,12.1Zm5.161-6.659V7.132h1.174V8.478H29.239v3.428a.818.818,0,0,0,.146.546.733.733,0,0,0,.559.165,2.926,2.926,0,0,0,.54-.044v1.39a3.777,3.777,0,0,1-1.111.165A1.752,1.752,0,0,1,27.4,12.178v-3.7h-1V7.132h1V5.443ZM33.371,14H31.531V7.132h1.841ZM31.423,5.354a.9.9,0,0,1,.276-.679,1.19,1.19,0,0,1,1.5,0,.9.9,0,0,1,.279.679.9.9,0,0,1-.282.686,1.177,1.177,0,0,1-1.492,0A.9.9,0,0,1,31.423,5.354ZM34.6,10.5a4.073,4.073,0,0,1,.394-1.822,2.881,2.881,0,0,1,1.133-1.238A3.306,3.306,0,0,1,37.84,7a3.128,3.128,0,0,1,2.269.851,3.414,3.414,0,0,1,.981,2.311l.013.47a3.59,3.59,0,0,1-.882,2.536,3.42,3.42,0,0,1-4.739,0,3.653,3.653,0,0,1-.885-2.59Zm1.834.13a2.567,2.567,0,0,0,.368,1.5,1.323,1.323,0,0,0,2.095.006,2.809,2.809,0,0,0,.375-1.637,2.542,2.542,0,0,0-.375-1.488,1.217,1.217,0,0,0-1.054-.528,1.2,1.2,0,0,0-1.041.524A2.857,2.857,0,0,0,36.431,10.633Zm7.49-3.5.057.793A2.4,2.4,0,0,1,45.952,7a1.993,1.993,0,0,1,1.625.641,2.991,2.991,0,0,1,.546,1.917V14H46.289V9.607a1.19,1.19,0,0,0-.254-.847,1.137,1.137,0,0,0-.844-.263,1.262,1.262,0,0,0-1.162.66V14H42.195V7.132ZM53.493,14a2.037,2.037,0,0,1-.184-.616,2.22,2.22,0,0,1-1.733.743,2.439,2.439,0,0,1-1.673-.584,1.878,1.878,0,0,1-.663-1.473,1.941,1.941,0,0,1,.809-1.676,3.994,3.994,0,0,1,2.339-.59h.844V9.411a1.132,1.132,0,0,0-.244-.762.961.961,0,0,0-.771-.286,1.093,1.093,0,0,0-.727.222.755.755,0,0,0-.263.609H49.393a1.843,1.843,0,0,1,.368-1.1,2.434,2.434,0,0,1,1.041-.8A3.794,3.794,0,0,1,52.313,7a3,3,0,0,1,2.015.638,2.232,2.232,0,0,1,.746,1.793v2.977a3.284,3.284,0,0,0,.273,1.479V14Zm-1.517-1.276a1.58,1.58,0,0,0,.749-.181,1.188,1.188,0,0,0,.508-.486V10.877h-.686q-1.377,0-1.466.952l-.006.108a.734.734,0,0,0,.241.565A.937.937,0,0,0,51.976,12.724Zm8.366-3.872a4.984,4.984,0,0,0-.66-.051,1.344,1.344,0,0,0-1.365.7V14H56.483V7.132h1.733l.051.819A1.7,1.7,0,0,1,59.8,7a1.922,1.922,0,0,1,.571.083Zm7.979,0a4.984,4.984,0,0,0-.66-.051,1.344,1.344,0,0,0-1.365.7V14H64.462V7.132H66.2l.051.819A1.7,1.7,0,0,1,67.776,7a1.922,1.922,0,0,1,.571.083ZM71.14,14H69.3V7.132H71.14ZM69.191,5.354a.9.9,0,0,1,.276-.679,1.19,1.19,0,0,1,1.5,0,.9.9,0,0,1,.279.679.9.9,0,0,1-.282.686,1.177,1.177,0,0,1-1.492,0A.9.9,0,0,1,69.191,5.354Zm6.621,8.772a3.372,3.372,0,0,1-2.46-.927,3.294,3.294,0,0,1-.949-2.469v-.178a4.149,4.149,0,0,1,.4-1.85,2.935,2.935,0,0,1,1.133-1.257A3.18,3.18,0,0,1,75.609,7a2.85,2.85,0,0,1,2.219.889,3.611,3.611,0,0,1,.809,2.52v.749H74.263a1.7,1.7,0,0,0,.536,1.079,1.621,1.621,0,0,0,1.133.406,1.98,1.98,0,0,0,1.657-.768l.9,1.009a2.754,2.754,0,0,1-1.117.911A3.665,3.665,0,0,1,75.812,14.127ZM75.6,8.484a1.146,1.146,0,0,0-.885.37,1.915,1.915,0,0,0-.435,1.058h2.552V9.765a1.366,1.366,0,0,0-.33-.947A1.183,1.183,0,0,0,75.6,8.484ZM83.4,12.1a.591.591,0,0,0-.333-.53,3.785,3.785,0,0,0-1.07-.346q-2.45-.514-2.45-2.082A1.887,1.887,0,0,1,80.3,7.617,3.06,3.06,0,0,1,82.286,7a3.293,3.293,0,0,1,2.092.616,1.94,1.94,0,0,1,.784,1.6H83.327a.888.888,0,0,0-.254-.651,1.075,1.075,0,0,0-.793-.257,1.1,1.1,0,0,0-.717.209.661.661,0,0,0-.254.533.565.565,0,0,0,.289.492,2.971,2.971,0,0,0,.974.324,7.958,7.958,0,0,1,1.155.308,1.9,1.9,0,0,1,1.454,1.847,1.792,1.792,0,0,1-.806,1.52,3.478,3.478,0,0,1-2.082.581,3.632,3.632,0,0,1-1.533-.308,2.572,2.572,0,0,1-1.051-.844,1.962,1.962,0,0,1-.381-1.158h1.739a.958.958,0,0,0,.362.749,1.435,1.435,0,0,0,.9.26,1.328,1.328,0,0,0,.8-.2A.622.622,0,0,0,83.4,12.1Zm2.7-1.587a4.025,4.025,0,0,1,.752-2.545A2.437,2.437,0,0,1,88.875,7a2.138,2.138,0,0,1,1.758.774l.076-.647h1.663v6.64a2.935,2.935,0,0,1-.409,1.568,2.629,2.629,0,0,1-1.152,1.016,4.05,4.05,0,0,1-1.739.349,3.766,3.766,0,0,1-1.473-.3,2.614,2.614,0,0,1-1.085-.778l.813-1.117a2.149,2.149,0,0,0,1.663.768,1.573,1.573,0,0,0,1.136-.39,1.464,1.464,0,0,0,.406-1.108V13.41a2.122,2.122,0,0,1-1.669.717,2.431,2.431,0,0,1-2-.968,4.024,4.024,0,0,1-.765-2.568Zm1.834.137a2.506,2.506,0,0,0,.375,1.465,1.191,1.191,0,0,0,1.028.531,1.274,1.274,0,0,0,1.2-.629V9.126A1.271,1.271,0,0,0,89.345,8.5a1.2,1.2,0,0,0-1.038.54A2.825,2.825,0,0,0,87.929,10.652ZM93.5,10.5a4.073,4.073,0,0,1,.394-1.822,2.881,2.881,0,0,1,1.133-1.238A3.306,3.306,0,0,1,96.74,7a3.127,3.127,0,0,1,2.269.851,3.414,3.414,0,0,1,.981,2.311l.013.47a3.59,3.59,0,0,1-.882,2.536,3.42,3.42,0,0,1-4.739,0,3.653,3.653,0,0,1-.885-2.59Zm1.834.13a2.567,2.567,0,0,0,.368,1.5,1.323,1.323,0,0,0,2.095.006,2.809,2.809,0,0,0,.375-1.637,2.542,2.542,0,0,0-.375-1.488,1.217,1.217,0,0,0-1.054-.528,1.2,1.2,0,0,0-1.041.524A2.857,2.857,0,0,0,95.331,10.633Zm9.521,1.469a.591.591,0,0,0-.333-.53,3.785,3.785,0,0,0-1.07-.346Q101,10.712,101,9.144a1.887,1.887,0,0,1,.759-1.527A3.06,3.06,0,0,1,103.741,7a3.293,3.293,0,0,1,2.092.616,1.94,1.94,0,0,1,.784,1.6h-1.834a.888.888,0,0,0-.254-.651,1.075,1.075,0,0,0-.793-.257,1.1,1.1,0,0,0-.717.209.661.661,0,0,0-.254.533.565.565,0,0,0,.289.492,2.971,2.971,0,0,0,.974.324,7.958,7.958,0,0,1,1.155.308,1.9,1.9,0,0,1,1.454,1.847,1.792,1.792,0,0,1-.806,1.52,3.478,3.478,0,0,1-2.082.581,3.632,3.632,0,0,1-1.533-.308,2.572,2.572,0,0,1-1.051-.844,1.962,1.962,0,0,1-.381-1.158h1.739a.958.958,0,0,0,.362.749,1.435,1.435,0,0,0,.9.26,1.328,1.328,0,0,0,.8-.2A.622.622,0,0,0,104.852,12.1Z" transform="translate(1273.496 -2402.563)" fill="#12263f"/>
    <path id="Trazado_603924" data-name="Trazado 603924" d="M28.868,6.3H26.037V14h-1.9V6.3H21.339V4.758h7.528Zm2.9,7.7H29.928V7.132h1.841ZM29.82,5.354a.9.9,0,0,1,.276-.679,1.19,1.19,0,0,1,1.5,0,.9.9,0,0,1,.279.679.9.9,0,0,1-.282.686,1.177,1.177,0,0,1-1.492,0A.9.9,0,0,1,29.82,5.354Zm6.621,8.772a3.372,3.372,0,0,1-2.46-.927,3.294,3.294,0,0,1-.949-2.469v-.178a4.149,4.149,0,0,1,.4-1.85,2.935,2.935,0,0,1,1.133-1.257A3.18,3.18,0,0,1,36.237,7a2.85,2.85,0,0,1,2.219.889,3.611,3.611,0,0,1,.809,2.52v.749H34.892a1.7,1.7,0,0,0,.536,1.079,1.621,1.621,0,0,0,1.133.406,1.98,1.98,0,0,0,1.657-.768l.9,1.009A2.754,2.754,0,0,1,38,13.8,3.665,3.665,0,0,1,36.44,14.127Zm-.209-5.643a1.146,1.146,0,0,0-.885.37,1.915,1.915,0,0,0-.435,1.058h2.552V9.765a1.366,1.366,0,0,0-.33-.947A1.183,1.183,0,0,0,36.231,8.484Zm5.8-1.352.057.768A2.414,2.414,0,0,1,44.058,7a1.832,1.832,0,0,1,1.822,1.047A2.358,2.358,0,0,1,47.942,7a2.049,2.049,0,0,1,1.663.651,2.991,2.991,0,0,1,.546,1.958V14H48.311V9.62a1.308,1.308,0,0,0-.229-.854,1.013,1.013,0,0,0-.806-.27,1.145,1.145,0,0,0-1.143.787L46.14,14H44.305V9.626a1.292,1.292,0,0,0-.235-.863,1.023,1.023,0,0,0-.8-.267,1.189,1.189,0,0,0-1.13.647V14H40.306V7.132Zm15.717,3.5a4.119,4.119,0,0,1-.72,2.542,2.31,2.31,0,0,1-1.946.955A2.14,2.14,0,0,1,53.4,13.4v3.237H51.561V7.132h1.7l.063.673A2.156,2.156,0,0,1,55.064,7a2.326,2.326,0,0,1,1.974.939,4.231,4.231,0,0,1,.7,2.59ZM55.909,10.5a2.7,2.7,0,0,0-.34-1.479,1.106,1.106,0,0,0-.987-.521,1.2,1.2,0,0,0-1.187.66v2.812a1.222,1.222,0,0,0,1.2.679Q55.909,12.648,55.909,10.5Zm2.685.006a4.073,4.073,0,0,1,.394-1.822A2.881,2.881,0,0,1,60.12,7.443,3.306,3.306,0,0,1,61.837,7a3.128,3.128,0,0,1,2.269.851,3.414,3.414,0,0,1,.981,2.311l.013.47a3.59,3.59,0,0,1-.882,2.536,3.42,3.42,0,0,1-4.739,0,3.653,3.653,0,0,1-.885-2.59Zm1.834.13a2.567,2.567,0,0,0,.368,1.5,1.323,1.323,0,0,0,2.095.006,2.809,2.809,0,0,0,.375-1.637,2.542,2.542,0,0,0-.375-1.488,1.217,1.217,0,0,0-1.054-.528,1.2,1.2,0,0,0-1.041.524A2.857,2.857,0,0,0,60.428,10.633ZM69.95,12.1a.591.591,0,0,0-.333-.53,3.785,3.785,0,0,0-1.07-.346q-2.45-.514-2.45-2.082a1.887,1.887,0,0,1,.759-1.527A3.06,3.06,0,0,1,68.839,7a3.293,3.293,0,0,1,2.092.616,1.94,1.94,0,0,1,.784,1.6H69.88a.888.888,0,0,0-.254-.651,1.075,1.075,0,0,0-.793-.257,1.1,1.1,0,0,0-.717.209.661.661,0,0,0-.254.533.565.565,0,0,0,.289.492,2.971,2.971,0,0,0,.974.324,7.958,7.958,0,0,1,1.155.308,1.9,1.9,0,0,1,1.454,1.847,1.792,1.792,0,0,1-.806,1.52,3.478,3.478,0,0,1-2.082.581,3.632,3.632,0,0,1-1.533-.308,2.572,2.572,0,0,1-1.051-.844,1.962,1.962,0,0,1-.381-1.158H67.62a.958.958,0,0,0,.362.749,1.435,1.435,0,0,0,.9.26,1.328,1.328,0,0,0,.8-.2A.622.622,0,0,0,69.95,12.1Zm5.916-1.587a4.139,4.139,0,0,1,.72-2.558A2.338,2.338,0,0,1,78.557,7a2.1,2.1,0,0,1,1.657.749V4.25h1.841V14H80.4l-.089-.73a2.159,2.159,0,0,1-1.765.857,2.331,2.331,0,0,1-1.946-.955A4.272,4.272,0,0,1,75.866,10.515Zm1.834.137a2.711,2.711,0,0,0,.336,1.481,1.1,1.1,0,0,0,.978.515,1.228,1.228,0,0,0,1.2-.718V9.215A1.21,1.21,0,0,0,79.027,8.5Q77.7,8.5,77.7,10.652Zm8.938,3.475a3.372,3.372,0,0,1-2.46-.927,3.294,3.294,0,0,1-.949-2.469v-.178a4.149,4.149,0,0,1,.4-1.85,2.935,2.935,0,0,1,1.133-1.257A3.18,3.18,0,0,1,86.435,7a2.85,2.85,0,0,1,2.219.889,3.611,3.611,0,0,1,.809,2.52v.749H85.089a1.7,1.7,0,0,0,.536,1.079,1.621,1.621,0,0,0,1.133.406,1.98,1.98,0,0,0,1.657-.768l.9,1.009A2.754,2.754,0,0,1,88.2,13.8,3.665,3.665,0,0,1,86.638,14.127Zm-.209-5.643a1.146,1.146,0,0,0-.885.37,1.915,1.915,0,0,0-.435,1.058H87.66V9.765a1.366,1.366,0,0,0-.33-.947A1.183,1.183,0,0,0,86.428,8.484Zm-64.7,15.368a4.984,4.984,0,0,0-.66-.051,1.344,1.344,0,0,0-1.365.7V29H17.874V22.132h1.733l.051.819A1.7,1.7,0,0,1,21.187,22a1.922,1.922,0,0,1,.571.083Zm4.043,5.275a3.372,3.372,0,0,1-2.46-.927,3.294,3.294,0,0,1-.949-2.469v-.178a4.149,4.149,0,0,1,.4-1.85A2.935,2.935,0,0,1,23.9,22.446,3.18,3.18,0,0,1,25.573,22a2.85,2.85,0,0,1,2.219.889,3.611,3.611,0,0,1,.809,2.52v.749H24.228a1.7,1.7,0,0,0,.536,1.079,1.621,1.621,0,0,0,1.133.406,1.98,1.98,0,0,0,1.657-.768l.9,1.009a2.754,2.754,0,0,1-1.117.911A3.665,3.665,0,0,1,25.776,29.127Zm-.209-5.643a1.146,1.146,0,0,0-.885.37,1.915,1.915,0,0,0-.435,1.058H26.8v-.147a1.366,1.366,0,0,0-.33-.947A1.183,1.183,0,0,0,25.567,23.484ZM32.5,27.648a1.2,1.2,0,0,0,.825-.279.979.979,0,0,0,.33-.743h1.72a2.353,2.353,0,0,1-.381,1.279,2.513,2.513,0,0,1-1.025.9,3.208,3.208,0,0,1-1.438.321,2.982,2.982,0,0,1-2.323-.936,3.705,3.705,0,0,1-.851-2.587v-.121a3.663,3.663,0,0,1,.844-2.533A2.947,2.947,0,0,1,32.518,22a2.889,2.889,0,0,1,2.066.733,2.6,2.6,0,0,1,.79,1.952h-1.72a1.261,1.261,0,0,0-.33-.871,1.227,1.227,0,0,0-1.806.132,2.708,2.708,0,0,0-.327,1.516v.191a2.742,2.742,0,0,0,.324,1.526A1.119,1.119,0,0,0,32.5,27.648Zm8.036.654a2.3,2.3,0,0,1-1.879.825,2.17,2.17,0,0,1-1.685-.635,2.71,2.71,0,0,1-.594-1.86v-4.5h1.834v4.442q0,1.074.978,1.074A1.325,1.325,0,0,0,40.471,27V22.132h1.841V29H40.585Zm9.344-2.672a4.119,4.119,0,0,1-.72,2.542,2.31,2.31,0,0,1-1.946.955A2.14,2.14,0,0,1,45.53,28.4v3.237H43.7V22.132h1.7l.063.673A2.156,2.156,0,0,1,47.2,22a2.326,2.326,0,0,1,1.974.939,4.231,4.231,0,0,1,.7,2.59ZM48.044,25.5a2.7,2.7,0,0,0-.34-1.479,1.106,1.106,0,0,0-.987-.521,1.2,1.2,0,0,0-1.187.66v2.812a1.222,1.222,0,0,0,1.2.679Q48.044,27.648,48.044,25.5Zm6.132,3.631a3.372,3.372,0,0,1-2.46-.927,3.294,3.294,0,0,1-.949-2.469v-.178a4.149,4.149,0,0,1,.4-1.85A2.935,2.935,0,0,1,52.3,22.446,3.18,3.18,0,0,1,53.973,22a2.85,2.85,0,0,1,2.219.889A3.611,3.611,0,0,1,57,25.414v.749H52.627a1.7,1.7,0,0,0,.536,1.079,1.621,1.621,0,0,0,1.133.406,1.98,1.98,0,0,0,1.657-.768l.9,1.009a2.754,2.754,0,0,1-1.117.911A3.665,3.665,0,0,1,54.176,29.127Zm-.209-5.643a1.146,1.146,0,0,0-.885.37,1.915,1.915,0,0,0-.435,1.058H55.2v-.147a1.366,1.366,0,0,0-.33-.947A1.183,1.183,0,0,0,53.966,23.484Zm7.935.368a4.984,4.984,0,0,0-.66-.051,1.344,1.344,0,0,0-1.365.7V29H58.041V22.132h1.733l.051.819A1.7,1.7,0,0,1,61.355,22a1.922,1.922,0,0,1,.571.083ZM66.573,29a2.037,2.037,0,0,1-.184-.616,2.22,2.22,0,0,1-1.733.743,2.439,2.439,0,0,1-1.673-.584,1.878,1.878,0,0,1-.663-1.473,1.941,1.941,0,0,1,.809-1.676,3.994,3.994,0,0,1,2.339-.59h.844v-.394a1.132,1.132,0,0,0-.244-.762.961.961,0,0,0-.771-.286,1.093,1.093,0,0,0-.727.222.755.755,0,0,0-.263.609H62.472a1.843,1.843,0,0,1,.368-1.1,2.434,2.434,0,0,1,1.041-.8A3.794,3.794,0,0,1,65.392,22a3,3,0,0,1,2.015.638,2.232,2.232,0,0,1,.746,1.793v2.977a3.284,3.284,0,0,0,.273,1.479V29Zm-1.517-1.276a1.58,1.58,0,0,0,.749-.181,1.188,1.188,0,0,0,.508-.486V25.877h-.686q-1.377,0-1.466.952l-.006.108a.734.734,0,0,0,.241.565A.937.937,0,0,0,65.056,27.724Zm7.363-.076a1.2,1.2,0,0,0,.825-.279.979.979,0,0,0,.33-.743h1.72a2.353,2.353,0,0,1-.381,1.279,2.513,2.513,0,0,1-1.025.9,3.208,3.208,0,0,1-1.438.321,2.982,2.982,0,0,1-2.323-.936,3.705,3.705,0,0,1-.851-2.587v-.121a3.663,3.663,0,0,1,.844-2.533A2.947,2.947,0,0,1,72.438,22a2.889,2.889,0,0,1,2.066.733,2.6,2.6,0,0,1,.79,1.952h-1.72a1.261,1.261,0,0,0-.33-.871,1.227,1.227,0,0,0-1.806.132,2.708,2.708,0,0,0-.327,1.516v.191a2.742,2.742,0,0,0,.324,1.526A1.119,1.119,0,0,0,72.419,27.648ZM78.278,29H76.437V22.132h1.841Zm-1.949-8.646a.9.9,0,0,1,.276-.679,1.19,1.19,0,0,1,1.5,0,.969.969,0,0,1,0,1.365,1.177,1.177,0,0,1-1.492,0A.9.9,0,0,1,76.329,20.354ZM79.5,25.5a4.073,4.073,0,0,1,.394-1.822,2.881,2.881,0,0,1,1.133-1.238A3.306,3.306,0,0,1,82.747,22a3.127,3.127,0,0,1,2.269.851A3.414,3.414,0,0,1,86,25.166l.013.47a3.59,3.59,0,0,1-.882,2.536,3.42,3.42,0,0,1-4.739,0,3.653,3.653,0,0,1-.885-2.59Zm1.834.13a2.567,2.567,0,0,0,.368,1.5,1.323,1.323,0,0,0,2.095.006,2.809,2.809,0,0,0,.375-1.637,2.542,2.542,0,0,0-.375-1.488,1.217,1.217,0,0,0-1.054-.528,1.2,1.2,0,0,0-1.041.524A2.857,2.857,0,0,0,81.337,25.633Zm1.771-6.383h2L83.35,21.218H81.858Zm5.719,2.882.057.793A2.4,2.4,0,0,1,90.859,22a1.993,1.993,0,0,1,1.625.641,2.991,2.991,0,0,1,.546,1.917V29H91.2V24.607a1.19,1.19,0,0,0-.254-.847A1.137,1.137,0,0,0,90.1,23.5a1.262,1.262,0,0,0-1.162.66V29H87.1V22.132Z" transform="translate(1273.496 -2159.023)" fill="#12263f"/>
    <path id="Trazado_603925" data-name="Trazado 603925" d="M33.971,10.744V14h-1.9V4.758h3.605a4.171,4.171,0,0,1,1.831.381,2.807,2.807,0,0,1,1.216,1.082,3.018,3.018,0,0,1,.425,1.6,2.654,2.654,0,0,1-.93,2.142,3.873,3.873,0,0,1-2.574.784Zm0-1.542h1.7a1.673,1.673,0,0,0,1.152-.355,1.293,1.293,0,0,0,.4-1.016,1.524,1.524,0,0,0-.4-1.1,1.494,1.494,0,0,0-1.1-.432H33.971Zm10.22-.349a4.984,4.984,0,0,0-.66-.051,1.344,1.344,0,0,0-1.365.7V14H40.332V7.132h1.733l.051.819A1.7,1.7,0,0,1,43.645,7a1.922,1.922,0,0,1,.571.083Zm5,4.45a2.3,2.3,0,0,1-1.879.825,2.17,2.17,0,0,1-1.685-.635,2.71,2.71,0,0,1-.594-1.86v-4.5h1.834v4.442q0,1.074.978,1.074A1.325,1.325,0,0,0,49.123,12V7.132h1.841V14H49.237Zm6.322.825a3.372,3.372,0,0,1-2.46-.927,3.294,3.294,0,0,1-.949-2.469v-.178a4.149,4.149,0,0,1,.4-1.85,2.935,2.935,0,0,1,1.133-1.257A3.18,3.18,0,0,1,55.306,7a2.85,2.85,0,0,1,2.219.889,3.611,3.611,0,0,1,.809,2.52v.749H53.96a1.7,1.7,0,0,0,.536,1.079,1.621,1.621,0,0,0,1.133.406,1.98,1.98,0,0,0,1.657-.768l.9,1.009a2.754,2.754,0,0,1-1.117.911A3.665,3.665,0,0,1,55.509,14.127ZM55.3,8.484a1.146,1.146,0,0,0-.885.37,1.915,1.915,0,0,0-.435,1.058h2.552V9.765a1.366,1.366,0,0,0-.33-.947A1.183,1.183,0,0,0,55.3,8.484Zm10.264,2.146a4.159,4.159,0,0,1-.7,2.574,2.334,2.334,0,0,1-1.968.924,2.144,2.144,0,0,1-1.784-.857l-.083.73h-1.65V4.25h1.834v3.5A2.089,2.089,0,0,1,62.878,7a2.353,2.353,0,0,1,1.971.924,4.165,4.165,0,0,1,.714,2.6ZM63.729,10.5a2.732,2.732,0,0,0-.33-1.52,1.116,1.116,0,0,0-.984-.479,1.21,1.21,0,0,0-1.206.717v2.71a1.226,1.226,0,0,0,1.219.724,1.133,1.133,0,0,0,1.168-.876A4.519,4.519,0,0,0,63.729,10.5ZM70.673,14a2.037,2.037,0,0,1-.184-.616,2.22,2.22,0,0,1-1.733.743,2.439,2.439,0,0,1-1.673-.584,1.878,1.878,0,0,1-.663-1.473,1.941,1.941,0,0,1,.809-1.676,3.994,3.994,0,0,1,2.339-.59h.844V9.411a1.132,1.132,0,0,0-.244-.762.961.961,0,0,0-.771-.286,1.093,1.093,0,0,0-.727.222.755.755,0,0,0-.263.609H66.573a1.843,1.843,0,0,1,.368-1.1,2.434,2.434,0,0,1,1.041-.8A3.794,3.794,0,0,1,69.493,7a3,3,0,0,1,2.015.638,2.232,2.232,0,0,1,.746,1.793v2.977a3.284,3.284,0,0,0,.273,1.479V14Zm-1.517-1.276a1.58,1.58,0,0,0,.749-.181,1.188,1.188,0,0,0,.508-.486V10.877h-.686q-1.377,0-1.466.952l-.006.108a.734.734,0,0,0,.241.565A.937.937,0,0,0,69.156,12.724Zm8.227-.622a.591.591,0,0,0-.333-.53,3.785,3.785,0,0,0-1.07-.346q-2.45-.514-2.45-2.082a1.887,1.887,0,0,1,.759-1.527A3.06,3.06,0,0,1,76.272,7a3.293,3.293,0,0,1,2.092.616,1.94,1.94,0,0,1,.784,1.6H77.313a.888.888,0,0,0-.254-.651,1.075,1.075,0,0,0-.793-.257,1.1,1.1,0,0,0-.717.209.661.661,0,0,0-.254.533.565.565,0,0,0,.289.492,2.971,2.971,0,0,0,.974.324,7.958,7.958,0,0,1,1.155.308,1.9,1.9,0,0,1,1.454,1.847,1.792,1.792,0,0,1-.806,1.52,3.478,3.478,0,0,1-2.082.581,3.632,3.632,0,0,1-1.533-.308,2.572,2.572,0,0,1-1.051-.844,1.962,1.962,0,0,1-.381-1.158h1.739a.958.958,0,0,0,.362.749,1.435,1.435,0,0,0,.9.26,1.328,1.328,0,0,0,.8-.2A.622.622,0,0,0,77.383,12.1Z" transform="translate(1273.496 -2213.96)" fill="#12263f"/>
    <path id="Trazado_603926" data-name="Trazado 603926" d="M10.246,10.617H8.729V14h-1.9V4.758h3.434a3.882,3.882,0,0,1,2.526.73,2.519,2.519,0,0,1,.889,2.063,2.843,2.843,0,0,1-.409,1.577,2.792,2.792,0,0,1-1.241,1.006l2,3.777V14H11.979ZM8.729,9.074h1.536a1.573,1.573,0,0,0,1.111-.365A1.3,1.3,0,0,0,11.77,7.7,1.4,1.4,0,0,0,11.4,6.675,1.543,1.543,0,0,0,10.259,6.3H8.729Zm9.433,5.053A3.372,3.372,0,0,1,15.7,13.2a3.294,3.294,0,0,1-.949-2.469v-.178a4.149,4.149,0,0,1,.4-1.85,2.935,2.935,0,0,1,1.133-1.257A3.18,3.18,0,0,1,17.959,7a2.85,2.85,0,0,1,2.219.889,3.611,3.611,0,0,1,.809,2.52v.749H16.613a1.7,1.7,0,0,0,.536,1.079,1.621,1.621,0,0,0,1.133.406,1.98,1.98,0,0,0,1.657-.768l.9,1.009a2.754,2.754,0,0,1-1.117.911A3.665,3.665,0,0,1,18.162,14.127Zm-.209-5.643a1.146,1.146,0,0,0-.885.37,1.915,1.915,0,0,0-.435,1.058h2.552V9.765a1.366,1.366,0,0,0-.33-.947A1.183,1.183,0,0,0,17.952,8.484ZM26.008,14a2.037,2.037,0,0,1-.184-.616,2.22,2.22,0,0,1-1.733.743,2.439,2.439,0,0,1-1.673-.584,1.878,1.878,0,0,1-.663-1.473,1.941,1.941,0,0,1,.809-1.676A3.994,3.994,0,0,1,24.9,9.8h.844V9.411a1.132,1.132,0,0,0-.244-.762.961.961,0,0,0-.771-.286A1.093,1.093,0,0,0,24,8.585a.755.755,0,0,0-.263.609H21.907a1.843,1.843,0,0,1,.368-1.1,2.434,2.434,0,0,1,1.041-.8A3.794,3.794,0,0,1,24.827,7a3,3,0,0,1,2.015.638,2.232,2.232,0,0,1,.746,1.793v2.977a3.284,3.284,0,0,0,.273,1.479V14ZM24.49,12.724a1.58,1.58,0,0,0,.749-.181,1.188,1.188,0,0,0,.508-.486V10.877h-.686q-1.377,0-1.466.952l-.006.108a.734.734,0,0,0,.241.565A.937.937,0,0,0,24.49,12.724Zm6.2-5.592.057.793A2.4,2.4,0,0,1,32.717,7a1.993,1.993,0,0,1,1.625.641,2.991,2.991,0,0,1,.546,1.917V14H33.053V9.607A1.19,1.19,0,0,0,32.8,8.76a1.137,1.137,0,0,0-.844-.263,1.262,1.262,0,0,0-1.162.66V14H28.959V7.132Zm9.706,6.17a2.3,2.3,0,0,1-1.879.825,2.17,2.17,0,0,1-1.685-.635,2.71,2.71,0,0,1-.594-1.86v-4.5h1.834v4.442q0,1.074.978,1.074A1.325,1.325,0,0,0,40.328,12V7.132h1.841V14H40.442Zm2.875-2.787a4.139,4.139,0,0,1,.72-2.558A2.338,2.338,0,0,1,45.958,7a2.1,2.1,0,0,1,1.657.749V4.25h1.841V14H47.8l-.089-.73a2.159,2.159,0,0,1-1.765.857A2.331,2.331,0,0,1,44,13.172,4.272,4.272,0,0,1,43.267,10.515Zm1.834.137a2.711,2.711,0,0,0,.336,1.481,1.1,1.1,0,0,0,.978.515,1.227,1.227,0,0,0,1.2-.718V9.215A1.21,1.21,0,0,0,46.428,8.5Q45.1,8.5,45.1,10.652ZM54.858,14a2.037,2.037,0,0,1-.184-.616,2.22,2.22,0,0,1-1.733.743,2.439,2.439,0,0,1-1.673-.584A1.878,1.878,0,0,1,50.6,12.07a1.941,1.941,0,0,1,.809-1.676,3.994,3.994,0,0,1,2.339-.59H54.6V9.411a1.132,1.132,0,0,0-.244-.762.961.961,0,0,0-.771-.286,1.093,1.093,0,0,0-.727.222.755.755,0,0,0-.263.609H50.757a1.843,1.843,0,0,1,.368-1.1,2.434,2.434,0,0,1,1.041-.8A3.794,3.794,0,0,1,53.677,7a3,3,0,0,1,2.015.638,2.232,2.232,0,0,1,.746,1.793v2.977a3.284,3.284,0,0,0,.273,1.479V14Zm-1.517-1.276a1.58,1.58,0,0,0,.749-.181,1.188,1.188,0,0,0,.508-.486V10.877h-.686q-1.377,0-1.466.952l-.006.108a.734.734,0,0,0,.241.565A.937.937,0,0,0,53.341,12.724Zm7.363-.076a1.2,1.2,0,0,0,.825-.279.979.979,0,0,0,.33-.743h1.72a2.353,2.353,0,0,1-.381,1.279,2.513,2.513,0,0,1-1.025.9,3.208,3.208,0,0,1-1.438.321,2.982,2.982,0,0,1-2.323-.936,3.705,3.705,0,0,1-.851-2.587v-.121a3.663,3.663,0,0,1,.844-2.533A2.947,2.947,0,0,1,60.723,7a2.889,2.889,0,0,1,2.066.733,2.6,2.6,0,0,1,.79,1.952h-1.72a1.261,1.261,0,0,0-.33-.871,1.227,1.227,0,0,0-1.806.132,2.708,2.708,0,0,0-.327,1.516v.191a2.742,2.742,0,0,0,.324,1.526A1.119,1.119,0,0,0,60.7,12.648ZM66.563,14H64.722V7.132h1.841ZM64.614,5.354a.9.9,0,0,1,.276-.679,1.19,1.19,0,0,1,1.5,0,.9.9,0,0,1,.279.679.9.9,0,0,1-.282.686,1.177,1.177,0,0,1-1.492,0A.9.9,0,0,1,64.614,5.354ZM67.788,10.5a4.073,4.073,0,0,1,.394-1.822,2.881,2.881,0,0,1,1.133-1.238A3.306,3.306,0,0,1,71.031,7a3.127,3.127,0,0,1,2.269.851,3.414,3.414,0,0,1,.981,2.311l.013.47a3.59,3.59,0,0,1-.882,2.536,3.42,3.42,0,0,1-4.739,0,3.653,3.653,0,0,1-.885-2.59Zm1.834.13a2.567,2.567,0,0,0,.368,1.5,1.323,1.323,0,0,0,2.095.006A2.809,2.809,0,0,0,72.46,10.5a2.542,2.542,0,0,0-.375-1.488,1.217,1.217,0,0,0-1.054-.528,1.2,1.2,0,0,0-1.041.524A2.857,2.857,0,0,0,69.622,10.633ZM71.393,4.25h2L71.635,6.218H70.143Zm5.719,2.882.057.793A2.4,2.4,0,0,1,79.144,7a1.993,1.993,0,0,1,1.625.641,2.991,2.991,0,0,1,.546,1.917V14H79.48V9.607a1.19,1.19,0,0,0-.254-.847,1.137,1.137,0,0,0-.844-.263,1.262,1.262,0,0,0-1.162.66V14H75.386V7.132ZM8.771,25.515a4.139,4.139,0,0,1,.72-2.558A2.338,2.338,0,0,1,11.462,22a2.1,2.1,0,0,1,1.657.749v-3.5h1.841V29H13.3l-.089-.73a2.159,2.159,0,0,1-1.765.857A2.331,2.331,0,0,1,9.5,28.172,4.272,4.272,0,0,1,8.771,25.515Zm1.834.137a2.711,2.711,0,0,0,.336,1.481,1.1,1.1,0,0,0,.978.515,1.227,1.227,0,0,0,1.2-.718V24.215a1.21,1.21,0,0,0-1.187-.718Q10.6,23.5,10.6,25.652Zm8.938,3.475a3.372,3.372,0,0,1-2.46-.927,3.294,3.294,0,0,1-.949-2.469v-.178a4.149,4.149,0,0,1,.4-1.85,2.935,2.935,0,0,1,1.133-1.257A3.18,3.18,0,0,1,19.339,22a2.85,2.85,0,0,1,2.219.889,3.611,3.611,0,0,1,.809,2.52v.749H17.994a1.7,1.7,0,0,0,.536,1.079,1.621,1.621,0,0,0,1.133.406,1.98,1.98,0,0,0,1.657-.768l.9,1.009A2.754,2.754,0,0,1,21.1,28.8,3.665,3.665,0,0,1,19.542,29.127Zm-.209-5.643a1.146,1.146,0,0,0-.885.37,1.915,1.915,0,0,0-.435,1.058h2.552v-.147a1.366,1.366,0,0,0-.33-.947A1.183,1.183,0,0,0,19.333,23.484Zm13.5,2.146a4.119,4.119,0,0,1-.72,2.542,2.31,2.31,0,0,1-1.946.955A2.14,2.14,0,0,1,28.48,28.4v3.237H26.646V22.132h1.7l.063.673a2.156,2.156,0,0,1,1.739-.8,2.326,2.326,0,0,1,1.974.939,4.231,4.231,0,0,1,.7,2.59ZM30.994,25.5a2.7,2.7,0,0,0-.34-1.479,1.106,1.106,0,0,0-.987-.521,1.2,1.2,0,0,0-1.187.66v2.812a1.222,1.222,0,0,0,1.2.679Q30.994,27.648,30.994,25.5Zm6.83-1.644a4.984,4.984,0,0,0-.66-.051,1.344,1.344,0,0,0-1.365.7V29H33.964V22.132H35.7l.051.819A1.7,1.7,0,0,1,37.278,22a1.922,1.922,0,0,1,.571.083Zm.368,1.65a4.073,4.073,0,0,1,.394-1.822,2.881,2.881,0,0,1,1.133-1.238A3.306,3.306,0,0,1,41.436,22a3.128,3.128,0,0,1,2.269.851,3.414,3.414,0,0,1,.981,2.311l.013.47a3.59,3.59,0,0,1-.882,2.536,3.42,3.42,0,0,1-4.739,0,3.653,3.653,0,0,1-.885-2.59Zm1.834.13a2.567,2.567,0,0,0,.368,1.5,1.323,1.323,0,0,0,2.095.006,2.809,2.809,0,0,0,.375-1.637,2.542,2.542,0,0,0-.375-1.488,1.217,1.217,0,0,0-1.054-.528,1.2,1.2,0,0,0-1.041.524A2.857,2.857,0,0,0,40.026,25.633Zm8.658,2.015a1.2,1.2,0,0,0,.825-.279.979.979,0,0,0,.33-.743h1.72a2.353,2.353,0,0,1-.381,1.279,2.513,2.513,0,0,1-1.025.9,3.208,3.208,0,0,1-1.438.321,2.982,2.982,0,0,1-2.323-.936,3.705,3.705,0,0,1-.851-2.587v-.121a3.663,3.663,0,0,1,.844-2.533A2.947,2.947,0,0,1,48.7,22a2.889,2.889,0,0,1,2.066.733,2.6,2.6,0,0,1,.79,1.952H49.84a1.261,1.261,0,0,0-.33-.871,1.227,1.227,0,0,0-1.806.132,2.708,2.708,0,0,0-.327,1.516v.191a2.742,2.742,0,0,0,.324,1.526A1.119,1.119,0,0,0,48.685,27.648Zm7.084,1.479a3.372,3.372,0,0,1-2.46-.927,3.294,3.294,0,0,1-.949-2.469v-.178a4.149,4.149,0,0,1,.4-1.85,2.935,2.935,0,0,1,1.133-1.257A3.18,3.18,0,0,1,55.565,22a2.85,2.85,0,0,1,2.219.889,3.611,3.611,0,0,1,.809,2.52v.749H54.22a1.7,1.7,0,0,0,.536,1.079,1.621,1.621,0,0,0,1.133.406,1.98,1.98,0,0,0,1.657-.768l.9,1.009a2.754,2.754,0,0,1-1.117.911A3.665,3.665,0,0,1,55.769,29.127Zm-.209-5.643a1.146,1.146,0,0,0-.885.37,1.915,1.915,0,0,0-.435,1.058h2.552v-.147a1.366,1.366,0,0,0-.33-.947A1.183,1.183,0,0,0,55.559,23.484ZM63.354,27.1a.591.591,0,0,0-.333-.53,3.785,3.785,0,0,0-1.07-.346q-2.45-.514-2.45-2.082a1.887,1.887,0,0,1,.759-1.527A3.06,3.06,0,0,1,62.243,22a3.293,3.293,0,0,1,2.092.616,1.94,1.94,0,0,1,.784,1.6H63.284a.888.888,0,0,0-.254-.651,1.075,1.075,0,0,0-.793-.257,1.1,1.1,0,0,0-.717.209.661.661,0,0,0-.254.533.565.565,0,0,0,.289.492,2.971,2.971,0,0,0,.974.324,7.958,7.958,0,0,1,1.155.308,1.9,1.9,0,0,1,1.454,1.847,1.792,1.792,0,0,1-.806,1.52,3.478,3.478,0,0,1-2.082.581,3.632,3.632,0,0,1-1.533-.308,2.572,2.572,0,0,1-1.051-.844,1.962,1.962,0,0,1-.381-1.158h1.739a.958.958,0,0,0,.362.749,1.435,1.435,0,0,0,.9.26,1.328,1.328,0,0,0,.8-.2A.622.622,0,0,0,63.354,27.1Zm2.679-1.6a4.073,4.073,0,0,1,.394-1.822,2.881,2.881,0,0,1,1.133-1.238A3.306,3.306,0,0,1,69.276,22a3.127,3.127,0,0,1,2.269.851,3.414,3.414,0,0,1,.981,2.311l.013.47a3.59,3.59,0,0,1-.882,2.536,3.42,3.42,0,0,1-4.739,0,3.653,3.653,0,0,1-.885-2.59Zm1.834.13a2.567,2.567,0,0,0,.368,1.5,1.323,1.323,0,0,0,2.095.006A2.809,2.809,0,0,0,70.7,25.5a2.542,2.542,0,0,0-.375-1.488,1.217,1.217,0,0,0-1.054-.528,1.2,1.2,0,0,0-1.041.524A2.857,2.857,0,0,0,67.867,25.633ZM77.389,27.1a.591.591,0,0,0-.333-.53,3.785,3.785,0,0,0-1.07-.346q-2.45-.514-2.45-2.082a1.887,1.887,0,0,1,.759-1.527A3.06,3.06,0,0,1,76.278,22a3.293,3.293,0,0,1,2.092.616,1.94,1.94,0,0,1,.784,1.6H77.319a.888.888,0,0,0-.254-.651,1.075,1.075,0,0,0-.793-.257,1.1,1.1,0,0,0-.717.209.661.661,0,0,0-.254.533.565.565,0,0,0,.289.492,2.971,2.971,0,0,0,.974.324,7.958,7.958,0,0,1,1.155.308,1.9,1.9,0,0,1,1.454,1.847,1.792,1.792,0,0,1-.806,1.52,3.478,3.478,0,0,1-2.082.581,3.632,3.632,0,0,1-1.533-.308,2.572,2.572,0,0,1-1.051-.844,1.962,1.962,0,0,1-.381-1.158h1.739a.958.958,0,0,0,.362.749,1.435,1.435,0,0,0,.9.26,1.328,1.328,0,0,0,.8-.2A.622.622,0,0,0,77.389,27.1Z" transform="translate(1286.521 -2285.357)" fill="#12263f"/>
    <path id="Trazado_603927" data-name="Trazado 603927" d="M30.978,9.995H27.322V12.47h4.291V14h-6.2V4.758H31.6V6.3H27.322V8.5h3.656ZM36.329,12.1a.591.591,0,0,0-.333-.53,3.785,3.785,0,0,0-1.07-.346q-2.45-.514-2.45-2.082a1.887,1.887,0,0,1,.759-1.527A3.06,3.06,0,0,1,35.218,7a3.293,3.293,0,0,1,2.092.616,1.94,1.94,0,0,1,.784,1.6H36.26a.888.888,0,0,0-.254-.651,1.075,1.075,0,0,0-.793-.257,1.1,1.1,0,0,0-.717.209.661.661,0,0,0-.254.533.565.565,0,0,0,.289.492,2.971,2.971,0,0,0,.974.324,7.959,7.959,0,0,1,1.155.308,1.9,1.9,0,0,1,1.454,1.847,1.792,1.792,0,0,1-.806,1.52,3.478,3.478,0,0,1-2.082.581,3.632,3.632,0,0,1-1.533-.308,2.572,2.572,0,0,1-1.051-.844,1.962,1.962,0,0,1-.381-1.158H34a.958.958,0,0,0,.362.749,1.435,1.435,0,0,0,.9.26,1.328,1.328,0,0,0,.8-.2A.622.622,0,0,0,36.329,12.1ZM41.49,5.443V7.132h1.174V8.478H41.49v3.428a.818.818,0,0,0,.146.546.733.733,0,0,0,.559.165,2.925,2.925,0,0,0,.54-.044v1.39a3.776,3.776,0,0,1-1.111.165,1.752,1.752,0,0,1-1.968-1.949v-3.7h-1V7.132h1V5.443ZM47.666,14a2.037,2.037,0,0,1-.184-.616,2.22,2.22,0,0,1-1.733.743,2.439,2.439,0,0,1-1.673-.584,1.878,1.878,0,0,1-.663-1.473,1.941,1.941,0,0,1,.809-1.676,3.994,3.994,0,0,1,2.339-.59h.844V9.411a1.132,1.132,0,0,0-.244-.762.961.961,0,0,0-.771-.286,1.093,1.093,0,0,0-.727.222.755.755,0,0,0-.263.609H43.566a1.843,1.843,0,0,1,.368-1.1,2.434,2.434,0,0,1,1.041-.8A3.794,3.794,0,0,1,46.486,7a3,3,0,0,1,2.015.638,2.232,2.232,0,0,1,.746,1.793v2.977a3.284,3.284,0,0,0,.273,1.479V14Zm-1.517-1.276a1.58,1.58,0,0,0,.749-.181,1.188,1.188,0,0,0,.508-.486V10.877H46.72q-1.377,0-1.466.952l-.006.108a.734.734,0,0,0,.241.565A.937.937,0,0,0,46.149,12.724Zm10.7-2.095a4.159,4.159,0,0,1-.7,2.574,2.334,2.334,0,0,1-1.968.924,2.144,2.144,0,0,1-1.784-.857l-.083.73h-1.65V4.25H52.49v3.5A2.089,2.089,0,0,1,54.16,7a2.353,2.353,0,0,1,1.971.924,4.165,4.165,0,0,1,.714,2.6ZM55.01,10.5a2.732,2.732,0,0,0-.33-1.52A1.116,1.116,0,0,0,53.7,8.5a1.21,1.21,0,0,0-1.206.717v2.71a1.226,1.226,0,0,0,1.219.724,1.133,1.133,0,0,0,1.168-.876A4.519,4.519,0,0,0,55.01,10.5Zm4.9,3.5H58.07V4.25h1.841Zm4.672.127a3.372,3.372,0,0,1-2.46-.927,3.294,3.294,0,0,1-.949-2.469v-.178a4.149,4.149,0,0,1,.4-1.85,2.935,2.935,0,0,1,1.133-1.257A3.18,3.18,0,0,1,64.38,7a2.85,2.85,0,0,1,2.219.889,3.611,3.611,0,0,1,.809,2.52v.749H63.034a1.7,1.7,0,0,0,.536,1.079,1.621,1.621,0,0,0,1.133.406,1.98,1.98,0,0,0,1.657-.768l.9,1.009a2.754,2.754,0,0,1-1.117.911A3.665,3.665,0,0,1,64.583,14.127Zm-.209-5.643a1.146,1.146,0,0,0-.885.37,1.915,1.915,0,0,0-.435,1.058H65.6V9.765a1.366,1.366,0,0,0-.33-.947A1.183,1.183,0,0,0,64.373,8.484ZM71.3,12.648a1.2,1.2,0,0,0,.825-.279.979.979,0,0,0,.33-.743h1.72a2.353,2.353,0,0,1-.381,1.279,2.513,2.513,0,0,1-1.025.9,3.208,3.208,0,0,1-1.438.321,2.982,2.982,0,0,1-2.323-.936,3.705,3.705,0,0,1-.851-2.587v-.121a3.663,3.663,0,0,1,.844-2.533A2.947,2.947,0,0,1,71.324,7a2.889,2.889,0,0,1,2.066.733,2.6,2.6,0,0,1,.79,1.952H72.46a1.261,1.261,0,0,0-.33-.871,1.227,1.227,0,0,0-1.806.132A2.708,2.708,0,0,0,70,10.467v.191a2.742,2.742,0,0,0,.324,1.526A1.119,1.119,0,0,0,71.3,12.648Zm7.084,1.479a3.372,3.372,0,0,1-2.46-.927,3.294,3.294,0,0,1-.949-2.469v-.178a4.149,4.149,0,0,1,.4-1.85,2.935,2.935,0,0,1,1.133-1.257A3.18,3.18,0,0,1,78.186,7a2.85,2.85,0,0,1,2.219.889,3.611,3.611,0,0,1,.809,2.52v.749H76.84a1.7,1.7,0,0,0,.536,1.079,1.621,1.621,0,0,0,1.133.406,1.98,1.98,0,0,0,1.657-.768l.9,1.009a2.754,2.754,0,0,1-1.117.911A3.665,3.665,0,0,1,78.389,14.127Zm-.209-5.643a1.146,1.146,0,0,0-.885.37,1.915,1.915,0,0,0-.435,1.058h2.552V9.765a1.366,1.366,0,0,0-.33-.947A1.183,1.183,0,0,0,78.179,8.484Zm7.935.368a4.984,4.984,0,0,0-.66-.051,1.344,1.344,0,0,0-1.365.7V14H82.255V7.132h1.733l.051.819A1.7,1.7,0,0,1,85.568,7a1.922,1.922,0,0,1,.571.083ZM9.91,25.629a4.119,4.119,0,0,1-.72,2.542,2.31,2.31,0,0,1-1.946.955A2.14,2.14,0,0,1,5.562,28.4v3.237H3.728V22.132h1.7l.063.673A2.156,2.156,0,0,1,7.232,22a2.326,2.326,0,0,1,1.974.939,4.231,4.231,0,0,1,.7,2.59ZM8.076,25.5a2.7,2.7,0,0,0-.34-1.479,1.106,1.106,0,0,0-.987-.521,1.2,1.2,0,0,0-1.187.66v2.812a1.222,1.222,0,0,0,1.2.679Q8.076,27.648,8.076,25.5Zm6.83-1.644a4.984,4.984,0,0,0-.66-.051,1.344,1.344,0,0,0-1.365.7V29H11.047V22.132H12.78l.051.819A1.7,1.7,0,0,1,14.36,22a1.922,1.922,0,0,1,.571.083Zm.368,1.65a4.073,4.073,0,0,1,.394-1.822A2.881,2.881,0,0,1,16.8,22.443,3.306,3.306,0,0,1,18.518,22a3.128,3.128,0,0,1,2.269.851,3.414,3.414,0,0,1,.981,2.311l.013.47a3.59,3.59,0,0,1-.882,2.536,3.067,3.067,0,0,1-2.368.955,3.082,3.082,0,0,1-2.371-.952,3.653,3.653,0,0,1-.885-2.59Zm1.834.13a2.567,2.567,0,0,0,.368,1.5,1.323,1.323,0,0,0,2.095.006,2.809,2.809,0,0,0,.375-1.637,2.542,2.542,0,0,0-.375-1.488,1.217,1.217,0,0,0-1.054-.528,1.2,1.2,0,0,0-1.041.524A2.857,2.857,0,0,0,17.109,25.633Zm8.658,2.015a1.2,1.2,0,0,0,.825-.279.979.979,0,0,0,.33-.743h1.72a2.353,2.353,0,0,1-.381,1.279,2.513,2.513,0,0,1-1.025.9,3.208,3.208,0,0,1-1.438.321,2.982,2.982,0,0,1-2.323-.936,3.705,3.705,0,0,1-.851-2.587v-.121a3.663,3.663,0,0,1,.844-2.533A2.947,2.947,0,0,1,25.786,22a2.889,2.889,0,0,1,2.066.733,2.6,2.6,0,0,1,.79,1.952h-1.72a1.261,1.261,0,0,0-.33-.871,1.227,1.227,0,0,0-1.806.132,2.708,2.708,0,0,0-.327,1.516v.191a2.742,2.742,0,0,0,.324,1.526A1.119,1.119,0,0,0,25.767,27.648Zm7.084,1.479a3.372,3.372,0,0,1-2.46-.927,3.294,3.294,0,0,1-.949-2.469v-.178a4.149,4.149,0,0,1,.4-1.85,2.935,2.935,0,0,1,1.133-1.257A3.18,3.18,0,0,1,32.648,22a2.85,2.85,0,0,1,2.219.889,3.611,3.611,0,0,1,.809,2.52v.749H31.3a1.7,1.7,0,0,0,.536,1.079,1.621,1.621,0,0,0,1.133.406,1.98,1.98,0,0,0,1.657-.768l.9,1.009a2.754,2.754,0,0,1-1.117.911A3.665,3.665,0,0,1,32.851,29.127Zm-.209-5.643a1.146,1.146,0,0,0-.885.37,1.915,1.915,0,0,0-.435,1.058h2.552v-.147a1.366,1.366,0,0,0-.33-.947A1.183,1.183,0,0,0,32.641,23.484ZM40.436,27.1a.591.591,0,0,0-.333-.53,3.785,3.785,0,0,0-1.07-.346q-2.45-.514-2.45-2.082a1.887,1.887,0,0,1,.759-1.527A3.06,3.06,0,0,1,39.325,22a3.293,3.293,0,0,1,2.092.616,1.94,1.94,0,0,1,.784,1.6H40.366a.888.888,0,0,0-.254-.651,1.075,1.075,0,0,0-.793-.257,1.1,1.1,0,0,0-.717.209.661.661,0,0,0-.254.533.565.565,0,0,0,.289.492,2.971,2.971,0,0,0,.974.324,7.958,7.958,0,0,1,1.155.308,1.9,1.9,0,0,1,1.454,1.847,1.792,1.792,0,0,1-.806,1.52,3.478,3.478,0,0,1-2.082.581,3.632,3.632,0,0,1-1.533-.308,2.572,2.572,0,0,1-1.051-.844,1.962,1.962,0,0,1-.381-1.158h1.739a.958.958,0,0,0,.362.749,1.435,1.435,0,0,0,.9.26,1.328,1.328,0,0,0,.8-.2A.622.622,0,0,0,40.436,27.1Zm2.679-1.6a4.073,4.073,0,0,1,.394-1.822,2.881,2.881,0,0,1,1.133-1.238A3.306,3.306,0,0,1,46.359,22a3.128,3.128,0,0,1,2.269.851,3.414,3.414,0,0,1,.981,2.311l.013.47a3.59,3.59,0,0,1-.882,2.536,3.42,3.42,0,0,1-4.739,0,3.653,3.653,0,0,1-.885-2.59Zm1.834.13a2.567,2.567,0,0,0,.368,1.5,1.323,1.323,0,0,0,2.095.006,2.809,2.809,0,0,0,.375-1.637,2.542,2.542,0,0,0-.375-1.488,1.217,1.217,0,0,0-1.054-.528,1.2,1.2,0,0,0-1.041.524A2.857,2.857,0,0,0,44.949,25.633ZM54.471,27.1a.591.591,0,0,0-.333-.53,3.785,3.785,0,0,0-1.07-.346q-2.45-.514-2.45-2.082a1.887,1.887,0,0,1,.759-1.527A3.06,3.06,0,0,1,53.36,22a3.293,3.293,0,0,1,2.092.616,1.94,1.94,0,0,1,.784,1.6H54.4a.888.888,0,0,0-.254-.651,1.075,1.075,0,0,0-.793-.257,1.1,1.1,0,0,0-.717.209.661.661,0,0,0-.254.533.565.565,0,0,0,.289.492,2.971,2.971,0,0,0,.974.324,7.958,7.958,0,0,1,1.155.308,1.9,1.9,0,0,1,1.454,1.847,1.792,1.792,0,0,1-.806,1.52,3.478,3.478,0,0,1-2.082.581,3.632,3.632,0,0,1-1.533-.308,2.572,2.572,0,0,1-1.051-.844,1.962,1.962,0,0,1-.381-1.158h1.739a.958.958,0,0,0,.362.749,1.435,1.435,0,0,0,.9.26,1.328,1.328,0,0,0,.8-.2A.622.622,0,0,0,54.471,27.1ZM64.653,29a2.037,2.037,0,0,1-.184-.616,2.22,2.22,0,0,1-1.733.743,2.439,2.439,0,0,1-1.673-.584A1.878,1.878,0,0,1,60.4,27.07a1.941,1.941,0,0,1,.809-1.676,3.994,3.994,0,0,1,2.339-.59h.844v-.394a1.132,1.132,0,0,0-.244-.762.961.961,0,0,0-.771-.286,1.093,1.093,0,0,0-.727.222.755.755,0,0,0-.263.609H60.552a1.843,1.843,0,0,1,.368-1.1,2.434,2.434,0,0,1,1.041-.8A3.794,3.794,0,0,1,63.472,22a3,3,0,0,1,2.015.638,2.232,2.232,0,0,1,.746,1.793v2.977a3.284,3.284,0,0,0,.273,1.479V29Zm-1.517-1.276a1.58,1.58,0,0,0,.749-.181,1.188,1.188,0,0,0,.508-.486V25.877h-.686q-1.377,0-1.466.952l-.006.108a.734.734,0,0,0,.241.565A.937.937,0,0,0,63.135,27.724ZM69.578,29H67.738V19.25h1.841Zm3.707-8.557v1.688H74.46v1.346H73.285v3.428a.818.818,0,0,0,.146.546.733.733,0,0,0,.559.165,2.925,2.925,0,0,0,.54-.044v1.39a3.777,3.777,0,0,1-1.111.165,1.752,1.752,0,0,1-1.968-1.949v-3.7h-1V22.132h1V20.443Zm5.357,8.684a3.372,3.372,0,0,1-2.46-.927,3.294,3.294,0,0,1-.949-2.469v-.178a4.149,4.149,0,0,1,.4-1.85,2.935,2.935,0,0,1,1.133-1.257A3.18,3.18,0,0,1,78.44,22a2.85,2.85,0,0,1,2.219.889,3.611,3.611,0,0,1,.809,2.52v.749H77.094a1.7,1.7,0,0,0,.536,1.079,1.621,1.621,0,0,0,1.133.406,1.98,1.98,0,0,0,1.657-.768l.9,1.009A2.754,2.754,0,0,1,80.2,28.8,3.665,3.665,0,0,1,78.643,29.127Zm-.209-5.643a1.146,1.146,0,0,0-.885.37,1.915,1.915,0,0,0-.435,1.058h2.552v-.147a1.366,1.366,0,0,0-.33-.947A1.183,1.183,0,0,0,78.433,23.484Zm7.935.368a4.984,4.984,0,0,0-.66-.051,1.344,1.344,0,0,0-1.365.7V29H82.509V22.132h1.733l.051.819A1.7,1.7,0,0,1,85.822,22a1.922,1.922,0,0,1,.571.083Zm2.571-1.72.057.793A2.4,2.4,0,0,1,90.97,22a1.993,1.993,0,0,1,1.625.641,2.991,2.991,0,0,1,.546,1.917V29H91.306V24.607a1.19,1.19,0,0,0-.254-.847,1.137,1.137,0,0,0-.844-.263,1.262,1.262,0,0,0-1.162.66V29H87.212V22.132ZM94.245,25.5a4.073,4.073,0,0,1,.394-1.822,2.881,2.881,0,0,1,1.133-1.238A3.306,3.306,0,0,1,97.489,22a3.127,3.127,0,0,1,2.269.851,3.414,3.414,0,0,1,.981,2.311l.013.47a3.59,3.59,0,0,1-.882,2.536,3.42,3.42,0,0,1-4.739,0,3.653,3.653,0,0,1-.885-2.59Zm1.834.13a2.567,2.567,0,0,0,.368,1.5,1.323,1.323,0,0,0,2.095.006,2.809,2.809,0,0,0,.375-1.637,2.542,2.542,0,0,0-.375-1.488,1.217,1.217,0,0,0-1.054-.528,1.2,1.2,0,0,0-1.041.524A2.857,2.857,0,0,0,96.08,25.633ZM105.6,27.1a.591.591,0,0,0-.333-.53,3.785,3.785,0,0,0-1.07-.346q-2.45-.514-2.45-2.082a1.887,1.887,0,0,1,.759-1.527A3.06,3.06,0,0,1,104.49,22a3.293,3.293,0,0,1,2.092.616,1.94,1.94,0,0,1,.784,1.6h-1.834a.888.888,0,0,0-.254-.651,1.075,1.075,0,0,0-.793-.257,1.1,1.1,0,0,0-.717.209.661.661,0,0,0-.254.533.565.565,0,0,0,.289.492,2.971,2.971,0,0,0,.974.324,7.958,7.958,0,0,1,1.155.308,1.9,1.9,0,0,1,1.454,1.847,1.792,1.792,0,0,1-.806,1.52,3.478,3.478,0,0,1-2.082.581,3.632,3.632,0,0,1-1.533-.308,2.572,2.572,0,0,1-1.051-.844,1.962,1.962,0,0,1-.381-1.158h1.739a.958.958,0,0,0,.362.749,1.435,1.435,0,0,0,.9.26,1.328,1.328,0,0,0,.8-.2A.622.622,0,0,0,105.6,27.1Z" transform="translate(1273.496 -2097.677)" fill="#12263f"/>
    <path id="Trazado_603928" data-name="Trazado 603928" d="M4.355,10.744V14H2.45V4.758H6.056a4.171,4.171,0,0,1,1.831.381A2.807,2.807,0,0,1,9.1,6.221a3.018,3.018,0,0,1,.425,1.6A2.654,2.654,0,0,1,8.6,9.96a3.873,3.873,0,0,1-2.574.784Zm0-1.542h1.7a1.673,1.673,0,0,0,1.152-.355A1.293,1.293,0,0,0,7.6,7.83a1.524,1.524,0,0,0-.4-1.1A1.494,1.494,0,0,0,6.1,6.3H4.355Zm10.22-.349a4.984,4.984,0,0,0-.66-.051,1.344,1.344,0,0,0-1.365.7V14H10.715V7.132h1.733l.051.819A1.7,1.7,0,0,1,14.029,7a1.922,1.922,0,0,1,.571.083Zm.368,1.65a4.073,4.073,0,0,1,.394-1.822,2.881,2.881,0,0,1,1.133-1.238A3.306,3.306,0,0,1,18.186,7a3.127,3.127,0,0,1,2.269.851,3.414,3.414,0,0,1,.981,2.311l.013.47a3.59,3.59,0,0,1-.882,2.536,3.067,3.067,0,0,1-2.368.955,3.082,3.082,0,0,1-2.371-.952,3.653,3.653,0,0,1-.885-2.59Zm1.834.13a2.567,2.567,0,0,0,.368,1.5,1.323,1.323,0,0,0,2.095.006,2.809,2.809,0,0,0,.375-1.637,2.542,2.542,0,0,0-.375-1.488,1.217,1.217,0,0,0-1.054-.528,1.2,1.2,0,0,0-1.041.524A2.857,2.857,0,0,0,16.777,10.633Zm8.658,2.015a1.2,1.2,0,0,0,.825-.279.979.979,0,0,0,.33-.743h1.72a2.353,2.353,0,0,1-.381,1.279,2.513,2.513,0,0,1-1.025.9,3.208,3.208,0,0,1-1.438.321,2.982,2.982,0,0,1-2.323-.936,3.705,3.705,0,0,1-.851-2.587v-.121a3.663,3.663,0,0,1,.844-2.533A2.947,2.947,0,0,1,25.454,7a2.889,2.889,0,0,1,2.066.733,2.6,2.6,0,0,1,.79,1.952h-1.72a1.261,1.261,0,0,0-.33-.871,1.227,1.227,0,0,0-1.806.132,2.708,2.708,0,0,0-.327,1.516v.191a2.742,2.742,0,0,0,.324,1.526A1.119,1.119,0,0,0,25.435,12.648Zm7.084,1.479a3.372,3.372,0,0,1-2.46-.927,3.294,3.294,0,0,1-.949-2.469v-.178a4.149,4.149,0,0,1,.4-1.85,2.935,2.935,0,0,1,1.133-1.257A3.18,3.18,0,0,1,32.316,7a2.85,2.85,0,0,1,2.219.889,3.611,3.611,0,0,1,.809,2.52v.749H30.97a1.7,1.7,0,0,0,.536,1.079,1.621,1.621,0,0,0,1.133.406A1.98,1.98,0,0,0,34.3,11.88l.9,1.009a2.754,2.754,0,0,1-1.117.911A3.665,3.665,0,0,1,32.519,14.127ZM32.31,8.484a1.146,1.146,0,0,0-.885.37,1.915,1.915,0,0,0-.435,1.058h2.552V9.765a1.366,1.366,0,0,0-.33-.947A1.183,1.183,0,0,0,32.31,8.484ZM40.1,12.1a.591.591,0,0,0-.333-.53,3.785,3.785,0,0,0-1.07-.346q-2.45-.514-2.45-2.082a1.887,1.887,0,0,1,.759-1.527A3.06,3.06,0,0,1,38.994,7a3.293,3.293,0,0,1,2.092.616,1.94,1.94,0,0,1,.784,1.6H40.035a.888.888,0,0,0-.254-.651,1.075,1.075,0,0,0-.793-.257,1.1,1.1,0,0,0-.717.209.661.661,0,0,0-.254.533.565.565,0,0,0,.289.492,2.971,2.971,0,0,0,.974.324,7.959,7.959,0,0,1,1.155.308,1.9,1.9,0,0,1,1.454,1.847,1.792,1.792,0,0,1-.806,1.52A3.478,3.478,0,0,1,39,14.127a3.632,3.632,0,0,1-1.533-.308,2.572,2.572,0,0,1-1.051-.844,1.962,1.962,0,0,1-.381-1.158h1.739a.958.958,0,0,0,.362.749,1.435,1.435,0,0,0,.9.26,1.328,1.328,0,0,0,.8-.2A.622.622,0,0,0,40.1,12.1Zm2.679-1.6a4.073,4.073,0,0,1,.394-1.822A2.881,2.881,0,0,1,44.31,7.443,3.306,3.306,0,0,1,46.027,7a3.128,3.128,0,0,1,2.269.851,3.414,3.414,0,0,1,.981,2.311l.013.47a3.59,3.59,0,0,1-.882,2.536,3.42,3.42,0,0,1-4.739,0,3.653,3.653,0,0,1-.885-2.59Zm1.834.13a2.567,2.567,0,0,0,.368,1.5,1.323,1.323,0,0,0,2.095.006,2.809,2.809,0,0,0,.375-1.637,2.542,2.542,0,0,0-.375-1.488,1.217,1.217,0,0,0-1.054-.528,1.2,1.2,0,0,0-1.041.524A2.857,2.857,0,0,0,44.618,10.633ZM54.139,12.1a.591.591,0,0,0-.333-.53,3.785,3.785,0,0,0-1.07-.346q-2.45-.514-2.45-2.082a1.887,1.887,0,0,1,.759-1.527A3.06,3.06,0,0,1,53.029,7a3.293,3.293,0,0,1,2.092.616,1.94,1.94,0,0,1,.784,1.6H54.07a.888.888,0,0,0-.254-.651,1.075,1.075,0,0,0-.793-.257,1.1,1.1,0,0,0-.717.209.661.661,0,0,0-.254.533.565.565,0,0,0,.289.492,2.971,2.971,0,0,0,.974.324,7.959,7.959,0,0,1,1.155.308,1.9,1.9,0,0,1,1.454,1.847,1.792,1.792,0,0,1-.806,1.52,3.478,3.478,0,0,1-2.082.581,3.632,3.632,0,0,1-1.533-.308,2.572,2.572,0,0,1-1.051-.844,1.962,1.962,0,0,1-.381-1.158H51.81a.958.958,0,0,0,.362.749,1.435,1.435,0,0,0,.9.26,1.328,1.328,0,0,0,.8-.2A.622.622,0,0,0,54.139,12.1Zm5.916-1.587a4.139,4.139,0,0,1,.72-2.558A2.338,2.338,0,0,1,62.747,7a2.1,2.1,0,0,1,1.657.749V4.25h1.841V14H64.588l-.089-.73a2.159,2.159,0,0,1-1.765.857,2.331,2.331,0,0,1-1.946-.955A4.272,4.272,0,0,1,60.055,10.515Zm1.834.137a2.711,2.711,0,0,0,.336,1.481,1.1,1.1,0,0,0,.978.515,1.227,1.227,0,0,0,1.2-.718V9.215A1.21,1.21,0,0,0,63.217,8.5Q61.89,8.5,61.89,10.652Zm8.938,3.475a3.372,3.372,0,0,1-2.46-.927,3.294,3.294,0,0,1-.949-2.469v-.178a4.149,4.149,0,0,1,.4-1.85,2.935,2.935,0,0,1,1.133-1.257A3.18,3.18,0,0,1,70.624,7a2.85,2.85,0,0,1,2.219.889,3.611,3.611,0,0,1,.809,2.52v.749H69.279a1.7,1.7,0,0,0,.536,1.079,1.621,1.621,0,0,0,1.133.406A1.98,1.98,0,0,0,72.6,11.88l.9,1.009a2.754,2.754,0,0,1-1.117.911A3.665,3.665,0,0,1,70.827,14.127Zm-.209-5.643a1.146,1.146,0,0,0-.885.37A1.915,1.915,0,0,0,69.3,9.912h2.552V9.765a1.366,1.366,0,0,0-.33-.947A1.183,1.183,0,0,0,70.618,8.484Zm9-1.352.057.793A2.4,2.4,0,0,1,81.65,7a1.993,1.993,0,0,1,1.625.641,2.991,2.991,0,0,1,.546,1.917V14H81.987V9.607a1.19,1.19,0,0,0-.254-.847,1.137,1.137,0,0,0-.844-.263,1.262,1.262,0,0,0-1.162.66V14H77.892V7.132Zm8.753,7a3.372,3.372,0,0,1-2.46-.927,3.294,3.294,0,0,1-.949-2.469v-.178a4.149,4.149,0,0,1,.4-1.85A2.935,2.935,0,0,1,86.5,7.446,3.18,3.18,0,0,1,88.169,7a2.85,2.85,0,0,1,2.219.889,3.611,3.611,0,0,1,.809,2.52v.749H86.823a1.7,1.7,0,0,0,.536,1.079,1.621,1.621,0,0,0,1.133.406,1.98,1.98,0,0,0,1.657-.768l.9,1.009a2.754,2.754,0,0,1-1.117.911A3.665,3.665,0,0,1,88.372,14.127Zm-.209-5.643a1.146,1.146,0,0,0-.885.37,1.915,1.915,0,0,0-.435,1.058h2.552V9.765a1.366,1.366,0,0,0-.33-.947A1.183,1.183,0,0,0,88.163,8.484Zm3.809,2.031a4.025,4.025,0,0,1,.752-2.545A2.437,2.437,0,0,1,94.752,7a2.138,2.138,0,0,1,1.758.774l.076-.647h1.663v6.64a2.935,2.935,0,0,1-.409,1.568,2.629,2.629,0,0,1-1.152,1.016,4.05,4.05,0,0,1-1.739.349,3.766,3.766,0,0,1-1.473-.3,2.614,2.614,0,0,1-1.085-.778l.813-1.117a2.149,2.149,0,0,0,1.663.768A1.573,1.573,0,0,0,96,14.885a1.464,1.464,0,0,0,.406-1.108V13.41a2.122,2.122,0,0,1-1.669.717,2.431,2.431,0,0,1-2-.968,4.024,4.024,0,0,1-.765-2.568Zm1.834.137a2.506,2.506,0,0,0,.375,1.465,1.191,1.191,0,0,0,1.028.531,1.274,1.274,0,0,0,1.2-.629V9.126A1.271,1.271,0,0,0,95.221,8.5a1.2,1.2,0,0,0-1.038.54A2.825,2.825,0,0,0,93.806,10.652Zm5.567-.149a4.073,4.073,0,0,1,.394-1.822A2.881,2.881,0,0,1,100.9,7.443,3.306,3.306,0,0,1,102.616,7a3.127,3.127,0,0,1,2.269.851,3.414,3.414,0,0,1,.981,2.311l.013.47A3.59,3.59,0,0,1,105,13.172a3.42,3.42,0,0,1-4.739,0,3.653,3.653,0,0,1-.885-2.59Zm1.834.13a2.567,2.567,0,0,0,.368,1.5,1.323,1.323,0,0,0,2.095.006,2.809,2.809,0,0,0,.375-1.637,2.542,2.542,0,0,0-.375-1.488,1.217,1.217,0,0,0-1.054-.528,1.2,1.2,0,0,0-1.041.524A2.857,2.857,0,0,0,101.207,10.633Zm8.658,2.015a1.2,1.2,0,0,0,.825-.279.979.979,0,0,0,.33-.743h1.72a2.353,2.353,0,0,1-.381,1.279,2.513,2.513,0,0,1-1.025.9,3.208,3.208,0,0,1-1.438.321,2.982,2.982,0,0,1-2.323-.936,3.705,3.705,0,0,1-.851-2.587v-.121a3.663,3.663,0,0,1,.844-2.533A2.947,2.947,0,0,1,109.885,7a2.889,2.889,0,0,1,2.066.733,2.6,2.6,0,0,1,.79,1.952h-1.72a1.261,1.261,0,0,0-.33-.871,1.227,1.227,0,0,0-1.806.132,2.708,2.708,0,0,0-.327,1.516v.191a2.742,2.742,0,0,0,.324,1.526A1.119,1.119,0,0,0,109.865,12.648ZM115.724,14h-1.841V7.132h1.841Zm-1.949-8.646a.9.9,0,0,1,.276-.679,1.19,1.19,0,0,1,1.5,0,.9.9,0,0,1,.279.679.9.9,0,0,1-.282.686,1.177,1.177,0,0,1-1.492,0A.9.9,0,0,1,113.776,5.354Zm3.174,5.148a4.073,4.073,0,0,1,.394-1.822,2.881,2.881,0,0,1,1.133-1.238A3.306,3.306,0,0,1,120.193,7a3.127,3.127,0,0,1,2.269.851,3.414,3.414,0,0,1,.981,2.311l.013.47a3.59,3.59,0,0,1-.882,2.536,3.42,3.42,0,0,1-4.739,0,3.653,3.653,0,0,1-.885-2.59Zm1.834.13a2.567,2.567,0,0,0,.368,1.5,1.323,1.323,0,0,0,2.095.006,2.809,2.809,0,0,0,.375-1.637,2.542,2.542,0,0,0-.375-1.488,1.217,1.217,0,0,0-1.054-.528,1.2,1.2,0,0,0-1.041.524A2.857,2.857,0,0,0,118.784,10.633Z" transform="translate(1021.158 -2309)" fill="#12263f"/>
    <path id="Trazado_603929" data-name="Trazado 603929" d="M20.316,12.1H16.977L16.342,14H14.317l3.44-9.242h1.765L22.982,14H20.957Zm-2.825-1.542H19.8L18.64,7.094Zm7.617-3.421.057.793A2.4,2.4,0,0,1,27.14,7a1.993,1.993,0,0,1,1.625.641,2.991,2.991,0,0,1,.546,1.917V14H27.476V9.607a1.19,1.19,0,0,0-.254-.847,1.137,1.137,0,0,0-.844-.263,1.262,1.262,0,0,0-1.162.66V14H23.382V7.132ZM34.681,14a2.037,2.037,0,0,1-.184-.616,2.22,2.22,0,0,1-1.733.743,2.439,2.439,0,0,1-1.673-.584,1.878,1.878,0,0,1-.663-1.473,1.941,1.941,0,0,1,.809-1.676,3.994,3.994,0,0,1,2.339-.59h.844V9.411a1.132,1.132,0,0,0-.244-.762.961.961,0,0,0-.771-.286,1.093,1.093,0,0,0-.727.222.755.755,0,0,0-.263.609H30.58a1.843,1.843,0,0,1,.368-1.1,2.434,2.434,0,0,1,1.041-.8A3.794,3.794,0,0,1,33.5,7a3,3,0,0,1,2.015.638,2.232,2.232,0,0,1,.746,1.793v2.977a3.284,3.284,0,0,0,.273,1.479V14Zm-1.517-1.276a1.58,1.58,0,0,0,.749-.181,1.188,1.188,0,0,0,.508-.486V10.877h-.686q-1.377,0-1.466.952l-.006.108a.734.734,0,0,0,.241.565A.937.937,0,0,0,33.164,12.724Zm.7-8.474h2L34.1,6.218H32.611ZM39.606,14H37.766V4.25h1.841Zm3.447,0H41.212V7.132h1.841ZM41.1,5.354a.9.9,0,0,1,.276-.679,1.19,1.19,0,0,1,1.5,0,.9.9,0,0,1,.279.679.9.9,0,0,1-.282.686,1.177,1.177,0,0,1-1.492,0A.9.9,0,0,1,41.1,5.354ZM48.284,12.1a.591.591,0,0,0-.333-.53,3.785,3.785,0,0,0-1.07-.346q-2.45-.514-2.45-2.082a1.887,1.887,0,0,1,.759-1.527A3.06,3.06,0,0,1,47.173,7a3.293,3.293,0,0,1,2.092.616,1.94,1.94,0,0,1,.784,1.6H48.214a.888.888,0,0,0-.254-.651,1.075,1.075,0,0,0-.793-.257,1.1,1.1,0,0,0-.717.209.661.661,0,0,0-.254.533.565.565,0,0,0,.289.492,2.971,2.971,0,0,0,.974.324,7.959,7.959,0,0,1,1.155.308,1.9,1.9,0,0,1,1.454,1.847,1.792,1.792,0,0,1-.806,1.52,3.478,3.478,0,0,1-2.082.581,3.632,3.632,0,0,1-1.533-.308,2.572,2.572,0,0,1-1.051-.844,1.962,1.962,0,0,1-.381-1.158h1.739a.958.958,0,0,0,.362.749,1.435,1.435,0,0,0,.9.26,1.328,1.328,0,0,0,.8-.2A.622.622,0,0,0,48.284,12.1Zm4.9,1.9H51.343V7.132h1.841ZM51.235,5.354a.9.9,0,0,1,.276-.679,1.19,1.19,0,0,1,1.5,0,.9.9,0,0,1,.279.679.9.9,0,0,1-.282.686,1.177,1.177,0,0,1-1.492,0A.9.9,0,0,1,51.235,5.354ZM58.415,12.1a.591.591,0,0,0-.333-.53,3.785,3.785,0,0,0-1.07-.346q-2.45-.514-2.45-2.082a1.887,1.887,0,0,1,.759-1.527A3.06,3.06,0,0,1,57.3,7a3.293,3.293,0,0,1,2.092.616,1.94,1.94,0,0,1,.784,1.6H58.345a.888.888,0,0,0-.254-.651,1.075,1.075,0,0,0-.793-.257,1.1,1.1,0,0,0-.717.209.661.661,0,0,0-.254.533.565.565,0,0,0,.289.492,2.971,2.971,0,0,0,.974.324,7.959,7.959,0,0,1,1.155.308A1.9,1.9,0,0,1,60.2,12.026a1.792,1.792,0,0,1-.806,1.52,3.478,3.478,0,0,1-2.082.581,3.632,3.632,0,0,1-1.533-.308,2.572,2.572,0,0,1-1.051-.844,1.962,1.962,0,0,1-.381-1.158h1.739a.958.958,0,0,0,.362.749,1.435,1.435,0,0,0,.9.26,1.328,1.328,0,0,0,.8-.2A.622.622,0,0,0,58.415,12.1ZM66.552,14H64.711V7.132h1.841ZM64.6,5.354a.9.9,0,0,1,.276-.679,1.19,1.19,0,0,1,1.5,0,.9.9,0,0,1,.279.679.9.9,0,0,1-.282.686,1.177,1.177,0,0,1-1.492,0A.9.9,0,0,1,64.6,5.354Zm5.18,1.777.057.768A2.414,2.414,0,0,1,71.814,7a1.832,1.832,0,0,1,1.822,1.047A2.358,2.358,0,0,1,75.7,7a2.049,2.049,0,0,1,1.663.651,2.991,2.991,0,0,1,.546,1.958V14H76.067V9.62a1.308,1.308,0,0,0-.229-.854,1.013,1.013,0,0,0-.806-.27,1.145,1.145,0,0,0-1.143.787L73.9,14H72.062V9.626a1.292,1.292,0,0,0-.235-.863,1.023,1.023,0,0,0-.8-.267,1.189,1.189,0,0,0-1.13.647V14H68.063V7.132Zm15.717,3.5a4.119,4.119,0,0,1-.72,2.542,2.31,2.31,0,0,1-1.946.955,2.14,2.14,0,0,1-1.682-.724v3.237H79.317V7.132h1.7l.063.673A2.156,2.156,0,0,1,82.821,7a2.326,2.326,0,0,1,1.974.939,4.231,4.231,0,0,1,.7,2.59ZM83.666,10.5a2.7,2.7,0,0,0-.34-1.479,1.106,1.106,0,0,0-.987-.521,1.2,1.2,0,0,0-1.187.66v2.812a1.222,1.222,0,0,0,1.2.679Q83.666,12.648,83.666,10.5ZM90.616,14a2.037,2.037,0,0,1-.184-.616,2.22,2.22,0,0,1-1.733.743,2.439,2.439,0,0,1-1.673-.584,1.878,1.878,0,0,1-.663-1.473,1.941,1.941,0,0,1,.809-1.676,3.994,3.994,0,0,1,2.339-.59h.844V9.411a1.132,1.132,0,0,0-.244-.762.961.961,0,0,0-.771-.286,1.093,1.093,0,0,0-.727.222.755.755,0,0,0-.263.609H86.516a1.843,1.843,0,0,1,.368-1.1,2.434,2.434,0,0,1,1.041-.8A3.794,3.794,0,0,1,89.436,7a3,3,0,0,1,2.015.638A2.232,2.232,0,0,1,92.2,9.436v2.977a3.284,3.284,0,0,0,.273,1.479V14ZM89.1,12.724a1.58,1.58,0,0,0,.749-.181,1.188,1.188,0,0,0,.508-.486V10.877H89.67q-1.377,0-1.466.952l-.006.108a.734.734,0,0,0,.241.565A.937.937,0,0,0,89.1,12.724Zm7.363-.076a1.2,1.2,0,0,0,.825-.279.979.979,0,0,0,.33-.743h1.72a2.353,2.353,0,0,1-.381,1.279,2.513,2.513,0,0,1-1.025.9,3.208,3.208,0,0,1-1.438.321,2.982,2.982,0,0,1-2.323-.936A3.705,3.705,0,0,1,93.32,10.6v-.121a3.663,3.663,0,0,1,.844-2.533A2.947,2.947,0,0,1,96.481,7a2.889,2.889,0,0,1,2.066.733,2.6,2.6,0,0,1,.79,1.952h-1.72a1.261,1.261,0,0,0-.33-.871,1.227,1.227,0,0,0-1.806.132,2.708,2.708,0,0,0-.327,1.516v.191a2.742,2.742,0,0,0,.324,1.526A1.119,1.119,0,0,0,96.462,12.648Zm6.119-7.2V7.132h1.174V8.478h-1.174v3.428a.818.818,0,0,0,.146.546.733.733,0,0,0,.559.165,2.926,2.926,0,0,0,.54-.044v1.39a3.777,3.777,0,0,1-1.111.165,1.752,1.752,0,0,1-1.968-1.949v-3.7h-1V7.132h1V5.443ZM104.3,10.5a4.073,4.073,0,0,1,.394-1.822,2.881,2.881,0,0,1,1.133-1.238A3.306,3.306,0,0,1,107.545,7a3.127,3.127,0,0,1,2.269.851,3.414,3.414,0,0,1,.981,2.311l.013.47a3.59,3.59,0,0,1-.882,2.536,3.42,3.42,0,0,1-4.739,0,3.653,3.653,0,0,1-.885-2.59Zm1.834.13a2.567,2.567,0,0,0,.368,1.5,1.323,1.323,0,0,0,2.095.006,2.809,2.809,0,0,0,.375-1.637,2.542,2.542,0,0,0-.375-1.488,1.217,1.217,0,0,0-1.054-.528,1.2,1.2,0,0,0-1.041.524A2.857,2.857,0,0,0,106.136,10.633ZM29.326,26.515a4.139,4.139,0,0,1,.72-2.558A2.338,2.338,0,0,1,32.018,23a2.1,2.1,0,0,1,1.657.749v-3.5h1.841V30H33.859l-.089-.73a2.159,2.159,0,0,1-1.765.857,2.331,2.331,0,0,1-1.946-.955A4.272,4.272,0,0,1,29.326,26.515Zm1.834.137a2.711,2.711,0,0,0,.336,1.481,1.1,1.1,0,0,0,.978.515,1.227,1.227,0,0,0,1.2-.718V25.215a1.21,1.21,0,0,0-1.187-.718Q31.161,24.5,31.161,26.652ZM40.1,30.127a3.372,3.372,0,0,1-2.46-.927,3.294,3.294,0,0,1-.949-2.469v-.178a4.149,4.149,0,0,1,.4-1.85,2.935,2.935,0,0,1,1.133-1.257A3.18,3.18,0,0,1,39.9,23a2.85,2.85,0,0,1,2.219.889,3.611,3.611,0,0,1,.809,2.52v.749H38.55a1.7,1.7,0,0,0,.536,1.079,1.621,1.621,0,0,0,1.133.406,1.98,1.98,0,0,0,1.657-.768l.9,1.009a2.754,2.754,0,0,1-1.117.911A3.665,3.665,0,0,1,40.1,30.127Zm-.209-5.643a1.146,1.146,0,0,0-.885.37,1.915,1.915,0,0,0-.435,1.058H41.12v-.147a1.366,1.366,0,0,0-.33-.947A1.183,1.183,0,0,0,39.889,24.484ZM45.9,30H44.059V20.25H45.9Zm6.437-6.868.057.793A2.4,2.4,0,0,1,54.368,23a1.993,1.993,0,0,1,1.625.641,2.991,2.991,0,0,1,.546,1.917V30H54.7V25.607a1.19,1.19,0,0,0-.254-.847,1.137,1.137,0,0,0-.844-.263,1.262,1.262,0,0,0-1.162.66V30H50.61V23.132Zm8.753,7a3.372,3.372,0,0,1-2.46-.927,3.294,3.294,0,0,1-.949-2.469v-.178a4.149,4.149,0,0,1,.4-1.85,2.935,2.935,0,0,1,1.133-1.257A3.18,3.18,0,0,1,60.887,23a2.85,2.85,0,0,1,2.219.889,3.611,3.611,0,0,1,.809,2.52v.749H59.541a1.7,1.7,0,0,0,.536,1.079,1.621,1.621,0,0,0,1.133.406,1.98,1.98,0,0,0,1.657-.768l.9,1.009a2.754,2.754,0,0,1-1.117.911A3.665,3.665,0,0,1,61.09,30.127Zm-.209-5.643a1.146,1.146,0,0,0-.885.37,1.915,1.915,0,0,0-.435,1.058h2.552v-.147a1.366,1.366,0,0,0-.33-.947A1.183,1.183,0,0,0,60.881,24.484Zm3.809,2.031a4.025,4.025,0,0,1,.752-2.545A2.437,2.437,0,0,1,67.469,23a2.138,2.138,0,0,1,1.758.774l.076-.647h1.663v6.64a2.935,2.935,0,0,1-.409,1.568,2.629,2.629,0,0,1-1.152,1.016,4.05,4.05,0,0,1-1.739.349,3.766,3.766,0,0,1-1.473-.3,2.614,2.614,0,0,1-1.085-.778l.813-1.117a2.149,2.149,0,0,0,1.663.768,1.573,1.573,0,0,0,1.136-.39,1.464,1.464,0,0,0,.406-1.108V29.41a2.122,2.122,0,0,1-1.669.717,2.431,2.431,0,0,1-2-.968,4.024,4.024,0,0,1-.765-2.568Zm1.834.137a2.506,2.506,0,0,0,.375,1.465,1.191,1.191,0,0,0,1.028.531,1.274,1.274,0,0,0,1.2-.629V25.126a1.271,1.271,0,0,0-1.187-.629,1.2,1.2,0,0,0-1.038.54A2.825,2.825,0,0,0,66.524,26.652Zm5.567-.149a4.073,4.073,0,0,1,.394-1.822,2.881,2.881,0,0,1,1.133-1.238A3.306,3.306,0,0,1,75.334,23a3.127,3.127,0,0,1,2.269.851,3.414,3.414,0,0,1,.981,2.311l.013.47a3.59,3.59,0,0,1-.882,2.536,3.42,3.42,0,0,1-4.739,0,3.653,3.653,0,0,1-.885-2.59Zm1.834.13a2.567,2.567,0,0,0,.368,1.5,1.323,1.323,0,0,0,2.095.006,2.809,2.809,0,0,0,.375-1.637,2.542,2.542,0,0,0-.375-1.488,1.217,1.217,0,0,0-1.054-.528,1.2,1.2,0,0,0-1.041.524A2.857,2.857,0,0,0,73.925,26.633Zm8.658,2.015a1.2,1.2,0,0,0,.825-.279.979.979,0,0,0,.33-.743h1.72a2.353,2.353,0,0,1-.381,1.279,2.513,2.513,0,0,1-1.025.9,3.208,3.208,0,0,1-1.438.321,2.982,2.982,0,0,1-2.323-.936,3.705,3.705,0,0,1-.851-2.587v-.121a3.663,3.663,0,0,1,.844-2.533A2.947,2.947,0,0,1,82.6,23a2.889,2.889,0,0,1,2.066.733,2.6,2.6,0,0,1,.79,1.952h-1.72a1.261,1.261,0,0,0-.33-.871,1.227,1.227,0,0,0-1.806.132,2.708,2.708,0,0,0-.327,1.516v.191a2.742,2.742,0,0,0,.324,1.526A1.119,1.119,0,0,0,82.583,28.648ZM88.442,30H86.6V23.132h1.841Zm-1.949-8.646a.9.9,0,0,1,.276-.679,1.19,1.19,0,0,1,1.5,0,.969.969,0,0,1,0,1.365,1.177,1.177,0,0,1-1.492,0A.9.9,0,0,1,86.493,21.354ZM89.667,26.5a4.073,4.073,0,0,1,.394-1.822,2.881,2.881,0,0,1,1.133-1.238A3.306,3.306,0,0,1,92.911,23a3.127,3.127,0,0,1,2.269.851,3.414,3.414,0,0,1,.981,2.311l.013.47a3.59,3.59,0,0,1-.882,2.536,3.42,3.42,0,0,1-4.739,0,3.653,3.653,0,0,1-.885-2.59Zm1.834.13a2.567,2.567,0,0,0,.368,1.5,1.323,1.323,0,0,0,2.095.006,2.809,2.809,0,0,0,.375-1.637,2.542,2.542,0,0,0-.375-1.488,1.217,1.217,0,0,0-1.054-.528,1.2,1.2,0,0,0-1.041.524A2.857,2.857,0,0,0,91.5,26.633Z" transform="translate(777.637 -2217.357)" fill="#12263f"/>
    <path id="Trazado_603930" data-name="Trazado 603930" d="M25.715,14h-1.9V4.758h1.9Zm1.358-3.485a4.139,4.139,0,0,1,.72-2.558A2.338,2.338,0,0,1,29.764,7a2.1,2.1,0,0,1,1.657.749V4.25h1.841V14H31.605l-.089-.73a2.159,2.159,0,0,1-1.765.857,2.331,2.331,0,0,1-1.946-.955A4.272,4.272,0,0,1,27.073,10.515Zm1.834.137a2.711,2.711,0,0,0,.336,1.481,1.1,1.1,0,0,0,.978.515,1.227,1.227,0,0,0,1.2-.718V9.215A1.21,1.21,0,0,0,30.234,8.5Q28.907,8.5,28.907,10.652Zm8.938,3.475a3.372,3.372,0,0,1-2.46-.927,3.294,3.294,0,0,1-.949-2.469v-.178a4.149,4.149,0,0,1,.4-1.85,2.935,2.935,0,0,1,1.133-1.257A3.18,3.18,0,0,1,37.642,7a2.85,2.85,0,0,1,2.219.889,3.611,3.611,0,0,1,.809,2.52v.749H36.3a1.7,1.7,0,0,0,.536,1.079,1.621,1.621,0,0,0,1.133.406,1.98,1.98,0,0,0,1.657-.768l.9,1.009a2.754,2.754,0,0,1-1.117.911A3.665,3.665,0,0,1,37.845,14.127Zm-.209-5.643a1.146,1.146,0,0,0-.885.37,1.915,1.915,0,0,0-.435,1.058h2.552V9.765a1.366,1.366,0,0,0-.33-.947A1.183,1.183,0,0,0,37.636,8.484ZM43.4,7.132l.057.793A2.4,2.4,0,0,1,45.43,7a1.993,1.993,0,0,1,1.625.641A2.991,2.991,0,0,1,47.6,9.563V14H45.767V9.607a1.19,1.19,0,0,0-.254-.847,1.137,1.137,0,0,0-.844-.263,1.262,1.262,0,0,0-1.162.66V14H41.673V7.132Zm7.789-1.688V7.132h1.174V8.478H51.188v3.428a.818.818,0,0,0,.146.546.733.733,0,0,0,.559.165,2.925,2.925,0,0,0,.54-.044v1.39a3.776,3.776,0,0,1-1.111.165,1.752,1.752,0,0,1-1.968-1.949v-3.7h-1V7.132h1V5.443ZM55.32,14H53.479V7.132H55.32ZM53.371,5.354a.9.9,0,0,1,.276-.679,1.19,1.19,0,0,1,1.5,0,.9.9,0,0,1,.279.679.9.9,0,0,1-.282.686,1.177,1.177,0,0,1-1.492,0A.9.9,0,0,1,53.371,5.354ZM57.275,14V8.478H56.253V7.132h1.022V6.814a2.576,2.576,0,0,1,.8-2,3.205,3.205,0,0,1,2.212-.7,7.338,7.338,0,0,1,2.082.375L62.1,6.008a8.123,8.123,0,0,0-.965-.238,4.741,4.741,0,0,0-.736-.054q-1.282,0-1.282,1.136v.279h1.352V8.478H59.116V14Zm5.948,0H61.382V7.132h1.841ZM67.6,12.648a1.2,1.2,0,0,0,.825-.279.979.979,0,0,0,.33-.743h1.72a2.353,2.353,0,0,1-.381,1.279,2.513,2.513,0,0,1-1.025.9,3.208,3.208,0,0,1-1.438.321,2.982,2.982,0,0,1-2.323-.936,3.705,3.705,0,0,1-.851-2.587v-.121A3.663,3.663,0,0,1,65.3,7.951,2.947,2.947,0,0,1,67.615,7a2.889,2.889,0,0,1,2.066.733,2.6,2.6,0,0,1,.79,1.952h-1.72a1.261,1.261,0,0,0-.33-.871,1.227,1.227,0,0,0-1.806.132,2.708,2.708,0,0,0-.327,1.516v.191a2.742,2.742,0,0,0,.324,1.526A1.119,1.119,0,0,0,67.6,12.648ZM75.5,14a2.037,2.037,0,0,1-.184-.616,2.22,2.22,0,0,1-1.733.743,2.439,2.439,0,0,1-1.673-.584,1.878,1.878,0,0,1-.663-1.473,1.941,1.941,0,0,1,.809-1.676,3.994,3.994,0,0,1,2.339-.59h.844V9.411a1.132,1.132,0,0,0-.244-.762.961.961,0,0,0-.771-.286,1.093,1.093,0,0,0-.727.222.755.755,0,0,0-.263.609H71.4a1.843,1.843,0,0,1,.368-1.1,2.434,2.434,0,0,1,1.041-.8A3.794,3.794,0,0,1,74.319,7a3,3,0,0,1,2.015.638,2.232,2.232,0,0,1,.746,1.793v2.977a3.284,3.284,0,0,0,.273,1.479V14Zm-1.517-1.276a1.58,1.58,0,0,0,.749-.181,1.188,1.188,0,0,0,.508-.486V10.877h-.686q-1.377,0-1.466.952l-.006.108a.734.734,0,0,0,.241.565A.937.937,0,0,0,73.982,12.724Zm7.363-.076a1.2,1.2,0,0,0,.825-.279.979.979,0,0,0,.33-.743h1.72a2.353,2.353,0,0,1-.381,1.279,2.513,2.513,0,0,1-1.025.9,3.208,3.208,0,0,1-1.438.321,2.982,2.982,0,0,1-2.323-.936A3.705,3.705,0,0,1,78.2,10.6v-.121a3.663,3.663,0,0,1,.844-2.533A2.947,2.947,0,0,1,81.365,7a2.889,2.889,0,0,1,2.066.733,2.6,2.6,0,0,1,.79,1.952H82.5a1.261,1.261,0,0,0-.33-.871,1.227,1.227,0,0,0-1.806.132,2.708,2.708,0,0,0-.327,1.516v.191a2.742,2.742,0,0,0,.324,1.526A1.119,1.119,0,0,0,81.345,12.648ZM87.2,14H85.364V7.132H87.2ZM85.256,5.354a.9.9,0,0,1,.276-.679,1.19,1.19,0,0,1,1.5,0,.9.9,0,0,1,.279.679.9.9,0,0,1-.282.686,1.177,1.177,0,0,1-1.492,0A.9.9,0,0,1,85.256,5.354ZM88.429,10.5a4.073,4.073,0,0,1,.394-1.822,2.881,2.881,0,0,1,1.133-1.238A3.306,3.306,0,0,1,91.673,7a3.127,3.127,0,0,1,2.269.851,3.414,3.414,0,0,1,.981,2.311l.013.47a3.59,3.59,0,0,1-.882,2.536,3.42,3.42,0,0,1-4.739,0,3.653,3.653,0,0,1-.885-2.59Zm1.834.13a2.567,2.567,0,0,0,.368,1.5,1.323,1.323,0,0,0,2.095.006A2.809,2.809,0,0,0,93.1,10.5a2.542,2.542,0,0,0-.375-1.488,1.217,1.217,0,0,0-1.054-.528,1.2,1.2,0,0,0-1.041.524A2.857,2.857,0,0,0,90.264,10.633ZM92.035,4.25h2L92.276,6.218H90.784Zm5.719,2.882.057.793A2.4,2.4,0,0,1,99.785,7a1.993,1.993,0,0,1,1.625.641,2.991,2.991,0,0,1,.546,1.917V14h-1.834V9.607a1.19,1.19,0,0,0-.254-.847,1.137,1.137,0,0,0-.844-.263,1.262,1.262,0,0,0-1.162.66V14H96.028V7.132ZM19.3,26.629a4.119,4.119,0,0,1-.72,2.542,2.31,2.31,0,0,1-1.946.955,2.14,2.14,0,0,1-1.682-.724v3.237H13.118V23.132h1.7l.063.673a2.156,2.156,0,0,1,1.739-.8,2.326,2.326,0,0,1,1.974.939,4.231,4.231,0,0,1,.7,2.59ZM17.466,26.5a2.7,2.7,0,0,0-.34-1.479,1.106,1.106,0,0,0-.987-.521,1.2,1.2,0,0,0-1.187.66v2.812a1.222,1.222,0,0,0,1.2.679Q17.466,28.648,17.466,26.5Zm6.83-1.644a4.984,4.984,0,0,0-.66-.051,1.344,1.344,0,0,0-1.365.7V30H20.437V23.132h1.733l.051.819A1.7,1.7,0,0,1,23.75,23a1.922,1.922,0,0,1,.571.083Zm.368,1.65a4.073,4.073,0,0,1,.394-1.822,2.881,2.881,0,0,1,1.133-1.238A3.306,3.306,0,0,1,27.908,23a3.128,3.128,0,0,1,2.269.851,3.414,3.414,0,0,1,.981,2.311l.013.47a3.59,3.59,0,0,1-.882,2.536,3.067,3.067,0,0,1-2.368.955,3.082,3.082,0,0,1-2.371-.952,3.653,3.653,0,0,1-.885-2.59Zm1.834.13a2.567,2.567,0,0,0,.368,1.5,1.323,1.323,0,0,0,2.095.006,2.809,2.809,0,0,0,.375-1.637,2.542,2.542,0,0,0-.375-1.488,1.217,1.217,0,0,0-1.054-.528,1.2,1.2,0,0,0-1.041.524A2.857,2.857,0,0,0,26.5,26.633Zm8.658,2.015a1.2,1.2,0,0,0,.825-.279.979.979,0,0,0,.33-.743h1.72a2.353,2.353,0,0,1-.381,1.279,2.513,2.513,0,0,1-1.025.9,3.208,3.208,0,0,1-1.438.321,2.982,2.982,0,0,1-2.323-.936,3.705,3.705,0,0,1-.851-2.587v-.121a3.663,3.663,0,0,1,.844-2.533A2.947,2.947,0,0,1,35.176,23a2.889,2.889,0,0,1,2.066.733,2.6,2.6,0,0,1,.79,1.952h-1.72a1.261,1.261,0,0,0-.33-.871,1.227,1.227,0,0,0-1.806.132,2.708,2.708,0,0,0-.327,1.516v.191a2.742,2.742,0,0,0,.324,1.526A1.119,1.119,0,0,0,35.157,28.648Zm7.084,1.479a3.372,3.372,0,0,1-2.46-.927,3.294,3.294,0,0,1-.949-2.469v-.178a4.149,4.149,0,0,1,.4-1.85,2.935,2.935,0,0,1,1.133-1.257A3.18,3.18,0,0,1,42.038,23a2.85,2.85,0,0,1,2.219.889,3.611,3.611,0,0,1,.809,2.52v.749H40.692a1.7,1.7,0,0,0,.536,1.079,1.621,1.621,0,0,0,1.133.406,1.98,1.98,0,0,0,1.657-.768l.9,1.009A2.754,2.754,0,0,1,43.8,29.8,3.665,3.665,0,0,1,42.241,30.127Zm-.209-5.643a1.146,1.146,0,0,0-.885.37,1.915,1.915,0,0,0-.435,1.058h2.552v-.147a1.366,1.366,0,0,0-.33-.947A1.183,1.183,0,0,0,42.031,24.484ZM49.826,28.1a.591.591,0,0,0-.333-.53,3.785,3.785,0,0,0-1.07-.346q-2.45-.514-2.45-2.082a1.887,1.887,0,0,1,.759-1.527A3.06,3.06,0,0,1,48.715,23a3.293,3.293,0,0,1,2.092.616,1.94,1.94,0,0,1,.784,1.6H49.756a.888.888,0,0,0-.254-.651,1.075,1.075,0,0,0-.793-.257,1.1,1.1,0,0,0-.717.209.661.661,0,0,0-.254.533.565.565,0,0,0,.289.492,2.971,2.971,0,0,0,.974.324,7.958,7.958,0,0,1,1.155.308,1.9,1.9,0,0,1,1.454,1.847,1.792,1.792,0,0,1-.806,1.52,3.478,3.478,0,0,1-2.082.581,3.632,3.632,0,0,1-1.533-.308,2.572,2.572,0,0,1-1.051-.844,1.962,1.962,0,0,1-.381-1.158H47.5a.958.958,0,0,0,.362.749,1.435,1.435,0,0,0,.9.26,1.328,1.328,0,0,0,.8-.2A.622.622,0,0,0,49.826,28.1ZM52.5,26.5a4.073,4.073,0,0,1,.394-1.822,2.881,2.881,0,0,1,1.133-1.238A3.306,3.306,0,0,1,55.749,23a3.128,3.128,0,0,1,2.269.851A3.414,3.414,0,0,1,59,26.166l.013.47a3.59,3.59,0,0,1-.882,2.536,3.42,3.42,0,0,1-4.739,0,3.653,3.653,0,0,1-.885-2.59Zm1.834.13a2.567,2.567,0,0,0,.368,1.5,1.323,1.323,0,0,0,2.095.006,2.809,2.809,0,0,0,.375-1.637,2.542,2.542,0,0,0-.375-1.488,1.217,1.217,0,0,0-1.054-.528,1.2,1.2,0,0,0-1.041.524A2.857,2.857,0,0,0,54.339,26.633ZM63.861,28.1a.591.591,0,0,0-.333-.53,3.785,3.785,0,0,0-1.07-.346q-2.45-.514-2.45-2.082a1.887,1.887,0,0,1,.759-1.527A3.06,3.06,0,0,1,62.75,23a3.293,3.293,0,0,1,2.092.616,1.94,1.94,0,0,1,.784,1.6H63.791a.888.888,0,0,0-.254-.651,1.075,1.075,0,0,0-.793-.257,1.1,1.1,0,0,0-.717.209.661.661,0,0,0-.254.533.565.565,0,0,0,.289.492,2.971,2.971,0,0,0,.974.324,7.958,7.958,0,0,1,1.155.308,1.9,1.9,0,0,1,1.454,1.847,1.792,1.792,0,0,1-.806,1.52,3.478,3.478,0,0,1-2.082.581,3.632,3.632,0,0,1-1.533-.308,2.572,2.572,0,0,1-1.051-.844,1.962,1.962,0,0,1-.381-1.158h1.739a.958.958,0,0,0,.362.749,1.435,1.435,0,0,0,.9.26,1.328,1.328,0,0,0,.8-.2A.622.622,0,0,0,63.861,28.1Zm9.058.546a1.2,1.2,0,0,0,.825-.279.979.979,0,0,0,.33-.743h1.72a2.353,2.353,0,0,1-.381,1.279,2.513,2.513,0,0,1-1.025.9,3.208,3.208,0,0,1-1.438.321,2.982,2.982,0,0,1-2.323-.936,3.705,3.705,0,0,1-.851-2.587v-.121a3.663,3.663,0,0,1,.844-2.533A2.947,2.947,0,0,1,72.938,23,2.889,2.889,0,0,1,75,23.738a2.6,2.6,0,0,1,.79,1.952h-1.72a1.261,1.261,0,0,0-.33-.871,1.227,1.227,0,0,0-1.806.132,2.708,2.708,0,0,0-.327,1.516v.191a2.742,2.742,0,0,0,.324,1.526A1.119,1.119,0,0,0,72.919,28.648Zm7.782-3.8a4.984,4.984,0,0,0-.66-.051,1.344,1.344,0,0,0-1.365.7V30H76.842V23.132h1.733l.051.819A1.7,1.7,0,0,1,80.155,23a1.922,1.922,0,0,1,.571.083ZM83.564,30H81.729V23.132h1.834Zm-.54-9.655h2l-1.758,1.968H81.774Zm4.316,1.1v1.688h1.174v1.346H87.341v3.428a.818.818,0,0,0,.146.546.733.733,0,0,0,.559.165,2.925,2.925,0,0,0,.54-.044v1.39a3.777,3.777,0,0,1-1.111.165,1.752,1.752,0,0,1-1.968-1.949v-3.7h-1V23.132h1V21.443ZM91.473,30H89.632V23.132h1.841Zm-1.949-8.646a.9.9,0,0,1,.276-.679,1.19,1.19,0,0,1,1.5,0,.969.969,0,0,1,0,1.365,1.177,1.177,0,0,1-1.492,0A.9.9,0,0,1,89.524,21.354Zm6.316,7.293a1.2,1.2,0,0,0,.825-.279.979.979,0,0,0,.33-.743h1.72a2.353,2.353,0,0,1-.381,1.279,2.513,2.513,0,0,1-1.025.9,3.208,3.208,0,0,1-1.438.321,2.982,2.982,0,0,1-2.323-.936A3.705,3.705,0,0,1,92.7,26.6v-.121a3.663,3.663,0,0,1,.844-2.533A2.947,2.947,0,0,1,95.859,23a2.889,2.889,0,0,1,2.066.733,2.6,2.6,0,0,1,.79,1.952H97a1.261,1.261,0,0,0-.33-.871,1.227,1.227,0,0,0-1.806.132,2.708,2.708,0,0,0-.327,1.516v.191a2.742,2.742,0,0,0,.324,1.526A1.119,1.119,0,0,0,95.84,28.648ZM99.478,26.5a4.073,4.073,0,0,1,.394-1.822A2.881,2.881,0,0,1,101,23.443,3.306,3.306,0,0,1,102.721,23a3.127,3.127,0,0,1,2.269.851,3.414,3.414,0,0,1,.981,2.311l.013.47a3.59,3.59,0,0,1-.882,2.536,3.42,3.42,0,0,1-4.739,0,3.653,3.653,0,0,1-.885-2.59Zm1.834.13a2.567,2.567,0,0,0,.368,1.5,1.323,1.323,0,0,0,2.095.006,2.809,2.809,0,0,0,.375-1.637,2.542,2.542,0,0,0-.375-1.488,1.217,1.217,0,0,0-1.054-.528,1.2,1.2,0,0,0-1.041.524A2.857,2.857,0,0,0,101.312,26.633Zm9.521,1.469a.591.591,0,0,0-.333-.53,3.785,3.785,0,0,0-1.07-.346q-2.45-.514-2.45-2.082a1.887,1.887,0,0,1,.759-1.527A3.06,3.06,0,0,1,109.723,23a3.293,3.293,0,0,1,2.092.616,1.94,1.94,0,0,1,.784,1.6h-1.834a.888.888,0,0,0-.254-.651,1.075,1.075,0,0,0-.793-.257,1.1,1.1,0,0,0-.717.209.661.661,0,0,0-.254.533.565.565,0,0,0,.289.492,2.971,2.971,0,0,0,.974.324,7.958,7.958,0,0,1,1.155.308,1.9,1.9,0,0,1,1.454,1.847,1.792,1.792,0,0,1-.806,1.52,3.478,3.478,0,0,1-2.082.581,3.632,3.632,0,0,1-1.533-.308,2.572,2.572,0,0,1-1.051-.844,1.962,1.962,0,0,1-.381-1.158H108.5a.958.958,0,0,0,.362.749,1.435,1.435,0,0,0,.9.26,1.328,1.328,0,0,0,.8-.2A.622.622,0,0,0,110.834,28.1Z" transform="translate(1021.158 -2127.781)" fill="#12263f"/>
  </g>
</svg>
