<svg xmlns="http://www.w3.org/2000/svg" xmlns:xlink="http://www.w3.org/1999/xlink" width="1030" height="372.405" viewBox="0 0 1030 372.405">
  <defs>
    <clipPath id="clip-path">
      <rect id="Rect치ngulo_298487" data-name="Rect치ngulo 298487" width="179.983" height="89.992" fill="#7fd452"/>
    </clipPath>
    <clipPath id="clip-path-4">
      <rect id="Rect치ngulo_298487-4" data-name="Rect치ngulo 298487" width="179.983" height="89.992" fill="#afff84"/>
    </clipPath>
    <filter id="Elipse_180" x="91.726" y="53.784" width="215.182" height="215.183" filterUnits="userSpaceOnUse">
      <feOffset dx="5" dy="5" input="SourceAlpha"/>
      <feGaussianBlur stdDeviation="12.5" result="blur"/>
      <feFlood flood-opacity="0.161"/>
      <feComposite operator="in" in2="blur"/>
      <feComposite in="SourceGraphic"/>
    </filter>
    <clipPath id="clip-path-6">
      <ellipse id="Elipse_7381" data-name="Elipse 7381" cx="61.987" cy="61.987" rx="61.987" ry="61.987" transform="translate(0 0)" fill="none" stroke="#707070" stroke-width="1"/>
    </clipPath>
    <filter id="Elipse_180-2" x="252.483" y="53.784" width="215.182" height="215.183" filterUnits="userSpaceOnUse">
      <feOffset dx="5" dy="5" input="SourceAlpha"/>
      <feGaussianBlur stdDeviation="12.5" result="blur-2"/>
      <feFlood flood-opacity="0.161"/>
      <feComposite operator="in" in2="blur-2"/>
      <feComposite in="SourceGraphic"/>
    </filter>
    <filter id="Elipse_180-3" x="411.892" y="53.784" width="215.182" height="215.183" filterUnits="userSpaceOnUse">
      <feOffset dx="5" dy="5" input="SourceAlpha"/>
      <feGaussianBlur stdDeviation="12.5" result="blur-3"/>
      <feFlood flood-opacity="0.161"/>
      <feComposite operator="in" in2="blur-3"/>
      <feComposite in="SourceGraphic"/>
    </filter>
    <filter id="Elipse_180-4" x="572.262" y="53.784" width="215.182" height="215.183" filterUnits="userSpaceOnUse">
      <feOffset dx="5" dy="5" input="SourceAlpha"/>
      <feGaussianBlur stdDeviation="12.5" result="blur-4"/>
      <feFlood flood-opacity="0.161"/>
      <feComposite operator="in" in2="blur-4"/>
      <feComposite in="SourceGraphic"/>
    </filter>
    <filter id="Elipse_180-5" x="733.378" y="53.784" width="215.182" height="215.183" filterUnits="userSpaceOnUse">
      <feOffset dx="5" dy="5" input="SourceAlpha"/>
      <feGaussianBlur stdDeviation="12.5" result="blur-5"/>
      <feFlood flood-opacity="0.161"/>
      <feComposite operator="in" in2="blur-5"/>
      <feComposite in="SourceGraphic"/>
    </filter>
  </defs>
  <g id="Grupo_879860" data-name="Grupo 879860" transform="translate(-285 -8595.595)">
    <path id="Trazado_603872" data-name="Trazado 603872" d="M0,0H1030V308H0Z" transform="translate(285 8660)" fill="#fffbef"/>
    <g id="Grupo_879364" data-name="Grupo 879364" transform="translate(390 8751.971)">
      <g id="Grupo_879363" data-name="Grupo 879363" clip-path="url(#clip-path)">
        <path id="Trazado_602270" data-name="Trazado 602270" d="M89.992,89.992A89.991,89.991,0,0,0,179.983,0H0A89.992,89.992,0,0,0,89.992,89.992" fill="#7fd452"/>
      </g>
    </g>
    <g id="Grupo_879366" data-name="Grupo 879366" transform="translate(710.117 8751.971)">
      <g id="Grupo_879363-2" data-name="Grupo 879363" clip-path="url(#clip-path)">
        <path id="Trazado_602270-2" data-name="Trazado 602270" d="M89.992,89.992A89.991,89.991,0,0,0,179.983,0H0A89.992,89.992,0,0,0,89.992,89.992" fill="#7fd452"/>
      </g>
    </g>
    <g id="Grupo_879368" data-name="Grupo 879368" transform="translate(1030.017 8751.971)">
      <g id="Grupo_879363-3" data-name="Grupo 879363" clip-path="url(#clip-path)">
        <path id="Trazado_602270-3" data-name="Trazado 602270" d="M89.992,89.992A89.991,89.991,0,0,0,179.983,0H0A89.992,89.992,0,0,0,89.992,89.992" fill="#7fd452"/>
      </g>
    </g>
    <g id="Grupo_879365" data-name="Grupo 879365" transform="translate(729.392 8752.932) rotate(180)">
      <g id="Grupo_879363-4" data-name="Grupo 879363" clip-path="url(#clip-path-4)">
        <path id="Trazado_602270-4" data-name="Trazado 602270" d="M89.992,89.992A89.991,89.991,0,0,0,179.983,0H0A89.992,89.992,0,0,0,89.992,89.992" fill="#afff84"/>
      </g>
    </g>
    <g id="Grupo_879367" data-name="Grupo 879367" transform="translate(1049.557 8752.932) rotate(180)">
      <g id="Grupo_879363-5" data-name="Grupo 879363" clip-path="url(#clip-path-4)">
        <path id="Trazado_602270-5" data-name="Trazado 602270" d="M89.992,89.992A89.991,89.991,0,0,0,179.983,0H0A89.992,89.992,0,0,0,89.992,89.992" fill="#afff84"/>
      </g>
    </g>
    <path id="Trazado_603867" data-name="Trazado 603867" d="M18.544,17H16.286V8.3l-2.7.836V7.3L18.3,5.609h.242Zm3.906-1.109a1.137,1.137,0,0,1,.363-.875,1.412,1.412,0,0,1,1.828,0,1.137,1.137,0,0,1,.363.875,1.121,1.121,0,0,1-.359.863,1.435,1.435,0,0,1-1.836,0A1.121,1.121,0,0,1,22.45,15.891ZM33.606,17H31.262V5.625h2.344Zm1.672-4.289a5.094,5.094,0,0,1,.887-3.148A2.877,2.877,0,0,1,38.59,8.391a2.589,2.589,0,0,1,2.039.922V5H42.9V17H40.856l-.109-.9a2.657,2.657,0,0,1-2.172,1.055A2.869,2.869,0,0,1,36.18,15.98,5.258,5.258,0,0,1,35.278,12.711Zm2.258.168A3.337,3.337,0,0,0,37.95,14.7a1.349,1.349,0,0,0,1.2.634,1.511,1.511,0,0,0,1.477-.884V11.111a1.489,1.489,0,0,0-1.461-.884Q37.536,10.227,37.536,12.879Zm11,4.277a4.15,4.15,0,0,1-3.027-1.141,4.054,4.054,0,0,1-1.168-3.039v-.219a5.106,5.106,0,0,1,.492-2.277,3.612,3.612,0,0,1,1.395-1.547,3.914,3.914,0,0,1,2.059-.543,3.508,3.508,0,0,1,2.73,1.094,4.444,4.444,0,0,1,1,3.1v.922H46.629a2.1,2.1,0,0,0,.66,1.328,2,2,0,0,0,1.395.5,2.437,2.437,0,0,0,2.039-.945l1.109,1.242a3.389,3.389,0,0,1-1.375,1.121A4.511,4.511,0,0,1,48.536,17.156Zm-.258-6.945a1.411,1.411,0,0,0-1.09.455,2.357,2.357,0,0,0-.535,1.3h3.141v-.181a1.681,1.681,0,0,0-.406-1.165A1.456,1.456,0,0,0,48.278,10.211Zm7.094-1.664.07.977a2.951,2.951,0,0,1,2.43-1.133,2.453,2.453,0,0,1,2,.789,3.682,3.682,0,0,1,.672,2.359V17H58.286V11.594a1.465,1.465,0,0,0-.312-1.043,1.4,1.4,0,0,0-1.039-.324,1.553,1.553,0,0,0-1.43.813V17H53.247V8.547Zm9.586-2.078V8.547H66.4V10.2H64.958v4.219a1.007,1.007,0,0,0,.18.672.9.9,0,0,0,.688.2,3.6,3.6,0,0,0,.664-.055v1.711a4.648,4.648,0,0,1-1.367.2,2.156,2.156,0,0,1-2.422-2.4V10.2H61.465V8.547H62.7V6.469ZM70.044,17H67.778V8.547h2.266Zm-2.4-10.641a1.112,1.112,0,0,1,.34-.836,1.465,1.465,0,0,1,1.848,0,1.105,1.105,0,0,1,.344.836,1.108,1.108,0,0,1-.348.844,1.448,1.448,0,0,1-1.836,0A1.108,1.108,0,0,1,67.645,6.359ZM72.45,17V10.2H71.192V8.547H72.45V8.156A3.17,3.17,0,0,1,73.43,5.7a3.945,3.945,0,0,1,2.723-.863,9.031,9.031,0,0,1,2.563.461l-.328,1.867A10,10,0,0,0,77.2,6.871a5.835,5.835,0,0,0-.906-.066q-1.578,0-1.578,1.4v.344h1.664V10.2H74.715V17Zm7.32,0H77.5V8.547H79.77Zm5.383-1.664a1.481,1.481,0,0,0,1.016-.344,1.2,1.2,0,0,0,.406-.914h2.117a2.9,2.9,0,0,1-.469,1.574,3.093,3.093,0,0,1-1.262,1.109,3.949,3.949,0,0,1-1.77.395A3.67,3.67,0,0,1,82.333,16a4.56,4.56,0,0,1-1.047-3.184v-.148a4.508,4.508,0,0,1,1.039-3.117,3.627,3.627,0,0,1,2.852-1.164,3.555,3.555,0,0,1,2.543.9,3.2,3.2,0,0,1,.973,2.4H86.575a1.551,1.551,0,0,0-.406-1.072,1.51,1.51,0,0,0-2.223.163,3.333,3.333,0,0,0-.4,1.866v.235a3.375,3.375,0,0,0,.4,1.878A1.377,1.377,0,0,0,85.153,15.336ZM94.879,17a2.507,2.507,0,0,1-.227-.758,2.732,2.732,0,0,1-2.133.914,3,3,0,0,1-2.059-.719,2.312,2.312,0,0,1-.816-1.812,2.389,2.389,0,0,1,1-2.062,4.915,4.915,0,0,1,2.879-.727h1.039v-.484a1.393,1.393,0,0,0-.3-.937,1.183,1.183,0,0,0-.949-.352,1.345,1.345,0,0,0-.895.273.929.929,0,0,0-.324.75H89.833a2.268,2.268,0,0,1,.453-1.359,3,3,0,0,1,1.281-.98,4.669,4.669,0,0,1,1.859-.355,3.689,3.689,0,0,1,2.48.785,2.747,2.747,0,0,1,.918,2.207v3.664a4.041,4.041,0,0,0,.336,1.82V17Zm-1.867-1.57a1.945,1.945,0,0,0,.922-.223,1.462,1.462,0,0,0,.625-.6V13.156h-.844q-1.7,0-1.8,1.172l-.008.133a.9.9,0,0,0,.3.7A1.153,1.153,0,0,0,93.012,15.43Zm9.063-.094a1.481,1.481,0,0,0,1.016-.344,1.2,1.2,0,0,0,.406-.914h2.117a2.9,2.9,0,0,1-.469,1.574,3.093,3.093,0,0,1-1.262,1.109,3.949,3.949,0,0,1-1.77.395A3.67,3.67,0,0,1,99.254,16a4.56,4.56,0,0,1-1.047-3.184v-.148a4.508,4.508,0,0,1,1.039-3.117A3.627,3.627,0,0,1,102.1,8.391a3.555,3.555,0,0,1,2.543.9,3.2,3.2,0,0,1,.973,2.4H103.5a1.551,1.551,0,0,0-.406-1.072,1.51,1.51,0,0,0-2.223.163,3.333,3.333,0,0,0-.4,1.866v.235a3.375,3.375,0,0,0,.4,1.878A1.377,1.377,0,0,0,102.075,15.336ZM109.286,17H107.02V8.547h2.266Zm-2.4-10.641a1.112,1.112,0,0,1,.34-.836,1.465,1.465,0,0,1,1.848,0,1.105,1.105,0,0,1,.344.836,1.108,1.108,0,0,1-.348.844,1.448,1.448,0,0,1-1.836,0A1.108,1.108,0,0,1,106.887,6.359Zm3.906,6.336a5.013,5.013,0,0,1,.484-2.242,3.546,3.546,0,0,1,1.395-1.523,4.069,4.069,0,0,1,2.113-.539,3.849,3.849,0,0,1,2.793,1.047,4.2,4.2,0,0,1,1.207,2.844l.016.578a4.418,4.418,0,0,1-1.086,3.121,4.209,4.209,0,0,1-5.832,0,4.5,4.5,0,0,1-1.09-3.187Zm2.258.16A3.16,3.16,0,0,0,113.5,14.7a1.628,1.628,0,0,0,2.578.008,3.457,3.457,0,0,0,.461-2.015,3.128,3.128,0,0,0-.461-1.831,1.5,1.5,0,0,0-1.3-.649,1.474,1.474,0,0,0-1.281.646A3.516,3.516,0,0,0,113.051,12.856ZM115.231,5h2.461l-2.164,2.422h-1.836Zm7.039,3.547.07.977a2.951,2.951,0,0,1,2.43-1.133,2.453,2.453,0,0,1,2,.789,3.682,3.682,0,0,1,.672,2.359V17h-2.258V11.594a1.465,1.465,0,0,0-.312-1.043,1.4,1.4,0,0,0-1.039-.324,1.553,1.553,0,0,0-1.43.813V17h-2.258V8.547Z" transform="translate(409.226 8590.759)" fill="#12263f"/>
    <path id="Trazado_603868" data-name="Trazado 603868" d="M13.684,17h-7.8V15.453l3.68-3.922a9.078,9.078,0,0,0,1.121-1.445,2.322,2.322,0,0,0,.363-1.172,1.738,1.738,0,0,0-.383-1.191,1.382,1.382,0,0,0-1.094-.434,1.49,1.49,0,0,0-1.207.527A2.089,2.089,0,0,0,7.926,9.2H5.661a3.729,3.729,0,0,1,.5-1.9,3.5,3.5,0,0,1,1.4-1.348,4.262,4.262,0,0,1,2.055-.488,4.036,4.036,0,0,1,2.73.844A2.985,2.985,0,0,1,13.317,8.7a3.825,3.825,0,0,1-.437,1.719,9.551,9.551,0,0,1-1.5,2.039L8.793,15.18h4.891Zm1.594-1.109a1.137,1.137,0,0,1,.363-.875,1.412,1.412,0,0,1,1.828,0,1.137,1.137,0,0,1,.363.875,1.121,1.121,0,0,1-.359.863,1.435,1.435,0,0,1-1.836,0A1.121,1.121,0,0,1,15.278,15.891Zm17.594-2.68A4.025,4.025,0,0,1,31.516,16.1a4.76,4.76,0,0,1-3.223,1.055,4.28,4.28,0,0,1-3.441-1.473A6.038,6.038,0,0,1,23.6,11.641v-.7a6.819,6.819,0,0,1,.578-2.891,4.332,4.332,0,0,1,1.652-1.918,4.629,4.629,0,0,1,2.5-.668A4.637,4.637,0,0,1,31.5,6.523a4.326,4.326,0,0,1,1.391,2.961H30.543a2.376,2.376,0,0,0-.613-1.6,2.271,2.271,0,0,0-1.605-.5,1.991,1.991,0,0,0-1.754.84,4.707,4.707,0,0,0-.6,2.605V11.7a5.038,5.038,0,0,0,.559,2.7,1.954,1.954,0,0,0,1.762.852,2.314,2.314,0,0,0,1.621-.5,2.241,2.241,0,0,0,.613-1.535ZM36.645,17H34.379V5h2.266ZM43.4,17a2.507,2.507,0,0,1-.227-.758,2.732,2.732,0,0,1-2.133.914,3,3,0,0,1-2.059-.719,2.312,2.312,0,0,1-.816-1.812,2.389,2.389,0,0,1,1-2.062,4.915,4.915,0,0,1,2.879-.727h1.039v-.484a1.393,1.393,0,0,0-.3-.937,1.183,1.183,0,0,0-.949-.352,1.345,1.345,0,0,0-.895.273.929.929,0,0,0-.324.75H38.356a2.268,2.268,0,0,1,.453-1.359,3,3,0,0,1,1.281-.98,4.669,4.669,0,0,1,1.859-.355,3.689,3.689,0,0,1,2.48.785,2.747,2.747,0,0,1,.918,2.207v3.664a4.041,4.041,0,0,0,.336,1.82V17Zm-1.867-1.57a1.945,1.945,0,0,0,.922-.223,1.462,1.462,0,0,0,.625-.6V13.156h-.844q-1.7,0-1.8,1.172l-.008.133a.9.9,0,0,0,.3.7A1.153,1.153,0,0,0,41.536,15.43Zm10.125-.766a.727.727,0,0,0-.41-.652,4.659,4.659,0,0,0-1.316-.426q-3.016-.633-3.016-2.562a2.323,2.323,0,0,1,.934-1.879,3.766,3.766,0,0,1,2.441-.754,4.053,4.053,0,0,1,2.574.758,2.388,2.388,0,0,1,.965,1.969H51.575a1.092,1.092,0,0,0-.312-.8A1.322,1.322,0,0,0,50.286,10a1.351,1.351,0,0,0-.883.258.814.814,0,0,0-.312.656.7.7,0,0,0,.355.605,3.657,3.657,0,0,0,1.2.4,9.8,9.8,0,0,1,1.422.379,2.336,2.336,0,0,1,1.789,2.273,2.2,2.2,0,0,1-.992,1.871,4.28,4.28,0,0,1-2.562.715,4.47,4.47,0,0,1-1.887-.379,3.166,3.166,0,0,1-1.293-1.039,2.414,2.414,0,0,1-.469-1.426h2.141a1.179,1.179,0,0,0,.445.922,1.766,1.766,0,0,0,1.109.32,1.635,1.635,0,0,0,.98-.246A.766.766,0,0,0,51.661,14.664ZM57.692,17H55.426V8.547h2.266Zm-2.4-10.641a1.112,1.112,0,0,1,.34-.836,1.465,1.465,0,0,1,1.848,0,1.105,1.105,0,0,1,.344.836,1.108,1.108,0,0,1-.348.844,1.448,1.448,0,0,1-1.836,0A1.108,1.108,0,0,1,55.293,6.359ZM60.1,17V10.2H58.84V8.547H60.1V8.156a3.17,3.17,0,0,1,.98-2.457A3.945,3.945,0,0,1,63.8,4.836a9.031,9.031,0,0,1,2.563.461l-.328,1.867a10,10,0,0,0-1.187-.293,5.835,5.835,0,0,0-.906-.066q-1.578,0-1.578,1.4v.344h1.664V10.2H62.364V17Zm7.32,0H65.153V8.547h2.266ZM72.8,15.336a1.481,1.481,0,0,0,1.016-.344,1.2,1.2,0,0,0,.406-.914H76.34a2.9,2.9,0,0,1-.469,1.574,3.093,3.093,0,0,1-1.262,1.109,3.949,3.949,0,0,1-1.77.395A3.67,3.67,0,0,1,69.981,16a4.56,4.56,0,0,1-1.047-3.184v-.148a4.508,4.508,0,0,1,1.039-3.117,3.627,3.627,0,0,1,2.852-1.164,3.555,3.555,0,0,1,2.543.9,3.2,3.2,0,0,1,.973,2.4H74.223a1.551,1.551,0,0,0-.406-1.072,1.51,1.51,0,0,0-2.223.163,3.333,3.333,0,0,0-.4,1.866v.235a3.375,3.375,0,0,0,.4,1.878A1.377,1.377,0,0,0,72.8,15.336ZM82.528,17a2.507,2.507,0,0,1-.227-.758,2.732,2.732,0,0,1-2.133.914,3,3,0,0,1-2.059-.719,2.312,2.312,0,0,1-.816-1.812,2.389,2.389,0,0,1,1-2.062,4.915,4.915,0,0,1,2.879-.727h1.039v-.484a1.393,1.393,0,0,0-.3-.937,1.183,1.183,0,0,0-.949-.352,1.345,1.345,0,0,0-.895.273.929.929,0,0,0-.324.75H77.481a2.268,2.268,0,0,1,.453-1.359,3,3,0,0,1,1.281-.98,4.669,4.669,0,0,1,1.859-.355,3.689,3.689,0,0,1,2.48.785,2.747,2.747,0,0,1,.918,2.207v3.664a4.041,4.041,0,0,0,.336,1.82V17Zm-1.867-1.57a1.945,1.945,0,0,0,.922-.223,1.462,1.462,0,0,0,.625-.6V13.156h-.844q-1.7,0-1.8,1.172l-.008.133a.9.9,0,0,0,.3.7A1.153,1.153,0,0,0,80.661,15.43Zm9.063-.094a1.481,1.481,0,0,0,1.016-.344,1.2,1.2,0,0,0,.406-.914h2.117a2.9,2.9,0,0,1-.469,1.574,3.093,3.093,0,0,1-1.262,1.109,3.949,3.949,0,0,1-1.77.395A3.67,3.67,0,0,1,86.9,16a4.56,4.56,0,0,1-1.047-3.184v-.148a4.508,4.508,0,0,1,1.039-3.117,3.627,3.627,0,0,1,2.852-1.164,3.555,3.555,0,0,1,2.543.9,3.2,3.2,0,0,1,.973,2.4H91.145a1.551,1.551,0,0,0-.406-1.072,1.51,1.51,0,0,0-2.223.163,3.333,3.333,0,0,0-.4,1.866v.235a3.375,3.375,0,0,0,.4,1.878A1.377,1.377,0,0,0,89.723,15.336ZM96.934,17H94.668V8.547h2.266Zm-2.4-10.641a1.112,1.112,0,0,1,.34-.836,1.465,1.465,0,0,1,1.848,0,1.105,1.105,0,0,1,.344.836,1.108,1.108,0,0,1-.348.844,1.448,1.448,0,0,1-1.836,0A1.108,1.108,0,0,1,94.536,6.359ZM98.442,12.7a5.013,5.013,0,0,1,.484-2.242,3.546,3.546,0,0,1,1.395-1.523,4.069,4.069,0,0,1,2.113-.539,3.849,3.849,0,0,1,2.793,1.047,4.2,4.2,0,0,1,1.207,2.844l.016.578a4.418,4.418,0,0,1-1.086,3.121,4.209,4.209,0,0,1-5.832,0,4.5,4.5,0,0,1-1.09-3.187Zm2.258.16a3.16,3.16,0,0,0,.453,1.843,1.628,1.628,0,0,0,2.578.008,3.457,3.457,0,0,0,.461-2.015,3.128,3.128,0,0,0-.461-1.831,1.5,1.5,0,0,0-1.3-.649,1.474,1.474,0,0,0-1.281.646A3.516,3.516,0,0,0,100.7,12.856ZM102.879,5h2.461l-2.164,2.422H101.34Zm7.039,3.547.07.977a2.951,2.951,0,0,1,2.43-1.133,2.453,2.453,0,0,1,2,.789,3.682,3.682,0,0,1,.672,2.359V17h-2.258V11.594a1.465,1.465,0,0,0-.312-1.043,1.4,1.4,0,0,0-1.039-.324,1.553,1.553,0,0,0-1.43.813V17h-2.258V8.547Z" transform="translate(579.511 8906.186)" fill="#12263f"/>
    <path id="Trazado_603869" data-name="Trazado 603869" d="M21.032,10.313h1.2a1.7,1.7,0,0,0,1.273-.43,1.574,1.574,0,0,0,.414-1.141,1.392,1.392,0,0,0-.41-1.07,1.59,1.59,0,0,0-1.129-.383,1.666,1.666,0,0,0-1.086.355,1.137,1.137,0,0,0-.437.926H18.6a2.777,2.777,0,0,1,.48-1.6,3.2,3.2,0,0,1,1.344-1.105,4.485,4.485,0,0,1,1.9-.4,4.253,4.253,0,0,1,2.828.863A2.945,2.945,0,0,1,26.18,8.711a2.394,2.394,0,0,1-.477,1.438,3.1,3.1,0,0,1-1.25,1.008,2.826,2.826,0,0,1,1.434,1.031,2.8,2.8,0,0,1,.473,1.625,2.994,2.994,0,0,1-1.105,2.43,4.445,4.445,0,0,1-2.926.914,4.214,4.214,0,0,1-2.785-.9,2.934,2.934,0,0,1-1.082-2.375h2.258a1.308,1.308,0,0,0,.48,1.047,2,2,0,0,0,2.445-.02,1.47,1.47,0,0,0,.457-1.129q0-1.7-1.875-1.7h-1.2Zm7.094,5.578a1.137,1.137,0,0,1,.363-.875,1.412,1.412,0,0,1,1.828,0,1.137,1.137,0,0,1,.363.875,1.121,1.121,0,0,1-.359.863,1.435,1.435,0,0,1-1.836,0A1.121,1.121,0,0,1,28.126,15.891Zm11.008-2.9V17H36.79V5.625h4.438a5.134,5.134,0,0,1,2.254.469,3.454,3.454,0,0,1,1.5,1.332A3.714,3.714,0,0,1,45.5,9.391a3.266,3.266,0,0,1-1.145,2.637,4.767,4.767,0,0,1-3.168.965Zm0-1.9h2.094a2.059,2.059,0,0,0,1.418-.437,1.591,1.591,0,0,0,.488-1.25,1.876,1.876,0,0,0-.492-1.352,1.839,1.839,0,0,0-1.359-.531H39.133Zm12.578-.43A6.134,6.134,0,0,0,50.9,10.6a1.654,1.654,0,0,0-1.68.867V17H46.961V8.547h2.133l.063,1.008A2.092,2.092,0,0,1,51.04,8.391a2.366,2.366,0,0,1,.7.1ZM55.18,17H52.915V8.547H55.18Zm-2.4-10.641a1.112,1.112,0,0,1,.34-.836,1.465,1.465,0,0,1,1.848,0,1.105,1.105,0,0,1,.344.836,1.108,1.108,0,0,1-.348.844,1.448,1.448,0,0,1-1.836,0A1.108,1.108,0,0,1,52.782,6.359ZM56.688,12.7a5.013,5.013,0,0,1,.484-2.242A3.546,3.546,0,0,1,58.567,8.93a4.069,4.069,0,0,1,2.113-.539,3.849,3.849,0,0,1,2.793,1.047,4.2,4.2,0,0,1,1.207,2.844l.016.578A4.418,4.418,0,0,1,63.61,15.98a4.209,4.209,0,0,1-5.832,0,4.5,4.5,0,0,1-1.09-3.187Zm2.258.16A3.16,3.16,0,0,0,59.4,14.7a1.628,1.628,0,0,0,2.578.008,3.457,3.457,0,0,0,.461-2.015,3.128,3.128,0,0,0-.461-1.831,1.5,1.5,0,0,0-1.3-.649,1.474,1.474,0,0,0-1.281.646A3.516,3.516,0,0,0,58.946,12.856Zm11.891-2.192a6.134,6.134,0,0,0-.812-.062,1.654,1.654,0,0,0-1.68.867V17H66.086V8.547h2.133l.063,1.008a2.092,2.092,0,0,1,1.883-1.164,2.366,2.366,0,0,1,.7.1ZM74.305,17H72.04V8.547h2.266Zm-2.4-10.641a1.112,1.112,0,0,1,.34-.836,1.465,1.465,0,0,1,1.848,0,1.105,1.105,0,0,1,.344.836,1.108,1.108,0,0,1-.348.844,1.448,1.448,0,0,1-1.836,0A1.108,1.108,0,0,1,71.907,6.359Zm6.852,8.82h4.133V17H75.876V15.625l3.977-5.258H75.993V8.547h6.773v1.33ZM89.2,17a2.507,2.507,0,0,1-.227-.758,2.732,2.732,0,0,1-2.133.914,3,3,0,0,1-2.059-.719,2.312,2.312,0,0,1-.816-1.812,2.389,2.389,0,0,1,1-2.062,4.915,4.915,0,0,1,2.879-.727h1.039v-.484a1.393,1.393,0,0,0-.3-.937,1.183,1.183,0,0,0-.949-.352,1.345,1.345,0,0,0-.895.273.929.929,0,0,0-.324.75H84.157a2.268,2.268,0,0,1,.453-1.359,3,3,0,0,1,1.281-.98,4.669,4.669,0,0,1,1.859-.355,3.689,3.689,0,0,1,2.48.785,2.747,2.747,0,0,1,.918,2.207v3.664a4.041,4.041,0,0,0,.336,1.82V17Zm-1.867-1.57a1.945,1.945,0,0,0,.922-.223,1.462,1.462,0,0,0,.625-.6V13.156H88.04q-1.7,0-1.8,1.172l-.008.133a.9.9,0,0,0,.3.7A1.153,1.153,0,0,0,87.336,15.43Zm9.063-.094a1.481,1.481,0,0,0,1.016-.344,1.2,1.2,0,0,0,.406-.914h2.117a2.9,2.9,0,0,1-.469,1.574,3.093,3.093,0,0,1-1.262,1.109,3.949,3.949,0,0,1-1.77.395A3.67,3.67,0,0,1,93.579,16a4.56,4.56,0,0,1-1.047-3.184v-.148a4.508,4.508,0,0,1,1.039-3.117,3.627,3.627,0,0,1,2.852-1.164,3.555,3.555,0,0,1,2.543.9,3.2,3.2,0,0,1,.973,2.4H97.821a1.551,1.551,0,0,0-.406-1.072,1.51,1.51,0,0,0-2.223.163,3.333,3.333,0,0,0-.4,1.866v.235a3.375,3.375,0,0,0,.4,1.878A1.377,1.377,0,0,0,96.4,15.336ZM103.61,17h-2.266V8.547h2.266Zm-2.4-10.641a1.112,1.112,0,0,1,.34-.836,1.465,1.465,0,0,1,1.848,0,1.105,1.105,0,0,1,.344.836,1.108,1.108,0,0,1-.348.844,1.448,1.448,0,0,1-1.836,0A1.108,1.108,0,0,1,101.211,6.359Zm3.906,6.336a5.013,5.013,0,0,1,.484-2.242A3.546,3.546,0,0,1,107,8.93a4.069,4.069,0,0,1,2.113-.539A3.849,3.849,0,0,1,111.9,9.438a4.2,4.2,0,0,1,1.207,2.844l.016.578a4.418,4.418,0,0,1-1.086,3.121,4.209,4.209,0,0,1-5.832,0,4.5,4.5,0,0,1-1.09-3.187Zm2.258.16a3.16,3.16,0,0,0,.453,1.843,1.628,1.628,0,0,0,2.578.008,3.457,3.457,0,0,0,.461-2.015,3.128,3.128,0,0,0-.461-1.831,1.5,1.5,0,0,0-1.3-.649,1.474,1.474,0,0,0-1.281.646A3.516,3.516,0,0,0,107.376,12.856ZM109.555,5h2.461l-2.164,2.422h-1.836Zm7.039,3.547.07.977a2.951,2.951,0,0,1,2.43-1.133,2.453,2.453,0,0,1,2,.789,3.682,3.682,0,0,1,.672,2.359V17h-2.258V11.594a1.465,1.465,0,0,0-.312-1.043,1.4,1.4,0,0,0-1.039-.324,1.553,1.553,0,0,0-1.43.813V17h-2.258V8.547Z" transform="translate(734.15 8590.759)" fill="#12263f"/>
    <path id="Trazado_603870" data-name="Trazado 603870" d="M18.189,12.719h1.289v1.82H18.189V17H15.931V14.539H11.267l-.1-1.422,4.742-7.492h2.281Zm-4.773,0h2.516V8.7l-.148.258ZM20.9,15.891a1.137,1.137,0,0,1,.363-.875,1.412,1.412,0,0,1,1.828,0,1.137,1.137,0,0,1,.363.875,1.121,1.121,0,0,1-.359.863,1.435,1.435,0,0,1-1.836,0A1.121,1.121,0,0,1,20.9,15.891Zm12.875-3.055H31.908V17H29.564V5.625h4.227a4.778,4.778,0,0,1,3.109.9,3.1,3.1,0,0,1,1.094,2.539A3.5,3.5,0,0,1,37.49,11a3.437,3.437,0,0,1-1.527,1.238l2.461,4.648V17H35.908Zm-1.867-1.9H33.8a1.936,1.936,0,0,0,1.367-.449A1.606,1.606,0,0,0,35.65,9.25a1.719,1.719,0,0,0-.457-1.266,1.9,1.9,0,0,0-1.4-.461H31.908Zm11.609,6.219a4.15,4.15,0,0,1-3.027-1.141,4.054,4.054,0,0,1-1.168-3.039v-.219a5.106,5.106,0,0,1,.492-2.277,3.612,3.612,0,0,1,1.395-1.547,3.914,3.914,0,0,1,2.059-.543A3.508,3.508,0,0,1,46,9.484a4.444,4.444,0,0,1,1,3.1v.922H41.611a2.1,2.1,0,0,0,.66,1.328,2,2,0,0,0,1.395.5,2.437,2.437,0,0,0,2.039-.945l1.109,1.242a3.389,3.389,0,0,1-1.375,1.121A4.511,4.511,0,0,1,43.517,17.156Zm-.258-6.945a1.411,1.411,0,0,0-1.09.455,2.357,2.357,0,0,0-.535,1.3h3.141v-.181a1.681,1.681,0,0,0-.406-1.165A1.456,1.456,0,0,0,43.259,10.211Zm9.594,4.453a.727.727,0,0,0-.41-.652,4.659,4.659,0,0,0-1.316-.426q-3.016-.633-3.016-2.562a2.323,2.323,0,0,1,.934-1.879,3.766,3.766,0,0,1,2.441-.754,4.053,4.053,0,0,1,2.574.758,2.388,2.388,0,0,1,.965,1.969H52.767a1.092,1.092,0,0,0-.312-.8A1.322,1.322,0,0,0,51.478,10a1.351,1.351,0,0,0-.883.258.814.814,0,0,0-.312.656.7.7,0,0,0,.355.605,3.657,3.657,0,0,0,1.2.4,9.8,9.8,0,0,1,1.422.379,2.336,2.336,0,0,1,1.789,2.273,2.2,2.2,0,0,1-.992,1.871,4.28,4.28,0,0,1-2.562.715,4.47,4.47,0,0,1-1.887-.379,3.166,3.166,0,0,1-1.293-1.039,2.414,2.414,0,0,1-.469-1.426h2.141a1.179,1.179,0,0,0,.445.922,1.766,1.766,0,0,0,1.109.32,1.635,1.635,0,0,0,.98-.246A.766.766,0,0,0,52.853,14.664Zm11.258-1.812a5.07,5.07,0,0,1-.887,3.129,2.843,2.843,0,0,1-2.395,1.176,2.633,2.633,0,0,1-2.07-.891V20.25H56.5V8.547H58.6l.078.828a2.654,2.654,0,0,1,2.141-.984,2.862,2.862,0,0,1,2.43,1.156,5.207,5.207,0,0,1,.867,3.188Zm-2.258-.164a3.327,3.327,0,0,0-.418-1.82,1.361,1.361,0,0,0-1.215-.641,1.479,1.479,0,0,0-1.461.813V14.5a1.5,1.5,0,0,0,1.477.836Q61.853,15.336,61.853,12.688Zm8.719,3.453a2.831,2.831,0,0,1-2.312,1.016,2.67,2.67,0,0,1-2.074-.781,3.335,3.335,0,0,1-.73-2.289V8.547h2.258v5.467q0,1.322,1.2,1.322a1.63,1.63,0,0,0,1.578-.8V8.547h2.266V17H70.634Zm7.781,1.016a4.15,4.15,0,0,1-3.027-1.141,4.054,4.054,0,0,1-1.168-3.039v-.219a5.106,5.106,0,0,1,.492-2.277,3.612,3.612,0,0,1,1.395-1.547A3.914,3.914,0,0,1,78.1,8.391a3.508,3.508,0,0,1,2.73,1.094,4.444,4.444,0,0,1,1,3.1v.922H76.447a2.1,2.1,0,0,0,.66,1.328,2,2,0,0,0,1.395.5,2.437,2.437,0,0,0,2.039-.945l1.109,1.242a3.389,3.389,0,0,1-1.375,1.121A4.511,4.511,0,0,1,78.353,17.156ZM78.1,10.211a1.411,1.411,0,0,0-1.09.455,2.357,2.357,0,0,0-.535,1.3h3.141v-.181a1.681,1.681,0,0,0-.406-1.165A1.456,1.456,0,0,0,78.1,10.211Zm9.594,4.453a.727.727,0,0,0-.41-.652,4.659,4.659,0,0,0-1.316-.426q-3.016-.633-3.016-2.562a2.323,2.323,0,0,1,.934-1.879,3.766,3.766,0,0,1,2.441-.754,4.053,4.053,0,0,1,2.574.758,2.388,2.388,0,0,1,.965,1.969H87.6a1.092,1.092,0,0,0-.312-.8A1.322,1.322,0,0,0,86.314,10a1.351,1.351,0,0,0-.883.258.814.814,0,0,0-.312.656.7.7,0,0,0,.355.605,3.657,3.657,0,0,0,1.2.4A9.8,9.8,0,0,1,88.1,12.3a2.336,2.336,0,0,1,1.789,2.273,2.2,2.2,0,0,1-.992,1.871,4.28,4.28,0,0,1-2.562.715,4.47,4.47,0,0,1-1.887-.379,3.166,3.166,0,0,1-1.293-1.039,2.414,2.414,0,0,1-.469-1.426h2.141a1.179,1.179,0,0,0,.445.922,1.766,1.766,0,0,0,1.109.32,1.635,1.635,0,0,0,.98-.246A.766.766,0,0,0,87.689,14.664Zm6.352-8.2V8.547h1.445V10.2H94.041v4.219a1.007,1.007,0,0,0,.18.672.9.9,0,0,0,.688.2,3.6,3.6,0,0,0,.664-.055v1.711a4.648,4.648,0,0,1-1.367.2,2.156,2.156,0,0,1-2.422-2.4V10.2H90.548V8.547h1.234V6.469ZM101.642,17a2.507,2.507,0,0,1-.227-.758,2.732,2.732,0,0,1-2.133.914,3,3,0,0,1-2.059-.719,2.312,2.312,0,0,1-.816-1.812,2.389,2.389,0,0,1,1-2.062,4.915,4.915,0,0,1,2.879-.727h1.039v-.484a1.393,1.393,0,0,0-.3-.937,1.183,1.183,0,0,0-.949-.352,1.345,1.345,0,0,0-.895.273.929.929,0,0,0-.324.75H96.6a2.268,2.268,0,0,1,.453-1.359,3,3,0,0,1,1.281-.98,4.669,4.669,0,0,1,1.859-.355,3.689,3.689,0,0,1,2.48.785,2.747,2.747,0,0,1,.918,2.207v3.664a4.041,4.041,0,0,0,.336,1.82V17Zm-1.867-1.57a1.945,1.945,0,0,0,.922-.223,1.462,1.462,0,0,0,.625-.6V13.156h-.844q-1.7,0-1.8,1.172l-.008.133a.9.9,0,0,0,.3.7A1.153,1.153,0,0,0,99.775,15.43Z" transform="translate(899.496 8906.186)" fill="#12263f"/>
    <path id="Trazado_603871" data-name="Trazado 603871" d="M40.649,11.406l.656-5.781H47.68V7.508H43.157l-.281,2.445a3.58,3.58,0,0,1,1.711-.43,3.279,3.279,0,0,1,2.547,1.008,4.026,4.026,0,0,1,.922,2.82,4.124,4.124,0,0,1-.465,1.973,3.281,3.281,0,0,1-1.332,1.352,4.158,4.158,0,0,1-2.047.48,4.416,4.416,0,0,1-1.914-.418A3.4,3.4,0,0,1,40.9,15.563a3.2,3.2,0,0,1-.543-1.727h2.234a1.669,1.669,0,0,0,.5,1.105,1.573,1.573,0,0,0,1.113.395,1.388,1.388,0,0,0,1.18-.551,2.551,2.551,0,0,0,.414-1.559,2.11,2.11,0,0,0-.477-1.484,1.749,1.749,0,0,0-1.352-.516,1.954,1.954,0,0,0-1.3.422l-.219.2ZM49.7,15.891a1.137,1.137,0,0,1,.363-.875,1.412,1.412,0,0,1,1.828,0,1.137,1.137,0,0,1,.363.875,1.121,1.121,0,0,1-.359.863,1.435,1.435,0,0,1-1.836,0A1.121,1.121,0,0,1,49.7,15.891ZM67.3,13.211A4.025,4.025,0,0,1,65.942,16.1a4.76,4.76,0,0,1-3.223,1.055,4.28,4.28,0,0,1-3.441-1.473,6.038,6.038,0,0,1-1.254-4.043v-.7A6.819,6.819,0,0,1,58.6,8.055a4.332,4.332,0,0,1,1.652-1.918,5.164,5.164,0,0,1,5.668.387,4.326,4.326,0,0,1,1.391,2.961H64.969a2.376,2.376,0,0,0-.613-1.6,2.271,2.271,0,0,0-1.605-.5A1.991,1.991,0,0,0,61,8.23a4.707,4.707,0,0,0-.6,2.605V11.7a5.038,5.038,0,0,0,.559,2.7,1.954,1.954,0,0,0,1.762.852,2.314,2.314,0,0,0,1.621-.5,2.241,2.241,0,0,0,.613-1.535ZM71.071,17H68.805V8.547h2.266Zm-2.4-10.641a1.112,1.112,0,0,1,.34-.836,1.465,1.465,0,0,1,1.848,0,1.105,1.105,0,0,1,.344.836,1.108,1.108,0,0,1-.348.844,1.448,1.448,0,0,1-1.836,0A1.108,1.108,0,0,1,68.672,6.359Zm8.148,10.8a4.15,4.15,0,0,1-3.027-1.141,4.054,4.054,0,0,1-1.168-3.039v-.219a5.106,5.106,0,0,1,.492-2.277,3.612,3.612,0,0,1,1.395-1.547,3.914,3.914,0,0,1,2.059-.543A3.508,3.508,0,0,1,79.3,9.484a4.444,4.444,0,0,1,1,3.1v.922H74.915a2.1,2.1,0,0,0,.66,1.328,2,2,0,0,0,1.395.5,2.437,2.437,0,0,0,2.039-.945l1.109,1.242a3.389,3.389,0,0,1-1.375,1.121A4.511,4.511,0,0,1,76.821,17.156Zm-.258-6.945a1.411,1.411,0,0,0-1.09.455,2.357,2.357,0,0,0-.535,1.3h3.141v-.181a1.681,1.681,0,0,0-.406-1.165A1.456,1.456,0,0,0,76.563,10.211Zm9.766.453a6.134,6.134,0,0,0-.812-.062,1.654,1.654,0,0,0-1.68.867V17H81.579V8.547h2.133l.063,1.008a2.092,2.092,0,0,1,1.883-1.164,2.366,2.366,0,0,1,.7.1Zm5.836,0a6.134,6.134,0,0,0-.812-.062,1.654,1.654,0,0,0-1.68.867V17H87.415V8.547h2.133l.063,1.008a2.092,2.092,0,0,1,1.883-1.164,2.366,2.366,0,0,1,.7.1Zm4.977,6.492a4.15,4.15,0,0,1-3.027-1.141,4.054,4.054,0,0,1-1.168-3.039v-.219a5.106,5.106,0,0,1,.492-2.277,3.612,3.612,0,0,1,1.395-1.547,3.914,3.914,0,0,1,2.059-.543,3.508,3.508,0,0,1,2.73,1.094,4.444,4.444,0,0,1,1,3.1v.922H95.235a2.1,2.1,0,0,0,.66,1.328,2,2,0,0,0,1.395.5,2.437,2.437,0,0,0,2.039-.945l1.109,1.242a3.389,3.389,0,0,1-1.375,1.121A4.511,4.511,0,0,1,97.141,17.156Zm-.258-6.945a1.411,1.411,0,0,0-1.09.455,2.357,2.357,0,0,0-.535,1.3H98.4v-.181a1.681,1.681,0,0,0-.406-1.165A1.456,1.456,0,0,0,96.883,10.211Z" transform="translate(1057.151 8590.759)" fill="#12263f"/>
    <g id="Grupo_878287" data-name="Grupo 878287" transform="translate(409.226 8681.879)">
      <g id="Grupo_875625" data-name="Grupo 875625" transform="translate(0 0)">
        <g transform="matrix(1, 0, 0, 1, -124.23, -86.28)" filter="url(#Elipse_180)">
          <circle id="Elipse_180-6" data-name="Elipse 180" cx="70.091" cy="70.091" r="70.091" transform="translate(124.23 86.28)" fill="#fff"/>
        </g>
      </g>
      <g id="Enmascarar_grupo_700350" data-name="Enmascarar grupo 700350" transform="translate(8.104 8.104)" clip-path="url(#clip-path-6)">
        <g id="Grupo_879094" data-name="Grupo 879094" transform="translate(23.022 23.037)">
          <path id="Trazado_601368" data-name="Trazado 601368" d="M5064.554,2481.162c0,3.122.009,6.245,0,9.367a16.359,16.359,0,0,0,.306,4.039,3.928,3.928,0,0,1-3.429,1.529q-24.323-.036-48.646.014c-1.752,0-3.316-.143-4.524-1.543q0-34.91,0-69.82a3.469,3.469,0,0,1,3.821-3.818q19.092,0,38.185.007,0,.3,0,.609-.014.3-.027.6c-.908.211-.56.95-.583,1.486-.179,4.113.327,8.242-.3,12.346a2.147,2.147,0,0,0,.743,2.047c.6.436,1.381,1.673,2.29.258l12.176,0q0,3.641,0,7.282l-1.218-.6c-.065-.4-.143-.765-.617-.289a2.164,2.164,0,0,1-1.209-.32c-.07-.41-.163-.767-.625-.272l-.9-.041c-.073-.413-.174-.756-.626-.263l-1.2-.025c.143-.623.445-1.3-.382-1.679-.493-.227-.994-.312-1.139.44q-11.542.023-23.082.051c-1.313,0-2.626.07-3.938.108-.471-.741-.926-.379-1.3.068a1.4,1.4,0,0,0-.124,1.67c.25.41.595.146.817-.172a2.19,2.19,0,0,0,2.022.728c5.389,0,10.778.029,16.167.047l.006.569a.574.574,0,0,1-.607.609,1.974,1.974,0,0,0-2.562.293c-.6.454-.524.9.151,1.235l-.669.607c-4.208,0-8.416,0-12.625-.023a2.1,2.1,0,0,0-1.885.729c-.224-.318-.568-.581-.817-.171a1.407,1.407,0,0,0,.126,1.671c.372.447.828.807,1.3.064l9.673.174c-.471,1.764-1.623,3.265-2.068,5.008a2.274,2.274,0,0,1-2.659,2,13.19,13.19,0,0,0-4.655.218c-1.491.5-2.236,1.795-1.757,3,.355.891.974,1.061,1.706.469l.91.061c.036.383-.092.984.4,1.01,1.525.08,3.057.03,4.932.03-1.183-1.059-2.473.083-3.188-1.039l3.953-.1a.613.613,0,0,0,0,.278h-.3c-.039.029-.116.071-.111.085a1.4,1.4,0,0,0,.111.218h.3q0,.606,0,1.213l-.271.614c-1.958,0-3.915.02-5.873-.01-.805-.012-1.278.2-1.094,1.111l-.5.49c-.344-.044-.745-.575-1.012.029a1.18,1.18,0,0,0,.065,1.16c.3.405.6.181.836-.143a1.838,1.838,0,0,0,1.545.744c2.2-.048,4.4-.042,6.6-.057q.035.61.07,1.221c-.934.15-.492.669-.4,1.211.37,2.184,2.268,3.915,1.858,6.319-2.614.021-5.227.062-7.841.05a1.979,1.979,0,0,0-1.842.762c-.232-.334-.576-.577-.825-.137a1.48,1.48,0,0,0,.092,1.583,3.8,3.8,0,0,0,3.453,1.484c3.746.018,7.492,0,11.238.018.359,0,.974-.215,1,.339.032.62-.6.533-1.038.558-.354.02-.711-.024-1.062.01-4.067.388-8.2-.76-12.25.668-.9.317-1.423.561-1.565,1.458a1.833,1.833,0,0,0,1.183,2.067,5.1,5.1,0,0,0,2.219.377c7.745-.016,15.491-.065,23.235.028a4.386,4.386,0,0,0,4.392-2.451A21.982,21.982,0,0,0,5064.554,2481.162Zm-40.2-33.752q.015-1.519.029-3.037a1.585,1.585,0,0,0-1.756-1.809c-1.52-.014-3.04-.018-4.56,0a1.658,1.658,0,0,0-1.828,1.918c.024.857.12,1.713.184,2.57-.015.707-.051,1.415-.038,2.123a1.4,1.4,0,0,0,1.517,1.526c1.618.031,3.238.035,4.857,0a1.5,1.5,0,0,0,1.617-1.623C5024.392,2448.523,5024.362,2447.966,5024.354,2447.41Zm-7.977,33.17c0,.4-.008.8-.006,1.2.015,2,.34,2.316,2.4,2.33.8.005,1.606,0,2.41,0,3.075,0,3.28-.209,3.172-3.235.012-.151.038-.3.037-.453-.023-4.775.467-4.458-4.366-4.445C5016.119,2475.994,5015.72,2476.488,5016.376,2480.58Zm.031-16.8c-.013.354-.035.707-.035,1.06,0,2.072.271,2.342,2.37,2.347,1.314,0,2.629-.009,3.943,0a1.511,1.511,0,0,0,1.692-1.682c.017-.555-.016-1.111-.026-1.666a2.748,2.748,0,0,0,.033-.3c.017-4.491.407-4.577-4.409-4.515-3.643.047-3.976.363-3.736,4.022A4.663,4.663,0,0,0,5016.407,2463.781Z" transform="translate(-5008.257 -2420.93)" fill="#f4f4f4"/>
          <path id="Trazado_601369" data-name="Trazado 601369" d="M5128.622,2497.094l1.218.6a19.428,19.428,0,0,1,11.127,14.887,11.741,11.741,0,0,1-.162,5.813c-.653.049-.738.587-.923,1.052a19.373,19.373,0,0,1-21.812,12.314c-6.94-1.247-11.645-5.353-14.548-11.711-.437-.958-.186-2.26-1.338-2.881a.215.215,0,0,1-.055-.232l0-.362a.744.744,0,0,0,.008-1.23q0-.605,0-1.212c0-.1,0-.2,0-.3a.634.634,0,0,1,0-.278q.156-1.139.313-2.277a.322.322,0,0,1-.1-.228.394.394,0,0,0,.1-.258,29.972,29.972,0,0,1,3.937-7.9,11.16,11.16,0,0,0,2.409-2.429l.668-.608a8.312,8.312,0,0,0,2.411-1.528.572.572,0,0,0,.606-.609,2.166,2.166,0,0,0,1.8-.578,30.223,30.223,0,0,1,8.63-1.249l.52,0,1.2.025a.676.676,0,0,0,.626.263l.9.041.626.272a2.157,2.157,0,0,0,1.209.319A.669.669,0,0,0,5128.622,2497.094Zm-21.012,17.591a1.609,1.609,0,0,0-.236,1.307,14.593,14.593,0,0,0,4,9.292,14.159,14.159,0,0,0,21.939-1.853,12.172,12.172,0,0,0,2.336-8.411,11.309,11.309,0,0,0-.174-2.415,14.226,14.226,0,0,0-15.456-11.244C5113.331,2501.909,5107.571,2508.093,5107.61,2514.684Z" transform="translate(-5073.542 -2473.055)" fill="#dac9de"/>
          <path id="Trazado_601370" data-name="Trazado 601370" d="M5008.26,2662.807c1.208,1.4,2.773,1.548,4.524,1.543q24.323-.074,48.646-.014a3.929,3.929,0,0,0,3.43-1.529c0,.608.024,1.217-.006,1.823a2.341,2.341,0,0,1-2.377,2.427c-.4.026-.811.006-1.216.006h-48.8C5008.6,2667.063,5008.254,2666.709,5008.26,2662.807Z" transform="translate(-5008.259 -2589.169)" fill="#e5d8ea"/>
          <path id="Trazado_601371" data-name="Trazado 601371" d="M5102.34,2565.826c1.152.621.9,1.922,1.338,2.881,2.9,6.358,7.608,10.464,14.548,11.711a19.374,19.374,0,0,0,21.813-12.314c.186-.465.269-1,.922-1.052-.1,2.9-1.382,5.379-2.831,7.789-.2.338-.527.6-.555,1.035a12.631,12.631,0,0,0-2.105,2.433,6.444,6.444,0,0,0-2.117,1.764l-3.36,1.873a21.982,21.982,0,0,1-5.478,1.556,1.6,1.6,0,0,0-1.668.6c-.145-.125-.292-.359-.437-.357-2.832.033-5.523-.822-8.276-1.286-.215-.838-.969-.395-1.447-.608-1.356-1.247-2.664-2.578-4.67-2.7.026-.066.051-.133.074-.2l.5-.071-.125-.31a7.51,7.51,0,0,0-1.928-1.852.928.928,0,0,0-.575-.868,34.861,34.861,0,0,1-3.295-6.687q-.034-.61-.07-1.221Q5102.469,2566.883,5102.34,2565.826Z" transform="translate(-5073.697 -2521.713)" fill="#ccb8d3"/>
          <path id="Trazado_601372" data-name="Trazado 601372" d="M5146.151,2423.554q.013-.3.027-.6h.584c3.241,3.19,6.492,6.37,9.718,9.574,1.253,1.244,2.452,2.542,3.675,3.816-.154.843-.83.584-1.331.589-2.674.021-5.349-.023-8.023.022-1.621.028-3.215.061-4.615-.937Z" transform="translate(-5104.17 -2422.337)" fill="#dac9de"/>
          <path id="Trazado_601373" data-name="Trazado 601373" d="M5225.24,2610.964c.728-.666,1.332-.62,2.049.126,2.059,2.143,4.21,4.2,6.282,6.326a4.183,4.183,0,0,1,.521,5.721.994.994,0,0,0-1.083-.36c-1.7.264-2.825-.6-3.937-1.751-2.244-2.312-4.589-4.525-6.893-6.778l.976-1.175Z" transform="translate(-5157.052 -2552.783)" fill="#dc4c58"/>
          <path id="Trazado_601374" data-name="Trazado 601374" d="M5218.11,2622.821c2.3,2.254,4.648,4.467,6.893,6.779,1.111,1.146,2.236,2.015,3.937,1.751a.994.994,0,0,1,1.083.361c-1.781,2.273-4.518,2.585-6.591.625-2.244-2.122-4.374-4.364-6.577-6.528-.558-.547-.739-1.061-.217-1.705Z" transform="translate(-5152.981 -2561.356)" fill="#d8313e"/>
          <path id="Trazado_601375" data-name="Trazado 601375" d="M5146.255,2465.863c1.4,1,3,.966,4.615.938,2.674-.046,5.35,0,8.024-.022.5,0,1.177.255,1.331-.588,1.108,1.022.652,2.192.315,3.351h-12.175C5146.619,2469.141,5146.2,2468.413,5146.255,2465.863Z" transform="translate(-5104.24 -2452.183)" fill="#e5d8ea"/>
          <path id="Trazado_601376" data-name="Trazado 601376" d="M5217.579,2602.853l-2.085,2.109a4.832,4.832,0,0,1-1.787-1.5c-.7-.852-1.343-1.876-2.542-2.191a12.7,12.7,0,0,1,2.1-2.433C5215.116,2599.734,5216.253,2601.394,5217.579,2602.853Z" transform="translate(-5149.391 -2544.672)" fill="#e5d8ea"/>
          <path id="Trazado_601377" data-name="Trazado 601377" d="M5206.328,2606.826c1.2.315,1.836,1.339,2.542,2.191a4.827,4.827,0,0,0,1.787,1.5l-.975,1.175-1.471,1.281c-1.125-1.652-2.9-2.715-4-4.385A6.457,6.457,0,0,1,5206.328,2606.826Z" transform="translate(-5144.553 -2550.231)" fill="#dac9de"/>
          <path id="Trazado_601378" data-name="Trazado 601378" d="M5146.819,2421.562h-.583c0-.2,0-.406,0-.609A.977.977,0,0,1,5146.819,2421.562Z" transform="translate(-5104.228 -2420.945)" fill="#e5d8ea"/>
          <path id="Trazado_601379" data-name="Trazado 601379" d="M5087.664,2604.969c2.007.122,3.314,1.454,4.67,2.7q-.021.272-.043.543-8.287.051-16.574.1c-.836.005-1.669-.017-1.627,1.215.039,1.126.807,1.114,1.594,1.114q12.551,0,25.1,0c.682,0,1.33-.035,1.708-.728a1.6,1.6,0,0,1,1.668-.6,4.386,4.386,0,0,1-4.392,2.451c-7.744-.093-15.49-.044-23.235-.028a5.1,5.1,0,0,1-2.22-.377,1.833,1.833,0,0,1-1.182-2.067c.142-.9.666-1.141,1.565-1.458,4.049-1.427,8.183-.28,12.25-.668.351-.033.709.01,1.063-.009.436-.025,1.071.062,1.039-.558-.029-.553-.644-.338-1-.339-3.746-.018-7.492,0-11.238-.017a3.8,3.8,0,0,1-3.453-1.484,1.478,1.478,0,0,1-.092-1.583c.248-.439.593-.2.825.137.121.38-.262.927.378,1.134a.438.438,0,0,0,.479.3c.509.344,1.083.178,1.625.182C5080.268,2604.961,5083.966,2604.961,5087.664,2604.969Z" transform="translate(-5053.342 -2547.533)" fill="#f6f4f4"/>
          <path id="Trazado_601380" data-name="Trazado 601380" d="M5105.023,2493.087a30.227,30.227,0,0,0-8.63,1.248l-1.806.009c-5.389-.019-10.777-.046-16.167-.048a2.191,2.191,0,0,1-2.022-.728,1.611,1.611,0,0,1,.6-1.565c1.313-.038,2.626-.1,3.939-.108q11.541-.037,23.082-.05C5104.553,2492.1,5105.033,2492.4,5105.023,2493.087Z" transform="translate(-5055.636 -2470.255)" fill="#4c637f"/>
          <path id="Trazado_601381" data-name="Trazado 601381" d="M5034.507,2550.792a4.673,4.673,0,0,1-.167-.734c-.24-3.659.093-3.975,3.736-4.022,4.815-.062,4.425.025,4.409,4.515a2.758,2.758,0,0,1-.034.3A11.126,11.126,0,0,1,5034.507,2550.792Z" transform="translate(-5026.357 -2507.941)" fill="#add982"/>
          <path id="Trazado_601382" data-name="Trazado 601382" d="M5034.34,2606.34c-.656-4.093-.257-4.586,3.647-4.6,4.833-.014,4.343-.331,4.365,4.445,0,.151-.024.3-.037.453C5039.642,2606.96,5036.962,2607.433,5034.34,2606.34Z" transform="translate(-5026.221 -2546.689)" fill="#add982"/>
          <path id="Trazado_601383" data-name="Trazado 601383" d="M5034.653,2496.452c-.064-.856-.16-1.712-.184-2.57a1.658,1.658,0,0,1,1.828-1.918c1.52-.018,3.039-.014,4.56,0a1.586,1.586,0,0,1,1.757,1.808c-.007,1.013-.02,2.025-.029,3.038-2.3.594-4.632.182-6.947.285C5035.156,2497.116,5034.992,2496.651,5034.653,2496.452Z" transform="translate(-5026.489 -2470.33)" fill="#add982"/>
          <path id="Trazado_601384" data-name="Trazado 601384" d="M5090.905,2510.881a11.184,11.184,0,0,1-2.409,2.429l-1.822.015-9.674-.174a1.613,1.613,0,0,1-.605-1.564,2.1,2.1,0,0,1,1.886-.729C5082.488,2510.885,5086.7,2510.877,5090.905,2510.881Z" transform="translate(-5055.633 -2483.48)" fill="#4c637f"/>
          <path id="Trazado_601385" data-name="Trazado 601385" d="M5089.963,2603.97c-3.7-.008-7.4-.008-11.094-.031-.542,0-1.116.162-1.625-.182l-.478-.3c-.64-.206-.258-.754-.379-1.134a1.981,1.981,0,0,1,1.843-.762c2.614.012,5.228-.029,7.842-.05h1.827l.585.027a7.491,7.491,0,0,1,1.928,1.852l-.374.382C5090.015,2603.838,5089.99,2603.9,5089.963,2603.97Z" transform="translate(-5055.642 -2546.534)" fill="#475e7b"/>
          <path id="Trazado_601386" data-name="Trazado 601386" d="M5084.433,2518.929l1.822-.015a29.965,29.965,0,0,0-3.938,7.9c-.039.017-.107.03-.111.052a.887.887,0,0,0,.009.206.32.32,0,0,0,.1.228l-.3.058-.344-.006c-2.1-.023-4.2-.063-6.3-.058-.55,0-1.146.1-1.2.844-.048.658-.088,1.344.826,1.478-.732.592-1.351.422-1.706-.469-.479-1.2.266-2.5,1.757-3a13.192,13.192,0,0,1,4.655-.219,2.274,2.274,0,0,0,2.659-2C5082.811,2522.194,5083.961,2520.693,5084.433,2518.929Z" transform="translate(-5053.393 -2489.083)" fill="#f6f4f4"/>
          <path id="Trazado_601387" data-name="Trazado 601387" d="M5034.983,2506.734c.338.2.5.664.984.643,2.315-.1,4.652.309,6.947-.285.008.556.038,1.113.022,1.668a1.5,1.5,0,0,1-1.618,1.622c-1.619.035-3.238.031-4.858,0a1.4,1.4,0,0,1-1.516-1.526C5034.932,2508.149,5034.969,2507.441,5034.983,2506.734Z" transform="translate(-5026.818 -2480.611)" fill="#9ed169"/>
          <path id="Trazado_601388" data-name="Trazado 601388" d="M5034.912,2616.862c2.622,1.093,5.3.621,7.976.3.107,3.026-.1,3.234-3.172,3.235-.8,0-1.606,0-2.41,0-2.06-.013-2.385-.33-2.4-2.33C5034.9,2617.665,5034.91,2617.263,5034.912,2616.862Z" transform="translate(-5026.792 -2557.211)" fill="#9ed169"/>
          <path id="Trazado_601389" data-name="Trazado 601389" d="M5034.947,2561.682a11.126,11.126,0,0,0,7.943.061c.011.555.044,1.112.027,1.666a1.511,1.511,0,0,1-1.692,1.682c-1.314-.01-2.628,0-3.943,0-2.1-.005-2.37-.275-2.37-2.347C5034.913,2562.388,5034.935,2562.035,5034.947,2561.682Z" transform="translate(-5026.797 -2518.831)" fill="#9ed169"/>
          <path id="Trazado_601390" data-name="Trazado 601390" d="M5084.313,2565.139q.13,1.057.259,2.114c-2.2.015-4.4.009-6.6.057a1.837,1.837,0,0,1-1.544-.744q.056-.523.111-1.045l.5-.49,6.941-.192a.47.47,0,0,0,.286.068A.215.215,0,0,0,5084.313,2565.139Z" transform="translate(-5055.671 -2521.026)" fill="#4c637f"/>
          <path id="Trazado_601391" data-name="Trazado 601391" d="M5084.31,2546.507l.3-.058q-.157,1.137-.314,2.276l-3.952.1h-2.14l-.91-.061c-.914-.135-.875-.821-.826-1.478.054-.741.649-.843,1.2-.844,2.1-.005,4.2.035,6.3.058C5084.075,2546.744,5084.191,2546.755,5084.31,2546.507Z" transform="translate(-5055.686 -2508.231)" fill="#475e7b"/>
          <path id="Trazado_601392" data-name="Trazado 601392" d="M5144.093,2437.39c-.055,2.55.363,3.278,2.108,3.676-.908,1.415-1.684.178-2.29-.258a2.149,2.149,0,0,1-.742-2.047c.631-4.1.125-8.233.3-12.346.023-.536-.325-1.275.583-1.486Q5144.075,2431.159,5144.093,2437.39Z" transform="translate(-5102.077 -2423.711)" fill="#f6f4f4"/>
          <path id="Trazado_601393" data-name="Trazado 601393" d="M5105.369,2584.309h-1.828c.409-2.4-1.489-4.134-1.858-6.318-.091-.542-.533-1.061.4-1.211a34.849,34.849,0,0,0,3.295,6.688Q5105.373,2583.888,5105.369,2584.309Z" transform="translate(-5073.112 -2529.332)" fill="#f6f4f4"/>
          <path id="Trazado_601394" data-name="Trazado 601394" d="M5085.273,2562.738l-6.94.192c-.184-.912.289-1.124,1.095-1.112,1.958.03,3.916.01,5.873.01l0,.547Z" transform="translate(-5056.971 -2518.926)" fill="#f6f4f4"/>
          <path id="Trazado_601395" data-name="Trazado 601395" d="M5082.214,2554.272h2.14c.715,1.123,2.006-.019,3.188,1.04-1.874,0-3.406.051-4.932-.03C5082.124,2555.256,5082.25,2554.655,5082.214,2554.272Z" transform="translate(-5059.699 -2513.677)" fill="#f6f4f4"/>
          <path id="Trazado_601396" data-name="Trazado 601396" d="M5127.443,2503.1a8.313,8.313,0,0,1-2.411,1.528c-.675-.335-.751-.781-.151-1.235A1.975,1.975,0,0,1,5127.443,2503.1Z" transform="translate(-5089.092 -2477.831)" fill="#f6f4f4"/>
          <path id="Trazado_601397" data-name="Trazado 601397" d="M5074.089,2512.381a1.612,1.612,0,0,0,.605,1.565c-.468.742-.924.383-1.3-.065a1.407,1.407,0,0,1-.126-1.671C5073.521,2511.8,5073.865,2512.063,5074.089,2512.381Z" transform="translate(-5053.328 -2484.274)" fill="#f6f4f4"/>
          <path id="Trazado_601398" data-name="Trazado 601398" d="M5074.694,2491.393a1.612,1.612,0,0,0-.6,1.566c-.223.317-.567.582-.817.173a1.405,1.405,0,0,1,.124-1.67C5073.768,2491.013,5074.224,2490.651,5074.694,2491.393Z" transform="translate(-5053.328 -2469.645)" fill="#f6f4f4"/>
          <path id="Trazado_601399" data-name="Trazado 601399" d="M5168.191,2491.716c.009-.69-.47-.987-1-1.242.144-.752.645-.667,1.139-.44.827.381.526,1.056.381,1.679Z" transform="translate(-5118.804 -2468.884)" fill="#f6f4f4"/>
          <path id="Trazado_601400" data-name="Trazado 601400" d="M5074.2,2566.489q-.057.523-.112,1.046c-.234.323-.533.548-.836.143a1.18,1.18,0,0,1-.065-1.16C5073.456,2565.914,5073.856,2566.445,5074.2,2566.489Z" transform="translate(-5053.337 -2521.995)" fill="#f6f4f4"/>
          <path id="Trazado_601401" data-name="Trazado 601401" d="M5136.2,2500.032l1.806-.009a2.164,2.164,0,0,1-1.8.578C5136.2,2500.412,5136.2,2500.222,5136.2,2500.032Z" transform="translate(-5097.249 -2475.944)" fill="#f6f4f4"/>
          <path id="Trazado_601402" data-name="Trazado 601402" d="M5101.292,2561c0-.182,0-.365,0-.547.09-.2.182-.409.272-.614a.743.743,0,0,1-.008,1.229C5101.471,2561.044,5101.382,2561.021,5101.292,2561Z" transform="translate(-5072.968 -2517.547)" fill="#ccb8d3"/>
          <path id="Trazado_601403" data-name="Trazado 601403" d="M5187.771,2498.713a.669.669,0,0,1-.616-.289C5187.628,2497.948,5187.707,2498.315,5187.771,2498.713Z" transform="translate(-5132.691 -2474.675)" fill="#f6f4f4"/>
          <path id="Trazado_601404" data-name="Trazado 601404" d="M5181.752,2496.717l-.626-.272C5181.589,2495.95,5181.682,2496.307,5181.752,2496.717Z" transform="translate(-5128.497 -2473.287)" fill="#f6f4f4"/>
          <path id="Trazado_601405" data-name="Trazado 601405" d="M5176.753,2495.705a.675.675,0,0,1-.626-.263C5176.579,2494.949,5176.681,2495.292,5176.753,2495.705Z" transform="translate(-5125.02 -2472.588)" fill="#f6f4f4"/>
          <path id="Trazado_601406" data-name="Trazado 601406" d="M5100.962,2555.159a1.494,1.494,0,0,1-.111-.218c0-.014.072-.056.111-.085Z" transform="translate(-5072.662 -2514.082)" fill="#f7f9fa"/>
          <path id="Trazado_601407" data-name="Trazado 601407" d="M5101.216,2555.158v-.3h.3c0,.1,0,.2,0,.3Z" transform="translate(-5072.916 -2514.082)" fill="#f6f4f4"/>
          <path id="Trazado_601408" data-name="Trazado 601408" d="M5120.16,2527.1c-.039-6.591,5.721-12.776,12.407-13.323a14.226,14.226,0,0,1,15.456,11.244,11.376,11.376,0,0,1,.174,2.415,1.815,1.815,0,0,0-.3.5,14,14,0,0,1-20.022,9.729A13.573,13.573,0,0,1,5120.16,2527.1Zm20.726-3.629c-1.372-1.5-2.229-1.542-3.667-.143-1.088,1.06-2.211,2.095-3.2,3.241-.885,1.024-1.506.977-2.433.01-1.422-1.484-2.754-1.328-4.088.273a2.454,2.454,0,0,0,.566,3.157c.968.962,1.9,1.962,2.916,2.874,1.225,1.1,2.457,1.189,3.51.172,2.146-2.072,4.265-4.175,6.3-6.358A2.128,2.128,0,0,0,5140.886,2523.474Z" transform="translate(-5086.092 -2485.474)" fill="#f5e07f"/>
          <path id="Trazado_601409" data-name="Trazado 601409" d="M5119.55,2557.667a13.575,13.575,0,0,0,7.719,10.57,14,14,0,0,0,20.021-9.729,1.781,1.781,0,0,1,.3-.5,12.178,12.178,0,0,1-2.336,8.411,14.16,14.16,0,0,1-21.94,1.853,14.6,14.6,0,0,1-4-9.292A1.614,1.614,0,0,1,5119.55,2557.667Z" transform="translate(-5085.482 -2516.038)" fill="#ebcd63"/>
          <path id="Trazado_601410" data-name="Trazado 601410" d="M5101.241,2563.648c.09.024.179.047.27.069q0,.181,0,.362a.47.47,0,0,1-.286-.069Z" transform="translate(-5072.918 -2520.198)" fill="#f7f9fa"/>
          <path id="Trazado_601411" data-name="Trazado 601411" d="M5102.9,2545.126a.889.889,0,0,1-.01-.206c0-.023.072-.035.112-.052A.4.4,0,0,1,5102.9,2545.126Z" transform="translate(-5074.076 -2507.136)" fill="#f7f9fa"/>
          <path id="Trazado_601412" data-name="Trazado 601412" d="M5104.808,2621.953c-.378.693-1.027.729-1.709.728q-12.551-.007-25.1,0c-.787,0-1.555.012-1.594-1.115-.042-1.232.791-1.21,1.627-1.215l16.574-.1,1.489.064c2.753.464,5.444,1.318,8.277,1.286C5104.515,2621.593,5104.663,2621.828,5104.808,2621.953Z" transform="translate(-5055.656 -2559.564)" fill="#475e7b"/>
          <path id="Trazado_601413" data-name="Trazado 601413" d="M5137.683,2619.069l-1.489-.064.042-.543C5136.713,2618.674,5137.467,2618.231,5137.683,2619.069Z" transform="translate(-5097.245 -2558.324)" fill="#f7f9fa"/>
          <path id="Trazado_601414" data-name="Trazado 601414" d="M5114.21,2599.588c0-.281.007-.561.011-.842a.928.928,0,0,1,.575.868Z" transform="translate(-5081.953 -2544.611)" fill="#f7f5f5"/>
          <path id="Trazado_601415" data-name="Trazado 601415" d="M5121.235,2608.062l.374-.382c.042.1.083.207.125.31Z" transform="translate(-5086.84 -2550.825)" fill="#3a5372"/>
          <path id="Trazado_601416" data-name="Trazado 601416" d="M5077.643,2607.9l.478.3A.437.437,0,0,1,5077.643,2607.9Z" transform="translate(-5056.519 -2550.98)" fill="#3a5372"/>
          <path id="Trazado_601417" data-name="Trazado 601417" d="M5101.49,2546.641c-.119.248-.234.236-.345-.006Z" transform="translate(-5072.867 -2508.365)" fill="#3a5372"/>
          <path id="Trazado_601418" data-name="Trazado 601418" d="M5144.262,2546.481c1.333-1.6,2.666-1.757,4.088-.272.926.966,1.547,1.013,2.432-.01.991-1.147,2.114-2.182,3.2-3.242,1.437-1.4,2.295-1.356,3.666.143-1.873,2.029-3.714,4.086-5.627,6.075-1.714,1.784-2.82,1.718-4.62.037C5146.39,2548.268,5145.665,2546.979,5144.262,2546.481Z" transform="translate(-5102.856 -2505.099)" fill="#add982"/>
          <path id="Trazado_601419" data-name="Trazado 601419" d="M5143.472,2549.131c1.4.5,2.128,1.786,3.141,2.731,1.8,1.681,2.906,1.747,4.621-.037,1.913-1.99,3.754-4.047,5.626-6.076a2.128,2.128,0,0,1-.1,3.227c-2.031,2.183-4.151,4.286-6.3,6.358-1.054,1.017-2.285.929-3.509-.172-1.014-.912-1.949-1.912-2.917-2.874A2.454,2.454,0,0,1,5143.472,2549.131Z" transform="translate(-5102.066 -2507.749)" fill="#9ed169"/>
        </g>
      </g>
    </g>
    <g id="Grupo_878288" data-name="Grupo 878288" transform="translate(569.983 8681.879)">
      <g id="Grupo_875625-2" data-name="Grupo 875625" transform="translate(0 0)">
        <g transform="matrix(1, 0, 0, 1, -284.98, -86.28)" filter="url(#Elipse_180-2)">
          <circle id="Elipse_180-7" data-name="Elipse 180" cx="70.091" cy="70.091" r="70.091" transform="translate(284.98 86.28)" fill="#fff"/>
        </g>
      </g>
      <g id="Enmascarar_grupo_700350-2" data-name="Enmascarar grupo 700350" transform="translate(8.104 8.104)" clip-path="url(#clip-path-6)">
        <g id="Grupo_877464" data-name="Grupo 877464" transform="translate(23.311 23.319)">
          <path id="Trazado_598695" data-name="Trazado 598695" d="M-630.692-1503.427c6.145,2.446,10.653,6.571,13.064,12.814a21.786,21.786,0,0,1-16.5,29.228,36.934,36.934,0,0,1-6.47.266,25.471,25.471,0,0,1-11.194-4.845c-.388-.392-.771-.789-1.164-1.174a21.669,21.669,0,0,1,2.441-33.435,22.283,22.283,0,0,1,14.991-3.984Zm3.009,15.893a2.373,2.373,0,0,0-1.363-1.942,2.335,2.335,0,0,0-2.785.424c-3.089,2.577-6.222,5.1-9.245,7.755-1.124.986-1.85,1.139-2.9-.083a2.425,2.425,0,0,0-3.607-.251,2.517,2.517,0,0,0,.206,3.631c1.15,1.2,2.383,2.316,3.5,3.541.679.745,1.168.812,1.973.13,4.338-3.67,8.722-7.284,13.092-10.916A2.824,2.824,0,0,0-627.683-1487.534Z" transform="translate(693.518 1538.428)" fill="#49c7ee"/>
          <path id="Trazado_598696" data-name="Trazado 598696" d="M-729.837-1538.49a25.471,25.471,0,0,0,11.194,4.845q-24.089.018-48.178.022c-2.811,0-4.739-2.164-4.741-5.154q-.011-16.462,0-32.925,0-15.708,0-31.415c0-3.548,1.86-5.409,5.4-5.418q6.947-.018,13.894-.029,0,2.444,0,4.889c-4.32-.009-8.641.023-12.96-.053-1.194-.021-1.523.334-1.52,1.523q.056,23.211.03,46.421c0,.483-.145,1.021.332,1.4-.036.538.4.781.705,1.089q6.9,6.911,13.808,13.808c.308.307.55.742,1.088.706.282.383.7.337,1.1.336Q-739.766-1538.465-729.837-1538.49Z" transform="translate(771.566 1610.954)" fill="#ebcd93"/>
          <path id="Trazado_598697" data-name="Trazado 598697" d="M-707.745-1609.191q0-2.445,0-4.889c.106-2.39.106-2.39,2.546-2.39h19.161c2.442,0,2.442,0,2.548,2.388q0,2.446,0,4.891c-.017.852-.014,1.705-.056,2.557a4.715,4.715,0,0,1-4.624,4.639q-7.45.1-14.9,0a4.715,4.715,0,0,1-4.625-4.639C-707.731-1607.486-707.728-1608.339-707.745-1609.191Z" transform="translate(727.037 1616.47)" fill="#e66e54"/>
          <path id="Trazado_598698" data-name="Trazado 598698" d="M-627.489-1603.68q0-2.446,0-4.892,7.02.016,14.039.032c3.338.012,5.25,1.916,5.251,5.257q0,13.662-.013,27.325l-4.831-1.13c0-8.38-.007-16.76.031-25.14,0-1.043-.165-1.528-1.378-1.506C-618.758-1603.655-623.124-1603.688-627.489-1603.68Z" transform="translate(671.043 1610.959)" fill="#ebce93"/>
          <path id="Trazado_598699" data-name="Trazado 598699" d="M-716.907-1592.515c4.365-.009,8.731.025,13.1-.054,1.213-.022,1.383.463,1.378,1.506-.038,8.38-.027,16.76-.031,25.14a22.285,22.285,0,0,0-14.991,3.984A21.669,21.669,0,0,0-719.9-1528.5c.394.385.777.782,1.164,1.174q-9.929.023-19.858.045c-.4,0-.814.047-1.1-.337.007-4.814-.007-9.628.038-14.442.009-.923-.276-1.207-1.2-1.2-4.813.045-9.627.031-14.442.038-.477-.379-.332-.917-.332-1.4q-.01-23.21-.03-46.42c0-1.189.326-1.544,1.52-1.523,4.319.076,8.64.044,12.96.053.017.852.014,1.705.055,2.557a4.715,4.715,0,0,0,4.624,4.639q7.45.1,14.9,0a4.715,4.715,0,0,0,4.624-4.639C-716.921-1590.809-716.924-1591.663-716.907-1592.515Zm-7.309,16.893c3.118,0,6.235.016,9.353-.006,1.678-.012,2.706-.931,2.735-2.363.03-1.488-1.031-2.457-2.787-2.461q-9.277-.022-18.555,0c-1.77,0-2.826.95-2.81,2.438s1.07,2.38,2.863,2.389C-730.351-1575.611-727.284-1575.622-724.216-1575.622Zm-2.535,9.669c2.313,0,4.625.013,6.937,0,1.787-.013,2.841-.917,2.851-2.4s-1.048-2.423-2.819-2.429q-6.862-.022-13.724,0c-1.756.007-2.811.977-2.776,2.471.034,1.428,1.064,2.337,2.744,2.354C-731.275-1565.937-729.013-1565.954-726.751-1565.954Zm-4.711,4.834c-.8,0-1.609-.036-2.41.008a2.374,2.374,0,0,0-2.41,2.375,2.348,2.348,0,0,0,2.347,2.431c1.655.062,3.316.063,4.971,0a2.346,2.346,0,0,0,2.335-2.441,2.377,2.377,0,0,0-2.422-2.364C-729.853-1561.155-730.658-1561.12-731.462-1561.12Zm-9.66-16.8c-.042-2.879.355-2.515-1.92-2.534-2.916-.025-2.917-.007-2.917,1.991,0,2.841,0,2.841,2.072,2.841C-741.121-1575.621-741.121-1575.621-741.121-1577.919Zm0,9.692c-.041-2.884.355-2.54-1.9-2.558-2.939-.024-2.939-.007-2.939,1.968,0,2.864,0,2.864,2.049,2.864C-741.121-1565.953-741.121-1565.953-741.121-1568.228Zm-2.324,11.943c2.559-.035,2.308.323,2.321-1.837.017-3,.006-3-1.908-3-2.925,0-2.925,0-2.926,1.987C-745.96-1556.285-745.96-1556.285-743.446-1556.285Zm2.324,7.386c-.041-2.883.352-2.531-1.906-2.55-2.931-.024-2.931-.007-2.932,1.975,0,2.856,0,2.856,2.056,2.857C-741.121-1546.616-741.121-1546.616-741.121-1548.9Z" transform="translate(760.46 1599.794)" fill="#eee"/>
          <path id="Trazado_598700" data-name="Trazado 598700" d="M-601.276-1453.252a2.824,2.824,0,0,1-1.132,2.29c-4.37,3.632-8.754,7.246-13.092,10.916-.805.681-1.294.614-1.973-.13-1.117-1.225-2.35-2.344-3.5-3.541a2.516,2.516,0,0,1-.206-3.631,2.424,2.424,0,0,1,3.607.251c1.052,1.222,1.778,1.069,2.9.083,3.023-2.652,6.156-5.178,9.245-7.755a2.335,2.335,0,0,1,2.784-.424A2.372,2.372,0,0,1-601.276-1453.252Z" transform="translate(667.112 1504.146)" fill="#fafdfd"/>
          <path id="Trazado_598701" data-name="Trazado 598701" d="M-754.456-1429.412c4.814-.006,9.628.007,14.441-.038.921-.008,1.206.276,1.2,1.2-.045,4.814-.031,9.628-.038,14.442-.538.037-.78-.4-1.088-.706q-6.911-6.9-13.808-13.808C-754.059-1428.631-754.493-1428.874-754.456-1429.412Z" transform="translate(759.63 1485.982)" fill="#e67157"/>
          <path id="Trazado_598702" data-name="Trazado 598702" d="M-679.511-1547.679c-3.067,0-6.135.011-9.2,0-1.793-.009-2.848-.909-2.863-2.389s1.041-2.435,2.81-2.438q9.277-.02,18.555,0c1.756,0,2.817.974,2.787,2.461-.028,1.432-1.057,2.351-2.735,2.363C-673.275-1547.663-676.393-1547.679-679.511-1547.679Z" transform="translate(715.755 1571.85)" fill="#78959e"/>
          <path id="Trazado_598703" data-name="Trazado 598703" d="M-682.047-1515.7c-2.262,0-4.525.017-6.786-.006-1.681-.017-2.711-.926-2.744-2.354-.035-1.493,1.02-2.464,2.776-2.471q6.862-.026,13.724,0c1.771.006,2.829.946,2.819,2.429s-1.064,2.386-2.851,2.4C-677.423-1515.685-679.735-1515.7-682.047-1515.7Z" transform="translate(715.757 1549.538)" fill="#78959e"/>
          <path id="Trazado_598704" data-name="Trazado 598704" d="M-686.759-1488.559c.8,0,1.609-.035,2.41.008a2.377,2.377,0,0,1,2.422,2.364,2.345,2.345,0,0,1-2.335,2.442c-1.655.064-3.316.063-4.971,0a2.348,2.348,0,0,1-2.347-2.431,2.374,2.374,0,0,1,2.41-2.375C-688.368-1488.595-687.563-1488.559-686.759-1488.559Z" transform="translate(715.758 1527.233)" fill="#79969f"/>
          <path id="Trazado_598705" data-name="Trazado 598705" d="M-718.754-1549.965c0,2.3,0,2.3-2.766,2.3-2.073,0-2.073,0-2.072-2.841,0-2,0-2.016,2.917-1.991C-718.4-1552.48-718.8-1552.844-718.754-1549.965Z" transform="translate(738.093 1571.84)" fill="#78959e"/>
          <path id="Trazado_598706" data-name="Trazado 598706" d="M-718.754-1517.956c0,2.275,0,2.275-2.789,2.274-2.049,0-2.049,0-2.049-2.864,0-1.975,0-1.992,2.939-1.968C-718.4-1520.5-718.8-1520.839-718.754-1517.956Z" transform="translate(738.093 1549.522)" fill="#78959e"/>
          <path id="Trazado_598707" data-name="Trazado 598707" d="M-721.078-1483.7c-2.514,0-2.514,0-2.513-2.85,0-1.989,0-1.989,2.926-1.987,1.914,0,1.925,0,1.908,3C-718.77-1483.376-718.519-1483.733-721.078-1483.7Z" transform="translate(738.093 1527.208)" fill="#78959e"/>
          <path id="Trazado_598708" data-name="Trazado 598708" d="M-718.754-1454c0,2.283,0,2.283-2.781,2.282-2.057,0-2.057,0-2.056-2.856,0-1.982,0-2,2.932-1.975C-718.4-1456.526-718.795-1456.878-718.754-1454Z" transform="translate(738.093 1504.89)" fill="#78959e"/>
        </g>
      </g>
    </g>
    <g id="Grupo_878291" data-name="Grupo 878291" transform="translate(729.392 8681.879)">
      <g id="Grupo_875625-3" data-name="Grupo 875625" transform="translate(0 0)">
        <g transform="matrix(1, 0, 0, 1, -444.39, -86.28)" filter="url(#Elipse_180-3)">
          <circle id="Elipse_180-8" data-name="Elipse 180" cx="70.091" cy="70.091" r="70.091" transform="translate(444.39 86.28)" fill="#fff"/>
        </g>
      </g>
      <g id="Enmascarar_grupo_700350-3" data-name="Enmascarar grupo 700350" transform="translate(8.104 8.104)" clip-path="url(#clip-path-6)">
        <g id="Grupo_879095" data-name="Grupo 879095" transform="translate(28.192 19.151)">
          <path id="Trazado_601459" data-name="Trazado 601459" d="M3152.954,2578.1q-.05-.949-.1-1.9a4.307,4.307,0,0,0,.345-2.684c-.216-2.91-.459-5.818-.707-8.726-.043-.5.218-1.371-.521-1.336-.9.042-.513.907-.471,1.468q.3,4.092.628,8.182c.087,1.107-.334,1.259-1.286.794a5.078,5.078,0,0,1-2.748-4.068,38.732,38.732,0,0,1,.381-13.63l1.458.075c1.667,2.648,3.394,3.068,5.95,1.429.545-.349.9-.8,1.741-.326,3.251,1.822,5.558.594,5.868-3.169.169-2.059-.025-4.148-.055-6.223l2.357-.985c5.908.864,9.679,4.553,12.458,9.5a19.619,19.619,0,0,1,1.615,3.678c.385,1.22.881,1.05,1.678.454a37.689,37.689,0,0,0,5.635-5.48c.4-.455.692-1.018,1.318-1.227l1.86.906a5.893,5.893,0,0,1-.175,1.075,25.261,25.261,0,0,1-8.667,11.775c-3.863,2.938-5.686,2.493-8.662-1.4a32.513,32.513,0,0,1-3.758-6.253c-.181-.4-.288-.927-.849-.6-.437.256-.069.666.075.963,1.387,2.856,2.736,5.736,5.154,7.93.481.437,1.092.833,1.077,1.621-.878,2.668-.569,5.444-.741,8.176-6.382.011-12.765-.2-19.145.11Z" transform="translate(-3144.705 -2525.309)" fill="#7575fa"/>
          <path id="Trazado_601460" data-name="Trazado 601460" d="M3165.469,2631.615c6.381-.311,12.763-.1,19.145-.11q0,15.019,0,30.036c-.839-.121-1.674-.274-2.517-.357a18.4,18.4,0,0,1-11.728-5.721,20.589,20.589,0,0,1-5.635-14.787A73.694,73.694,0,0,1,3165.469,2631.615Z" transform="translate(-3155.505 -2578.696)" fill="#de5a93"/>
          <path id="Trazado_601461" data-name="Trazado 601461" d="M3162.885,2510.7c.031,2.075.225,4.165.055,6.223-.31,3.763-2.617,4.991-5.868,3.169-.844-.473-1.2-.023-1.741.326-2.556,1.639-4.283,1.219-5.95-1.429a.968.968,0,0,0-.648-.813c-1.6-.673-2-1.958-1.952-3.573a9.769,9.769,0,0,1,2.085-5.4,19.12,19.12,0,0,0,3.491-12.226c-.12-3.894.93-7.343,5.088-8.9,2.842-.021,5.685-.066,8.527-.054a2.444,2.444,0,0,1,2.408,1.637,2.72,2.72,0,0,1-1.037,3.211,5.365,5.365,0,0,1-1.055.29c-2.427.167-4.232,1.122-4.76,3.7-.139.677-.731.527-1.134.722-1.383.666-1.926,2.213-.839,3.089,1.294,1.045,1.514,2.443,1.884,3.813C3161.991,2506.54,3162.409,2508.628,3162.885,2510.7Z" transform="translate(-3144.152 -2488.024)" fill="#373637"/>
          <path id="Trazado_601462" data-name="Trazado 601462" d="M3271.63,2574.586c5.857-.033,11.715-.05,17.572-.115,1-.011,1.229.41,1.223,1.311-.044,5.92-.049,11.841-.068,17.761-2.509,0-5.022.094-7.524-.038-2.239-.117-4.516-.3-6.418-1.744,2.64-.273,5.335.221,7.96-.265l-.012-.582h-6.883c2.289-2.094,4.164-3.839,5.217-6.233.925-2.1.454-3.945-1.267-4.963a4.783,4.783,0,0,0-5.713,1.161c.755.32,1.261-.3,1.869-.484,1.527-.46,3.063-.762,4.2.69,1.08,1.371.557,2.784-.237,4.1a19.708,19.708,0,0,1-5.746,5.827c-3.06-1.4-3.91-4.169-4.111-7.127C3271.486,2580.8,3271.636,2577.686,3271.63,2574.586Z" transform="translate(-3223.056 -2542.676)" fill="#edc840"/>
          <path id="Trazado_601463" data-name="Trazado 601463" d="M3271.621,2492.535c4.451-.416,8.911-.115,13.366-.156,1.752-.016,4.01-.78,5.127.406,1.012,1.073.28,3.276.287,4.979.021,4.523-.025,9.047-.044,13.57-2.794,0-5.59.07-8.38-.036-1.981-.076-3.987-.3-5.488-1.875h8.258c-.4-1-.855-.939-1.275-.967-2.436-.166-2.435-.167-2.436-2.685,0-2.57.012-5.141-.012-7.712-.006-.572-.046-1.585-.935-.879-1.573,1.25-2.947,2.748-4.405,4.142l.357.382c1.66-.5,2.375-2.38,4.07-3.112,0,2.746-.107,5.318.039,7.876.094,1.639-.411,2.2-2.032,2.026-.6-.063-1.775-.55-1.627.934-3.277-1.551-4.6-4.385-4.8-7.765C3271.51,2498.63,3271.633,2495.579,3271.621,2492.535Z" transform="translate(-3223.061 -2490.615)" fill="#a6d441"/>
          <path id="Trazado_601464" data-name="Trazado 601464" d="M3271.668,2656.323c5.8-.015,11.6-.01,17.405-.06,1.024-.009,1.386.319,1.376,1.36-.051,5.8-.047,11.6-.062,17.405-3.057,0-6.116.071-9.169-.037-1.743-.062-3.54-.259-4.743-1.839a17.289,17.289,0,0,0,2.718.3c1.577-.062,3.041-.5,3.824-2.073a2.836,2.836,0,0,0-.977-3.731c-.647-.544-.092-.757.228-1.114,1.348-1.5,1.426-2.92.281-4.257-1.368-1.6-4.943-1.734-6.694-.176,1.419.112,2.707-.566,4.043-.284s2.47.827,2.52,2.437c.045,1.449-.9,2.058-2.133,2.329-.967.211-1.951.34-2.927.505a17.52,17.52,0,0,0,3.281.834,2.15,2.15,0,0,1,1.776,2.43,2.236,2.236,0,0,1-2.173,2.1,7.644,7.644,0,0,1-3.455-.177c-.531-.165-.98-.27-1.031.5a8.131,8.131,0,0,1-3.746-5.366C3271.258,2663.743,3271.87,2660.019,3271.668,2656.323Z" transform="translate(-3223.081 -2594.386)" fill="#74cbfc"/>
          <path id="Trazado_601465" data-name="Trazado 601465" d="M3160.136,2631.681a73.638,73.638,0,0,0-.735,9.06,20.591,20.591,0,0,0,5.635,14.787,18.4,18.4,0,0,0,11.728,5.722c.843.083,1.678.236,2.517.357.344,2.81.344,2.811-2.316,2.811-6.182,0-12.364-.02-18.545.018-1.123.007-1.58-.217-1.6-1.5-.108-6.485-.427-12.968-.5-19.452-.046-4.081-.157-8.231,2.1-11.93Z" transform="translate(-3150.173 -2578.762)" fill="#db2e87"/>
          <path id="Trazado_601466" data-name="Trazado 601466" d="M3266.147,2656.3c.2,3.7-.41,7.421.343,11.1a8.133,8.133,0,0,0,3.746,5.367h-.031a.69.69,0,0,0,.749.385v-.019c1.2,1.58,3,1.777,4.744,1.839,3.053.108,6.112.034,9.168.037.171,3.236.171,3.236-3.1,3.236-5.631,0-11.262-.046-16.892.03-1.521.02-2.007-.45-1.986-1.981.077-5.691.031-11.384.031-17.076C3262.922,2656.107,3262.922,2656.107,3266.147,2656.3Z" transform="translate(-3217.561 -2594.367)" fill="#70bcd8"/>
          <path id="Trazado_601467" data-name="Trazado 601467" d="M3266.147,2574.585c.007,3.1-.143,6.211.065,9.3.2,2.958,1.051,5.729,4.111,7.127-.035.443.237.637.608.75,1.9,1.444,4.18,1.627,6.418,1.744,2.5.131,5.016.035,7.524.038.021.366.014.736.068,1.1.21,1.4-.275,1.881-1.771,1.859q-9.177-.133-18.357,0c-1.5.021-1.849-.474-1.836-1.878.043-4.893-.033-9.786-.065-14.677l2.578-5.472Z" transform="translate(-3217.574 -2542.675)" fill="#e7a933"/>
          <path id="Trazado_601468" data-name="Trazado 601468" d="M3266.432,2492.894c.011,3.044-.111,6.1.07,9.129.2,3.379,1.523,6.214,4.8,7.764v-.006c1.5,1.579,3.507,1.8,5.488,1.875,2.79.107,5.586.033,8.38.037.02.182.053.364.058.546.058,2.4.057,2.395-2.268,2.4l-13.221.013a2.6,2.6,0,0,0-3.278-1.453c-.882,0-1.259.817-1.938,1.213-.433-.374-.487-1.095-1.139-1.242q.012-8.891.023-17.782C3263.41,2492.494,3263.455,2492.455,3266.432,2492.894Z" transform="translate(-3217.872 -2490.974)" fill="#80a43d"/>
          <path id="Trazado_601469" data-name="Trazado 601469" d="M3183.855,2519.037c-.476-2.072-.894-4.159-1.448-6.21-.369-1.37-.589-2.768-1.884-3.812-1.086-.876-.544-2.423.839-3.089.4-.195,1-.044,1.134-.722.528-2.581,2.333-3.536,4.76-3.7a5.373,5.373,0,0,0,1.055-.29,22.93,22.93,0,0,1,1.9,9.423c-.085,2.285-.857,3.373-3.086,3.842-.788.166-1.031.471-.99,1.2.045.792.053,1.587.077,2.381Z" transform="translate(-3165.123 -2496.361)" fill="#ecc2b5"/>
          <path id="Trazado_601470" data-name="Trazado 601470" d="M3152.932,2488.135c-4.158,1.556-5.208,5-5.088,8.9a19.118,19.118,0,0,1-3.49,12.227,9.769,9.769,0,0,0-2.085,5.4c-.044,1.615.354,2.9,1.953,3.573a.968.968,0,0,1,.648.813l-1.458-.074-1.723-.581c-2.068-1.587-2.434-2.74-1.7-5.233a16.006,16.006,0,0,1,2.364-4.717,15.724,15.724,0,0,0,2.885-9.811,17.383,17.383,0,0,1,.631-5.79C3146.937,2489.471,3149.3,2487.893,3152.932,2488.135Z" transform="translate(-3139.64 -2488.079)" fill="#282829"/>
          <path id="Trazado_601471" data-name="Trazado 601471" d="M3227.67,2570.549l-2.578,5.472a40.1,40.1,0,0,1-5.883,6.528c-2.664,2.219-5.444,2.978-8.566.985a1.072,1.072,0,0,0-1.04-.146c.015-.787-.6-1.184-1.077-1.621-2.418-2.194-3.767-5.073-5.154-7.93-.144-.3-.512-.707-.075-.963.561-.328.668.2.849.6a32.536,32.536,0,0,0,3.758,6.253c2.976,3.894,4.8,4.339,8.662,1.4a25.262,25.262,0,0,0,8.667-11.775,5.886,5.886,0,0,0,.175-1.075l.7-.008,1.735.737C3228.1,2569.556,3227.657,2570.027,3227.67,2570.549Z" transform="translate(-3179.755 -2538.756)" fill="#5e5df9"/>
          <path id="Trazado_601472" data-name="Trazado 601472" d="M3143.012,2570.436l1.724.581a38.735,38.735,0,0,0-.382,13.629,5.078,5.078,0,0,0,2.748,4.068c.952.465,1.373.313,1.286-.794q-.319-4.091-.628-8.182c-.042-.561-.427-1.426.471-1.468.739-.035.478.833.521,1.336.247,2.908.491,5.816.706,8.726a4.306,4.306,0,0,1-.344,2.684c-5.28-.49-7.014-2.312-7.305-7.679A41.481,41.481,0,0,1,3143.012,2570.436Z" transform="translate(-3140.965 -2540.126)" fill="#5e5df9"/>
          <path id="Trazado_601473" data-name="Trazado 601473" d="M3261.276,2555.687l-.7.008-1.86-.907c1.083-1.377.7-3,.755-4.545.028-.783-.124-1.643.963-1.876.652.147.707.868,1.139,1.242.679-.4,1.056-1.216,1.938-1.213,1.155,1.792.949,3.435-.609,5.2C3262.316,2554.256,3261.437,2554.7,3261.276,2555.687Z" transform="translate(-3214.92 -2526.173)" fill="#ecc2b5"/>
          <path id="Trazado_601474" data-name="Trazado 601474" d="M3265.678,2555.512c.161-.991,1.041-1.431,1.625-2.092,1.557-1.764,1.763-3.407.608-5.2a2.6,2.6,0,0,1,3.278,1.452,7.719,7.719,0,0,1-3.014,5.376,2.04,2.04,0,0,0-.761,1.2Z" transform="translate(-3219.323 -2525.999)" fill="#e7a19b"/>
          <path id="Trazado_601481" data-name="Trazado 601481" d="M3283.516,2599.918c-.372-.114-.644-.307-.609-.751a19.719,19.719,0,0,0,5.747-5.827c.794-1.314,1.316-2.727.237-4.1-1.143-1.452-2.678-1.151-4.205-.69-.607.183-1.114.8-1.868.485a4.782,4.782,0,0,1,5.713-1.162c1.72,1.017,2.191,2.861,1.267,4.962-1.053,2.395-2.928,4.139-5.217,6.233h6.883l.013.582C3288.852,2600.139,3286.156,2599.646,3283.516,2599.918Z" transform="translate(-3230.158 -2550.834)" fill="#f7f9fa"/>
          <path id="Trazado_601482" data-name="Trazado 601482" d="M3283.528,2517.709c-.148-1.484,1.024-1,1.627-.933,1.621.171,2.126-.387,2.032-2.026-.146-2.558-.039-5.13-.039-7.876-1.695.732-2.41,2.613-4.07,3.112l-.357-.381c1.458-1.395,2.832-2.892,4.4-4.142.89-.707.929.307.935.879.024,2.57.012,5.141.012,7.711,0,2.517,0,2.519,2.437,2.685.419.029.875-.036,1.275.967h-8.258Z" transform="translate(-3230.098 -2498.896)" fill="#e6e6e6"/>
          <path id="Trazado_601483" data-name="Trazado 601483" d="M3282.809,2680.945c.052-.771.5-.667,1.031-.5a7.638,7.638,0,0,0,3.455.176,2.236,2.236,0,0,0,2.173-2.1,2.149,2.149,0,0,0-1.776-2.43,17.557,17.557,0,0,1-3.281-.834c.977-.165,1.961-.294,2.927-.5,1.236-.27,2.178-.879,2.134-2.328-.051-1.611-1.17-2.153-2.52-2.437s-2.624.4-4.043.284c1.751-1.559,5.326-1.422,6.694.175,1.145,1.337,1.067,2.754-.281,4.257-.32.357-.875.57-.228,1.114a2.835,2.835,0,0,1,.977,3.731c-.783,1.572-2.247,2.011-3.824,2.073a17.319,17.319,0,0,1-2.719-.3l0,.018a.86.86,0,0,0-.748-.385Z" transform="translate(-3230.134 -2602.545)" fill="#f7f9fa"/>
          <path id="Trazado_601484" data-name="Trazado 601484" d="M3282.778,2701.186a.86.86,0,0,1,.748.385A.688.688,0,0,1,3282.778,2701.186Z" transform="translate(-3230.134 -2622.787)" fill="#74cbfc"/>
        </g>
      </g>
    </g>
    <g id="Grupo_878290" data-name="Grupo 878290" transform="translate(889.762 8681.879)">
      <g id="Grupo_875625-4" data-name="Grupo 875625" transform="translate(0 0)">
        <g transform="matrix(1, 0, 0, 1, -604.76, -86.28)" filter="url(#Elipse_180-4)">
          <circle id="Elipse_180-9" data-name="Elipse 180" cx="70.091" cy="70.091" r="70.091" transform="translate(604.76 86.28)" fill="#fff"/>
        </g>
      </g>
      <g id="Enmascarar_grupo_700350-4" data-name="Enmascarar grupo 700350" transform="translate(8.104 8.104)" clip-path="url(#clip-path-6)">
        <g id="Grupo_879096" data-name="Grupo 879096" transform="translate(24.218 24.19)">
          <path id="Trazado_601485" data-name="Trazado 601485" d="M2646.36,2555.814a34.214,34.214,0,0,1-7.538-16.2,37.162,37.162,0,0,1,6.736-29.666,10.7,10.7,0,0,1,.778-.866c.018,1.569.017,3.138.062,4.706a2.862,2.862,0,0,0,2.942,3c1.665.037,3.333-.022,5-.039q24.022.024,48.044.034a2.873,2.873,0,0,0,2.98-2.99c.056-1.57.047-3.142.067-4.713a34.252,34.252,0,0,1,7.461,15.918,37.2,37.2,0,0,1-6.788,30.061,8.224,8.224,0,0,1-.692.743c-.012-1.277-.028-2.554-.033-3.831-.01-2.91-.98-3.895-3.867-3.9q-19.38,0-38.76,0c-2.9,0-5.8.036-8.693.056-1.473-.019-2.946-.064-4.419-.052-2.124.017-3.223,1.152-3.248,3.309C2646.374,2552.866,2646.369,2554.34,2646.36,2555.814Zm7.121-34.267c-1.473-.02-2.947-.091-4.417-.048a2.643,2.643,0,0,0-2.663,2.76q-.041,8.18,0,16.362a2.645,2.645,0,0,0,2.663,2.761c1.47.043,2.945-.027,4.418-.048.539.031,1.078.09,1.616.09q23.5.009,46.995,0c2.256,0,3.271-1.066,3.278-3.4q.023-7.587,0-15.173c-.008-2.379-1.036-3.4-3.426-3.4q-23.35-.011-46.7,0C2654.657,2521.455,2654.069,2521.515,2653.481,2521.547Z" transform="translate(-2638.113 -2494.683)" fill="#3c4e86"/>
          <path id="Trazado_601486" data-name="Trazado 601486" d="M2739.125,2474.691c-.019,1.572-.01,3.144-.066,4.713a2.873,2.873,0,0,1-2.98,2.99q-24.022.011-48.044-.034a3.853,3.853,0,0,1-2.067-4.09,12.049,12.049,0,0,0,.012-1.732,1.409,1.409,0,0,0,1.126-1.041c.209-1.062.948-1.079,1.77-1.008.9.078,2.011-.4,2.35,1.041a1.027,1.027,0,0,0,1.433.849c.826-.305.858-.98.585-1.7-.913-2.423-1.842-4.841-2.746-7.267-.242-.649-.6-1.155-1.338-1.158s-1.1.526-1.344,1.159c-.585,1.5-1.187,2.988-1.782,4.482-.018-2.5.073-5.012-.09-7.5a4.1,4.1,0,0,1,2.087-4.043c4.513-.017,9.026-.045,13.538-.047q16.927-.01,33.854,0c2.612,0,3.639,1.035,3.652,3.653Q2739.1,2469.32,2739.125,2474.691Zm-23.5-6.215h12.082c1.178,0,2.357,0,3.536,0,.817,0,1.564-.213,1.536-1.166s-.787-1.13-1.6-1.1c-.2.007-.393,0-.589,0q-14.882,0-29.763,0a7.4,7.4,0,0,0-1.32.056,1.006,1.006,0,0,0-.883,1.024.994.994,0,0,0,.8,1.085,5.829,5.829,0,0,0,1.314.094Q2708.184,2468.481,2715.624,2468.476Zm-9.038,8.021h6.618c.769,0,1.407-.23,1.41-1.122s-.646-1.133-1.406-1.135q-6.544-.009-13.088,0c-.816,0-1.526.224-1.481,1.206.041.888.723,1.057,1.476,1.055Q2703.351,2476.494,2706.586,2476.5Zm14.494,0c1.029,0,2.058.015,3.087,0,.739-.014,1.25-.39,1.246-1.151a1.066,1.066,0,0,0-1.163-1.081q-3.086-.042-6.173,0a1.049,1.049,0,0,0-1.159,1.073c-.017.8.494,1.137,1.223,1.156C2719.12,2476.515,2720.1,2476.5,2721.08,2476.493Z" transform="translate(-2671.807 -2460.292)" fill="#db3a46"/>
          <path id="Trazado_601487" data-name="Trazado 601487" d="M2687.828,2641.265c2.9-.02,5.795-.055,8.693-.056q19.38-.009,38.761,0c2.887,0,3.857.985,3.867,3.9,0,1.277.021,2.554.033,3.832a31.312,31.312,0,0,1-10.531,9.251c-12.6,6.975-25.28,6.933-37.937.066-.3-.162-.571-.374-1.15-.758a5.237,5.237,0,0,0,3.371-1.151c.561-.512,1.15-1.082.487-1.87-.573-.682-1.165-.43-1.784.074a2.522,2.522,0,0,1-3.377-.051,2.863,2.863,0,0,1,2.371-5.038,3.635,3.635,0,0,1,.962.351c.745.383,1.371.276,1.716-.5.332-.749-.168-1.215-.766-1.533a5,5,0,0,0-5.433.33,12.7,12.7,0,0,0-1.023.837c-.01-.581-.025-1.163-.029-1.744C2686.041,2645.038,2685.67,2642.774,2687.828,2641.265Zm27.918,8.135h14.729a9.4,9.4,0,0,0,1.177-.023c.694-.088,1.275-.4,1.217-1.2a1.13,1.13,0,0,0-1.211-1.051c-.245-.013-.491-.009-.737-.009h-30.195a5.7,5.7,0,0,0-1.028.036,1.039,1.039,0,0,0-.984,1.088,1.081,1.081,0,0,0,.98,1.109,6.058,6.058,0,0,0,1.174.045Q2708.309,2649.4,2715.747,2649.4Zm-5.219,8.009c3.435,0,6.87-.006,10.3,0,.851,0,1.706-.112,1.7-1.149s-.9-1.124-1.728-1.135h-20.315c-.817,0-1.707.022-1.749,1.093-.047,1.215.924,1.184,1.777,1.185Q2705.522,2657.413,2710.528,2657.409Z" transform="translate(-2671.884 -2587.813)" fill="#76c27d"/>
          <path id="Trazado_601488" data-name="Trazado 601488" d="M2673.975,2460.355a4.1,4.1,0,0,0-2.087,4.043c.163,2.493.072,5,.089,7.5-.3.87-.57,1.756-.922,2.607-.417,1.01-.224,1.7.868,2.041a12.084,12.084,0,0,1-.012,1.732,3.852,3.852,0,0,0,2.067,4.09c-1.667.017-3.335.076-5,.039a2.862,2.862,0,0,1-2.942-3c-.045-1.568-.043-3.138-.062-4.706q.025-5.5.05-11c.012-2.317,1.09-3.4,3.408-3.4C2670.947,2460.309,2672.461,2460.339,2673.975,2460.355Z" transform="translate(-2657.751 -2460.304)" fill="#c52d3f"/>
          <path id="Trazado_601489" data-name="Trazado 601489" d="M2673.754,2641.279c-2.158,1.509-1.787,3.773-1.771,5.931,0,.581.019,1.163.03,1.744a5.941,5.941,0,0,0-.968,5.1,18.884,18.884,0,0,1-4.989-5.1c.01-1.474.014-2.948.031-4.422.024-2.157,1.124-3.292,3.248-3.309C2670.808,2641.214,2672.281,2641.259,2673.754,2641.279Z" transform="translate(-2657.809 -2587.826)" fill="#63ad8e"/>
          <path id="Trazado_601490" data-name="Trazado 601490" d="M2687.253,2551.084c.588-.032,1.177-.092,1.764-.092q23.35-.008,46.7,0c2.391,0,3.418,1.022,3.426,3.4q.023,7.586,0,15.173c-.007,2.333-1.021,3.4-3.278,3.4q-23.5.015-46.995,0c-.539,0-1.078-.059-1.617-.09-1.413-1.705-1.222-3.75-1.216-5.755.881-.028,1.762-.063,2.643-.084a3.178,3.178,0,0,0,2.841-4.944,2,2,0,0,1-.259-1.619,2.842,2.842,0,0,0-2.877-3.547c-.783-.029-1.566-.055-2.349-.083C2686.034,2554.834,2685.835,2552.788,2687.253,2551.084Zm28.5,15.949q7.515,0,15.03,0a6.926,6.926,0,0,0,1.176-.042.945.945,0,0,0,.877-1.01,1.031,1.031,0,0,0-.894-1.028,8.5,8.5,0,0,0-1.176-.039q-14.956,0-29.912,0a5.318,5.318,0,0,0-1.316.083,1.006,1.006,0,0,0-.8,1.093.913.913,0,0,0,.952.921c.391.03.785.021,1.178.021Zm-7.3-10.11c-2.65,0-5.3-.008-7.951,0-.762,0-1.754-.174-1.743,1.006.01,1.068.888,1.115,1.719,1.114q7.951-.009,15.9,0c.861,0,1.708-.1,1.685-1.144-.022-.984-.893-.989-1.66-.987C2713.76,2556.927,2711.109,2556.922,2708.459,2556.922Zm18.147,2.119c1.616,0,3.232,0,4.848,0,.777,0,1.433-.26,1.4-1.125-.033-.764-.656-1-1.376-1q-4.848.012-9.7,0c-.781,0-1.434.257-1.4,1.12.034.76.657,1.007,1.377,1C2723.374,2559.035,2724.99,2559.041,2726.606,2559.041Z" transform="translate(-2671.885 -2524.219)" fill="#7cbaec"/>
          <path id="Trazado_601491" data-name="Trazado 601491" d="M2672.009,2567.2c-.005,2.005-.2,4.049,1.216,5.755-1.473.021-2.947.091-4.417.048a2.645,2.645,0,0,1-2.663-2.761q-.042-8.18,0-16.361a2.643,2.643,0,0,1,2.662-2.761c1.471-.043,2.945.027,4.418.048-1.417,1.7-1.219,3.75-1.217,5.755a1.449,1.449,0,0,0-1.118,1.638q.032,3.5,0,7A1.451,1.451,0,0,0,2672.009,2567.2Z" transform="translate(-2657.857 -2524.307)" fill="#5997d2"/>
          <path id="Trazado_601492" data-name="Trazado 601492" d="M2745.977,2482.605q-7.441,0-14.881,0a5.785,5.785,0,0,1-1.314-.094.993.993,0,0,1-.8-1.084,1,1,0,0,1,.882-1.024,7.4,7.4,0,0,1,1.32-.056q14.882,0,29.763,0c.2,0,.393.007.589,0,.812-.032,1.572.154,1.6,1.1s-.719,1.168-1.536,1.165c-1.179,0-2.358,0-3.536,0Z" transform="translate(-2702.159 -2474.422)" fill="#faeff0"/>
          <path id="Trazado_601493" data-name="Trazado 601493" d="M2683.574,2490.769c-1.092-.339-1.285-1.031-.868-2.041.352-.851.618-1.737.923-2.607.6-1.493,1.2-2.984,1.782-4.482.248-.632.6-1.162,1.344-1.158s1.1.509,1.338,1.158c.9,2.427,1.833,4.844,2.746,7.268.273.723.24,1.4-.585,1.7a1.027,1.027,0,0,1-1.433-.849c-.339-1.442-1.451-.963-2.35-1.041-.822-.072-1.561-.053-1.77,1.008A1.407,1.407,0,0,1,2683.574,2490.769Zm3.151-6.049c-.1.616-1,1.086-.406,1.767a.978.978,0,0,0,.928-.064C2687.611,2485.786,2687.033,2485.3,2686.725,2484.72Z" transform="translate(-2669.402 -2474.523)" fill="#fcf8f8"/>
          <path id="Trazado_601494" data-name="Trazado 601494" d="M2736.97,2509.8q-3.235,0-6.471,0c-.753,0-1.435-.167-1.476-1.055-.045-.982.665-1.206,1.48-1.206q6.544,0,13.089,0c.76,0,1.408.242,1.405,1.135s-.641,1.122-1.41,1.122Z" transform="translate(-2702.191 -2493.596)" fill="#faeff0"/>
          <path id="Trazado_601495" data-name="Trazado 601495" d="M2795.125,2509.8c-.98,0-1.961.02-2.94-.006-.729-.019-1.239-.357-1.223-1.156a1.05,1.05,0,0,1,1.159-1.073q3.086-.045,6.173,0a1.066,1.066,0,0,1,1.163,1.081c0,.761-.508,1.137-1.246,1.15C2797.183,2509.811,2796.154,2509.8,2795.125,2509.8Z" transform="translate(-2745.852 -2493.596)" fill="#faeff0"/>
          <path id="Trazado_601496" data-name="Trazado 601496" d="M2746.061,2663.518q-7.438,0-14.876,0a6.045,6.045,0,0,1-1.175-.045,1.082,1.082,0,0,1-.98-1.109,1.039,1.039,0,0,1,.984-1.088,5.7,5.7,0,0,1,1.028-.036q15.1,0,30.2,0c.246,0,.491,0,.736.009a1.13,1.13,0,0,1,1.211,1.051c.057.795-.524,1.108-1.217,1.2a9.455,9.455,0,0,1-1.177.023Z" transform="translate(-2702.198 -2601.93)" fill="#f2f9f4"/>
          <path id="Trazado_601497" data-name="Trazado 601497" d="M2740.9,2690.665q-5.005,0-10.01,0c-.854,0-1.826.03-1.778-1.185.042-1.071.931-1.094,1.749-1.094h20.315c.823.011,1.72.089,1.728,1.135s-.848,1.152-1.7,1.149C2747.766,2690.659,2744.331,2690.665,2740.9,2690.665Z" transform="translate(-2702.252 -2621.068)" fill="#f2f9f4"/>
          <path id="Trazado_601498" data-name="Trazado 601498" d="M2746.129,2600.29q-7.441,0-14.882,0c-.393,0-.787.009-1.178-.021a.913.913,0,0,1-.952-.921,1.007,1.007,0,0,1,.8-1.093,5.314,5.314,0,0,1,1.315-.083q14.956-.006,29.912,0a8.5,8.5,0,0,1,1.176.039,1.032,1.032,0,0,1,.894,1.028.945.945,0,0,1-.878,1.01,6.874,6.874,0,0,1-1.176.042Q2753.643,2600.293,2746.129,2600.29Z" transform="translate(-2702.258 -2557.478)" fill="#fcfdfd"/>
          <path id="Trazado_601499" data-name="Trazado 601499" d="M2683.391,2581.095a1.45,1.45,0,0,1-1.119-1.638q.033-3.5,0-7a1.449,1.449,0,0,1,1.119-1.638c.783.027,1.566.052,2.349.082a2.842,2.842,0,0,1,2.877,3.547,2,2,0,0,0,.259,1.619,3.178,3.178,0,0,1-2.841,4.945C2685.153,2581.032,2684.272,2581.067,2683.391,2581.095Zm2.316-4.273c-.717-.091-1.172.067-1.17.993,0,.855.312,1.122,1.127,1.083.757-.037,1.469-.172,1.5-1.041C2687.2,2576.958,2686.519,2576.747,2685.707,2576.822Zm-.427-3.791c-.507-.043-.724.226-.716.787.009.649.424.67.9.67s.928-.083.913-.683C2686.355,2573.158,2685.88,2573.03,2685.28,2573.031Z" transform="translate(-2669.239 -2538.199)" fill="#f8fbfc"/>
          <path id="Trazado_601500" data-name="Trazado 601500" d="M2738.884,2571.093c2.651,0,5.3,0,7.951,0,.767,0,1.638,0,1.661.987.023,1.04-.824,1.146-1.685,1.144q-7.951-.022-15.9,0c-.832,0-1.71-.045-1.719-1.114-.011-1.179.981-1,1.744-1.006C2733.583,2571.086,2736.234,2571.093,2738.884,2571.093Z" transform="translate(-2702.31 -2538.391)" fill="#fcfdfd"/>
          <path id="Trazado_601501" data-name="Trazado 601501" d="M2808.659,2573.215c-1.616,0-3.232-.006-4.848,0-.719,0-1.344-.242-1.377-1-.038-.863.615-1.121,1.4-1.12q4.848.009,9.7,0c.72,0,1.343.234,1.376,1,.038.865-.618,1.126-1.4,1.125C2811.89,2573.212,2810.274,2573.215,2808.659,2573.215Z" transform="translate(-2753.937 -2538.393)" fill="#fcfdfd"/>
          <path id="Trazado_601502" data-name="Trazado 601502" d="M2695.353,2494.844c.308.579.886,1.066.521,1.7a.979.979,0,0,1-.928.064C2694.348,2495.93,2695.249,2495.46,2695.353,2494.844Z" transform="translate(-2678.03 -2484.647)" fill="#db3a46"/>
          <path id="Trazado_601503" data-name="Trazado 601503" d="M2691.116,2591.105c.812-.074,1.5.136,1.46,1.035-.034.869-.746,1-1.5,1.041-.815.04-1.125-.228-1.127-1.083C2689.944,2591.173,2690.4,2591.014,2691.116,2591.105Z" transform="translate(-2674.648 -2552.483)" fill="#7cbaec"/>
          <path id="Trazado_601504" data-name="Trazado 601504" d="M2690.751,2578.305c.6,0,1.075.127,1.091.772.015.6-.43.684-.913.684s-.886-.021-.895-.67C2690.027,2578.531,2690.245,2578.262,2690.751,2578.305Z" transform="translate(-2674.711 -2543.473)" fill="#7cbaec"/>
        </g>
      </g>
    </g>
    <g id="Grupo_878999" data-name="Grupo 878999" transform="translate(1050.878 8681.879)">
      <g id="Grupo_875625-5" data-name="Grupo 875625" transform="translate(0 0)">
        <g transform="matrix(1, 0, 0, 1, -765.88, -86.28)" filter="url(#Elipse_180-5)">
          <circle id="Elipse_180-10" data-name="Elipse 180" cx="70.091" cy="70.091" r="70.091" transform="translate(765.88 86.28)" fill="#fff"/>
        </g>
      </g>
      <g id="Enmascarar_grupo_700350-5" data-name="Enmascarar grupo 700350" transform="translate(8.104 8.104)" clip-path="url(#clip-path-6)">
        <g id="Grupo_879097" data-name="Grupo 879097" transform="translate(23.696 23.571)">
          <path id="Trazado_601505" data-name="Trazado 601505" d="M2220.383,2539.1a35.578,35.578,0,0,1-23.6-1.414c-13.9-5.8-22.211-16.247-24-31.232-2.382-19.973,10.435-37.527,30.093-41.937,20.873-4.683,42.281,9.845,45.674,31a21.348,21.348,0,0,1,.485,5.044,31.672,31.672,0,0,1-4.27-3.648c-2.664-2.381-5.26-4.838-7.888-7.26-.2-.186-.4-.51-.7-.1-.7-2.163-2.545-3.4-4.022-4.914-2.643-2.713-5.015-2.678-7.721.016-6.048,6.022-12.125,12.016-18.109,18.1-1.06,1.078-1.572.954-2.521-.06-2.353-2.513-4.811-4.928-7.27-7.34a4.389,4.389,0,0,0-6.534-.043c-.943.891-1.844,1.827-2.759,2.747-2.557,2.573-2.568,4.935-.017,7.507q6.907,6.964,13.818,13.923a10.765,10.765,0,0,0,2.575,2.007c-.246.707.433.894.755,1.218q7.457,7.516,14.955,14.993C2219.739,2538.119,2220.3,2538.438,2220.383,2539.1Z" transform="translate(-2172.5 -2463.639)" fill="#70b97e"/>
          <path id="Trazado_601506" data-name="Trazado 601506" d="M2308.771,2549.641c.3-.41.5-.086.7.1,2.628,2.422,5.224,4.879,7.888,7.26a31.661,31.661,0,0,0,4.27,3.648,38.134,38.134,0,0,1-28.653,38.542c-.085-.665-.644-.983-1.054-1.395q-7.475-7.5-14.955-14.994c-.322-.324-1-.511-.754-1.218a5.615,5.615,0,0,0,5.471-1.9q12.542-12.7,25.229-25.253A5.4,5.4,0,0,0,2308.771,2549.641Z" transform="translate(-2245.093 -2523.727)" fill="#5a9f70"/>
          <path id="Trazado_601507" data-name="Trazado 601507" d="M2266.132,2533.9a5.4,5.4,0,0,1-1.858,4.789q-12.662,12.579-25.229,25.253a5.614,5.614,0,0,1-5.471,1.9,10.759,10.759,0,0,1-2.576-2.007q-6.89-6.979-13.818-13.922c-2.551-2.572-2.54-4.935.017-7.507.915-.92,1.816-1.855,2.759-2.748a4.389,4.389,0,0,1,6.534.043c2.458,2.412,4.916,4.827,7.269,7.34.949,1.014,1.46,1.138,2.521.06,5.984-6.085,12.062-12.079,18.109-18.1,2.706-2.695,5.079-2.729,7.721-.016C2263.588,2530.5,2265.436,2531.738,2266.132,2533.9Z" transform="translate(-2202.454 -2507.988)" fill="#fdfefd"/>
        </g>
      </g>
    </g>
    <g id="Grupo_879371" data-name="Grupo 879371" transform="translate(458.028 8620.925)">
      <path id="Trazado_602271" data-name="Trazado 602271" d="M-3951-3252.125v52.136" transform="translate(3976.956 3252.125)" fill="none" stroke="#707070" stroke-width="1" stroke-dasharray="3 3"/>
      <path id="Trazado_602272" data-name="Trazado 602272" d="M0,0V52.136" transform="translate(0 0.85) rotate(-90)" fill="none" stroke="#707070" stroke-width="1"/>
    </g>
    <g id="Grupo_879370" data-name="Grupo 879370" transform="translate(777.296 8620.925)">
      <path id="Trazado_602274" data-name="Trazado 602274" d="M-3951-3252.125v52.136" transform="translate(3976.956 3252.125)" fill="none" stroke="#707070" stroke-width="1" stroke-dasharray="3 3"/>
      <path id="Trazado_602273" data-name="Trazado 602273" d="M0,0V52.136" transform="translate(0 0.85) rotate(-90)" fill="none" stroke="#707070" stroke-width="1"/>
    </g>
    <g id="Grupo_879372" data-name="Grupo 879372" transform="translate(984.96 8896.207) rotate(180)">
      <path id="Trazado_602274-2" data-name="Trazado 602274" d="M0,0V52.136" transform="translate(25.955)" fill="none" stroke="#707070" stroke-width="1" stroke-dasharray="3 3"/>
      <path id="Trazado_602273-2" data-name="Trazado 602273" d="M0,0V52.136" transform="translate(0 0.85) rotate(-90)" fill="none" stroke="#707070" stroke-width="1"/>
    </g>
    <g id="Grupo_879373" data-name="Grupo 879373" transform="translate(663.238 8896.207) rotate(180)">
      <path id="Trazado_602274-3" data-name="Trazado 602274" d="M0,0V52.136" transform="translate(25.955)" fill="none" stroke="#707070" stroke-width="1" stroke-dasharray="3 3"/>
      <path id="Trazado_602273-3" data-name="Trazado 602273" d="M0,0V52.136" transform="translate(0 0.85) rotate(-90)" fill="none" stroke="#707070" stroke-width="1"/>
    </g>
    <g id="Grupo_879369" data-name="Grupo 879369" transform="translate(1088.172 8620.925)">
      <path id="Trazado_602276" data-name="Trazado 602276" d="M-3951-3252.125v52.136" transform="translate(3976.956 3252.125)" fill="none" stroke="#707070" stroke-width="1" stroke-dasharray="3 3"/>
      <path id="Trazado_602275" data-name="Trazado 602275" d="M0,0V52.136" transform="translate(0 0.85) rotate(-90)" fill="none" stroke="#707070" stroke-width="1"/>
    </g>
  </g>
</svg>
